<?xml version="1.0" encoding="utf-8"?>
<!-- Generator: Adobe Illustrator 23.0.1, SVG Export Plug-In . SVG Version: 6.00 Build 0)  -->
<svg version="1.1" id="图层_1" xmlns="http://www.w3.org/2000/svg" xmlns:xlink="http://www.w3.org/1999/xlink" x="0px" y="0px"
	 width="110px" height="30px" viewBox="0 0 110 30" enable-background="new 0 0 110 30" xml:space="preserve">
<g>
	<path fill="#FFFFFF" d="M49.468,15.206c-1.359-0.965-3.316-1.408-5.043-1.798c-0.272-0.062-0.537-0.121-0.797-0.183l-0.062-0.014
		c-1.124-0.255-2.285-0.519-2.909-1.238c-0.246-0.291-0.361-0.605-0.361-0.988c0-0.674,0.305-0.997,0.591-1.246
		c0.707-0.616,2.004-0.836,2.982-0.836c2.195,0,3.183,1.033,3.451,1.37c0.292,0.345,0.46,0.713,0.623,1.158l0.31,0.848l3.203-1.485
		l-0.329-0.746c-0.455-1.031-0.862-1.513-1.248-1.927c-1.369-1.427-3.373-2.15-5.974-2.15c-0.002,0-0.004,0-0.006,0
		c-1.497,0-4.244,0.271-5.873,2.08c-0.749,0.838-1.113,1.813-1.113,2.98c0,1.987,1.078,3.464,3.216,4.394
		c1.154,0.482,2.42,0.756,3.644,1.021l0.597,0.13c2.152,0.503,2.944,0.844,3.393,1.464c0.224,0.304,0.342,0.677,0.342,1.079
		c0,1.652-1.864,2.28-2.42,2.429c-0.83,0.207-1.567,0.207-1.921,0.207c-2.922,0-3.829-1.303-4.044-1.715
		c-0.159-0.293-0.275-0.57-0.325-1.475l-0.067-1.214l-3.508,1.596l0.161,0.667c0.569,2.356,2.381,5.165,7.783,5.165
		c2.687,0,4.197-0.728,5.099-1.276l0.012-0.007c2.345-1.479,2.695-3.406,2.695-4.423C51.568,17.522,50.842,16.185,49.468,15.206z"/>
	<path fill="#FFFFFF" d="M73.073,11.517c-0.846,0-1.558,0.114-2.097,0.331c-0.261,0.099-0.497,0.22-0.706,0.348v-0.517h-3.225
		v12.683h3.225v-5.591c0-1.148,0.019-1.918,0.12-2.464c0.288-1.594,1.575-1.928,2.604-1.928c0.314,0,0.564,0.018,0.862,0.061
		l0.929,0.134l0.063-2.928l-0.761-0.078C73.593,11.517,73.292,11.517,73.073,11.517z"/>
	<polygon fill="#FFFFFF" points="84.978,11.679 81.665,19.298 78.69,11.679 75.335,11.679 80.371,24.362 82.749,24.362 
		88.333,11.679 	"/>
	<path fill="#FFFFFF" d="M109.239,11.568c-0.493-0.051-0.793-0.051-1.013-0.051c-0.846,0-1.558,0.114-2.097,0.331
		c-0.261,0.099-0.497,0.22-0.706,0.348v-0.517h-3.225v12.683h3.225v-5.591c0-1.148,0.019-1.918,0.12-2.464
		c0.288-1.594,1.575-1.928,2.604-1.928c0.314,0,0.564,0.018,0.863,0.061l0.929,0.134L110,11.647L109.239,11.568z"/>
	<path fill="#FFFFFF" d="M59.258,11.504c-1.765,0-3.287,0.666-4.523,1.977c-1.233,1.279-1.857,2.865-1.857,4.715
		c0,1.835,0.625,3.415,1.857,4.693c1.253,1.299,2.774,1.957,4.523,1.957c1.335,0,2.55-0.397,3.607-1.179
		c1.049-0.761,1.828-1.778,2.329-3.064l0.04-0.14h-2.889c-0.297,0.477-0.681,0.882-1.153,1.203c-0.589,0.389-1.24,0.587-1.934,0.587
		c-1.052,0-1.915-0.386-2.64-1.183c-0.593-0.632-0.955-1.372-1.078-2.204h10.076v-0.713c0-1.836-0.625-3.414-1.858-4.693
		C62.505,12.162,60.991,11.504,59.258,11.504z M55.907,16.275c0.249-0.504,0.593-0.945,1.025-1.314
		c0.69-0.56,1.466-0.844,2.304-0.844c0.852,0,1.632,0.282,2.313,0.834c0.44,0.375,0.788,0.819,1.037,1.324H55.907z"/>
	<path fill="#FFFFFF" d="M94.544,11.504c-1.765,0-3.287,0.666-4.523,1.977c-1.233,1.279-1.857,2.865-1.857,4.715
		c0,1.835,0.625,3.415,1.857,4.693c1.253,1.299,2.774,1.957,4.523,1.957c1.335,0,2.55-0.397,3.607-1.179
		c1.049-0.761,1.828-1.778,2.329-3.064l0.04-0.14h-2.889c-0.297,0.477-0.681,0.882-1.153,1.203c-0.589,0.389-1.24,0.587-1.934,0.587
		c-1.052,0-1.915-0.386-2.64-1.183c-0.593-0.632-0.955-1.372-1.079-2.204h10.076v-0.713c0-1.836-0.625-3.414-1.858-4.693
		C97.792,12.162,96.277,11.504,94.544,11.504z M91.193,16.275c0.249-0.504,0.593-0.945,1.025-1.314
		c0.69-0.56,1.466-0.844,2.304-0.844c0.852,0,1.632,0.282,2.313,0.834c0.44,0.375,0.788,0.819,1.037,1.324H91.193z"/>
</g>
<path fill="#0080EA" d="M24.164,5.821c0.423,0.304,0.793,0.633,1.123,0.998c0.329,0.358,0.619,0.75,0.838,1.133
	c0.706,1.238,1.088,2.529,1.104,3.73c0.011,0.812-0.101,1.679-0.326,2.508c-0.784,2.934-2.899,4.721-5.987,5.078
	c1.095,0.112,2.155,0.169,3.156,0.169c3.764,0,5.896-0.799,6.686-1.174c0.281-0.757,0.482-1.636,0.599-2.614
	c0.353-2.976-0.081-5.583-1.255-7.541C27.944,6.597,25.648,6.032,24.164,5.821z"/>
<path fill="#64C8FF" d="M12.126,4.375c-3.228,4.204-0.447,8.342,0.027,8.988c-0.15-1.103-0.099-2.1-0.058-2.437
	c0.442-3.667,2.71-6.035,6.383-6.668c0.566-0.11,1.197-0.167,1.871-0.167c2.984,0,6.34,1.072,8.202,1.983
	c-0.384-0.512-0.844-1.012-1.411-1.533c-1.43-1.317-3.021-2.337-4.727-3.032c-0.87-0.355-1.778-0.534-2.699-0.534
	c-0.163,0-0.326,0.006-0.489,0.017C14.251,1.347,12.146,4.345,12.126,4.375z"/>
<path fill="#19BF31" d="M8.213,27.135c-0.014-0.118-0.098-0.219-0.217-0.263c-1.968-0.737-4.521-2.169-5.5-4.801
	c-0.072-0.195-0.327-0.279-0.508-0.162c-0.97,0.627-1.421,1.651-1.603,2.205c-0.05,0.154-0.053,0.311-0.008,0.456
	c0.24,0.764,0.599,1.444,1.069,2.022c0.397,0.488,0.934,1.107,1.563,1.577c0.835,0.626,1.569,1.108,2.388,1.401
	c0.002,0,0.004,0,0.006,0c0.652,0.043,1.196-0.028,1.684-0.202c0.495-0.176,0.881-0.572,1.034-1.057
	C8.234,27.952,8.265,27.556,8.213,27.135z"/>
<path fill="#43EF20" d="M19.93,20.607c-3.445-0.959-4.748-2.199-4.907-2.359c-0.247-0.158-0.787-0.628-1.073-0.887l-0.18-0.254
	l-1.997-2.462c-1.991-2.089-2.919-4.355-2.751-6.727c0.186-2.634,1.802-4.984,4.322-6.287c1.735-0.897,3.585-1.228,5.068-1.325
	C17.518,0.103,16.59,0,15.643,0C11.284,0,7.388,2.107,5.474,5.498C4.608,7.028,4.067,8.396,3.82,9.68
	c-0.058,0.299-0.11,0.597-0.157,0.896c-0.297,1.729-0.112,3.647,0.565,5.863c0.107,0.352,0.245,0.717,0.433,1.151
	c0.02,0.046,0.017,0.098-0.009,0.142c-0.026,0.043-0.07,0.071-0.12,0.075c-1.189,0.104-2.155,0.478-2.873,1.113
	c-0.744,0.663-1.315,1.752-1.491,2.843l-0.045,0.266c-0.005,0.028-0.011,0.057-0.015,0.087c-0.024,0.137-0.045,0.26-0.049,0.302
	c0.005,0.017,0.007,0.034,0.006,0.051c0,0.003-0.004,0.04-0.004,0.043c-0.002,0.096,0.002,0.168,0.006,0.239l0.001,0.015
	c0.63-1.336,1.483-1.889,2.145-2.114c0.015-0.016,0.032-0.028,0.052-0.036c0.253-0.088,0.503-0.133,0.743-0.133l0.056,0.001
	c1.397,0.042,2.698,0.503,3.676,0.901c0.031,0.012,0.057,0.035,0.074,0.063c0.915,1.507,1.836,3.13,2.18,4.958
	c0.004,0.01,0.007,0.02,0.009,0.03l0.032,0.213c0.021,0.12,0.043,0.241,0.056,0.363c0.003,0.028-0.002,0.055-0.013,0.08
	c0.071,1.002-0.114,1.56-0.122,1.584c-0.163,0.718-0.664,1.104-1.182,1.311c0.64,0.026,1.249,0.011,1.829-0.041
	c1.707-0.156,3.757-1.001,4.984-2.053c0.997-0.854,1.627-2.036,1.823-3.42c0.006-0.041,0.028-0.079,0.062-0.103
	c0.033-0.025,0.075-0.034,0.116-0.028c1.094,0.173,2.544,0.375,4.053,0.4c3.516,0.066,6.602-1.414,8.716-4.145
	c0.006-0.008,0.018-0.027,0.025-0.034l0.066-0.061c0.034-0.031,0.068-0.062,0.1-0.095c0.005-0.006,0.019-0.025,0.042-0.057
	c-1.729,0.464-3.55,0.698-5.418,0.698C21.664,21.047,19.947,20.611,19.93,20.607z"/>
</svg>
