<?xml version="1.0" encoding="utf-8"?>
<!-- Generator: Adobe Illustrator 23.0.2, SVG Export Plug-In . SVG Version: 6.00 Build 0)  -->
<svg version="1.1" id="图层_1" xmlns="http://www.w3.org/2000/svg" xmlns:xlink="http://www.w3.org/1999/xlink" x="0px" y="0px"
	 viewBox="0 0 30 30" enable-background="new 0 0 30 30" xml:space="preserve">
<g>
	<g>
		<path fill="#AFAFAF" d="M13.491,4.973H1.509C0.679,4.973,0,5.651,0,6.481v17.037c0,0.83,0.679,1.509,1.509,1.509h11.983
			c0.83,0,1.509-0.679,1.509-1.509V6.481C15,5.651,14.321,4.973,13.491,4.973L13.491,4.973z M7.5,19.425
			c-1.021,0-1.849-0.828-1.849-1.849s0.828-1.849,1.849-1.849c1.021,0,1.849,0.828,1.849,1.849S8.521,19.425,7.5,19.425L7.5,19.425z
			 M12.625,12.501c0,0.678-0.555,1.233-1.232,1.233H3.607c-0.678,0-1.232-0.555-1.232-1.233c0-0.678,0.555-1.232,1.232-1.232h7.786
			C12.071,11.269,12.625,11.823,12.625,12.501L12.625,12.501z M12.625,8.693c0,0.678-0.555,1.232-1.232,1.232H3.607
			c-0.678,0-1.232-0.555-1.232-1.232c0-0.678,0.555-1.232,1.232-1.232h7.786C12.071,7.461,12.625,8.015,12.625,8.693L12.625,8.693z
			 M12.625,8.693"/>
	</g>
</g>
</svg>
