<?xml version="1.0" encoding="utf-8"?>
<!-- Generator: Adobe Illustrator 23.0.2, SVG Export Plug-In . SVG Version: 6.00 Build 0)  -->
<svg version="1.1" id="图层_1" xmlns="http://www.w3.org/2000/svg" xmlns:xlink="http://www.w3.org/1999/xlink" x="0px" y="0px"
	 viewBox="0 0 30 30" enable-background="new 0 0 30 30" xml:space="preserve">
<g>
	<g>
		<path fill="#A5A5A5" d="M13.716,13.537c0.032-0.249,0.056-0.502,0.056-0.759c0-0.257-0.023-0.509-0.056-0.759l1.69-1.287
			c0.154-0.117,0.196-0.331,0.097-0.498l-1.6-2.694c-0.1-0.167-0.305-0.238-0.487-0.168l-1.991,0.782
			c-0.416-0.312-0.869-0.57-1.35-0.767l-0.3-2.061C9.736,5.136,9.569,5,9.375,5H6.178c-0.193-0.001-0.36,0.136-0.396,0.327
			l-0.3,2.061c-0.482,0.196-0.935,0.453-1.35,0.767L2.141,7.372C1.96,7.304,1.755,7.374,1.654,7.539l-1.6,2.697
			c-0.1,0.167-0.056,0.378,0.097,0.498l1.687,1.287c-0.033,0.249-0.056,0.502-0.056,0.759c0,0.257,0.022,0.509,0.056,0.759
			L0.15,14.822c-0.154,0.117-0.196,0.331-0.097,0.498l1.6,2.694c0.1,0.167,0.305,0.237,0.487,0.168L4.131,17.4
			c0.411,0.308,0.863,0.568,1.35,0.767l0.3,2.061c0.035,0.191,0.202,0.329,0.397,0.328h3.198c0.193,0.001,0.36-0.136,0.396-0.327
			l0.3-2.061c0.482-0.196,0.936-0.453,1.351-0.767l1.99,0.782c0.18,0.067,0.389,0,0.489-0.167l1.598-2.696
			c0.1-0.167,0.056-0.378-0.096-0.498l-1.687-1.287H13.716z M7.776,15.5c-1.547,0-2.798-1.218-2.798-2.722
			c0-1.504,1.251-2.722,2.798-2.722c1.547,0,2.798,1.218,2.798,2.722C10.574,14.282,9.323,15.5,7.776,15.5L7.776,15.5z M7.776,15.5"
			/>
		<path fill="#A5A5A5" d="M19.08,21.49c0.015-0.124,0.028-0.251,0.028-0.379c0-0.128-0.011-0.256-0.028-0.379l0.844-0.644
			c0.077-0.058,0.098-0.165,0.049-0.248l-0.8-1.348c-0.05-0.083-0.153-0.119-0.243-0.083l-0.996,0.39
			c-0.208-0.156-0.435-0.285-0.676-0.383l-0.15-1.03c-0.02-0.095-0.103-0.163-0.2-0.163h-1.598c-0.097-0.001-0.18,0.068-0.198,0.163
			l-0.15,1.03c-0.241,0.098-0.468,0.227-0.676,0.383l-0.996-0.39c-0.091-0.035-0.194,0-0.244,0.083l-0.799,1.348
			c-0.049,0.083-0.029,0.19,0.048,0.249l0.844,0.643c-0.018,0.126-0.027,0.252-0.029,0.379c0,0.128,0.011,0.255,0.028,0.379
			l-0.843,0.644c-0.076,0.059-0.097,0.165-0.048,0.248l0.8,1.348c0.05,0.083,0.153,0.119,0.243,0.083l0.996-0.39
			c0.206,0.153,0.431,0.283,0.676,0.383l0.15,1.03c0.018,0.095,0.101,0.164,0.198,0.163h1.599c0.097,0.001,0.18-0.068,0.198-0.163
			l0.15-1.03c0.243-0.1,0.469-0.228,0.674-0.383l0.996,0.39c0.09,0.033,0.194,0,0.244-0.083l0.8-1.348
			c0.049-0.083,0.028-0.19-0.049-0.249l-0.844-0.643H19.08z M16.11,22.472c-0.773,0-1.399-0.609-1.399-1.361
			c0-0.752,0.626-1.361,1.4-1.361c0.772,0,1.398,0.609,1.398,1.361C17.509,21.863,16.884,22.472,16.11,22.472L16.11,22.472z
			 M16.11,22.472"/>
	</g>
</g>
</svg>
