<?xml version="1.0" encoding="utf-8"?>
<!-- Generator: Adobe Illustrator 23.0.2, SVG Export Plug-In . SVG Version: 6.00 Build 0)  -->
<svg version="1.1" id="图层_1" xmlns="http://www.w3.org/2000/svg" xmlns:xlink="http://www.w3.org/1999/xlink" x="0px" y="0px"
	 viewBox="0 0 30 30" enable-background="new 0 0 30 30" xml:space="preserve">
<g>
	<polygon fill="#AFAFAF" points="12.801,15.497 14.439,15.497 14.132,13.244 	"/>
	<path fill="#AFAFAF" d="M8.5,6.382c-4.694,0-8.5,3.806-8.5,8.5s3.806,8.5,8.5,8.5s8.5-3.806,8.5-8.5S13.194,6.382,8.5,6.382z
		 M5.223,17.545H1.149l-0.022,0.102v-0.102h0.022l1.207-5.53h1.126l-1.024,4.608h2.97L5.223,17.545z M9.217,17.238
		c-0.41,0.205-0.819,0.307-1.331,0.307c-0.614,0-1.127-0.205-1.536-0.512c-0.307-0.307-0.512-0.717-0.512-1.229v-0.307
		c0-0.103,0.102-0.307,0.102-0.717l0.717-2.765h1.127L7.17,15.087l-0.102,0.717v0.205c0,0.205,0.102,0.41,0.205,0.512
		c0.205,0.102,0.409,0.205,0.717,0.205c0.307,0,0.512-0.103,0.717-0.205c0.205-0.102,0.307-0.307,0.41-0.512
		c0.102-0.205,0.205-0.512,0.307-1.024l0.615-3.072h1.126l-0.614,3.072c-0.102,0.615-0.307,1.127-0.512,1.434
		C9.831,16.726,9.626,17.033,9.217,17.238z M14.542,16.418h-2.253l-0.717,1.229h-1.229l3.277-5.632h1.331l0.922,5.53h-1.126
		L14.542,16.418z"/>
</g>
</svg>
