<?xml version="1.0" encoding="utf-8"?>
<!-- Generator: Adobe Illustrator 23.0.2, SVG Export Plug-In . SVG Version: 6.00 Build 0)  -->
<svg version="1.1" id="图层_1" xmlns="http://www.w3.org/2000/svg" xmlns:xlink="http://www.w3.org/1999/xlink" x="0px" y="0px"
	 viewBox="0 0 30 30" enable-background="new 0 0 30 30" xml:space="preserve">
<g>
	<path fill="#AFAFAF" d="M3.507,11.934v1.522h-1.39v-1.522H3.507z"/>
	<path fill="#AFAFAF" d="M10.551,13.457h-1.36c-1.673-2.91-2.54-4.433-2.6-4.567C6.41,8.551,6.288,8.314,6.228,8.179
		c0.02,0.203,0.03,0.621,0.03,1.252v4.026H5.019V6.385H6.44c1.612,2.889,2.458,4.399,2.539,4.535c0.201,0.36,0.312,0.598,0.333,0.71
		h0.029c-0.02-0.157-0.029-0.519-0.029-1.083V6.385h1.239V13.457z"/>
	<path fill="#AFAFAF" d="M16.869,13.457h-4.958V6.385h4.837v1.219h-3.507v1.658h3.295v1.218h-3.295v1.827h3.628V13.457z"/>
	<path fill="#AFAFAF" d="M23.005,7.603h-2.086v5.854h-1.3V7.603h-2.116V6.385h5.502C23.005,6.385,23.005,7.603,23.005,7.603z"/>
</g>
<g>
	<path fill="#AFAFAF" d="M5.683,17.743l-1.239,0.339c-0.242-0.79-0.726-1.207-1.451-1.252c-1.028,0.067-1.572,0.868-1.633,2.402
		c0.061,1.512,0.615,2.323,1.663,2.437c0.826,0,1.319-0.542,1.481-1.625l1.27,0.474c-0.323,1.557-1.239,2.347-2.751,2.369
		C1.088,22.796,0.081,21.579,0,19.233c0.101-2.323,1.108-3.542,3.023-3.654C4.393,15.645,5.28,16.367,5.683,17.743z"/>
	<path fill="#AFAFAF" d="M9.644,15.578c1.935,0.135,2.973,1.364,3.113,3.688c-0.101,2.302-1.148,3.508-3.144,3.621
		c-1.976-0.136-3.014-1.342-3.114-3.621C6.6,16.919,7.649,15.69,9.644,15.578z M9.584,21.668c1.108-0.045,1.683-0.847,1.723-2.403
		c-0.04-1.557-0.614-2.368-1.723-2.436c-1.068,0.09-1.633,0.902-1.693,2.436C7.931,20.8,8.495,21.6,9.584,21.668z"/>
	<path fill="#AFAFAF" d="M19.469,22.751h-1.693l-1.632-2.774h-0.968v2.774h-1.33v-7.072h2.902c1.511,0.046,2.307,0.745,2.388,2.099
		c0,1.173-0.534,1.872-1.602,2.098L19.469,22.751z M15.176,16.83v2.03h1.33c0.847,0,1.26-0.339,1.239-1.016
		c0.021-0.677-0.393-1.015-1.239-1.015L15.176,16.83L15.176,16.83z"/>
	<path fill="#AFAFAF" d="M25.122,22.751h-4.958v-7.072h4.837v1.219h-3.507v1.658h3.295v1.218h-3.295V21.6h3.628V22.751z"/>
</g>
</svg>
