<?xml version="1.0" encoding="utf-8"?>
<!-- Generator: Adobe Illustrator 23.0.2, SVG Export Plug-In . SVG Version: 6.00 Build 0)  -->
<svg version="1.1" id="图层_1" xmlns="http://www.w3.org/2000/svg" xmlns:xlink="http://www.w3.org/1999/xlink" x="0px" y="0px"
	 viewBox="0 0 30 30" enable-background="new 0 0 30 30" xml:space="preserve">
<g>
	<path fill="#AFAFAF" d="M1.656,17.328v1.813H0v-1.813H1.656z"/>
	<path fill="#AFAFAF" d="M10.047,19.142h-1.62c-1.993-3.467-3.025-5.28-3.098-5.441c-0.216-0.403-0.359-0.686-0.432-0.847
		c0.023,0.241,0.036,0.739,0.036,1.491v4.797H3.457v-8.425h1.692c1.921,3.44,2.929,5.24,3.025,5.401
		c0.239,0.431,0.372,0.713,0.396,0.847h0.036c-0.024-0.188-0.036-0.618-0.036-1.29v-4.958h1.477
		C10.047,10.717,10.047,19.142,10.047,19.142z"/>
	<path fill="#AFAFAF" d="M17.573,19.142h-5.906v-8.425h5.763v1.451h-4.178v1.976h3.925v1.451h-3.925v2.177h4.321V19.142z"/>
	<path fill="#AFAFAF" d="M24.884,12.168h-2.485v6.974h-1.548v-6.974H18.33v-1.451h6.555L24.884,12.168L24.884,12.168z"/>
</g>
</svg>
