<?xml version="1.0" encoding="utf-8"?>
<!-- Generator: Adobe Illustrator 23.0.2, SVG Export Plug-In . SVG Version: 6.00 Build 0)  -->
<svg version="1.1" id="图层_1" xmlns="http://www.w3.org/2000/svg" xmlns:xlink="http://www.w3.org/1999/xlink" x="0px" y="0px"
	 viewBox="0 0 30 30" enable-background="new 0 0 30 30" xml:space="preserve">
<g>
	<g>
		<path fill="#AFAFAF" d="M7.123,9.539c-0.074,0.004-0.14,0.05-0.168,0.119C6.922,9.73,6.891,9.765,6.863,9.765
			C6.826,9.773,6.808,9.754,6.808,9.71c0-0.091,0.069-0.147,0.207-0.17h0.108V9.539z M8.068,9.697
			C8.038,9.704,7.997,9.68,7.943,9.624c-0.047-0.054-0.122-0.075-0.19-0.05c0.175-0.083,0.29-0.076,0.348,0.023
			C8.122,9.641,8.111,9.674,8.068,9.697L8.068,9.697z M4.253,14.506c-0.028-0.007-0.05,0.005-0.064,0.034
			c-0.02,0.046-0.037,0.093-0.05,0.141c-0.014,0.053-0.034,0.104-0.06,0.152c-0.021,0.037-0.058,0.086-0.108,0.147
			C3.92,15.054,3.917,15.1,3.96,15.114c0.03,0.007,0.075-0.018,0.136-0.079c0.059-0.057,0.106-0.126,0.136-0.202
			c0.008-0.026,0.016-0.052,0.022-0.079c0.005-0.023,0.013-0.046,0.022-0.068c0.014-0.03,0.021-0.063,0.022-0.096v-0.034
			l-0.011-0.028C4.28,14.509,4.269,14.5,4.255,14.505L4.253,14.506L4.253,14.506z M13.545,18.551c0-0.136-0.199-0.294-0.598-0.474
			c0.029-0.112,0.056-0.216,0.082-0.309c0.026-0.096,0.044-0.194,0.054-0.293c0.01-0.101,0.021-0.182,0.032-0.242
			c0.011-0.061,0.013-0.145,0.005-0.254c-0.006-0.073-0.009-0.146-0.011-0.22c0-0.037-0.012-0.119-0.037-0.247
			c-0.016-0.077-0.031-0.154-0.044-0.231c-0.017-0.094-0.035-0.188-0.055-0.282l-0.059-0.298c-0.073-0.36-0.243-0.747-0.511-1.16
			c-0.269-0.414-0.529-0.695-0.783-0.846c0.175,0.151,0.381,0.462,0.62,0.936c0.63,1.216,0.826,2.26,0.587,3.131
			c-0.08,0.3-0.261,0.458-0.543,0.472c-0.224,0.03-0.364-0.039-0.418-0.208c-0.055-0.169-0.083-0.483-0.087-0.941
			c0.002-0.405-0.04-0.809-0.125-1.205c-0.057-0.262-0.127-0.522-0.211-0.777c-0.056-0.177-0.126-0.349-0.211-0.513
			c-0.052-0.094-0.108-0.186-0.168-0.276c-0.042-0.061-0.089-0.118-0.142-0.169c-0.028-0.026-0.055-0.052-0.082-0.079
			c-0.081-0.395-0.193-0.783-0.337-1.16c-0.123-0.308-0.23-0.519-0.321-0.631c-0.094-0.118-0.18-0.242-0.256-0.372
			c-0.081-0.139-0.136-0.292-0.163-0.45c-0.029-0.158-0.007-0.358,0.065-0.603c0.073-0.245,0.089-0.43,0.049-0.558
			c-0.04-0.127-0.2-0.221-0.484-0.281c-0.108-0.022-0.269-0.09-0.484-0.202C8.695,9.696,8.567,9.635,8.523,9.628
			C8.467,9.622,8.427,9.524,8.405,9.337c-0.021-0.196,0.01-0.394,0.087-0.575c0.08-0.195,0.21-0.297,0.392-0.303
			c0.267-0.023,0.452,0.089,0.554,0.337c0.101,0.248,0.116,0.466,0.043,0.653c-0.08,0.143-0.087,0.243-0.022,0.299
			c0.064,0.057,0.175,0.059,0.326,0.006c0.094-0.03,0.141-0.165,0.141-0.405V8.931C9.898,8.739,9.849,8.55,9.779,8.368
			C9.694,8.139,9.52,7.954,9.296,7.855C9.201,7.817,9.102,7.789,9.002,7.771C8.227,7.831,7.905,8.334,8.036,9.28
			c0,0.113-0.004,0.169-0.011,0.169C7.96,9.382,7.853,9.342,7.704,9.331c-0.119-0.012-0.24-0.01-0.358,0.006
			c-0.09,0.015-0.147-0.004-0.168-0.056c0.007-0.428-0.05-0.767-0.175-1.014C6.881,8.019,6.718,7.891,6.515,7.884
			c-0.196-0.007-0.347,0.095-0.45,0.31C5.961,8.403,5.9,8.631,5.885,8.864C5.878,8.976,5.89,9.115,5.923,9.28
			c0.033,0.166,0.08,0.306,0.142,0.423c0.062,0.116,0.118,0.166,0.168,0.152C6.31,9.829,6.374,9.771,6.408,9.697
			C6.436,9.63,6.411,9.6,6.331,9.607c-0.051,0-0.107-0.055-0.168-0.164C6.1,9.327,6.064,9.198,6.06,9.066
			C6.048,8.92,6.082,8.775,6.157,8.65c0.073-0.113,0.196-0.165,0.37-0.158c0.123,0,0.221,0.079,0.294,0.236
			c0.072,0.158,0.107,0.304,0.103,0.439c0,0.083-0.005,0.166-0.016,0.248C6.776,9.501,6.662,9.612,6.571,9.741
			C6.492,9.85,6.39,9.94,6.272,10.005c-0.076,0.045-0.151,0.092-0.224,0.142c-0.082,0.084-0.141,0.189-0.168,0.303
			c-0.018,0.098,0.009,0.165,0.081,0.203c0.101,0.06,0.193,0.134,0.272,0.221c0.079,0.085,0.138,0.156,0.175,0.213
			c0.036,0.057,0.103,0.106,0.2,0.147s0.226,0.064,0.386,0.073c0.34,0.015,0.71-0.041,1.108-0.169
			c0.015-0.007,0.098-0.034,0.25-0.079c0.153-0.045,0.278-0.085,0.375-0.118c0.098-0.034,0.205-0.083,0.321-0.147
			s0.192-0.129,0.228-0.197c0.065-0.106,0.138-0.135,0.218-0.09c0.035,0.021,0.06,0.056,0.07,0.096c0.011,0.041,0,0.087-0.032,0.135
			c-0.033,0.049-0.092,0.085-0.179,0.108c-0.145,0.045-0.349,0.126-0.615,0.242c-0.264,0.117-0.429,0.189-0.494,0.22
			c-0.319,0.142-0.573,0.23-0.761,0.259c-0.181,0.037-0.468,0.029-0.859-0.023c-0.073-0.015-0.105-0.007-0.098,0.023
			s0.069,0.101,0.185,0.214c0.181,0.173,0.424,0.255,0.729,0.247c0.122-0.007,0.253-0.034,0.391-0.079s0.268-0.097,0.392-0.158
			c0.123-0.06,0.245-0.125,0.364-0.197c0.12-0.072,0.228-0.135,0.326-0.191C9.01,11.347,9.1,11.302,9.18,11.268
			c0.079-0.034,0.142-0.043,0.189-0.028c0.048,0.015,0.078,0.055,0.093,0.123c0,0.017-0.004,0.035-0.011,0.05
			c-0.01,0.022-0.024,0.041-0.043,0.056c-0.048,0.042-0.101,0.078-0.158,0.108c-0.032,0.018-0.064,0.035-0.097,0.05
			c-0.037,0.017-0.073,0.036-0.109,0.056c-0.033,0.019-0.068,0.037-0.103,0.052c-0.203,0.105-0.448,0.27-0.734,0.495
			c-0.287,0.225-0.528,0.386-0.723,0.484c-0.196,0.097-0.373,0.101-0.533,0.011c-0.152-0.083-0.38-0.357-0.684-0.822
			c-0.16-0.234-0.25-0.316-0.272-0.248c-0.009,0.037-0.013,0.075-0.011,0.113c0,0.188-0.054,0.399-0.163,0.636
			c-0.097,0.213-0.204,0.422-0.321,0.625c-0.113,0.203-0.19,0.424-0.228,0.653c-0.047,0.257-0.006,0.493,0.125,0.711
			c-0.167,0.045-0.394,0.382-0.68,1.013c-0.285,0.632-0.457,1.16-0.515,1.589c-0.018,0.258-0.024,0.518-0.017,0.777
			c0.004,0.383-0.016,0.605-0.06,0.665c-0.058,0.18-0.163,0.192-0.315,0.034c-0.232-0.233-0.362-0.586-0.391-1.058
			c-0.015-0.212,0-0.421,0.044-0.632c0.028-0.142,0.025-0.209-0.011-0.202l-0.043,0.055c-0.261,0.489-0.225,1.112,0.108,1.871
			c0.036,0.09,0.126,0.195,0.271,0.315c0.145,0.119,0.232,0.195,0.261,0.225c0.144,0.173,0.521,0.512,1.131,1.019
			c0.608,0.508,0.945,0.794,1.01,0.862c0.116,0.113,0.184,0.266,0.19,0.428c0.01,0.175-0.044,0.347-0.153,0.484
			c-0.112,0.151-0.278,0.237-0.495,0.259c0.058,0.113,0.163,0.279,0.315,0.501c0.152,0.222,0.253,0.425,0.304,0.609
			s0.077,0.449,0.077,0.794c0.333-0.18,0.359-0.526,0.075-1.037c-0.031-0.064-0.07-0.124-0.114-0.18
			c-0.035-0.045-0.069-0.09-0.103-0.135c-0.022-0.03-0.029-0.052-0.022-0.067c0.022-0.038,0.069-0.073,0.142-0.108
			c0.072-0.034,0.144-0.024,0.217,0.028c0.334,0.391,0.935,0.527,1.804,0.406c0.964-0.113,1.605-0.439,1.924-0.98
			c0.166-0.285,0.289-0.398,0.37-0.338c0.087,0.046,0.123,0.241,0.108,0.586c-0.007,0.188-0.09,0.533-0.25,1.036
			c-0.064,0.173-0.087,0.314-0.065,0.423c0.021,0.108,0.109,0.167,0.261,0.175c0.021-0.143,0.074-0.432,0.157-0.868
			c0.083-0.435,0.132-0.773,0.147-1.014c0.015-0.157-0.009-0.433-0.071-0.827c-0.059-0.361-0.087-0.727-0.082-1.093
			c0.007-0.334,0.091-0.598,0.25-0.793c0.11-0.135,0.294-0.203,0.555-0.203c0.007-0.278,0.132-0.477,0.375-0.598
			c0.243-0.12,0.506-0.159,0.788-0.118C13.177,18.338,13.394,18.422,13.545,18.551L13.545,18.551z M6.72,9.234
			c0.023-0.113,0.013-0.23-0.028-0.337C6.653,8.799,6.611,8.742,6.568,8.728C6.503,8.712,6.47,8.739,6.47,8.807
			c0.015,0.037,0.033,0.06,0.055,0.067c0.072,0,0.098,0.057,0.075,0.169C6.579,9.194,6.607,9.268,6.687,9.268
			C6.71,9.268,6.72,9.257,6.72,9.234L6.72,9.234z M11.275,11.453c-0.009-0.049-0.034-0.095-0.071-0.129
			c-0.042-0.031-0.09-0.05-0.142-0.057c-0.101-0.02-0.193-0.073-0.261-0.152c-0.047-0.053-0.092-0.107-0.135-0.164
			c-0.013-0.017-0.028-0.032-0.044-0.045c-0.007-0.004-0.021,0.002-0.043,0.017c-0.101,0.12-0.076,0.284,0.076,0.49
			c0.153,0.207,0.294,0.324,0.424,0.355c0.064,0.007,0.118-0.022,0.157-0.09C11.276,11.61,11.29,11.53,11.275,11.453L11.275,11.453z
			 M9.339,9.053c0-0.083-0.018-0.156-0.054-0.219c-0.029-0.056-0.07-0.104-0.12-0.142c-0.043-0.03-0.076-0.041-0.097-0.033
			C8.967,8.666,8.941,8.692,8.992,8.737L9.035,8.76c0.101,0.03,0.167,0.147,0.196,0.349c0,0.023,0.029,0.015,0.087-0.023
			L9.339,9.053z M9.927,6.43c0-0.016-0.009-0.034-0.028-0.056C9.871,6.343,9.838,6.316,9.802,6.295
			C9.767,6.272,9.733,6.25,9.699,6.226C9.59,6.113,9.503,6.057,9.438,6.057C9.373,6.064,9.331,6.093,9.313,6.142
			C9.295,6.189,9.291,6.24,9.302,6.289c0.011,0.046,0.009,0.094-0.005,0.14C9.283,6.472,9.261,6.512,9.233,6.548
			C9.207,6.579,9.185,6.613,9.167,6.649C9.16,6.667,9.171,6.699,9.2,6.744c0.028,0.023,0.058,0.023,0.086,0
			c0.041-0.033,0.081-0.066,0.12-0.101C9.454,6.6,9.509,6.566,9.57,6.542c0.007-0.007,0.04-0.011,0.097-0.011
			c0.055,0,0.11-0.007,0.163-0.023C9.88,6.493,9.912,6.466,9.927,6.43L9.927,6.43z M16.068,21.534
			c0.144,0.09,0.257,0.182,0.336,0.276c0.08,0.094,0.123,0.184,0.131,0.27c0.007,0.085-0.002,0.172-0.027,0.254
			c-0.034,0.096-0.092,0.181-0.168,0.248c-0.087,0.082-0.172,0.154-0.255,0.219c-0.084,0.064-0.193,0.133-0.326,0.209
			c-0.226,0.126-0.456,0.247-0.689,0.36c-0.138,0.067-0.236,0.116-0.294,0.146c-0.276,0.142-0.585,0.353-0.929,0.631
			c-0.344,0.278-0.618,0.519-0.82,0.721c-0.123,0.119-0.37,0.193-0.739,0.22c-0.37,0.026-0.692-0.028-0.967-0.164
			c-0.126-0.063-0.236-0.153-0.322-0.264c-0.07-0.089-0.13-0.185-0.178-0.288c-0.037-0.083-0.117-0.156-0.239-0.22
			c-0.123-0.063-0.294-0.099-0.511-0.107c-0.319-0.007-0.791-0.011-1.413-0.011c-0.138,0-0.344,0.006-0.62,0.017
			s-0.485,0.021-0.631,0.027c-0.318,0.008-0.607,0.064-0.864,0.17c-0.257,0.105-0.45,0.218-0.581,0.337
			c-0.13,0.121-0.288,0.227-0.472,0.322c-0.184,0.094-0.379,0.137-0.582,0.129c-0.21-0.007-0.611-0.123-1.206-0.349
			c-0.516-0.201-1.046-0.363-1.587-0.484c-0.138-0.03-0.322-0.066-0.554-0.107c-0.182-0.032-0.363-0.066-0.543-0.101
			c-0.145-0.03-0.288-0.066-0.429-0.108c-0.13-0.033-0.253-0.088-0.364-0.163c-0.08-0.056-0.143-0.131-0.184-0.22
			c-0.074-0.173-0.048-0.423,0.075-0.749c0.123-0.326,0.188-0.53,0.196-0.613c0.004-0.151-0.01-0.303-0.043-0.451
			c-0.032-0.161-0.068-0.32-0.108-0.479c-0.037-0.139-0.052-0.276-0.05-0.411c0.004-0.136,0.042-0.237,0.114-0.304
			c0.101-0.09,0.309-0.143,0.62-0.158c0.312-0.016,0.529-0.061,0.653-0.135c0.217-0.135,0.37-0.266,0.456-0.394
			c0.087-0.128,0.131-0.319,0.131-0.575c0.153,0.548,0.037,0.947-0.348,1.194c-0.232,0.15-0.533,0.206-0.903,0.168
			c-0.246-0.022-0.402,0.016-0.467,0.113c-0.094,0.112-0.076,0.326,0.055,0.642c0.014,0.046,0.042,0.113,0.086,0.202
			c0.043,0.091,0.074,0.158,0.092,0.204c0.018,0.045,0.035,0.108,0.05,0.191c0.014,0.083,0.018,0.166,0.01,0.248
			c0,0.112-0.062,0.296-0.184,0.552c-0.123,0.255-0.175,0.435-0.153,0.54c0.021,0.129,0.156,0.225,0.402,0.293
			c0.145,0.045,0.451,0.114,0.919,0.208c0.467,0.094,0.827,0.171,1.08,0.232c0.175,0.045,0.442,0.128,0.804,0.248
			c0.363,0.12,0.662,0.205,0.897,0.258c0.235,0.052,0.436,0.068,0.603,0.045c0.312-0.046,0.545-0.151,0.701-0.316
			c0.146-0.144,0.235-0.336,0.25-0.541c0.008-0.223-0.019-0.445-0.081-0.659c-0.05-0.201-0.119-0.398-0.207-0.586
			c-0.069-0.139-0.141-0.276-0.217-0.411c-0.877-1.427-1.489-2.335-1.837-2.727c-0.493-0.555-0.902-0.706-1.228-0.45
			c-0.08,0.068-0.134,0.011-0.163-0.169c-0.023-0.141-0.03-0.285-0.022-0.427c0.007-0.218,0.043-0.414,0.108-0.586
			c0.064-0.173,0.152-0.349,0.26-0.53c0.109-0.18,0.188-0.338,0.239-0.473c0.058-0.157,0.154-0.428,0.289-0.811
			c0.133-0.383,0.241-0.676,0.32-0.878c0.08-0.202,0.188-0.432,0.326-0.688c0.138-0.255,0.279-0.458,0.424-0.608
			c0.797-1.074,1.247-1.807,1.348-2.197c-0.086-0.84-0.144-2.004-0.174-3.492C5.349,7.348,5.436,6.779,5.625,6.318
			c0.188-0.462,0.573-0.854,1.152-1.177c0.282-0.158,0.659-0.237,1.131-0.237C8.29,4.9,8.674,4.95,9.057,5.06
			c0.35,0.092,0.678,0.251,0.967,0.467c0.414,0.316,0.745,0.772,0.995,1.37c0.25,0.596,0.357,1.149,0.321,1.66
			c-0.037,0.713,0.073,1.517,0.326,2.41c0.246,0.849,0.728,1.668,1.445,2.456c0.398,0.443,0.758,1.055,1.081,1.836
			c0.322,0.781,0.538,1.499,0.646,2.151c0.058,0.368,0.076,0.686,0.055,0.952c-0.022,0.267-0.066,0.475-0.131,0.625
			c-0.064,0.15-0.138,0.233-0.217,0.248c-0.073,0.015-0.157,0.086-0.255,0.213c-0.101,0.131-0.198,0.265-0.293,0.4
			c-0.118,0.156-0.268,0.285-0.44,0.377c-0.196,0.113-0.417,0.166-0.663,0.158c-0.116-0.005-0.231-0.024-0.342-0.056
			c-0.094-0.028-0.178-0.08-0.245-0.152C12.255,20.12,12.206,20.061,12.16,20c-0.048-0.074-0.09-0.151-0.125-0.232
			c-0.034-0.072-0.067-0.145-0.097-0.219c-0.159-0.278-0.308-0.391-0.446-0.338c-0.138,0.053-0.239,0.236-0.303,0.552
			c-0.065,0.315-0.04,0.68,0.076,1.093c0.145,0.525,0.149,1.258,0.011,2.196c-0.073,0.487-0.007,0.865,0.196,1.132
			c0.202,0.267,0.467,0.391,0.793,0.372c0.325-0.019,0.634-0.153,0.924-0.4c0.427-0.368,0.751-0.618,0.973-0.749
			c0.221-0.131,0.596-0.291,1.124-0.478c0.384-0.136,0.663-0.273,0.837-0.412c0.175-0.139,0.241-0.268,0.202-0.389
			c-0.04-0.119-0.131-0.227-0.272-0.321c-0.176-0.111-0.364-0.199-0.561-0.265c-0.239-0.083-0.417-0.263-0.537-0.541
			c-0.115-0.256-0.171-0.535-0.164-0.816c0.011-0.267,0.067-0.445,0.168-0.535c0.007,0.232,0.037,0.445,0.087,0.636
			c0.051,0.192,0.103,0.344,0.157,0.457c0.055,0.112,0.129,0.22,0.223,0.321s0.17,0.173,0.228,0.214
			c0.076,0.052,0.153,0.101,0.234,0.146C15.986,21.483,16.046,21.518,16.068,21.534L16.068,21.534z"/>
	</g>
</g>
</svg>
