<?xml version="1.0" encoding="utf-8"?>
<!-- Generator: Adobe Illustrator 23.0.2, SVG Export Plug-In . SVG Version: 6.00 Build 0)  -->
<svg version="1.1" id="图层_1" xmlns="http://www.w3.org/2000/svg" xmlns:xlink="http://www.w3.org/1999/xlink" x="0px" y="0px"
	 viewBox="0 0 30 30" enable-background="new 0 0 30 30" xml:space="preserve">
<g>
	<g>
		<path fill="#AFAFAF" d="M12.643,8.361c-0.582,0.409-1.156,0.764-1.784,1.274c-0.473,0.382-1.329,0.91-1.374,1.629
			c-0.073,1.083,1.602,2.084,0.71,3.458c-0.337,0.528-0.91,0.746-1.629,1.065c-0.091-0.155,0.191-0.291,0.309-0.455
			c1.11-1.611-1.156-2.148-0.865-4.123C8.302,9.235,10.541,8.625,12.643,8.361L12.643,8.361z M5.563,14.977
			c-0.528,0.246-1.401,0.291-1.784,0.819c0.391,0.291,0.956,0.282,1.474,0.309c2.148,0.1,4.832-0.082,6.671-0.409
			c0.064,0.136-0.255,0.364-0.455,0.51c-1.156,0.846-4.751,1.083-7.226,0.919c-0.828-0.055-2.73-0.273-2.748-1.019
			c-0.027-0.901,2.302-1.001,3.258-1.065c0.191-0.018,0.537-0.091,0.819-0.055L5.563,14.977z M4.498,17.271
			c0.237,0.027-0.164,0.173-0.1,0.355c0.874,0.865,3.604,0.619,4.942,0.355c0.282-0.055,0.564-0.227,0.764-0.2
			c0.51,0.045,0.837,0.637,1.274,0.71c-1.556,0.701-4.541,1.028-6.725,0.61c-0.564-0.109-1.547-0.41-1.575-0.865
			c-0.045-0.619,0.974-0.874,1.429-0.965C4.507,17.271,4.498,17.271,4.498,17.271z M5.162,19.355c0.155,0.055-0.055,0.137-0.055,0.2
			c0.464,0.801,2.757,0.519,3.922,0.255c0.237-0.055,0.464-0.218,0.664-0.2c0.592,0.036,0.819,0.655,1.32,0.764
			c-1.629,0.992-5.56,1.392-7.18,0.155c-0.073-0.91,0.655-1.01,1.32-1.174H5.162z M3.679,20.884
			c-0.482,0.118-1.738-0.055-1.784,0.61c-0.018,0.255,0.428,0.555,0.71,0.664c1.656,0.628,4.996,0.719,7.735,0.41
			c1.274-0.146,3.668-0.573,3.358-1.884c0.382,0.045,0.719,0.291,0.764,0.664c0.155,1.402-3.076,1.993-4.377,2.139
			c-2.839,0.309-6.38,0.246-8.555-0.51c-0.71-0.246-1.565-0.701-1.529-1.374c0.064-1.138,2.812-1.456,3.668-0.71L3.679,20.884z
			 M8.011,25.106c-1.911-0.209-3.749-0.491-5.297-1.174c4.05,0.974,9.947,0.901,12.777-1.174c0.155-0.109,0.291-0.328,0.51-0.309
			c-0.71,2.139-3.449,2.284-5.806,2.648H8.011V25.106z M9.33,4.903C9.685,5.24,9.94,5.868,9.94,6.532
			c0,1.966-2.084,3.112-3.103,4.432c-0.228,0.291-0.51,0.746-0.51,1.219c0.009,1.074,1.119,2.275,1.529,3.158
			c-0.71-0.464-1.574-1.092-2.193-1.829c-0.619-0.737-1.22-1.938-0.655-2.967c0.837-1.547,3.34-2.466,4.223-4.123
			c0.219-0.4,0.382-1.019,0.1-1.529v0.01H9.33z M12.333,15.496c1.047-0.892,2.821-0.546,2.903,0.965
			c0.091,1.775-1.857,2.767-3.258,2.849c0.655-0.619,2.375-1.62,2.038-3.058c-0.137-0.583-0.865-0.928-1.684-0.765L12.333,15.496
			L12.333,15.496z"/>
	</g>
</g>
</svg>
