<?xml version="1.0" encoding="utf-8"?>
<!-- Generator: Adobe Illustrator 23.0.2, SVG Export Plug-In . SVG Version: 6.00 Build 0)  -->
<svg version="1.1" id="图层_1" xmlns="http://www.w3.org/2000/svg" xmlns:xlink="http://www.w3.org/1999/xlink" x="0px" y="0px"
	 viewBox="0 0 30 30" enable-background="new 0 0 30 30" xml:space="preserve">
<path fill="#AFAFAF" d="M4.805,13.106c0.749,0,1.248,0.14,1.497,0.416c0.25,0.276,0.308,0.751,0.177,1.424
	c-0.136,0.701-0.399,1.203-0.789,1.5c-0.389,0.3-0.982,0.448-1.776,0.448H2.718l0.735-3.788C3.453,13.106,4.805,13.106,4.805,13.106
	z M0,20.731h1.972l0.467-2.407h1.69c0.746,0,1.358-0.078,1.84-0.236c0.481-0.155,0.918-0.418,1.312-0.789
	c0.33-0.303,0.598-0.639,0.802-1.006c0.204-0.364,0.349-0.769,0.435-1.212c0.209-1.073,0.051-1.91-0.472-2.509
	c-0.523-0.598-1.355-0.899-2.495-0.899H1.76L0,20.731z M9.967,9.269h1.956l-0.467,2.407H13.2c1.098,0,1.854,0.19,2.27,0.574
	c0.416,0.383,0.542,1.003,0.376,1.859l-0.818,4.213H13.04l0.778-4.006c0.089-0.456,0.056-0.767-0.097-0.931
	c-0.153-0.166-0.481-0.25-0.982-0.25h-1.564l-1.009,5.187H8.21L9.967,9.269z M20.197,13.106c0.749,0,1.248,0.14,1.497,0.416
	c0.25,0.276,0.308,0.751,0.177,1.424c-0.137,0.701-0.4,1.203-0.789,1.5c-0.39,0.3-0.982,0.448-1.776,0.448h-1.2l0.735-3.788
	C18.841,13.106,20.197,13.106,20.197,13.106z M15.392,20.731h1.972l0.467-2.407h1.691c0.746,0,1.357-0.078,1.841-0.236
	c0.48-0.155,0.917-0.418,1.312-0.789c0.33-0.303,0.598-0.639,0.802-1.006c0.203-0.364,0.349-0.769,0.435-1.212
	c0.209-1.073,0.051-1.91-0.472-2.509c-0.523-0.598-1.355-0.899-2.495-0.899h-3.791L15.392,20.731z"/>
</svg>
