<?xml version="1.0" encoding="utf-8"?>
<!-- Generator: Adobe Illustrator 23.0.2, SVG Export Plug-In . SVG Version: 6.00 Build 0)  -->
<svg version="1.1" id="图层_1" xmlns="http://www.w3.org/2000/svg" xmlns:xlink="http://www.w3.org/1999/xlink" x="0px" y="0px"
	 viewBox="0 0 30 30" enable-background="new 0 0 30 30" xml:space="preserve">
<g>
	<path fill="#AFAFAF" d="M6.183,14.767h4.242c0.566,0,1.131-0.212,1.556-0.566c0.424-0.354,0.636-0.99,0.636-1.556v-4.03
		c0-0.495-0.283-0.99-0.707-1.273c-0.636-0.495-1.485-0.707-2.263-0.778C9.081,6.493,8.445,6.423,7.809,6.493
		C6.961,6.564,6.112,6.634,5.334,7.059C4.91,7.271,4.415,7.695,4.415,8.332v2.05h4.101v0.495H2.86c-0.778,0-1.555,0.353-2.05,0.919
		c-0.566,0.778-0.778,1.768-0.778,2.757c0,0.071-0.071,0.212,0,0.354c-0.071,0.141,0,0.353,0,0.495c0,0.99,0.141,1.98,0.707,2.828
		c0.354,0.495,0.919,0.99,1.626,0.99h1.556v-1.98c0-0.707,0.212-1.414,0.707-1.909C5.052,14.909,5.618,14.767,6.183,14.767z
		 M6.89,8.616c0,0.566-0.707,0.919-1.131,0.566C5.264,8.828,5.405,8.121,5.9,7.909C6.396,7.697,6.961,8.121,6.89,8.616z"/>
	<path fill="#AFAFAF" d="M16.082,11.515c-0.354-0.495-0.99-0.778-1.626-0.707h-1.273c0,0.707,0,1.343,0.071,2.121
		c-0.071,0.636-0.283,1.273-0.707,1.697c-0.353,0.424-0.99,0.636-1.556,0.636H6.749c-0.636,0-1.273,0.212-1.697,0.636
		c-0.424,0.354-0.636,0.919-0.636,1.485v4.03c0,0.566,0.424,1.131,0.919,1.414c0.848,0.495,1.838,0.636,2.757,0.707h1.061
		c0.919-0.071,1.909-0.141,2.687-0.636c0.424-0.212,0.778-0.636,0.778-1.202v-1.98H8.517V19.15h5.798
		c0.636,0,1.273-0.283,1.697-0.707c0.636-0.707,0.848-1.697,0.99-2.616V14.13C16.93,13.212,16.718,12.222,16.082,11.515z
		 M10.284,21.06c0.071-0.141,0.212-0.283,0.424-0.354c0.424-0.141,0.919,0.283,0.919,0.636c0.071,0.495-0.495,0.919-0.919,0.707
		C10.284,21.979,10.072,21.413,10.284,21.06z"/>
</g>
</svg>
