<?xml version="1.0" encoding="utf-8"?>
<!-- Generator: Adobe Illustrator 23.0.2, SVG Export Plug-In . SVG Version: 6.00 Build 0)  -->
<svg version="1.1" id="图层_1" xmlns="http://www.w3.org/2000/svg" xmlns:xlink="http://www.w3.org/1999/xlink" x="0px" y="0px"
	 viewBox="0 0 30 30" enable-background="new 0 0 30 30" xml:space="preserve">
<g>
	<polygon fill="#AFAFAF" points="16.388,14.259 17.342,13.595 15.432,13.595 	"/>
	<path fill="#AFAFAF" d="M17.409,12.356h-1.725c-0.064,0.358-0.168,0.707-0.288,0.956h2.058
		C17.405,13.115,17.341,12.747,17.409,12.356z"/>
	<path fill="#AFAFAF" d="M11.899,11.065c0.013,0.044,0.028,0.087,0.043,0.129h0.004c0.187,0.459,0.516,0.81,1.077,0.886
		c-0.236,0.086-0.708,0.175-0.86,0.232c0.03,0.121,0.088,0.313,0.167,0.557c0.041,0.128,0.489,0.16,0.895,0.126
		c-0.095,0.201-0.592,0.477-0.687,0.483c0.059,0.157,0.132,0.287,0.202,0.456h1.148l-0.002,0.314h-1.047
		c0.063,0.148,0.121,0.264,0.191,0.409l0.884-0.005l0.006,0.332h-0.723c0.158,0.31,0.288,0.518,0.47,0.754
		c1.523,2.019,2.5,2.409,2.686,2.34c0.626-0.228,1.404-0.928,2.351-1.954c0.162-0.178,0.661-0.581,0.972-1.168h-1.217l0.004-0.305
		h1.332c0.056-0.142,0.099-0.256,0.126-0.408h-1.458V13.91h1.476c0.001-0.221-0.044-0.382-0.149-0.611
		c0.684-0.112,0.873-0.554,0.104-0.989c0.563-0.139,0.838-0.856,0.94-1.686c0.13-1.008,0.017-2.058-0.171-3.096
		c-0.115-0.641-0.273-0.719-0.777-0.346c-0.492,0.365-0.91,0.829-1.374,1.234c-0.152,0.131-0.347,0.28-0.526,0.286
		c-1.101,0.04-2.201,0.049-3.301,0.04c-0.165,0-0.355-0.117-0.483-0.236c-0.451-0.416-0.84-0.908-1.326-1.273
		c-0.617-0.471-0.779-0.38-0.949,0.367c-0.206,0.907-0.293,1.945-0.169,2.819C11.784,10.639,11.831,10.855,11.899,11.065z
		 M13.838,10.908c0.058-0.082,0.578-0.802,1.12-0.802h0.016c0.147,0.005,0.359,0.067,0.53,0.331c0.288,0.451,0.273,1.113,0.23,1.519
		h1.708c0.035-0.095,0.079-0.186,0.133-0.274c0.285-0.468,0.791-0.753,1.501-0.85l0.076-0.011l0.054,0.385l-0.076,0.012
		c-0.589,0.085-1.001,0.308-1.22,0.669c-0.012,0.024-0.025,0.046-0.034,0.065h1.3v0.002v0.398h-1.434
		c-0.069,0.416,0.031,0.811,0.065,0.93l0.108,0.26l-0.071,0.048l-1.135,0.792l0.972,0.679l-0.182,0.374l-1.148-0.806l-1.076,0.75
		l-0.182-0.375l0.899-0.626l-1.148-0.804l-0.067-0.05l0.184-0.262c0.121-0.208,0.24-0.551,0.314-0.908h-1.12v-0.4h1.189
		c0.067-0.572,0.011-1.033-0.167-1.307c-0.082-0.13-0.158-0.148-0.214-0.151c-0.252-0.004-0.619,0.38-0.806,0.637l-0.043,0.062
		l-0.319-0.227L13.838,10.908z"/>
	<path fill="#AFAFAF" d="M3.423,17.837c-0.334,0.308-1.007,1.107-1.072,1.196c-0.552,0.742-2.147,2.854-2.322,3.509
		c0.403,0.021,1.375,0.048,1.672,0.009c0.146-1.488,0.868-3.195,2.855-3.596C4.267,18.76,3.431,17.827,3.423,17.837z"/>
	<path fill="#AFAFAF" d="M2.842,16.834c0.12,0.174,0.137,0.219,0.249,0.388l0.375-0.338c-0.812-0.892-1.328-2.166-1.317-3.185
		c0.02-1.833,1.65-3.152,3.438-2.763c0.156,0.039,0.293,0.133,0.388,0.263c0.533,0.786,2.218,0.999,3.009,0.343
		c0.013-0.009,0.041-0.026,0.022-0.057c-0.297-0.688-1.287-1.082-2.16-1.248c-0.134-0.025-0.286,0.039-0.431,0.062
		c-0.373,0.063-0.75,0.204-1.118,0.178c-2.105-0.139-3.682,1.406-3.543,3.496C1.822,15.041,2.262,15.967,2.842,16.834z"/>
	<path fill="#AFAFAF" d="M20.631,21.905c-0.358-0.117-0.674-0.252-1.016-0.507c-0.332-0.249-0.619-0.574-0.886-0.896
		c-0.128-0.154-0.34-0.375-0.518-0.368c-0.168,0.004-0.918,0.518-1.031,0.361c-0.073-0.091,0.538-0.557,0.602-0.706
		c0.078-0.178-0.249-0.569-0.468-0.604c-0.188-0.062-0.872,0.399-1.007,0.416c-0.134,0.017,0.353-0.392,0.518-0.684
		c0.056-0.1,0.072-0.215-0.015-0.32c-0.043-0.057-0.178-0.144-0.26-0.112c-0.024,0.01-0.052,0.021-0.076,0.032
		c-0.008,0.004-0.017,0.008-0.026,0.011c-0.019,0.008-0.041,0.017-0.06,0.025c-0.009,0.005-0.018,0.009-0.026,0.012
		c-0.023,0.011-0.05,0.021-0.074,0.032c-0.017,0.009-0.039,0.015-0.056,0.023c-0.023,0.011-0.048,0.019-0.07,0.03
		c-0.012,0.007-0.025,0.011-0.041,0.017c-0.026,0.011-0.051,0.021-0.076,0.032c-0.011,0.005-0.024,0.011-0.034,0.016
		c-0.022,0.011-0.045,0.019-0.067,0.027c-0.011,0.005-0.02,0.009-0.03,0.014c-0.04-0.03-0.074-0.06-0.108-0.091
		c-0.071-0.059-0.141-0.117-0.208-0.169c-0.067-0.053-0.133-0.107-0.195-0.16c-0.05-0.041-0.095-0.081-0.143-0.122
		c-0.047-0.041-0.087-0.075-0.132-0.114c-0.147-0.135-0.299-0.265-0.45-0.395c-0.29-0.254-0.577-0.511-0.827-0.797
		c-0.107-0.123-0.213-0.245-0.319-0.366c-0.392-0.462-0.667-0.839-1.018-1.547h-1.525l0.007-0.325h1.38
		c-0.05-0.108-0.098-0.225-0.174-0.404l-1.176,0.007v-0.341h1.025c-0.158-0.381-0.251-0.667-0.396-1.109
		c-0.344,0.098-0.99,0.238-1.263,0.393c-0.42,0.236-0.416,0.53-0.386,0.94c0.026,0.429,0.042,0.504,0.093,0.946
		c-0.529-0.477-0.592-1.058-1.124-1.235c-0.49-0.112-1.103,0.359-1.101,0.67c0.004,0.32,0.392,0.78,0.708,1.217
		c-0.765-0.398-0.97-0.507-1.179-0.571c-0.249-0.089-0.435-0.141-0.656-0.006c-0.221,0.134-0.176,0.532-0.13,0.829
		c0.022,0.16,0.079,0.316,0.154,0.526c-0.539-0.265-0.821-0.553-1.15-0.793c-0.394,0.178-1.813,1.577-1.813,1.577
		s0.39,0.526,0.745,0.859c0.168,0.199,0.365,0.372,0.583,0.514c0.949,0.249,2.727-0.205,5.911,0.672
		c3.628,0.868,8.259,3.459,8.866,3.585c0.501,0.103,1.525,0.167,2.295,0.045C22.104,22.26,21.185,22.087,20.631,21.905z"/>
	<path fill="#AFAFAF" d="M8.935,20.958c-0.92-0.088-1.336-0.66-1.141-1.637c-0.02-0.004-0.041-0.005-0.061-0.007
		c-0.079-0.007-0.215-0.016-0.267-0.021c-1.317-0.106-2.627,0.112-2.943,0.176c0.2,0,0.418,0.041,0.557,0.144
		c0.676,0.503,1.341,1.029,1.941,1.616c0.304,0.297,0.494,0.524,0.845,0.591c0.447,0.085,1.024,0.087,1.499,0.046
		c0.132-0.011,0.349-0.089,0.36-0.16c0.021-0.147-0.007-0.341-0.124-0.453C9.436,21.086,9.273,20.995,8.935,20.958z"/>
</g>
</svg>
