<?xml version="1.0" encoding="utf-8"?>
<!-- Generator: Adobe Illustrator 23.0.2, SVG Export Plug-In . SVG Version: 6.00 Build 0)  -->
<svg version="1.1" id="图层_1" xmlns="http://www.w3.org/2000/svg" xmlns:xlink="http://www.w3.org/1999/xlink" x="0px" y="0px"
	 viewBox="0 0 30 30" enable-background="new 0 0 30 30" xml:space="preserve">
<g>
	<path fill="#AFAFAF" d="M7.639,8.367c-2.643,0.541-4.73,2.628-5.272,5.271c0.903-0.604,2.389-1.019,4.041-1.231
		C6.619,10.756,7.034,9.27,7.639,8.367z"/>
	<path fill="#AFAFAF" d="M7.099,13.098C7.045,13.688,7.014,14.322,7.014,15c0,0.678,0.031,1.313,0.085,1.902
		c0.589,0.054,1.224,0.085,1.902,0.085s1.313-0.03,1.902-0.085c0.054-0.589,0.085-1.224,0.085-1.902
		c0-0.677-0.031-1.312-0.085-1.902c-0.632-0.057-1.267-0.085-1.902-0.085C8.322,13.014,7.688,13.044,7.099,13.098z"/>
	<path fill="#AFAFAF" d="M9,12.245c0.604,0,1.214,0.027,1.813,0.08C10.46,9.738,9.635,8.229,9,8.229s-1.46,1.508-1.813,4.095
		C7.79,12.271,8.395,12.245,9,12.245z"/>
	<path fill="#AFAFAF" d="M15.771,15c0-0.634-1.509-1.46-4.095-1.813c0.053,0.603,0.079,1.208,0.079,1.813
		c0,0.604-0.027,1.215-0.079,1.813C14.262,16.46,15.771,15.635,15.771,15z"/>
	<path fill="#AFAFAF" d="M15.633,13.638c-0.542-2.643-2.628-4.73-5.271-5.271c0.604,0.903,1.02,2.389,1.231,4.04
		C13.244,12.619,14.731,13.034,15.633,13.638z"/>
	<path fill="#AFAFAF" d="M9,6c-4.97,0-9,4.029-9,9s4.03,9,9,9c4.971,0,9-4.03,9-9S13.971,6,9,6z M9,22.802
		c-4.309,0-7.802-3.493-7.802-7.802S4.691,7.198,9,7.198s7.802,3.493,7.802,7.802S13.309,22.802,9,22.802z"/>
	<path fill="#AFAFAF" d="M10.362,21.633c2.643-0.542,4.73-2.629,5.271-5.271c-0.903,0.604-2.389,1.019-4.041,1.231
		C11.382,19.244,10.966,20.731,10.362,21.633z"/>
	<path fill="#AFAFAF" d="M9,17.755c-0.604,0-1.215-0.027-1.813-0.079C7.54,20.262,8.366,21.77,9,21.77s1.46-1.508,1.813-4.094
		C10.211,17.729,9.605,17.755,9,17.755z"/>
	<path fill="#AFAFAF" d="M2.367,16.362c0.542,2.643,2.628,4.729,5.272,5.271c-0.605-0.903-1.02-2.389-1.231-4.041
		C4.756,17.381,3.27,16.966,2.367,16.362z"/>
	<path fill="#AFAFAF" d="M6.324,16.813C6.272,16.21,6.245,15.605,6.245,15s0.027-1.214,0.079-1.813
		C3.738,13.54,2.229,14.366,2.229,15C2.229,15.635,3.738,16.461,6.324,16.813z"/>
</g>
</svg>
