<?xml version="1.0" encoding="utf-8"?>
<!-- Generator: Adobe Illustrator 23.0.2, SVG Export Plug-In . SVG Version: 6.00 Build 0)  -->
<svg version="1.1" id="图层_1" xmlns="http://www.w3.org/2000/svg" xmlns:xlink="http://www.w3.org/1999/xlink" x="0px" y="0px"
	 viewBox="0 0 30 30" enable-background="new 0 0 30 30" xml:space="preserve">
<g>
	<g>
		<path fill="#AFAFAF" d="M11.851,15.676c0,0.207-0.117,0.315-0.117,0.522c-0.234,0.522-0.693,0.945-1.269,1.053
			c-0.801,0.207-1.494,0.207-2.303,0c-0.576-0.207-0.918-0.522-1.152-1.053c-0.234-0.522-0.234-1.053-0.234-1.574
			c0-0.108,0-0.108,0.117-0.108h1.493c0.117,0,0.117,0,0.117,0.108v0.522c0,0.207,0.117,0.423,0.342,0.522
			c0.234,0.108,0.576,0.108,0.801,0C9.88,15.56,9.88,15.353,9.88,15.146v-4.607h5.407c0.576,0,1.035,0,1.61,0.315
			c0.576,0.315,0.918,0.738,0.918,1.368c0,0.522-0.234,1.053-0.801,1.368H16.8c0,0.108,0.117,0.108,0.117,0.108
			c0.576,0.207,0.918,0.63,1.035,1.26c0.117,0.423,0,0.738-0.117,1.053c-0.234,0.63-0.801,0.945-1.376,1.152
			c-0.342,0.108-0.801,0.108-1.152,0.108h-3.338c-0.234,0-0.234,0-0.234-0.207V15.91C11.851,15.892,11.851,15.784,11.851,15.676
			L11.851,15.676z M13.813,14.317v1.575h1.727c0.459,0,0.801-0.315,0.801-0.738v-0.108c0-0.108-0.117-0.315-0.234-0.423
			c-0.234-0.207-0.459-0.207-0.693-0.207C14.847,14.317,14.389,14.317,13.813,14.317L13.813,14.317z M13.813,11.897v1.152
			c0,0.108,0,0.108,0.117,0.108h1.611c0.342-0.108,0.576-0.315,0.459-0.738c0-0.315-0.234-0.522-0.576-0.522
			C15.424,11.897,13.813,11.897,13.813,11.897z M12.085,23.971c-1.152,0-2.186-0.837-2.186-2.096c0-1.26,1.152-2.096,2.303-1.997
			c1.152,0,2.186,0.945,2.186,2.096C14.389,23.125,13.237,24.07,12.085,23.971L12.085,23.971z M6.453,19.562
			c1.035,0,1.952,0.738,1.952,1.781c0,1.053-0.918,1.781-1.952,1.781c-1.152,0-1.952-0.837-1.952-1.781
			C4.501,20.3,5.419,19.455,6.453,19.562L6.453,19.562z M2.198,19.67c-0.918,0-1.835-0.738-1.835-1.682
			c0-0.837,0.693-1.575,1.727-1.575c0.918,0,1.727,0.63,1.835,1.575C3.925,19.041,2.998,19.67,2.198,19.67L2.198,19.67z
			 M0.011,13.471c0-0.837,0.801-1.466,1.61-1.466c0.81,0,1.611,0.522,1.611,1.466c0,0.945-0.801,1.467-1.611,1.467
			C0.704,14.947-0.106,14.209,0.011,13.471L0.011,13.471z M4.033,10.646c-0.801,0-1.377-0.63-1.377-1.26s0.693-1.26,1.377-1.152
			c0.801,0,1.377,0.522,1.377,1.26C5.419,10.116,4.609,10.646,4.033,10.646L4.033,10.646z M9.215,7.596
			c0,0.63-0.576,1.152-1.269,1.152C7.37,8.64,6.794,8.226,6.794,7.596c0-0.738,0.693-1.053,1.152-1.053
			C8.639,6.445,9.215,7.074,9.215,7.596L9.215,7.596z M12.202,7.911c-0.576,0-1.035-0.423-1.035-0.945s0.576-0.945,1.035-0.945
			s1.035,0.315,1.035,0.945C13.237,7.497,12.778,7.911,12.202,7.911L12.202,7.911z"/>
	</g>
</g>
</svg>
