<?xml version="1.0" encoding="utf-8"?>
<!-- Generator: Adobe Illustrator 23.0.2, SVG Export Plug-In . SVG Version: 6.00 Build 0)  -->
<svg version="1.1" id="图层_1" xmlns="http://www.w3.org/2000/svg" xmlns:xlink="http://www.w3.org/1999/xlink" x="0px" y="0px"
	 viewBox="0 0 30 30" enable-background="new 0 0 30 30" xml:space="preserve">
<g>
	<path fill="#AFAFAF" d="M7.114,10.553h0.873L6.33,17.689H5.457c-0.783-3.445-1.205-5.285-1.265-5.52
		c-0.06-0.258-0.11-0.515-0.151-0.773h-0.03c-0.02,0.094-0.05,0.27-0.09,0.527c-0.02,0.141-0.03,0.234-0.03,0.281
		c-0.06,0.211-0.502,2.039-1.325,5.484H1.632l-1.596-7.137h0.843c0.723,3.469,1.104,5.309,1.145,5.52c0,0.07,0.01,0.176,0.03,0.316
		c0.02,0.211,0.04,0.364,0.06,0.457h0.03c0.02-0.093,0.05-0.258,0.09-0.492c0.04-0.141,0.06-0.233,0.06-0.281
		c0.06-0.233,0.482-2.074,1.265-5.52h0.904c0.783,3.493,1.205,5.344,1.265,5.555c0,0.023,0.01,0.059,0.03,0.105
		c0.04,0.259,0.07,0.47,0.09,0.633h0.03c0-0.047,0.01-0.117,0.03-0.211c0.02-0.258,0.04-0.422,0.06-0.492
		C6.009,15.955,6.391,14.092,7.114,10.553z"/>
	<path fill="#AFAFAF" d="M8.589,11.467v-1.02h0.813v1.02H8.589z M8.589,17.654v-5.168h0.813v5.168H8.589z"/>
	<path fill="#AFAFAF" d="M10.487,17.654v-7.312H11.3v7.312H10.487z"/>
	<path fill="#AFAFAF" d="M15.457,10.307h0.813v7.348h-0.813v-0.879c-0.241,0.656-0.753,0.984-1.536,0.984
		c-1.165-0.094-1.767-0.961-1.807-2.602c0.04-1.828,0.683-2.765,1.928-2.812c0.683,0.023,1.155,0.375,1.416,1.055V10.307z
		 M15.487,15.264v-0.598c-0.08-0.937-0.502-1.464-1.265-1.582c-0.843,0.048-1.275,0.727-1.295,2.039
		c0.02,1.289,0.452,1.946,1.295,1.969C15.045,17.045,15.467,16.437,15.487,15.264z"/>
	<path fill="#AFAFAF" d="M22.114,11.678h-3.253v1.863h2.831v1.441h-2.831v3.023h-1.506v-7.77h4.759V11.678z"/>
	<path fill="#AFAFAF" d="M24.312,17.971h-1.476V9.744h1.476V17.971z"/>
	<path fill="#AFAFAF" d="M30.035,12.451l-1.958,5.73c-0.462,1.5-1.165,2.203-2.108,2.109c-0.281,0-0.562-0.047-0.843-0.141
		l-0.12-1.336c0.241,0.117,0.482,0.176,0.723,0.176c0.382,0.023,0.653-0.152,0.813-0.527l0.241-0.668l-1.988-5.344h1.596l0.934,3.27
		c0.06,0.188,0.11,0.435,0.151,0.738h0.03c0.02-0.117,0.05-0.281,0.09-0.492c0.02-0.117,0.04-0.198,0.06-0.246l0.843-3.27H30.035z"
		/>
</g>
</svg>
