<?xml version="1.0" encoding="utf-8"?>
<!-- Generator: Adobe Illustrator 23.0.2, SVG Export Plug-In . SVG Version: 6.00 Build 0)  -->
<svg version="1.1" id="图层_1" xmlns="http://www.w3.org/2000/svg" xmlns:xlink="http://www.w3.org/1999/xlink" x="0px" y="0px"
	 viewBox="0 0 30 30" enable-background="new 0 0 30 30" xml:space="preserve">
<path fill="#AFAFAF" d="M9.63,11.595l-0.183,1.021H8.765l-0.173,0.925h0.681L8.87,15.754c-0.105,0.572-0.019,1.581,0.922,1.581
	h2.275l0.182-1.009c-1.584,0-1.584,0-1.469-0.633l0.395-2.152h2.121l-0.403,2.213c-0.106,0.572-0.019,1.581,0.921,1.581h2.275
	l0.183-1.009c-1.585,0-1.585,0-1.47-0.633l0.394-2.152h1.585l0.173-0.925h-1.585l0.183-1.021h-1.902l-0.182,1.021h-2.121
	l0.183-1.021H9.63z M1.287,12.629l-0.931,5.119c-0.058,0.207-0.144,0.194-0.326,0.207L0,19.11l1.556-0.013
	c0.298-0.024,0.49-0.243,0.614-0.765l1.037-5.716h-1.92V12.629z M1.604,10.89l-0.241,1.301h1.92l0.24-1.301H1.604z M4.349,12.629
	c-0.336,0-0.71,0.365-0.796,0.925l-0.365,1.909c-0.211,1.179-0.106,1.885,0.595,1.885h3.935l0.183-1.009H4.954l0.154-0.876h2.947
	c0.048-0.256,0.24-0.633,0.345-1.909c0.03-0.159-0.172-0.925-0.939-0.925H4.349z M5.933,13.554c0.413,0,0.528,0.158,0.394,0.887H5.3
	C5.424,13.735,5.598,13.554,5.933,13.554L5.933,13.554z M17.251,12.629l-0.671,3.709c0,0-0.183,1.009,0.94,1.009h1.91
	c-0.096,0.523-0.143,0.778-1.248,0.778h-1.92l-0.173,0.937h3.025c1.391,0,1.901,0,2.072-0.937l0.999-5.496h-1.901l-0.672,3.709
	h-1.104l0.672-3.709H17.251z M22.914,12.629l-0.326,1.812h1.93l0.327-1.812H22.914z M22.387,15.535l-0.326,1.812h1.929l0.327-1.812
	H22.387z M26.88,10.89l-2.66,7.223h0.97l2.659-7.223H26.88z M29.03,10.89l-2.658,7.223h0.969L30,10.89H29.03z M29.03,10.89"/>
</svg>
