<?xml version="1.0" encoding="utf-8"?>
<!-- Generator: Adobe Illustrator 23.0.2, SVG Export Plug-In . SVG Version: 6.00 Build 0)  -->
<svg version="1.1" id="图层_1" xmlns="http://www.w3.org/2000/svg" xmlns:xlink="http://www.w3.org/1999/xlink" x="0px" y="0px"
	 viewBox="0 0 30 30" enable-background="new 0 0 30 30" xml:space="preserve">
<g>
	<path fill="#AFAFAF" d="M6.276,18.116H4.76c-1.863-3.243-2.829-4.94-2.896-5.092c-0.202-0.377-0.337-0.641-0.404-0.791
		c0.021,0.226,0.033,0.691,0.033,1.395v4.488H0.111v-7.882h1.584c1.796,3.219,2.739,4.902,2.829,5.053
		c0.225,0.403,0.349,0.667,0.37,0.792h0.034c-0.022-0.175-0.034-0.578-0.034-1.206v-4.639h1.382V18.116z"/>
	<path fill="#AFAFAF" d="M11.33,16.381l1.516,0.188c-0.404,1.106-1.303,1.659-2.695,1.659C8.354,18.153,7.422,17.21,7.355,15.4
		c0.067-1.961,0.954-2.979,2.661-3.055c1.82,0,2.729,1.019,2.729,3.055v0.377H8.804c0.045,0.855,0.494,1.308,1.348,1.358
		C10.758,17.136,11.15,16.885,11.33,16.381z M8.769,14.797h2.594c-0.045-0.854-0.471-1.307-1.279-1.357
		C9.275,13.49,8.837,13.943,8.769,14.797z"/>
	<path fill="#AFAFAF" d="M15.475,10.234v2.225h1.213v1.207h-1.213v2.526c0,0.579,0.213,0.867,0.64,0.867
		c0.157,0,0.304-0.05,0.438-0.15l0.303,1.019c-0.27,0.2-0.686,0.301-1.246,0.301c-1.034,0.025-1.539-0.54-1.517-1.696v-2.866H13.25
		V12.46h0.843v-1.886L15.475,10.234z"/>
	<path fill="#AFAFAF" d="M19.213,10.234v2.225h1.213v1.207h-1.213v2.526c0,0.579,0.213,0.867,0.641,0.867
		c0.156,0,0.303-0.05,0.438-0.15l0.304,1.019c-0.27,0.2-0.686,0.301-1.247,0.301c-1.033,0.025-1.538-0.54-1.516-1.696v-2.866h-0.842
		V12.46h0.842v-1.886L19.213,10.234z"/>
	<path fill="#AFAFAF" d="M22.851,17.928l-2.189-5.469h1.617c0.674,2.163,1.021,3.307,1.045,3.432
		c0.021,0.051,0.055,0.177,0.101,0.377c0.044,0.177,0.078,0.302,0.101,0.378c0-0.025,0.022-0.101,0.068-0.227
		c0.044-0.251,0.078-0.415,0.101-0.49c0.044-0.201,0.37-1.357,0.978-3.47h1.516c-1.102,3.067-1.809,5.028-2.123,5.883
		c-0.494,1.483-1.19,2.175-2.088,2.074c-0.315,0-0.619-0.051-0.91-0.15l-0.135-1.245c0.225,0.126,0.472,0.188,0.741,0.188
		c0.427,0,0.718-0.188,0.876-0.565C22.616,18.493,22.717,18.254,22.851,17.928z"/>
</g>
</svg>
