<?xml version="1.0" encoding="utf-8"?>
<!-- Generator: Adobe Illustrator 23.0.2, SVG Export Plug-In . SVG Version: 6.00 Build 0)  -->
<svg version="1.1" id="图层_1" xmlns="http://www.w3.org/2000/svg" xmlns:xlink="http://www.w3.org/1999/xlink" x="0px" y="0px"
	 viewBox="0 0 30 30" enable-background="new 0 0 30 30" xml:space="preserve">
<g>
	<g>
		<path fill="#AFAFAF" d="M15.713,7.04c0.53,0.133,0.663,0.927,1.059,1.325c0.399,0.53,0.928,0.662,1.326,1.325
			c0,0,0.133,0.265,0,0.397l-0.265-0.264c-0.265-0.266-0.53-0.266-0.795-0.398c-0.53-0.265-1.06-0.795-1.325-1.457L14.521,9.16
			c-0.133,0.133-0.265,0.265-0.133,0.53l0.795,0.397c0.53,0.265,1.06,0.397,1.589,0.795c0.399,0.265,1.06,0.53,1.326,0.927
			c0,0.133-1.193-0.397-1.326-0.397c-0.529-0.265-1.191-0.397-1.722-0.663c-1.192-0.397-2.252-0.397-3.445-0.397
			c-1.192,0-2.252,0-3.445,0.397c-1.061,0.397-1.987,0.927-3.048,1.59c-0.927,0.663-1.855,1.457-2.65,2.517
			c-0.397,0.397-0.663,0.927-1.059,1.457c-0.398,0.397-1.193,0.531-1.061-0.397c0.266-1.326,1.326-2.385,2.12-3.048
			c0.927-0.795,1.856-1.589,2.915-2.12c1.722-0.927,3.578-1.457,5.433-1.457c0.397,0,0.795,0,1.193-0.265
			c0.397-0.265,0.795-0.53,1.325-0.795c0.397-0.265,0.794-0.397,1.193-0.663C14.918,7.306,15.316,7.04,15.713,7.04L15.713,7.04z
			 M23,20.555c0,0.265,0,1.987-0.53,1.324c-0.397-0.397-0.662-1.192-0.927-1.722s-0.53-1.059-0.927-1.458
			c-0.265-0.132-0.397-0.265-0.663-0.397c-0.133-0.133-0.53-0.133-0.663-0.398c0.928-0.133,1.723,0.133,2.385,1.193
			c0.133,0.133,0.663,1.324,0.795,0.663c0-0.796-0.132-1.458-0.265-2.253s-0.265-1.589-0.265-2.385c0-0.795,0.133-1.589,0-2.252
			c0-0.397,0-0.53-0.265-0.53s-0.53,0.133-0.795,0.133c-0.397,0.265-0.927,0.531-1.457,0.531c-0.133,0-0.53,0.131-0.53,0
			c0-0.133,0.397-0.399,0.397-0.531c0.53-0.398,0.928-0.663,1.458-1.06c0.53-0.265,0.927-0.663,1.457-0.795
			c0.397-0.133,0.662,0.265,0.662,0.795c0.132,1.457-0.133,3.048-0.133,4.637C22.868,17.64,23,19.098,23,20.555
			C23,20.687,23,20.422,23,20.555L23,20.555z M5.644,21.482c-0.795,0-1.457-0.398-2.253-0.795c-0.794-0.53-1.59-1.06-2.385-1.722
			c-0.265-0.265-0.663-0.53-0.927-0.927c-0.132-0.398-0.132-1.06,0.265-1.06s0.663,0.265,1.061,0.53L2.597,18.7
			c1.193,1.193,3.047,2.783,4.637,1.722c0.265-0.265,0.663-0.53,0.927-0.927c0.132-0.265,0.265,0,0.132,0.265
			c0,0.265-0.132,0.397-0.265,0.529C7.234,21.084,6.439,21.349,5.644,21.482C5.114,21.482,5.777,21.482,5.644,21.482L5.644,21.482z"
			/>
		<path fill="#AFAFAF" d="M12.268,11.413c0.927,0,1.987,0.133,2.915,0.265c0.928,0.133,1.855,0.53,2.65,1.193l0.265,0.265
			c-0.133,0.133-0.53-0.131-0.663-0.131c-0.53-0.133-0.927-0.399-1.457-0.531c-0.927-0.265-1.987-0.398-2.915-0.398
			c-1.06,0-1.988,0-3.048,0.133c-0.265,0.133-0.794,0.265-1.191,0.397c-0.397,0.133-0.927,0.399-1.325,0.399
			c-0.133,0-0.398-0.265-0.265-0.399c0.132-0.265,0.397-0.397,0.663-0.53c0.397-0.265,0.927-0.397,1.325-0.397
			C10.281,11.413,11.341,11.413,12.268,11.413C12.665,11.413,12.004,11.413,12.268,11.413L12.268,11.413z M13.461,20.952
			c0.53,0,1.06,0.265,1.457,0.53l0.795,0.397c0.133,0,0.53,0.398,0.398,0c0-0.662,0.265-1.192,0.53-1.722
			c0.132-0.265,0.397-0.397,0.53-0.53c0.132,0,0.53-0.265,0.53-0.132c0,0.132-0.663,0.795-0.663,0.927
			c-0.133,0.265-0.266,0.663-0.266,1.193c0,0.398,0,0.927-0.264,1.193c-0.397,0.265-0.663,0.133-0.927,0
			c-0.795-0.265-1.59-0.265-2.385-0.529c-0.265,0-0.531-0.265-0.397-0.663C12.798,21.349,13.461,20.687,13.461,20.952
			C13.726,20.952,13.461,20.952,13.461,20.952L13.461,20.952z M4.981,16.58c-0.397,0-0.795-0.796-0.795-1.326
			c0-0.53,0.53-1.059,0.795-1.192c0.53,0,1.06,0.662,1.06,1.325c0,0.264-0.265,0.662-0.398,0.794
			C5.511,16.314,4.981,16.712,4.981,16.58C4.848,16.58,4.981,16.58,4.981,16.58L4.981,16.58z M5.247,15.652
			c0.397-0.132-0.133-0.662-0.398-0.662c-0.132-0.133-0.132,0.265,0,0.398C4.848,15.52,4.981,15.652,5.247,15.652
			C5.247,15.652,5.114,15.652,5.247,15.652L5.247,15.652z M10.546,15.918c0,0.264-0.265,0.397-0.265,0.663
			c-0.132,0.265-0.132,0.529-0.132,0.795c0,0.132-0.133,1.589-0.265,1.457c-0.133,0-0.133-1.987-0.133-2.252
			c0-0.796-0.132-1.59-0.132-2.385c0-0.265-0.133-0.53,0-0.928c0-0.264,0.265,0.265,0.265,0.397c0,0.398,0.132,0.927,0.265,1.325
			C10.149,15.388,10.414,15.52,10.546,15.918L10.546,15.918z M4.981,19.495c0.53-0.133,1.457-0.133,1.722-0.927
			c0.132-0.398,0.132-0.796,0.132-1.193c0-0.133,0-0.398,0.133-0.53c0.132,0,0.265,0.265,0.397,0.397
			c0.265,0.796,0,1.723-0.397,2.12C6.307,20.025,5.644,19.76,4.981,19.495C5.114,19.362,4.981,19.495,4.981,19.495L4.981,19.495z
			 M11.738,15.785c-0.133,0.397-0.133,0.796-0.265,1.193c0,0.398-0.132,0.795-0.265,1.193c-0.132,0.398-0.264-0.53-0.264-0.53
			v-2.915c0-0.133,0-1.06,0.132-0.927c0.265,0.265,0.265,0.53,0.397,0.927C11.473,15.122,11.738,15.388,11.738,15.785
			C11.738,15.918,11.738,15.652,11.738,15.785L11.738,15.785z M13.328,15.785c0,0.265-0.398,2.12-0.53,2.12
			c-0.265,0-0.133-1.987-0.265-2.252v-1.325c0-0.132,0-0.927,0.132-0.397c0.133,0.397,0.265,0.661,0.265,1.059
			C13.064,15.255,13.328,15.52,13.328,15.785C13.328,15.918,13.328,15.785,13.328,15.785L13.328,15.785z M15.051,15.918
			c-0.133,0.132-0.398,0.264-0.398,0.53c-0.132,0.265,0,0.663-0.132,1.06c-0.133,0.531-0.265-0.132-0.265-0.397v-1.325
			c0-0.397-0.133-0.927-0.133-1.324c0-0.265,0-0.796,0.266-0.398c0.133,0.265,0.133,0.662,0.265,0.927
			C14.653,15.52,14.786,15.652,15.051,15.918C14.918,16.05,14.918,15.785,15.051,15.918L15.051,15.918z M19.953,16.977
			c0.133-0.663,0.133-1.193-0.133-1.855c0-0.132-0.265-0.53,0-0.53s0.398,0.133,0.53,0.398c0.265,0.398,0.398,0.795,0.133,1.457
			c-0.133,0.265-0.265,0.53-0.397,0.663C19.82,17.242,19.953,16.977,19.953,16.977C19.953,16.845,19.953,16.977,19.953,16.977
			L19.953,16.977z M16.243,15.918c0,0.264-0.132,0.397-0.265,0.663c0,0.265,0,0.529-0.265,0.795
			c-0.132,0.132-0.132-1.457-0.132-1.59v-0.927c0-0.133-0.133-0.795,0.132-0.53C15.846,14.725,16.111,15.388,16.243,15.918
			C16.243,16.05,16.243,15.918,16.243,15.918L16.243,15.918z M16.906,15.785c0-0.265-0.133-1.193,0-1.457
			c0.133-0.265,0.397,1.06,0.397,1.193c0,0.398,0,1.325-0.265,1.59C16.906,17.242,16.906,15.918,16.906,15.785
			C16.906,15.388,16.906,16.05,16.906,15.785L16.906,15.785z M18.098,15.785c0.133,0,0.53,0,0.53,0.265
			C18.496,16.447,17.966,16.05,18.098,15.785C17.966,15.785,18.098,15.785,18.098,15.785C18.231,15.785,18.098,15.785,18.098,15.785
			L18.098,15.785z"/>
	</g>
</g>
</svg>
