<?xml version="1.0" encoding="utf-8"?>
<!-- Generator: Adobe Illustrator 23.0.2, SVG Export Plug-In . SVG Version: 6.00 Build 0)  -->
<svg version="1.1" id="图层_1" xmlns="http://www.w3.org/2000/svg" xmlns:xlink="http://www.w3.org/1999/xlink" x="0px" y="0px"
	 viewBox="0 0 30 30" enable-background="new 0 0 30 30" xml:space="preserve">
<g>
	<path fill="#AFAFAF" d="M3.025,14.042l0.015-0.015l2.351-2.528c0.01-0.009,0.013-0.023,0.007-0.036
		c-0.004-0.013-0.016-0.021-0.03-0.021H3.963c-0.054,0-0.106,0.022-0.144,0.062c-0.338,0.358-1.793,1.937-1.808,1.952l0.369-1.975
		c0.001-0.01-0.001-0.019-0.007-0.027c-0.007-0.008-0.016-0.013-0.026-0.013H1.15c-0.095,0.001-0.177,0.068-0.195,0.162
		l-0.954,4.941c-0.002,0.009,0.001,0.019,0.007,0.027c0.007,0.006,0.016,0.011,0.025,0.011h1.212c0.095,0,0.177-0.067,0.195-0.162
		l0.368-1.951l1.376,2.026c0.037,0.055,0.099,0.087,0.165,0.087h1.328c0.013,0,0.024-0.006,0.029-0.017
		c0.006-0.012,0.005-0.024-0.001-0.034L3.025,14.042z"/>
	<path fill="#AFAFAF" d="M5.887,12.273H7.02c0.095,0,0.177-0.068,0.196-0.162l0.121-0.629c0.001-0.01-0.002-0.019-0.007-0.027
		c-0.006-0.008-0.016-0.013-0.026-0.013H6.172c-0.095,0-0.178,0.068-0.195,0.162l-0.122,0.63c-0.001,0.009,0.001,0.02,0.008,0.027
		C5.868,12.268,5.878,12.273,5.887,12.273z"/>
	<path fill="#AFAFAF" d="M7.069,12.795c-0.007-0.007-0.016-0.013-0.025-0.013H5.911c-0.096,0-0.178,0.068-0.195,0.162l-0.682,3.6
		c-0.001,0.009,0.001,0.019,0.007,0.027c0.006,0.007,0.016,0.011,0.025,0.011h1.133c0.096,0,0.178-0.067,0.196-0.162l0.681-3.599
		C7.078,12.813,7.075,12.802,7.069,12.795z"/>
	<path fill="#AFAFAF" d="M24.605,13.117c-0.36-0.298-0.884-0.475-1.402-0.475h-0.226c-0.565,0.022-1.047,0.177-1.435,0.461
		l-0.007,0.004c-0.564,0.45-0.861,1.012-0.883,1.67c-0.013,0.487,0.132,0.892,0.43,1.203c0.443,0.463,1.15,0.636,1.665,0.644h0.001
		c0.086,0,0.154,0,0.228-0.012c0.704-0.061,1.3-0.336,1.728-0.797l0.007-0.008c0.046-0.05,0.082-0.091,0.116-0.134
		c0.005-0.006,0.011-0.016,0.016-0.023c0.064-0.082,0.122-0.166,0.171-0.248c0.006-0.011,0.006-0.024,0.001-0.034
		c-0.006-0.01-0.017-0.017-0.03-0.017h-1.201c-0.056,0-0.11,0.025-0.148,0.067c-0.045,0.051-0.101,0.101-0.162,0.144
		c-0.141,0.099-0.305,0.16-0.478,0.179c-0.007,0.001-0.016,0.003-0.022,0.004c-0.048,0.011-0.099,0.011-0.162,0.011
		c-0.295-0.016-0.534-0.122-0.688-0.308c-0.122-0.146-0.192-0.35-0.174-0.504l0.004-0.024h3.036c0.106,0,0.193-0.083,0.198-0.189
		c0.009-0.156,0.004-0.312-0.015-0.462C25.133,13.925,25.002,13.447,24.605,13.117z M22.078,14.1l0.02-0.039
		c0.06-0.121,0.3-0.518,0.881-0.562h0.082c0.541,0,0.745,0.308,0.82,0.566l0.01,0.036H22.078z"/>
	<path fill="#AFAFAF" d="M11.206,14.088l0.003-0.026v-0.004l0.003-0.031l0.008-0.1v-0.014c0.002-0.377-0.133-0.679-0.391-0.872
		c-0.272-0.15-0.577-0.229-0.888-0.228c-0.417,0-0.8,0.13-1.087,0.245c0,0,0.066-0.274-0.188-0.274H7.661
		c-0.016,0-0.03,0.011-0.033,0.027L6.91,16.545c-0.002,0.009,0.001,0.019,0.007,0.027c0.006,0.007,0.015,0.011,0.026,0.011h1.068
		c0.095,0,0.177-0.067,0.195-0.16l0.277-1.432c0.067-0.373,0.172-0.673,0.304-0.869c0.139-0.214,0.37-0.347,0.602-0.347
		c0.582,0,0.547,0.503,0.425,1.082l-0.001,0.004l-0.313,1.684c-0.002,0.01,0,0.019,0.007,0.027c0.007,0.007,0.016,0.011,0.026,0.011
		h1.043c0.095,0,0.176-0.067,0.194-0.16l0.408-2.11C11.194,14.226,11.201,14.153,11.206,14.088z"/>
	<path fill="#AFAFAF" d="M29.797,14.917c0.107,0,0.193-0.082,0.2-0.188c0.008-0.154,0.002-0.309-0.016-0.462
		c-0.04-0.342-0.173-0.82-0.57-1.15c-0.365-0.302-0.877-0.476-1.401-0.476h-0.225c-0.728,0.028-1.184,0.267-1.438,0.463
		c-0.577,0.446-0.877,1.009-0.889,1.672c-0.017,0.483,0.125,0.887,0.422,1.199c0.441,0.465,1.147,0.64,1.66,0.649h0.013
		c0.091,0,0.162-0.002,0.232-0.014c0.702-0.06,1.297-0.335,1.725-0.795l0.01-0.012c0.045-0.049,0.081-0.09,0.113-0.131
		c0.007-0.008,0.012-0.016,0.017-0.024c0.064-0.082,0.121-0.166,0.17-0.249c0.007-0.011,0.007-0.023,0.001-0.034
		c-0.006-0.01-0.017-0.016-0.03-0.016h-1.198c-0.059,0-0.114,0.025-0.151,0.07c-0.166,0.182-0.393,0.297-0.64,0.319
		c-0.008,0-0.015,0.002-0.023,0.004c-0.047,0.01-0.098,0.01-0.16,0.01c-0.294-0.015-0.523-0.114-0.679-0.29
		c-0.169-0.189-0.203-0.416-0.194-0.521l0.001-0.026H29.797z M26.89,14.061c0.077-0.156,0.318-0.518,0.895-0.562h0.093
		c0.53,0,0.732,0.308,0.809,0.566l0.009,0.036H26.87L26.89,14.061z"/>
	<path fill="#AFAFAF" d="M20.954,11.455c-0.006-0.008-0.016-0.013-0.026-0.013h-1.213c-0.095,0-0.178,0.067-0.196,0.161
		l-0.215,1.115c0,0-1.909-0.26-2.8,0.768c-0.851,0.983-0.851,3.098,1.857,3.098h1.597c0.016,0,0.03-0.012,0.033-0.027l0.968-5.076
		C20.962,11.473,20.959,11.462,20.954,11.455z M18.732,15.686c0,0-1.507,0.134-1.444-0.989c0.076-1.318,1.845-1.079,1.845-1.079
		L18.732,15.686z"/>
	<path fill="#AFAFAF" d="M16.031,12.764c-0.005-0.008-0.014-0.013-0.023-0.014c-0.494-0.058-0.99-0.089-1.486-0.093
		c-1.198,0-1.686,0.231-1.868,0.318l-0.004,0.002c-1.368,0.75-1.276,2.008-1.182,2.327c0.501,1.693,2.527,1.245,2.527,1.245
		l-0.013,0.044c-0.063,0.226-0.177,0.405-0.348,0.548c-0.283,0.234-0.921,0.5-2.195,0.255c-0.053-0.012-0.108-0.001-0.152,0.029
		c-0.044,0.03-0.074,0.076-0.084,0.128l-0.165,0.839c-0.003,0.009,0,0.019,0.006,0.025c0.005,0.008,0.013,0.013,0.021,0.014
		c0.075,0.012,0.161,0.025,0.256,0.039l0.05,0.007c0.047,0.006,0.094,0.013,0.142,0.018l0.058,0.007
		c0.312,0.037,0.593,0.056,0.859,0.056c0.439,0,0.837-0.051,1.178-0.15c0.49-0.148,0.855-0.371,1.121-0.683
		c0.386-0.447,0.533-0.935,0.684-1.732l0.624-3.205C16.039,12.779,16.037,12.771,16.031,12.764z M14.187,15.642
		c-0.171,0.042-0.347,0.063-0.525,0.063c-0.643,0-0.999-0.317-0.999-0.893c0.081-1.033,0.958-1.189,1.474-1.189
		c0.249,0,0.428,0.036,0.434,0.037L14.187,15.642z"/>
</g>
</svg>
