<?xml version="1.0" encoding="utf-8"?>
<!-- Generator: Adobe Illustrator 23.0.2, SVG Export Plug-In . SVG Version: 6.00 Build 0)  -->
<svg version="1.1" id="图层_1" xmlns="http://www.w3.org/2000/svg" xmlns:xlink="http://www.w3.org/1999/xlink" x="0px" y="0px"
	 viewBox="0 0 30 30" enable-background="new 0 0 30 30" xml:space="preserve">
<g>
	<g>
		<path fill="#AFAFAF" d="M8.496,24.587c-0.255,0-0.514-0.068-0.738-0.198L5.41,23c-0.35-0.198-0.179-0.267-0.065-0.304
			c0.468-0.164,0.563-0.198,1.061-0.483c0.053-0.03,0.122-0.019,0.175,0.015l1.803,1.069c0.065,0.038,0.156,0.038,0.217,0
			l7.028-4.056c0.065-0.038,0.106-0.114,0.106-0.19v-8.112c0-0.08-0.042-0.152-0.11-0.194L8.601,6.693
			c-0.065-0.038-0.152-0.038-0.217,0l-7.02,4.056c-0.069,0.038-0.11,0.114-0.11,0.194v8.108c0,0.076,0.042,0.152,0.11,0.186
			l1.925,1.111c1.046,0.521,1.686-0.091,1.686-0.711v-8.005c0-0.114,0.091-0.202,0.206-0.202h0.89c0.11,0,0.205,0.087,0.205,0.202
			v8.009c0,1.393-0.761,2.192-2.081,2.192c-0.407,0-0.727,0-1.617-0.441l-1.84-1.062C0.282,20.067,0,19.576,0,19.047v-8.108
			c0-0.525,0.282-1.02,0.738-1.282l7.02-4.056c0.445-0.251,1.035-0.251,1.476,0l7.028,4.06C16.718,9.923,17,10.414,17,10.943v8.108
			c0,0.525-0.282,1.016-0.738,1.282l-7.028,4.056C9.01,24.519,8.755,24.587,8.496,24.587L8.496,24.587z M14.169,16.593
			c0-1.518-1.027-1.922-3.185-2.207c-2.184-0.289-2.405-0.438-2.405-0.947c0-0.422,0.186-0.986,1.804-0.986
			c1.442,0,1.975,0.312,2.195,1.286c0.019,0.091,0.103,0.16,0.198,0.16h0.913c0.057,0,0.11-0.023,0.148-0.065
			s0.057-0.099,0.053-0.156C13.749,12,12.634,11.22,10.382,11.22c-2.005,0-3.2,0.845-3.2,2.264c0,1.537,1.191,1.963,3.112,2.153
			c2.302,0.224,2.481,0.563,2.481,1.016c0,0.784-0.632,1.119-2.112,1.119c-1.861,0-2.268-0.468-2.405-1.393
			c-0.015-0.099-0.099-0.171-0.202-0.171H7.147c-0.114,0-0.202,0.091-0.202,0.202c0,1.183,0.643,2.595,3.721,2.595
			C12.891,19.002,14.169,18.123,14.169,16.593L14.169,16.593z"/>
	</g>
</g>
</svg>
