<?xml version="1.0" encoding="utf-8"?>
<!-- Generator: Adobe Illustrator 23.0.2, SVG Export Plug-In . SVG Version: 6.00 Build 0)  -->
<svg version="1.1" id="图层_1" xmlns="http://www.w3.org/2000/svg" xmlns:xlink="http://www.w3.org/1999/xlink" x="0px" y="0px"
	 viewBox="0 0 30 30" enable-background="new 0 0 30 30" xml:space="preserve">
<g>
	<path fill="#AFAFAF" d="M0,17.972v-5.797h1.563v1.094c0.405-0.818,1.021-1.224,1.848-1.224c0.099,0,0.195,0.009,0.29,0.031v1.393
		c-0.196-0.076-0.405-0.116-0.618-0.12c-0.622,0-1.128,0.315-1.52,0.945v3.68H0V17.972z M8.861,17.777
		c-0.74,0.216-1.444,0.326-2.11,0.326c-0.968,0-1.732-0.274-2.291-0.823c-0.561-0.548-0.84-1.298-0.84-2.249
		c0-0.895,0.256-1.62,0.769-2.167c0.512-0.547,1.188-0.82,2.031-0.82c0.847,0,1.467,0.267,1.857,0.803
		c0.392,0.534,0.588,1.381,0.588,2.537H5.266c0.107,1.106,0.713,1.658,1.822,1.658c0.524,0,1.115-0.121,1.773-0.363v1.096
		L8.861,17.777z M5.249,14.503h2.079c0-0.988-0.319-1.482-0.955-1.482C5.724,13.02,5.35,13.515,5.249,14.503L5.249,14.503z
		 M9.553,17.787v-1.144c0.774,0.324,1.438,0.485,1.985,0.485c0.641,0,0.961-0.218,0.961-0.655c0-0.281-0.263-0.526-0.793-0.738
		l-0.526-0.211c-0.575-0.232-0.984-0.482-1.231-0.749c-0.247-0.271-0.381-0.627-0.37-0.993c0-0.548,0.211-0.976,0.628-1.281
		c0.418-0.304,1.006-0.456,1.759-0.456c0.471,0,1.033,0.068,1.683,0.206v1.097c-0.626-0.216-1.145-0.326-1.556-0.326
		c-0.649,0-0.972,0.2-0.972,0.602c0,0.263,0.239,0.487,0.718,0.671l0.454,0.173c0.68,0.258,1.153,0.517,1.418,0.781
		c0.269,0.271,0.414,0.639,0.399,1.02c0,0.545-0.227,0.989-0.68,1.328c-0.451,0.34-1.041,0.51-1.765,0.51
		c-0.696,0-1.4-0.107-2.111-0.318L9.553,17.787L9.553,17.787z M15.047,17.972v-5.797h1.563v5.797H15.047z M15.047,11.199V9.894
		h1.563v1.303h-1.563V11.199z M17.791,17.972v-5.797h1.563v1.094c0.509-0.818,1.169-1.224,1.974-1.224
		c0.518,0,0.926,0.164,1.225,0.49c0.299,0.327,0.448,0.775,0.448,1.342v4.097H21.44V14.26c0-0.658-0.219-0.987-0.655-0.987
		c-0.495,0-0.974,0.351-1.43,1.051v3.649L17.791,17.972L17.791,17.972z"/>
</g>
</svg>
