<?xml version="1.0" encoding="utf-8"?>
<!-- Generator: Adobe Illustrator 23.0.2, SVG Export Plug-In . SVG Version: 6.00 Build 0)  -->
<svg version="1.1" id="图层_1" xmlns="http://www.w3.org/2000/svg" xmlns:xlink="http://www.w3.org/1999/xlink" x="0px" y="0px"
	 viewBox="0 0 30 30" enable-background="new 0 0 30 30" xml:space="preserve">
<g>
	<path fill="#AFAFAF" d="M12.682,13.262c-0.128-0.249-0.383-0.373-0.761-0.373c-0.281,0-0.536,0.059-0.771,0.169
		c-0.235,0.112-0.493,0.301-0.774,0.562l0.221-0.643H9.319l-1.365,3.943h1.372l0.653-1.895c0.125-0.356,0.262-0.608,0.412-0.745
		c0.154-0.14,0.31-0.209,0.477-0.209c0.15,0,0.248,0.052,0.297,0.154c0.049,0.105,0.029,0.277-0.056,0.526l-0.748,2.17h1.379
		l0.866-2.506C12.786,13.896,12.809,13.51,12.682,13.262z"/>
	<path fill="#AFAFAF" d="M8.009,13.575c-0.206-0.458-0.67-0.686-1.386-0.686c-0.627,0-1.192,0.196-1.695,0.585
		c-0.504,0.389-0.856,0.885-1.066,1.487c-0.222,0.647-0.186,1.17,0.114,1.568c0.246,0.324,0.654,0.483,1.23,0.483
		c0.643,0,1.215-0.195,1.712-0.585c0.5-0.386,0.853-0.882,1.062-1.489C8.165,14.399,8.175,13.945,8.009,13.575z M6.601,14.944
		c-0.128,0.366-0.284,0.631-0.467,0.797C5.95,15.909,5.758,15.99,5.562,15.99c-0.193,0-0.327-0.081-0.399-0.251
		c-0.072-0.17-0.045-0.428,0.076-0.782c0.121-0.346,0.274-0.604,0.464-0.775c0.186-0.17,0.383-0.254,0.582-0.254
		c0.189,0,0.317,0.084,0.388,0.252C6.741,14.349,6.718,14.601,6.601,14.944z"/>
	<polygon fill="#AFAFAF" points="5.104,11.477 0.464,11.477 0,12.82 1.555,12.82 0.14,16.921 1.67,16.921 3.085,12.82 4.64,12.82 	
		"/>
	<path fill="#AFAFAF" d="M16.215,13.562c-0.076-0.242-0.187-0.412-0.331-0.516c-0.144-0.105-0.356-0.157-0.634-0.157
		c-0.438,0-0.846,0.163-1.225,0.483c-0.379,0.324-0.676,0.791-0.889,1.405c-0.187,0.54-0.229,0.972-0.134,1.298
		c0.137,0.461,0.444,0.689,0.922,0.689c0.245,0,0.493-0.062,0.749-0.186c0.16-0.078,0.34-0.206,0.535-0.383l-0.206,0.598
		c-0.098,0.287-0.219,0.49-0.356,0.608c-0.137,0.114-0.308,0.172-0.504,0.172c-0.15,0-0.264-0.038-0.34-0.114
		c-0.052-0.052-0.072-0.144-0.059-0.281l-1.274-0.167c-0.033,0.082-0.059,0.151-0.075,0.2c-0.14,0.398-0.114,0.716,0.071,0.954
		c0.187,0.239,0.638,0.356,1.357,0.356c0.313,0,0.604-0.029,0.869-0.092c0.265-0.062,0.5-0.163,0.706-0.3
		c0.205-0.14,0.395-0.32,0.568-0.546c0.173-0.225,0.304-0.461,0.389-0.709l0.055-0.174l1.284-3.725H16.41L16.215,13.562z
		 M15.668,14.875c-0.098,0.288-0.232,0.5-0.395,0.644c-0.164,0.141-0.333,0.213-0.503,0.213c-0.18,0-0.301-0.069-0.363-0.206
		c-0.065-0.137-0.046-0.349,0.053-0.633c0.111-0.327,0.245-0.559,0.395-0.696c0.153-0.14,0.317-0.209,0.494-0.209
		c0.176,0,0.296,0.075,0.366,0.229C15.782,14.369,15.766,14.589,15.668,14.875z"/>
	<path fill="#AFAFAF" d="M22.445,12.978l-1.399,2.281l-0.467,0.761l0.082-0.754l0.255-2.287h-0.624l-1.366,2.31
		c-0.287,0.5-0.444,0.772-0.467,0.814l0.079-0.846l0.215-2.277h-0.627l-0.264,3.943h0.63l1.771-3.035l-0.095,0.673l-0.245,2.362
		h0.63l2.481-3.943H22.445z"/>
	<path fill="#AFAFAF" d="M26.03,13.432c-0.18-0.36-0.51-0.539-0.987-0.539c-0.493,0-0.957,0.183-1.395,0.548
		c-0.435,0.366-0.768,0.883-0.996,1.546c-0.223,0.641-0.24,1.137-0.056,1.493c0.186,0.356,0.539,0.533,1.062,0.533
		c0.415,0,0.797-0.111,1.14-0.333c0.343-0.225,0.634-0.536,0.873-0.941l-0.598-0.086c-0.19,0.281-0.386,0.487-0.592,0.624
		c-0.202,0.128-0.415,0.193-0.637,0.193c-0.298,0-0.506-0.118-0.628-0.346c-0.121-0.232-0.118-0.562,0.01-0.997h2.669
		c0.03-0.082,0.053-0.14,0.066-0.18C26.187,14.294,26.209,13.791,26.03,13.432z M25.451,14.572h-1.997
		c0.137-0.343,0.337-0.618,0.598-0.824c0.261-0.206,0.533-0.308,0.81-0.308c0.308,0,0.513,0.127,0.618,0.386
		C25.55,13.991,25.54,14.239,25.451,14.572z"/>
	<path fill="#AFAFAF" d="M29.919,13.445c-0.065-0.176-0.18-0.314-0.343-0.412c-0.163-0.097-0.356-0.147-0.575-0.147
		c-0.398,0-0.785,0.18-1.164,0.533l0.67-1.941h-0.608l-1.879,5.444h0.563l0.173-0.496c0.107,0.389,0.372,0.581,0.794,0.581
		c0.421,0,0.849-0.183,1.281-0.552c0.432-0.369,0.765-0.892,0.996-1.569c0.099-0.284,0.157-0.548,0.17-0.801
		C30.01,13.837,29.983,13.621,29.919,13.445z M29.183,14.947c-0.173,0.504-0.398,0.879-0.679,1.134
		c-0.282,0.254-0.556,0.382-0.82,0.382c-0.327,0-0.526-0.172-0.598-0.516c-0.043-0.213,0.016-0.553,0.18-1.026
		c0.167-0.48,0.388-0.85,0.666-1.101c0.281-0.255,0.555-0.382,0.821-0.382c0.264,0,0.444,0.124,0.545,0.369
		C29.399,14.052,29.359,14.431,29.183,14.947z"/>
</g>
</svg>
