<?xml version="1.0" encoding="utf-8"?>
<!-- Generator: Adobe Illustrator 23.0.2, SVG Export Plug-In . SVG Version: 6.00 Build 0)  -->
<svg version="1.1" id="图层_1" xmlns="http://www.w3.org/2000/svg" xmlns:xlink="http://www.w3.org/1999/xlink" x="0px" y="0px"
	 viewBox="0 0 30 30" enable-background="new 0 0 30 30" xml:space="preserve">
<g>
	<g>
		<path fill="#AFAFAF" d="M16.134,14.437c0.1-3.116-0.842-6.336-1.146-6.78l-0.103-0.149l-0.06,0.174
			c-0.026,0.077-0.054,0.167-0.084,0.265c-0.124,0.402-0.304,0.983-0.707,1.6c-1.527-1.674-3.689-2.627-5.955-2.625
			c-3.277,0-6.228,1.98-7.473,5.011S0.07,18.447,2.4,20.75c-0.062-0.304,0.074-0.615,0.34-0.775c0.266-0.161,0.604-0.137,0.844,0.06
			c0.24,0.196,0.331,0.523,0.227,0.815c-0.104,0.293-0.381,0.488-0.692,0.488c-0.021,0-0.041-0.004-0.062-0.006
			c2.429,1.926,5.745,2.293,8.536,0.944c2.79-1.348,4.564-4.174,4.565-7.273C16.16,14.811,16.148,14.624,16.134,14.437
			L16.134,14.437z M14.917,7.995L14.93,7.95c0.466,1.114,1.688,6.051,0.548,9.331c-1.327,2.921-4.701,4.045-9.965,3.321
			c1.898-0.308,7.275-1.689,8.509-7.378l0.101-0.48l-0.265,0.369c-0.951,1.408-4.442,5.951-9.463,5.951H4.394
			c-0.434,0-0.876,0.019-1.307-0.051c-0.618-0.128-1.049-1.033-0.984-2.128c0.111-1.817,1.574-3.871,5.351-4.187
			C13.629,12.18,14.532,9.248,14.917,7.995L14.917,7.995z"/>
	</g>
</g>
</svg>
