<?xml version="1.0" encoding="utf-8"?>
<!-- Generator: Adobe Illustrator 23.0.2, SVG Export Plug-In . SVG Version: 6.00 Build 0)  -->
<svg version="1.1" id="图层_1" xmlns="http://www.w3.org/2000/svg" xmlns:xlink="http://www.w3.org/1999/xlink" x="0px" y="0px"
	 viewBox="0 0 30 30" enable-background="new 0 0 30 30" xml:space="preserve">
<path fill="#AFAFAF" d="M8.5,6.5C3.806,6.5,0,10.306,0,15s3.806,8.5,8.5,8.5S17,19.694,17,15S13.194,6.5,8.5,6.5z M8.074,14.295
	c-0.375-0.333-0.811-0.5-1.307-0.5c-0.582,0-1.075,0.226-1.479,0.677c-0.405,0.452-0.64,1.054-0.706,1.806
	c-0.065,0.74,0.057,1.32,0.365,1.739c0.307,0.419,0.754,0.628,1.34,0.628c0.495,0,0.979-0.182,1.45-0.547l-0.091,1.046
	c-0.465,0.295-1.008,0.442-1.628,0.442c-0.832,0-1.474-0.298-1.927-0.896c-0.454-0.597-0.638-1.37-0.555-2.32
	c0.092-1.054,0.439-1.905,1.041-2.55c0.601-0.645,1.36-0.968,2.273-0.968c0.527,0,0.968,0.105,1.323,0.314L8.074,14.295z
	 M12.678,10.887c-0.18-0.112-0.381-0.168-0.603-0.168c-0.637,0-0.995,0.442-1.072,1.326l-0.084,0.959h1.346l-0.082,0.942h-1.346
	l-0.48,5.489H9.349l0.48-5.489H8.847l0.082-0.942h0.982L10,11.992c0.061-0.69,0.286-1.232,0.674-1.625
	c0.389-0.393,0.857-0.591,1.405-0.591c0.291,0,0.52,0.037,0.687,0.11L12.678,10.887z"/>
</svg>
