<?xml version="1.0" encoding="utf-8"?>
<!-- Generator: Adobe Illustrator 23.0.2, SVG Export Plug-In . SVG Version: 6.00 Build 0)  -->
<svg version="1.1" id="图层_1" xmlns="http://www.w3.org/2000/svg" xmlns:xlink="http://www.w3.org/1999/xlink" x="0px" y="0px"
	 viewBox="0 0 30 30" enable-background="new 0 0 30 30" xml:space="preserve">
<path fill="#AFAFAF" d="M2.922,9.88c0.151-0.165,0.411-0.175,0.573-0.019c0.045,0.041,3.766,3.456,8.421,4.372
	c3.222,0.636,6.377,0.919,8.084,1.037c-0.055-0.565-0.536-0.645-2.097-1.374c-0.915-0.428-2.343-1.311-3.836-2.196
	c-0.912,0.744-2.194,1.231-2.457,1.326l-0.024,0.008c-0.21,0.076-0.443-0.033-0.52-0.246c-0.076-0.21,0.033-0.443,0.243-0.518
	l0.004-0.002c0.043-0.015,0.647-0.239,1.294-0.588c0.26-0.143,0.495-0.285,0.696-0.428c-0.373-0.216-0.744-0.428-1.105-0.626
	c-0.505,0.254-1.054,0.475-1.55,0.655c-0.908,0.329-1.658,0.527-1.719,0.54c-0.216,0.056-0.439-0.074-0.492-0.292
	c-0.056-0.216,0.074-0.439,0.29-0.496c0.019-0.007,1.336-0.348,2.574-0.885c-0.597-0.302-1.155-0.556-1.64-0.718
	C7.328,8.632,4.265,8.447,2.54,9.161l-1.924-2.2C0.494,6.82,0.281,6.801,0.133,6.916C-0.024,7.039-0.046,7.271,0.088,7.42
	l1.929,2.216c0,0-1.289,5.018,5.582,7.128c6.046,1.86,10.96,0.341,12.121-0.705c-1.777-0.128-4.844-0.421-7.97-1.035
	c-4.894-0.96-8.659-4.425-8.819-4.574C2.78,10.3,2.77,10.045,2.922,9.88L2.922,9.88z M4.474,22.103h-0.84L3.3,21.234H1.77
	l-0.315,0.869h-0.82l1.49-3.826h0.817L4.474,22.103L4.474,22.103z M3.052,20.59l-0.527-1.42l-0.516,1.42H3.052L3.052,20.59z
	 M4.858,19.332h0.684v0.407C5.63,19.6,5.75,19.486,5.901,19.4c0.152-0.087,0.319-0.131,0.504-0.131c0.322,0,0.595,0.126,0.819,0.378
	C7.449,19.9,7.56,20.251,7.56,20.702c0,0.463-0.113,0.823-0.339,1.079c-0.226,0.256-0.5,0.385-0.822,0.385
	c-0.153,0-0.292-0.03-0.416-0.091c-0.125-0.061-0.255-0.165-0.393-0.314v1.396H4.858V19.332L4.858,19.332z M5.583,20.671
	c0,0.312,0.062,0.542,0.185,0.69c0.124,0.149,0.274,0.223,0.452,0.223c0.171,0,0.313-0.068,0.425-0.205
	c0.113-0.136,0.17-0.361,0.17-0.672c0-0.291-0.058-0.506-0.175-0.647s-0.261-0.212-0.434-0.212c-0.179,0-0.328,0.069-0.446,0.207
	C5.642,20.194,5.583,20.4,5.583,20.671L5.583,20.671z M8.692,20.178l-0.665-0.12c0.075-0.268,0.204-0.466,0.386-0.595
	c0.183-0.129,0.455-0.193,0.815-0.193c0.327,0,0.571,0.039,0.731,0.116c0.16,0.077,0.273,0.175,0.338,0.295
	c0.065,0.119,0.098,0.338,0.098,0.656l-0.008,0.856c0,0.244,0.012,0.424,0.035,0.539c0.024,0.115,0.067,0.24,0.132,0.372H9.828
	c-0.019-0.049-0.043-0.121-0.07-0.216c-0.012-0.044-0.021-0.072-0.026-0.086c-0.125,0.122-0.259,0.213-0.402,0.275
	c-0.143,0.061-0.295,0.091-0.456,0.091c-0.285,0-0.51-0.077-0.675-0.233c-0.165-0.155-0.246-0.351-0.246-0.587
	c0-0.156,0.037-0.296,0.112-0.419c0.075-0.123,0.18-0.216,0.315-0.282c0.135-0.065,0.329-0.122,0.584-0.171
	c0.343-0.065,0.58-0.125,0.713-0.18v-0.073c0-0.141-0.035-0.242-0.105-0.302s-0.201-0.09-0.395-0.09
	c-0.13,0-0.232,0.025-0.305,0.077C8.796,19.959,8.737,20.049,8.692,20.178L8.692,20.178z M9.673,20.772
	c-0.094,0.031-0.243,0.069-0.446,0.112c-0.204,0.044-0.336,0.086-0.399,0.128c-0.095,0.068-0.144,0.154-0.144,0.258
	c0,0.103,0.038,0.192,0.115,0.266c0.076,0.075,0.175,0.113,0.293,0.113c0.132,0,0.258-0.044,0.378-0.131
	c0.089-0.066,0.147-0.147,0.175-0.243c0.019-0.063,0.029-0.182,0.029-0.357V20.772L9.673,20.772z M13.533,20.152l-0.723,0.13
	c-0.025-0.145-0.079-0.253-0.165-0.326c-0.086-0.073-0.198-0.11-0.335-0.11c-0.183,0-0.328,0.063-0.437,0.189
	s-0.163,0.337-0.163,0.633c0,0.329,0.055,0.561,0.165,0.697c0.111,0.135,0.259,0.204,0.445,0.204c0.139,0,0.253-0.039,0.342-0.119
	c0.089-0.079,0.152-0.215,0.188-0.408l0.72,0.123c-0.075,0.331-0.218,0.58-0.431,0.749c-0.213,0.169-0.496,0.253-0.854,0.253
	c-0.405,0-0.729-0.128-0.97-0.384s-0.362-0.61-0.362-1.063c0-0.457,0.121-0.814,0.363-1.069c0.242-0.255,0.569-0.383,0.982-0.383
	c0.337,0,0.606,0.073,0.805,0.218C13.303,19.633,13.446,19.854,13.533,20.152L13.533,20.152z M14.82,18.278v1.406
	c0.236-0.276,0.519-0.415,0.848-0.415c0.169,0,0.321,0.031,0.456,0.094c0.135,0.063,0.238,0.143,0.306,0.24
	c0.069,0.097,0.115,0.205,0.141,0.324c0.025,0.118,0.038,0.302,0.038,0.551v1.626h-0.734V20.64c0-0.291-0.014-0.475-0.042-0.554
	c-0.028-0.078-0.077-0.141-0.147-0.186c-0.07-0.046-0.159-0.069-0.265-0.069c-0.122,0-0.231,0.03-0.326,0.089
	c-0.095,0.059-0.165,0.148-0.21,0.267c-0.045,0.119-0.066,0.295-0.066,0.528v1.388h-0.734v-3.826L14.82,18.278L14.82,18.278z
	 M18.959,21.222l0.731,0.123c-0.094,0.268-0.243,0.472-0.445,0.612c-0.203,0.14-0.456,0.21-0.761,0.21
	c-0.482,0-0.839-0.157-1.07-0.473c-0.183-0.252-0.275-0.571-0.275-0.955c0-0.459,0.12-0.819,0.36-1.079
	c0.24-0.26,0.544-0.39,0.911-0.39c0.413,0,0.737,0.136,0.976,0.408c0.238,0.273,0.353,0.689,0.342,1.252h-1.837
	c0.005,0.217,0.065,0.386,0.177,0.507c0.113,0.121,0.254,0.182,0.423,0.182c0.115,0,0.212-0.031,0.29-0.094
	C18.86,21.462,18.919,21.361,18.959,21.222L18.959,21.222z M19.001,20.481c-0.005-0.212-0.06-0.374-0.165-0.484
	c-0.105-0.111-0.232-0.165-0.381-0.165c-0.16,0-0.293,0.058-0.396,0.175c-0.105,0.116-0.155,0.275-0.154,0.475H19.001L19.001,20.481
	z"/>
</svg>
