<?xml version="1.0" encoding="utf-8"?>
<!-- Generator: Adobe Illustrator 23.0.2, SVG Export Plug-In . SVG Version: 6.00 Build 0)  -->
<svg version="1.1" id="图层_1" xmlns="http://www.w3.org/2000/svg" xmlns:xlink="http://www.w3.org/1999/xlink" x="0px" y="0px"
	 viewBox="0 0 30 30" enable-background="new 0 0 30 30" xml:space="preserve">
<g>
	<path fill="#AFAFAF" d="M11.056,15.261c-1.12-0.027-2.121,0.693-2.451,1.763c-0.223,0.748-0.14,1.446,0.45,2.016
		s1.296,0.654,2.054,0.413c0.104-0.033,0.256-0.108,0.274-0.188c0.075-0.338,0.109-0.687,0.168-1.1
		c-0.173,0.114-0.273,0.188-0.38,0.25c-0.615,0.36-1.367,0.159-1.609-0.427c-0.19-0.46-0.046-1.008,0.368-1.391
		c0.388-0.36,0.977-0.471,1.394-0.264c0.383,0.191,0.593,0.691,0.525,1.252c-0.049,0.409-0.096,0.819-0.155,1.228
		c-0.102,0.746-0.159,0.666,0.618,0.654c0.124-0.002,0.242-0.013,0.242-0.013c0.099-0.729,0.245-1.637,0.276-2.37
		C12.87,16.088,12.053,15.283,11.056,15.261z"/>
	<path fill="#AFAFAF" d="M21.712,11.6c0.193-0.231,0.387-0.494,0.193-0.794s-0.51-0.229-0.805-0.167
		c-0.039,0.008-0.077,0.02-0.115,0.03c-0.494,0.13-0.989,0.259-1.482,0.392c-0.477,0.128-0.475,0.128-0.733-0.303
		c-0.229-0.387-0.451-0.783-0.708-1.154c-0.348-0.504-0.845-0.475-1.14,0.064c-0.092,0.184-0.156,0.38-0.191,0.584
		c-0.091,0.453-0.177,0.907-0.236,1.365c-0.032,0.259-0.151,0.372-0.39,0.436c-0.379,0.101-0.752,0.228-1.124,0.354
		c-0.269,0.091-0.547,0.174-0.796,0.306c-0.425,0.227-0.484,0.658-0.157,1.009c0.1,0.108,0.218,0.197,0.35,0.263
		c0.362,0.177,0.731,0.338,1.102,0.494c0.072,0.031,0.19,0.052,0.25,0.016c0.317-0.186,0.624-0.392,1.007-0.639l-1.444-0.585
		c0.47-0.217,0.958-0.391,1.459-0.522c0.322-0.086,0.505-0.236,0.531-0.59c0.023-0.321,0.104-0.64,0.163-0.958
		c0.032-0.176,0.072-0.348,0.109-0.525c0.305,0.396,0.58,0.815,0.822,1.252c0.115,0.204,0.241,0.271,0.477,0.2
		c0.451-0.138,0.91-0.251,1.366-0.369c0.085-0.023,0.171-0.039,0.257-0.059c-0.312,0.452-0.656,0.882-1.028,1.285
		c-0.207,0.226-0.266,0.413-0.089,0.691c0.211,0.332,0.373,0.691,0.554,1.04c0.037,0.071,0.057,0.148,0.106,0.28l-1.422-0.382
		c0.059,0.35,0.097,0.637,0.161,0.92c0.015,0.065,0.115,0.134,0.189,0.159c0.442,0.141,0.879,0.28,1.326,0.398
		c0.311,0.081,0.608,0.045,0.83-0.233c0.222-0.277,0.167-0.566,0.014-0.856c-0.244-0.461-0.476-0.927-0.732-1.38
		c-0.113-0.2-0.118-0.336,0.046-0.518C20.871,12.614,21.291,12.105,21.712,11.6z"/>
	<path fill="#AFAFAF" d="M2.971,16.497c-0.311-0.313-0.608-0.642-0.892-0.981c-0.216-0.257-0.122-0.531,0.193-0.649
		c0.248-0.091,0.462-0.02,0.649,0.153c0.11,0.104,0.214,0.295,0.325,0.295c0.126,0.003,0.258-0.156,0.386-0.246
		c0.112-0.08,0.218-0.169,0.332-0.245c0.134-0.089,0.148-0.171,0.05-0.311c-0.37-0.53-0.858-0.793-1.511-0.715
		c-0.742,0.089-1.258,0.498-1.545,1.166c-0.271,0.626-0.009,1.142,0.425,1.606c0.31,0.328,0.609,0.669,0.904,1.01
		c0.159,0.184,0.218,0.398,0.094,0.627c-0.119,0.215-0.34,0.354-0.586,0.366c-0.246,0.012-0.48-0.104-0.619-0.307
		c-0.082-0.122-0.145-0.254-0.236-0.413c-0.288,0.153-0.533,0.297-0.787,0.416c-0.095,0.045-0.15,0.092-0.166,0.151
		c-0.009,0.077,0.005,0.156,0.042,0.224c0.288,0.717,0.842,1.039,1.704,0.944c0.814-0.089,1.386-0.522,1.699-1.277
		C3.731,17.596,3.485,17.015,2.971,16.497z"/>
	<path fill="#AFAFAF" d="M5.737,15.329c-0.98,0.245-1.728,1.085-1.875,2.124c-0.126,0.885-0.24,1.772-0.354,2.658
		c-0.086,0.673-0.083,0.668,0.61,0.638c0.193-0.009,0.278-0.076,0.299-0.273c0.042-0.398,0.106-0.795,0.165-1.212
		c0.271,0.101,0.495,0.212,0.731,0.264c1.283,0.276,2.7-0.75,2.859-2.055C8.352,15.991,7.186,14.966,5.737,15.329z M5.881,18.59
		c-0.606,0.002-1.047-0.414-1.056-0.995c-0.007-0.718,0.629-1.362,1.35-1.367c0.273-0.006,0.538,0.098,0.734,0.29
		c0.196,0.192,0.305,0.454,0.304,0.728C7.218,17.958,6.594,18.589,5.881,18.59z"/>
	<path fill="#AFAFAF" d="M6.729,14.11h0.275c0.051,0,0.101-0.008,0.15-0.024c0.046-0.015,0.09-0.038,0.127-0.07
		c0.037-0.032,0.066-0.073,0.086-0.118c0.022-0.049,0.033-0.101,0.032-0.155c0.002-0.049-0.007-0.099-0.026-0.145
		c-0.016-0.037-0.041-0.069-0.073-0.093C7.267,13.48,7.23,13.463,7.19,13.453c-0.046-0.01-0.093-0.016-0.141-0.016H6.641
		l-0.21,1.048h0.221L6.729,14.11z M6.829,13.617h0.19c0.02,0,0.039,0.002,0.059,0.005c0.018,0.004,0.035,0.011,0.05,0.02
		s0.027,0.024,0.036,0.039c0.01,0.02,0.014,0.043,0.013,0.065c0.005,0.051-0.013,0.101-0.049,0.138
		c-0.037,0.031-0.085,0.048-0.134,0.045L6.767,13.93L6.829,13.617z"/>
	<polygon fill="#AFAFAF" points="10.966,14.035 11.376,14.035 11.284,14.486 11.507,14.486 11.721,13.438 11.497,13.438 
		11.415,13.841 11.006,13.841 11.087,13.438 10.864,13.438 10.651,14.486 10.874,14.486 	"/>
	<path fill="#AFAFAF" d="M9.657,14.51c0.051,0.001,0.103-0.006,0.152-0.021c0.046-0.014,0.09-0.038,0.126-0.069
		c0.041-0.035,0.076-0.077,0.103-0.124c0.034-0.059,0.061-0.121,0.08-0.186H9.896c-0.005,0.027-0.014,0.054-0.028,0.079
		c-0.013,0.025-0.031,0.047-0.053,0.067c-0.021,0.019-0.045,0.035-0.071,0.046c-0.027,0.011-0.056,0.017-0.086,0.017
		c-0.036,0.001-0.071-0.006-0.104-0.022c-0.027-0.014-0.052-0.034-0.071-0.059c-0.019-0.026-0.033-0.055-0.041-0.086
		c-0.009-0.034-0.014-0.068-0.013-0.103c0-0.052,0.007-0.104,0.02-0.153c0.012-0.05,0.032-0.098,0.059-0.142
		c0.026-0.042,0.061-0.078,0.103-0.104c0.044-0.027,0.096-0.042,0.148-0.04c0.049-0.002,0.096,0.016,0.131,0.049
		c0.035,0.04,0.053,0.093,0.049,0.145h0.222c0.003-0.057-0.005-0.113-0.024-0.167c-0.019-0.046-0.047-0.088-0.084-0.122
		c-0.038-0.034-0.082-0.059-0.13-0.075c-0.053-0.017-0.108-0.025-0.163-0.025c-0.079-0.001-0.159,0.016-0.23,0.051
		c-0.068,0.033-0.129,0.08-0.177,0.138c-0.049,0.06-0.086,0.128-0.11,0.202c-0.026,0.078-0.038,0.159-0.038,0.242
		c-0.008,0.126,0.035,0.249,0.118,0.343C9.414,14.475,9.534,14.518,9.657,14.51z"/>
	<path fill="#AFAFAF" d="M5.266,14.25h0.38l0.032,0.236H5.9l-0.169-1.048H5.502l-0.599,1.048h0.236L5.266,14.25z M5.577,13.665
		l0.049,0.417H5.359L5.577,13.665z"/>
	<path fill="#AFAFAF" d="M8.447,13.438H8.214l-0.596,1.048h0.236l0.127-0.236h0.378l0.032,0.236h0.223L8.447,13.438z M8.074,14.082
		l0.218-0.417l0.049,0.417H8.074z"/>
	<path fill="#AFAFAF" d="M15.351,15.362c-0.26,0-0.482-0.013-0.703,0.003c-0.742,0.051-1.202,0.467-1.307,1.197
		c-0.109,0.759-0.202,1.519-0.305,2.279c-0.105,0.775-0.107,0.599,0.548,0.636c0.278,0.016,0.377-0.086,0.408-0.354
		c0.092-0.801,0.209-1.597,0.31-2.397c0.033-0.262,0.17-0.384,0.431-0.38c0.108,0.01,0.216,0.007,0.323-0.009
		c0.071-0.018,0.17-0.084,0.181-0.143C15.288,15.936,15.312,15.673,15.351,15.362z"/>
	<polygon fill="#AFAFAF" points="12.975,14.034 13.012,13.857 12.503,13.857 12.549,13.632 13.098,13.632 13.136,13.438 
		12.368,13.438 12.157,14.486 12.935,14.486 12.972,14.292 12.414,14.292 12.467,14.034 	"/>
	<path fill="#AFAFAF" d="M17.522,16.983c-0.115-0.159-0.112-0.259,0.029-0.398c0.28-0.275,0.546-0.565,0.811-0.856
		c0.063-0.069,0.142-0.168,0.135-0.246c-0.029-0.297-0.088-0.591-0.147-0.977l-1.565,1.726L16.717,16.2l0.285-2.277
		c-0.366,0.236-0.665,0.404-0.933,0.61c-0.125,0.099-0.211,0.239-0.244,0.394c-0.182,1.263-0.358,2.528-0.508,3.796
		c-0.098,0.829-0.28,0.732,0.654,0.748c0.236,0.004,0.328-0.077,0.354-0.313c0.065-0.6,0.157-1.199,0.246-1.859
		c0.092,0.129,0.15,0.203,0.2,0.28c0.363,0.55,0.72,1.102,1.089,1.648c0.063,0.092,0.159,0.218,0.247,0.225
		c0.365,0.025,0.735,0.011,1.149,0.011c-0.068-0.119-0.1-0.19-0.143-0.249C18.584,18.47,18.059,17.723,17.522,16.983z"/>
	<path fill="#AFAFAF" d="M20.243,19.325c-0.013,0.036-0.021,0.063-0.027,0.082c-0.005-0.016-0.013-0.042-0.024-0.075l-0.118-0.358
		h-0.098v0.507l0.062-0.002v-0.431l0.146,0.431h0.059l0.148-0.424v0.424h0.065v-0.507h-0.09L20.243,19.325z"/>
	<polygon fill="#AFAFAF" points="19.507,19.033 19.673,19.033 19.673,19.48 19.741,19.48 19.741,19.033 19.908,19.033 
		19.908,18.974 19.507,18.974 	"/>
</g>
</svg>
