<?xml version="1.0" encoding="utf-8"?>
<!-- Generator: Adobe Illustrator 23.0.2, SVG Export Plug-In . SVG Version: 6.00 Build 0)  -->
<svg version="1.1" id="图层_1" xmlns="http://www.w3.org/2000/svg" xmlns:xlink="http://www.w3.org/1999/xlink" x="0px" y="0px"
	 viewBox="0 0 30 30" enable-background="new 0 0 30 30" xml:space="preserve">
<g>
	<path fill="#AFAFAF" d="M19.534,16.522c0,0-0.211-0.211-0.526-0.42C19.322,16.418,19.534,16.522,19.534,16.522z"/>
	<path fill="#AFAFAF" d="M21.318,15.787c0,0-1.681-1.365-1.786-1.68c-0.105-0.316,1.259,0.105,1.259,0.105s-1.574-0.735-1.574-0.945
		c0-0.211,1.05,0.21,1.05,0.21s-1.365-1.051-1.681-0.105c-1.155,2.1-3.466,3.361-6.301,3.78c-2.73,0.42-4.725-0.211-6.407-0.63
		c-2.204-0.63-3.99,0.42-5.879-0.525c0.42,0.315,0.945,0.735,2.415,0.63c0.526,0,2.101-0.105,2.311,0.21
		c0.315,0.315-0.946,1.47-0.946,1.47s2.1-1.786,2.31-1.155c0.211,0.315-0.524,1.365-0.524,1.365s0.736-0.945,1.261-1.155
		c0.42-0.105,0.735-0.105,0.945,0.21c0.211,0.315-0.84,1.47-0.84,1.47s1.47-1.365,1.681-1.26c0.21,0.105,0,1.26,0,1.26
		s0.524-1.26,0.84-1.365c0.42-0.105-0.84,2.94-0.84,2.94s1.575-2.836,1.785-2.836c0.526-0.105,0.841,1.995,0.841,1.995
		s-0.211-1.786,0-1.891c1.575-0.735,0.735,3.151,0.735,3.151s1.051-2.626,0.42-3.256c1.681,1.155,1.47,3.256,1.47,3.256
		s0.42-0.945-0.84-3.361c0.63-0.211,1.681,1.575,1.681,1.575s-1.156-1.995-0.316-1.995c1.471-0.105,1.682,2.626,1.682,2.626
		s0.42-0.42-0.736-3.046c0.736-0.525,2.626,2.521,2.626,2.521s-1.786-2.835-1.471-3.046c0.315-0.21,1.26,0.946,1.26,0.946
		s-0.735-1.051-0.526-1.155c0.211-0.105,2.311,2.1,2.311,2.1s-1.786-2.206-1.47-2.416c0.21-0.105,0.735,0.105,1.05,0.315
		c-0.525-0.42-1.365-1.051-1.05-1.155c0.524-0.315,2.1,0.735,2.1,0.735s-0.945-0.735-0.841-0.946
		C19.429,14.422,21.318,15.787,21.318,15.787z"/>
	<path fill="#AFAFAF" d="M15.715,9.134c0.024-0.042,0.037-0.068,0.037-0.068L15.715,9.134z"/>
	<path fill="#AFAFAF" d="M20.583,12.006c0.945-0.525,1.68-1.89,1.68-1.89s-1.786,1.89-3.044,1.575
		c1.155-0.945,1.68-2.415,1.68-2.415s-1.469,2.205-2.311,2.311c1.051-0.945,1.47-2.206,1.47-2.206s-1.155,1.786-2.099,1.891
		c1.26-1.155,1.26-1.786,1.26-1.786s-1.682,2.205-2.416,1.89c0.841-0.84,1.365-1.995,1.365-1.995s-1.47,1.891-1.786,1.575
		c-0.315,0,0.42-0.945,0.42-0.945s-0.84,0.735-1.155,0.63c0.42-0.316,1.155-1.681,1.155-1.681s-1.47,1.681-1.786,1.47l0.698-1.297
		c-0.157,0.283-0.821,1.362-1.643,1.087c0.42-0.525,0.631-1.05,0.631-1.05s-0.736,1.155-1.681,0.84
		c-0.211-0.105,0.315-0.63,0.315-0.63s-0.63,0.63-1.051,0.525c-0.42-0.105,0-0.84,0-0.84s-0.735,1.155-0.84,1.05
		c-0.105,0,0.106-0.735,0.106-0.735s-0.525,0.84-0.841,0.84c-0.315,0,0-0.84,0-0.945c0,0.105-0.315,0.945-0.524,0.84
		c-0.315,0-0.315-0.63-0.315-0.63s-0.106,0.841-0.421,0.841c-2.625,0.525-5.461,1.575-9.137,5.25
		c2.403-1.254,3.77-3.027,6.577-3.975c-0.247,0.726-0.054,1.697,0.144,2.294c0.356,1.066,1.058,1.882,2.152,2.338
		c0.514,0.249,1.071,0.393,1.629,0.393c0.036,0,0.07-0.01,0.106-0.011c0.036,0.002,0.068,0.009,0.105,0.011
		c2.205,0.105,3.781-2.311,3.886-4.096c0-0.638-0.084-1.108-0.242-1.43c2.708,0.545,4.037,1.747,4.652,1.849
		c2.311,0.105,3.677-2.1,3.677-2.1S21.634,12.427,20.583,12.006z"/>
</g>
</svg>
