<?xml version="1.0" encoding="utf-8"?>
<!-- Generator: Adobe Illustrator 23.0.2, SVG Export Plug-In . SVG Version: 6.00 Build 0)  -->
<svg version="1.1" id="图层_1" xmlns="http://www.w3.org/2000/svg" xmlns:xlink="http://www.w3.org/1999/xlink" x="0px" y="0px"
	 viewBox="0 0 30 30" enable-background="new 0 0 30 30" xml:space="preserve">
<g>
	<path fill="#AFAFAF" d="M6.124,15.337l-4.175,3.772c-0.039,0.257-0.059,0.517-0.06,0.777c0,2.603,2.122,4.72,4.729,4.72
		c1.533,0,2.961-0.737,3.843-1.976l0.709-3.739l-0.863-1.647L6.124,15.337z"/>
	<path fill="#AFAFAF" d="M5.008,13.741l-3.073-0.827c-1.145,0.41-1.955,1.511-1.99,2.727c-0.032,1.116,0.579,2.164,1.548,2.701
		l4.02-3.428L5.008,13.741z"/>
	<path fill="#AFAFAF" d="M6.32,14.727l4.159,1.894l4.286-3.762c0.04-0.262,0.06-0.51,0.06-0.754c0-2.597-2.113-4.711-4.71-4.711
		c-1.514,0-2.934,0.729-3.817,1.957L5.57,13.122L6.32,14.727z"/>
	<path fill="#AFAFAF" d="M11.72,18.858l-0.361,3.523c0.378,0.166,0.789,0.233,1.206,0.196c0.674-0.057,1.297-0.383,1.728-0.904
		c0.43-0.513,0.636-1.177,0.571-1.844c-0.015-0.182-0.05-0.361-0.105-0.535L11.72,18.858z"/>
	<path fill="#AFAFAF" d="M5.171,12.673l0.623-3.481C5.438,9.001,5.04,8.903,4.637,8.908C3.282,8.92,2.19,10.062,2.203,11.454
		c0.001,0.181,0.022,0.362,0.06,0.538L5.171,12.673z"/>
	<path fill="#AFAFAF" d="M15.319,13.371l-4.009,3.512l0.622,1.186l3.113,0.726c1.134-0.434,1.907-1.553,1.9-2.771
		C16.943,14.904,16.315,13.881,15.319,13.371z"/>
</g>
</svg>
