<?xml version="1.0" encoding="utf-8"?>
<!-- Generator: Adobe Illustrator 23.0.2, SVG Export Plug-In . SVG Version: 6.00 Build 0)  -->
<svg version="1.1" id="图层_1" xmlns="http://www.w3.org/2000/svg" xmlns:xlink="http://www.w3.org/1999/xlink" x="0px" y="0px"
	 viewBox="0 0 30 30" enable-background="new 0 0 30 30" xml:space="preserve">
<g>
	<path fill="#AFAFAF" d="M18.891,13.487c-0.787-0.788-1.855-1.23-2.969-1.23s-2.182,0.442-2.969,1.23
		c-1.468,1.773-1.474,4.337-0.016,6.118c0.789,0.797,1.863,1.246,2.985,1.246s2.196-0.449,2.984-1.246
		c0.744-0.835,1.134-1.926,1.089-3.043C20.033,15.433,19.638,14.334,18.891,13.487z M17.738,18.566
		c-0.414,0.589-1.096,0.932-1.816,0.913c-0.718,0.026-1.398-0.32-1.8-0.914c-0.737-1.239-0.737-2.782,0-4.021
		c0.399-0.599,1.082-0.945,1.8-0.915c0.721-0.024,1.405,0.321,1.816,0.915v-0.001c0.403,0.594,0.602,1.303,0.568,2.02
		C18.332,17.274,18.134,17.975,17.738,18.566z"/>
	<path fill="#AFAFAF" d="M5.485,16.153h3.111v2.444c-0.39,0.248-0.816,0.434-1.264,0.551c-0.51,0.135-1.036,0.203-1.563,0.205
		c-1.163,0.098-2.307-0.337-3.111-1.183c-0.678-0.894-1.009-2.003-0.931-3.123c-0.073-1.177,0.293-2.34,1.026-3.264
		c0.653-0.75,1.612-1.162,2.606-1.117c0.76-0.041,1.512,0.163,2.147,0.583c0.557,0.41,0.931,1.021,1.042,1.703h1.737
		c-0.117-1.103-0.662-2.117-1.516-2.825c-0.992-0.704-2.195-1.049-3.41-0.978C3.84,9.082,2.376,9.723,1.396,10.886
		c-0.957,1.17-1.451,2.651-1.39,4.162c-0.066,1.492,0.43,2.955,1.39,4.1c1.069,1.166,2.605,1.791,4.184,1.703
		c0.914,0.009,1.824-0.118,2.7-0.378c0.737-0.224,1.428-0.581,2.037-1.053v-4.731H5.485V16.153z"/>
</g>
</svg>
