<?xml version="1.0" encoding="utf-8"?>
<!-- Generator: Adobe Illustrator 23.0.2, SVG Export Plug-In . SVG Version: 6.00 Build 0)  -->
<svg version="1.1" id="图层_1" xmlns="http://www.w3.org/2000/svg" xmlns:xlink="http://www.w3.org/1999/xlink" x="0px" y="0px"
	 viewBox="0 0 30 30" enable-background="new 0 0 30 30" xml:space="preserve">
<g>
	<path fill="#AFAFAF" d="M5.911,18.221l5.425-5.137l3.56,9.045L5.911,18.221z M4.296,15.248l4.184-3.857l2.24,0.914l-5.421,5.017
		L4.296,15.248z M4.567,17.917L0,19.625l0.534-2.964l3.128-0.886L4.567,17.917z M0.747,20.42l4.407-1.535l9.476,3.402L0.747,20.42z
		 M12.109,12.337l1.5-4.24L15,21.872L12.109,12.337z M11.289,11.587l-2.405-0.919L9.781,7.87l2.891-0.157L11.289,11.587z
		 M3.477,14.497L2.594,14.98l-2.035,0.506l1.038-2.034L6.714,8.65l2.164-0.81L8.062,9.963l-0.387,0.593L3.477,14.497z"/>
</g>
</svg>
