<?xml version="1.0" encoding="utf-8"?>
<!-- Generator: Adobe Illustrator 16.0.0, SVG Export Plug-In . SVG Version: 6.00 Build 0)  -->
<!DOCTYPE svg PUBLIC "-//W3C//DTD SVG 1.1//EN" "http://www.w3.org/Graphics/SVG/1.1/DTD/svg11.dtd">
<svg version="1.1" id="图层_1" xmlns="http://www.w3.org/2000/svg" xmlns:xlink="http://www.w3.org/1999/xlink" x="0px" y="0px"
	 width="19.454px" height="20.449px" viewBox="0 0 19.454 20.449" enable-background="new 0 0 19.454 20.449" xml:space="preserve">
<g>
	<path fill="#5D5D5D" d="M17.344,0H3.436C2.27,0,1.323,0.948,1.323,2.112v1.484c0,0.308,0.25,0.557,0.559,0.557
		c0.308,0,0.558-0.249,0.558-0.557V2.112c0-0.549,0.445-0.995,0.993-0.995h13.906c0.549,0,0.994,0.446,0.994,0.995v16.225
		c0,0.548-0.445,0.994-0.994,0.994H3.432c-0.548,0-0.993-0.446-0.993-0.994v-1.979c0-0.308-0.251-0.558-0.559-0.558
		c-0.308,0-0.558,0.25-0.558,0.558v1.979c0,1.164,0.947,2.112,2.111,2.112H17.34c1.164,0,2.111-0.948,2.113-2.112V2.112
		C19.454,0.948,18.508,0,17.344,0z"/>
	<path fill="#5D5D5D" d="M5.906,15.146c0,0.308,0.25,0.557,0.558,0.557c0.309,0,0.559-0.249,0.559-0.557
		c0-1.857,1.512-3.368,3.367-3.368c1.858,0,3.373,1.511,3.373,3.368c0,0.308,0.248,0.557,0.559,0.557
		c0.309,0,0.555-0.243,0.561-0.557c0-1.754-1.022-3.262-2.494-4c0.914-0.635,1.519-1.69,1.519-2.885
		c0-1.939-1.578-3.517-3.517-3.517c-1.938,0-3.512,1.577-3.512,3.517c0,1.195,0.604,2.252,1.52,2.888
		C6.926,11.889,5.906,13.393,5.906,15.146z M10.387,5.864c1.318,0,2.396,1.075,2.396,2.397c0,1.319-1.074,2.395-2.396,2.395
		c-1.322,0-2.396-1.075-2.396-2.395C7.992,6.939,9.065,5.864,10.387,5.864z"/>
	<path fill="#5D5D5D" d="M0.558,10.783h2.561c0.152,0,0.292-0.061,0.399-0.167c0.104-0.106,0.16-0.245,0.158-0.392
		c0-0.309-0.25-0.559-0.557-0.559H0.558C0.25,9.666,0,9.916,0,10.225C0,10.532,0.25,10.783,0.558,10.783z"/>
	<path fill="#5D5D5D" d="M0.558,6.957h2.561c0.152,0,0.292-0.061,0.399-0.167c0.104-0.106,0.16-0.246,0.158-0.392
		c0-0.307-0.25-0.56-0.557-0.56H0.558C0.25,5.839,0,6.092,0,6.398C0,6.706,0.25,6.957,0.558,6.957z"/>
	<path fill="#5D5D5D" d="M3.517,14.445c0.105-0.106,0.161-0.245,0.159-0.391c0-0.31-0.25-0.56-0.557-0.56H0.558
		C0.25,13.495,0,13.745,0,14.055c0,0.308,0.249,0.558,0.557,0.558h2.561C3.271,14.612,3.411,14.553,3.517,14.445z"/>
</g>
</svg>
