<?xml version="1.0" encoding="utf-8"?>
<!-- Generator: Adobe Illustrator 23.0.2, SVG Export Plug-In . SVG Version: 6.00 Build 0)  -->
<svg version="1.1" id="图层_1" xmlns="http://www.w3.org/2000/svg" xmlns:xlink="http://www.w3.org/1999/xlink" x="0px" y="0px"
	 width="19.711px" height="17.524px" viewBox="0 0 19.711 17.524" enable-background="new 0 0 19.711 17.524" xml:space="preserve">
<g>
	<path fill="#606060" d="M12.978,3.437c-0.913-0.91-2.39-0.909-3.303,0.001c-0.91,0.913-0.91,2.39,0,3.302
		c0.569,0.571,1.393,0.807,2.178,0.623c0.426-0.099,0.816-0.315,1.125-0.624V6.739C13.89,5.828,13.89,4.349,12.978,3.437
		C12.979,3.438,12.979,3.438,12.978,3.437z M12.356,5.316c-0.088,0.396-0.395,0.707-0.79,0.8c-0.355,0.084-0.727-0.023-0.984-0.281
		c-0.41-0.412-0.41-1.077,0-1.489c0.205-0.205,0.475-0.308,0.745-0.308c0.581,0,1.052,0.47,1.053,1.051
		C12.38,5.165,12.372,5.241,12.356,5.316z"/>
	<path fill="#606060" d="M16.492,6.637l-0.324-4.354c-0.083-1.05-0.918-1.883-1.968-1.964L9.86,0.007
		C9.069-0.049,8.293,0.241,7.732,0.801L0.799,7.733c-1.065,1.068-1.065,2.797,0,3.865l4.105,4.104
		c0.511,0.514,1.207,0.803,1.932,0.801c0.725,0.002,1.421-0.286,1.932-0.801l6.931-6.93C16.261,8.21,16.551,7.43,16.492,6.637z
		 M14.792,7.866l-6.931,6.93c-0.567,0.566-1.485,0.566-2.052,0l-4.105-4.105c-0.566-0.567-0.566-1.485,0-2.051l6.934-6.933
		c0.298-0.298,0.71-0.452,1.13-0.421l4.339,0.312c0.417,0.032,0.748,0.363,0.781,0.78l0.324,4.354
		C15.245,7.153,15.091,7.567,14.792,7.866z"/>
	<path fill="#606060" d="M19.001,13.194h-2.084V11.23c0.001-0.017,0.001-0.033,0-0.046c-0.012-0.391-0.336-0.7-0.732-0.688
		c-0.19,0.007-0.366,0.086-0.496,0.225c-0.131,0.139-0.198,0.319-0.192,0.505v1.969h-2.084c-0.392,0-0.711,0.319-0.711,0.711
		s0.319,0.711,0.711,0.711h2.084v2.197c0,0.392,0.319,0.711,0.711,0.711s0.71-0.319,0.71-0.711v-2.197h2.084
		c0.392,0,0.71-0.319,0.71-0.711S19.393,13.194,19.001,13.194z"/>
</g>
</svg>
