<?xml version="1.0" encoding="utf-8"?>
<!-- Generator: Adobe Illustrator 16.0.0, SVG Export Plug-In . SVG Version: 6.00 Build 0)  -->
<!DOCTYPE svg PUBLIC "-//W3C//DTD SVG 1.1//EN" "http://www.w3.org/Graphics/SVG/1.1/DTD/svg11.dtd">
<svg version="1.1" id="图层_1" xmlns="http://www.w3.org/2000/svg" xmlns:xlink="http://www.w3.org/1999/xlink" x="0px" y="0px"
	 width="18.492px" height="16.486px" viewBox="0 0 18.492 16.486" enable-background="new 0 0 18.492 16.486" xml:space="preserve">
<g>
	<path fill="#5D5D5D" d="M13.469,15.279H5.022c-0.334,0-0.604,0.271-0.604,0.604c0,0.334,0.271,0.605,0.604,0.605h8.447
		c0.334,0,0.604-0.271,0.604-0.605C14.073,15.55,13.803,15.279,13.469,15.279z"/>
	<path fill="#5D5D5D" d="M16.079,0H2.415C1.082,0,0,1.08,0,2.414v8.037c0,1.332,1.081,2.414,2.414,2.414h13.664
		c1.332,0,2.413-1.082,2.413-2.414V2.414C18.492,1.08,17.411,0,16.079,0z M17.285,10.45c0,0.668-0.54,1.207-1.206,1.207H2.415
		c-0.667,0-1.207-0.539-1.207-1.207V2.414c0-0.668,0.54-1.209,1.207-1.209h13.664c0.666,0,1.206,0.541,1.206,1.209V10.45z"/>
</g>
</svg>
