<?xml version="1.0" encoding="utf-8"?>
<!-- Generator: Adobe Illustrator 22.0.0, SVG Export Plug-In . SVG Version: 6.00 Build 0)  -->
<svg version="1.1" id="图层_1" xmlns="http://www.w3.org/2000/svg" xmlns:xlink="http://www.w3.org/1999/xlink" x="0px" y="0px"
	 width="17px" height="17px" viewBox="0 0 17 17" style="enable-background:new 0 0 17 17;" xml:space="preserve">
<path d="M16.6,16.8c0.1-0.1,0.1-0.3,0-0.4l-3.1-3.8c-0.1-0.1-0.3-0.2-0.5-0.2s-0.4,0.1-0.4,0.2l-3.1,3.8c0,0.1-0.1,0.1-0.1,0.2
	s0,0.1,0.1,0.2c0,0.1,0.2,0.2,0.3,0.2h6.3C16.3,17,16.5,16.9,16.6,16.8z"/>
<path d="M1.6,4.7h10.6c0.8,0,1.3-0.6,1.3-1.3V1.3c0-0.8-0.6-1.3-1.3-1.3H1.6c-0.8,0-1.4,0.7-1.4,1.3v2.1C0.2,4.1,0.9,4.7,1.6,4.7z
	 M10.8,0.9c0.8,0,1.4,0.7,1.4,1.4s-0.7,1.4-1.4,1.4S9.3,3.1,9.3,2.3S9.9,0.9,10.8,0.9z"/>
<path d="M1.6,10.6h10.6c0.8,0,1.3-0.6,1.3-1.3v-2c0-0.8-0.6-1.3-1.3-1.3H1.6C0.9,6,0.3,6.6,0.3,7.3v2.1C0.2,10.1,0.9,10.6,1.6,10.6z
	 M10.8,6.9c0.8,0,1.4,0.7,1.4,1.4c0,0.8-0.7,1.4-1.4,1.4S9.3,9.1,9.3,8.3S9.9,6.9,10.8,6.9z"/>
<path d="M7.7,15.7l2.9-3.6c0.1-0.1,0.1-0.1,0.2-0.2H1.7c-0.7,0-1.3,0.6-1.3,1.3v2.1c0,0.7,0.6,1.3,1.3,1.3h5.7
	C7.4,16.3,7.5,15.9,7.7,15.7z"/>
</svg>
