<?xml version="1.0" encoding="utf-8"?>
<!-- Generator: Adobe Illustrator 22.0.0, SVG Export Plug-In . SVG Version: 6.00 Build 0)  -->
<svg version="1.1" id="图层_1" xmlns="http://www.w3.org/2000/svg" xmlns:xlink="http://www.w3.org/1999/xlink" x="0px" y="0px"
	 width="17px" height="17px" viewBox="0 0 17 17" style="enable-background:new 0 0 17 17;" xml:space="preserve">
<path d="M1.6,4.7h10.6c0.8,0,1.3-0.6,1.3-1.3V1.3c0-0.8-0.6-1.3-1.3-1.3H1.6c-0.8,0-1.4,0.7-1.4,1.3v2.1C0.2,4.1,0.9,4.7,1.6,4.7z
	 M10.8,0.9c0.8,0,1.4,0.7,1.4,1.4s-0.7,1.4-1.4,1.4S9.3,3.1,9.3,2.3S9.9,0.9,10.8,0.9z"/>
<path d="M1.6,10.6h10.6c0.8,0,1.3-0.6,1.3-1.3v-2c0-0.8-0.6-1.3-1.3-1.3H1.6C0.9,6,0.3,6.6,0.3,7.3v2.1C0.2,10.1,0.9,10.6,1.6,10.6z
	 M10.8,6.9c0.8,0,1.4,0.7,1.4,1.4c0,0.8-0.7,1.4-1.4,1.4S9.3,9.1,9.3,8.3S9.9,6.9,10.8,6.9z"/>
<path d="M7.5,13.2c0-0.4,0.1-0.8,0.4-1C7.9,12.1,8,12,8.1,12H1.6c-0.8,0-1.3,0.6-1.3,1.3v2.1c0,0.8,0.6,1.3,1.3,1.3h8.3l-2-2.4
	C7.7,14.1,7.5,13.7,7.5,13.2z"/>
<path d="M16.7,12.7c-0.1-0.1-0.3-0.2-0.5-0.2H10c-0.2,0-0.4,0.1-0.5,0.2c0,0.1-0.1,0.1-0.1,0.2s0,0.1,0.1,0.2l3.1,3.8
	c0.1,0.1,0.3,0.2,0.4,0.2c0.2,0,0.4-0.1,0.5-0.2l3.1-3.8C16.8,12.9,16.8,12.8,16.7,12.7z"/>
</svg>
