<?xml version="1.0" encoding="utf-8"?>
<!-- Generator: Adobe Illustrator 22.0.0, SVG Export Plug-In . SVG Version: 6.00 Build 0)  -->
<svg version="1.1" id="图层_1" xmlns="http://www.w3.org/2000/svg" xmlns:xlink="http://www.w3.org/1999/xlink" x="0px" y="0px"
	 width="20px" height="20px" viewBox="0 0 20 20" enable-background="new 0 0 20 20" xml:space="preserve">
<g>
	<path d="M14.285,2.9h-8.57c-1.209,0-2.189,0.98-2.189,2.189v5.721c0,1.209,0.98,2.189,2.189,2.189h8.571
		c1.209,0,2.189-0.98,2.189-2.189V5.089C16.474,3.879,15.494,2.9,14.285,2.9z"/>
	<path d="M13.198,15.309H6.802c-0.439,0-0.796,0.356-0.796,0.796c0,0.44,0.356,0.795,0.796,0.795h6.395
		c0.439,0,0.796-0.356,0.796-0.796S13.638,15.309,13.198,15.309z"/>
</g>
</svg>
