<?xml version="1.0" encoding="utf-8"?>
<!-- Generator: Adobe Illustrator 23.0.2, SVG Export Plug-In . SVG Version: 6.00 Build 0)  -->
<svg version="1.1" id="图层_1" xmlns="http://www.w3.org/2000/svg" xmlns:xlink="http://www.w3.org/1999/xlink" x="0px" y="0px"
	 width="19.608px" height="18.535px" viewBox="-62.978 227.268 19.608 18.535"
	 enable-background="new -62.978 227.268 19.608 18.535" xml:space="preserve">
<g>
	<path fill="#606060" d="M-46.778,227.268h-12.791c-1.879,0-3.409,1.528-3.409,3.408v8.539c0,1.88,1.529,3.408,3.409,3.408h12.791
		c1.879,0,3.409-1.528,3.409-3.408v-8.539C-43.37,228.796-44.899,227.268-46.778,227.268z M-46.778,241.424h-12.791
		c-1.218,0-2.208-0.991-2.208-2.209v-8.539c0-1.218,0.991-2.209,2.208-2.209h12.791c1.218,0,2.208,0.991,2.208,2.209v8.539
		C-44.57,240.433-45.561,241.424-46.778,241.424z"/>
	<path fill="#606060" d="M-49.548,244.604h-7.299c-0.331,0-0.6,0.269-0.6,0.6c0,0.331,0.269,0.6,0.6,0.6h7.299
		c0.331,0,0.6-0.268,0.6-0.6C-48.948,244.872-49.217,244.604-49.548,244.604z"/>
</g>
</svg>
