<?xml version="1.0" encoding="utf-8"?>
<!-- Generator: Adobe Illustrator 16.0.0, SVG Export Plug-In . SVG Version: 6.00 Build 0)  -->
<!DOCTYPE svg PUBLIC "-//W3C//DTD SVG 1.1//EN" "http://www.w3.org/Graphics/SVG/1.1/DTD/svg11.dtd">
<svg version="1.1" id="图层_1" xmlns="http://www.w3.org/2000/svg" xmlns:xlink="http://www.w3.org/1999/xlink" x="0px" y="0px"
	 width="20px" height="20px" viewBox="0 0 20 20" enable-background="new 0 0 20 20" xml:space="preserve">
<g>
	<path fill="#888888" d="M13.814,4.283c0.254,0.234,0.456,0.429,0.604,0.583c0.151,0.155,0.267,0.287,0.346,0.395
		c0.079,0.106,0.129,0.198,0.147,0.273c0.02,0.075,0.028,0.141,0.028,0.197v0.225h-2.081c-0.094,0-0.176-0.035-0.246-0.104
		c-0.07-0.071-0.128-0.153-0.177-0.246c-0.045-0.095-0.081-0.189-0.104-0.289c-0.023-0.098-0.036-0.176-0.036-0.231V3.342h0.044
		c0.075,0,0.151,0.011,0.231,0.035c0.079,0.023,0.171,0.067,0.274,0.134c0.103,0.064,0.231,0.158,0.386,0.281
		C13.387,3.913,13.581,4.077,13.814,4.283L13.814,4.283z M11.412,5.099c0,0.188,0.028,0.382,0.083,0.584
		c0.057,0.2,0.146,0.389,0.268,0.562c0.121,0.174,0.277,0.317,0.464,0.43c0.188,0.112,0.408,0.169,0.661,0.169h2.053v7.929
		c0,0.271-0.054,0.515-0.162,0.729c-0.107,0.217-0.251,0.399-0.428,0.55c-0.18,0.149-0.376,0.268-0.592,0.351
		c-0.216,0.085-0.426,0.127-0.633,0.127H6.708c-0.179,0-0.372-0.052-0.583-0.154c-0.211-0.104-0.408-0.24-0.59-0.409
		c-0.185-0.168-0.336-0.359-0.458-0.575c-0.121-0.216-0.183-0.44-0.183-0.675v-9.56c0-0.196,0.044-0.401,0.133-0.612
		c0.09-0.21,0.213-0.404,0.367-0.583c0.153-0.178,0.329-0.325,0.527-0.441C6.117,3.4,6.324,3.342,6.539,3.342h4.873V5.099z
		 M12.296,13.872c0.246,0,0.45-0.088,0.62-0.262c0.169-0.172,0.253-0.381,0.253-0.625c0-0.243-0.084-0.45-0.253-0.618
		c-0.17-0.168-0.374-0.253-0.62-0.253H7.522c-0.243,0-0.449,0.085-0.617,0.253c-0.169,0.168-0.254,0.375-0.254,0.618
		c0,0.244,0.085,0.453,0.254,0.625c0.168,0.174,0.374,0.262,0.617,0.262H12.296z M13.169,9.484c0-0.243-0.084-0.451-0.253-0.626
		c-0.17-0.172-0.374-0.259-0.62-0.259H7.522c-0.243,0-0.449,0.087-0.617,0.259C6.736,9.033,6.651,9.241,6.651,9.484
		c0,0.245,0.085,0.45,0.254,0.619c0.168,0.169,0.374,0.254,0.617,0.254h4.773c0.246,0,0.45-0.085,0.62-0.254
		C13.085,9.935,13.169,9.729,13.169,9.484L13.169,9.484z M13.169,9.484"/>
</g>
</svg>
