<?xml version="1.0" encoding="utf-8"?>
<!-- Generator: Adobe Illustrator 16.0.0, SVG Export Plug-In . SVG Version: 6.00 Build 0)  -->
<!DOCTYPE svg PUBLIC "-//W3C//DTD SVG 1.1//EN" "http://www.w3.org/Graphics/SVG/1.1/DTD/svg11.dtd">
<svg version="1.1" id="图层_1" xmlns="http://www.w3.org/2000/svg" xmlns:xlink="http://www.w3.org/1999/xlink" x="0px" y="0px"
	 width="19.999px" height="20px" viewBox="0 0 19.999 20" enable-background="new 0 0 19.999 20" xml:space="preserve">
<g>
	<path fill="#5D5D5D" d="M9.459,7.517V5.716l4.05-0.033V9.47c0,0.345,0.28,0.625,0.625,0.625s0.625-0.28,0.625-0.625V5.053
		c0-0.167-0.066-0.326-0.185-0.443c-0.117-0.116-0.275-0.182-0.44-0.182c-0.002,0-0.003,0-0.005,0l-4.67,0.038V2.92
		c0-0.9-0.733-1.634-1.634-1.634H3.229c-0.9,0-1.634,0.733-1.634,1.634v4.597c0,0.9,0.733,1.634,1.634,1.634h4.597
		C8.726,9.15,9.459,8.417,9.459,7.517z M2.845,7.517V2.92c0-0.212,0.172-0.384,0.384-0.384h4.597c0.212,0,0.384,0.172,0.384,0.384
		v4.597c0,0.212-0.172,0.384-0.384,0.384H3.229C3.017,7.9,2.845,7.729,2.845,7.517z"/>
	<path fill="#5D5D5D" d="M16.328,10.694h-4.597c-0.9,0-1.634,0.733-1.634,1.634v2.71l-4.007,0.033v-3.787
		c0-0.345-0.28-0.625-0.625-0.625s-0.625,0.28-0.625,0.625v4.417c0,0.167,0.066,0.326,0.185,0.443
		c0.117,0.116,0.275,0.182,0.44,0.182c0.002,0,0.003,0,0.005,0l4.627-0.038v0.637c0,0.9,0.733,1.634,1.634,1.634h4.597
		c0.9,0,1.634-0.733,1.634-1.634v-4.597C17.962,11.428,17.229,10.694,16.328,10.694z M16.712,16.925
		c0,0.212-0.172,0.384-0.384,0.384h-4.597c-0.212,0-0.384-0.172-0.384-0.384v-4.597c0-0.212,0.172-0.384,0.384-0.384h4.597
		c0.212,0,0.384,0.172,0.384,0.384V16.925z"/>
</g>
</svg>
