<?xml version="1.0" encoding="utf-8"?>
<!-- Generator: Adobe Illustrator 16.0.0, SVG Export Plug-In . SVG Version: 6.00 Build 0)  -->
<!DOCTYPE svg PUBLIC "-//W3C//DTD SVG 1.1//EN" "http://www.w3.org/Graphics/SVG/1.1/DTD/svg11.dtd">
<svg version="1.1" id="图层_1" xmlns="http://www.w3.org/2000/svg" xmlns:xlink="http://www.w3.org/1999/xlink" x="0px" y="0px"
	 width="20.404px" height="17.318px" viewBox="0 0 20.404 17.318" enable-background="new 0 0 20.404 17.318" xml:space="preserve">
<g>
	<path fill="#5D5D5D" d="M17.082,2.309h-1.103v0.003c-0.007-0.001-0.009-0.003-0.015-0.003c-0.3,0-0.545,0.245-0.545,0.548
		c0,0.302,0.245,0.546,0.545,0.546c0.006,0,0.008-0.004,0.015-0.004v0.016h1.103c0.592,0,1.147,0.229,1.569,0.646
		c0.42,0.421,0.646,0.979,0.646,1.569c0,0.592-0.229,1.147-0.646,1.567c-0.422,0.42-0.979,0.646-1.569,0.646V6.74L15.422,8.4
		l1.66,1.659V8.957c1.832,0,3.321-1.488,3.321-3.32C20.389,3.787,18.914,2.309,17.082,2.309z"/>
	<path fill="#5D5D5D" d="M3.318,13.898c-0.591,0-1.146-0.229-1.568-0.647c-0.421-0.422-0.647-0.979-0.647-1.567
		c0-0.592,0.229-1.147,0.647-1.568c0.422-0.421,0.979-0.648,1.568-0.648H4.42c0.096,0.002,0.189-0.021,0.275-0.071
		c0.168-0.097,0.271-0.276,0.271-0.474c0-0.193-0.104-0.375-0.271-0.474C4.61,8.398,4.513,8.375,4.424,8.373V8.362H3.319
		C1.488,8.373,0,9.863,0,11.694c0,1.829,1.488,3.319,3.319,3.319v1.104l1.661-1.66l-1.661-1.659L3.318,13.898L3.318,13.898z"/>
	<path fill="#5D5D5D" d="M11.889,12.362H8.557c-1.362,0-2.479,1.113-2.479,2.479c0,1.365,1.115,2.479,2.479,2.479h3.332
		c1.377,0,2.479-1.113,2.479-2.479C14.368,13.475,13.256,12.362,11.889,12.362z M11.901,16.183H8.569
		c-0.738,0-1.342-0.604-1.342-1.344c0-0.737,0.604-1.341,1.342-1.341h3.332c0.739,0,1.342,0.604,1.342,1.341
		C13.243,15.58,12.641,16.183,11.901,16.183z"/>
	<path fill="#5D5D5D" d="M11.889,6.107H8.557c-1.362,0-2.479,1.114-2.479,2.479c0,1.361,1.115,2.478,2.479,2.478h3.332
		c1.377,0,2.479-1.113,2.479-2.478C14.368,7.221,13.256,6.107,11.889,6.107z M11.901,9.929H8.569c-0.738,0-1.342-0.604-1.342-1.342
		c0-0.74,0.604-1.345,1.342-1.345h3.332c0.739,0,1.342,0.604,1.342,1.345C13.243,9.324,12.641,9.929,11.901,9.929z"/>
	<path fill="#5D5D5D" d="M11.889,0H8.557C7.195,0,6.078,1.115,6.078,2.48s1.115,2.479,2.479,2.479h3.332
		c1.377,0,2.479-1.114,2.479-2.479S13.256,0,11.889,0z M11.901,3.822H8.569c-0.738,0-1.342-0.604-1.342-1.342
		s0.604-1.343,1.342-1.343h3.332c0.739,0,1.342,0.604,1.342,1.343C13.243,3.218,12.641,3.822,11.901,3.822z"/>
</g>
</svg>
