<?xml version="1.0" encoding="utf-8"?>
<!-- Generator: Adobe Illustrator 22.0.0, SVG Export Plug-In . SVG Version: 6.00 Build 0)  -->
<svg version="1.1" id="隔离模式" xmlns="http://www.w3.org/2000/svg" xmlns:xlink="http://www.w3.org/1999/xlink" x="0px"
	 y="0px" width="12px" height="12px" viewBox="0 0 12 12" enable-background="new 0 0 12 12" xml:space="preserve">
<path fill="#FFFFFF" d="M10.5,5.312h-9c-0.553,0-1-0.447-1-1s0.447-1,1-1h6.74L7.375,2.36C7.004,1.951,7.034,1.318,7.442,0.947
	c0.41-0.369,1.042-0.341,1.413,0.067l2.385,2.625c0.266,0.293,0.334,0.716,0.174,1.077C11.254,5.079,10.896,5.312,10.5,5.312z"/>
<path fill="#FFFFFF" d="M3.885,11.312c-0.271,0-0.543-0.11-0.74-0.327L0.76,8.36C0.494,8.067,0.426,7.644,0.586,7.283
	C0.746,6.92,1.104,6.687,1.5,6.687h9c0.553,0,1,0.447,1,1s-0.447,1-1,1H3.76l0.865,0.952c0.371,0.409,0.341,1.042-0.067,1.413
	C4.365,11.226,4.125,11.312,3.885,11.312z"/>
</svg>
