<?xml version="1.0" encoding="utf-8"?>
<!-- Generator: Adobe Illustrator 16.0.0, SVG Export Plug-In . SVG Version: 6.00 Build 0)  -->
<!DOCTYPE svg PUBLIC "-//W3C//DTD SVG 1.1//EN" "http://www.w3.org/Graphics/SVG/1.1/DTD/svg11.dtd">
<svg version="1.1" id="图层_1" xmlns="http://www.w3.org/2000/svg" xmlns:xlink="http://www.w3.org/1999/xlink" x="0px" y="0px"
	 width="16.663px" height="16.471px" viewBox="7.669 7.766 16.663 16.471" enable-background="new 7.669 7.766 16.663 16.471"
	 xml:space="preserve">
<g>
	<path fill="#5D5D5D" d="M23.531,23.02H8.885V8.373c0-0.335-0.272-0.607-0.608-0.607c-0.335,0-0.607,0.272-0.607,0.607v15.256
		c0,0.335,0.272,0.607,0.607,0.607h15.256c0.335,0,0.606-0.272,0.606-0.607C24.139,23.292,23.866,23.02,23.531,23.02z"/>
	<path fill="#5D5D5D" d="M24.152,11.861c-0.229-0.229-0.635-0.229-0.861,0l-5.459,5.46l-3.596-3.595c-0.229-0.23-0.632-0.23-0.859,0
		l-3.855,3.854c-0.114,0.115-0.179,0.269-0.179,0.431c-0.001,0.161,0.063,0.314,0.179,0.432c0.23,0.229,0.63,0.229,0.859-0.002
		l3.426-3.424l3.597,3.594c0.114,0.115,0.269,0.18,0.43,0.18s0.313-0.063,0.43-0.18l5.893-5.891c0.111-0.113,0.177-0.271,0.177-0.43
		S24.266,11.977,24.152,11.861z"/>
</g>
</svg>
