<?xml version="1.0" encoding="utf-8"?>
<!-- Generator: Adobe Illustrator 22.0.0, SVG Export Plug-In . SVG Version: 6.00 Build 0)  -->
<svg version="1.1" id="图层_1" xmlns="http://www.w3.org/2000/svg" xmlns:xlink="http://www.w3.org/1999/xlink" x="0px" y="0px"
	 width="16px" height="16px" viewBox="0 0 16 16" style="enable-background:new 0 0 16 16;" xml:space="preserve">
<g>
	<path d="M15.3,1.8h-1.6V0.7C13.7,0.3,13.4,0,13,0h-0.8c-0.4,0-0.7,0.3-0.7,0.7v1.1h-7V0.7C4.5,0.3,4.2,0,3.8,0H3
		C2.6,0,2.3,0.3,2.3,0.7v1.1H0.7C0.3,1.8,0,2.2,0,2.6v12.7C0,15.7,0.3,16,0.7,16h14.6c0.4,0,0.7-0.3,0.7-0.7V2.6
		C16,2.2,15.7,1.8,15.3,1.8z M14.4,13.7c0,0.3-0.3,0.6-0.6,0.6H2.2c-0.3,0-0.6-0.3-0.6-0.6V6.3c0-0.3,0.3-0.6,0.6-0.6h11.6
		c0.3,0,0.6,0.3,0.6,0.6V13.7z"/>
	<path d="M4.4,7.6c-0.6,0-1.1,0.5-1.1,1.1c0,0.6,0.5,1.1,1.1,1.1c0.6,0,1.1-0.5,1.1-1.1C5.5,8.1,5,7.6,4.4,7.6z"/>
	<path d="M8,7.6c-0.6,0-1.1,0.5-1.1,1.1c0,0.6,0.5,1.1,1.1,1.1c0.6,0,1.1-0.5,1.1-1.1C9.2,8.1,8.6,7.6,8,7.6z"/>
	<path d="M11.4,7.6c-0.6,0-1.1,0.5-1.1,1.1c0,0.6,0.5,1.1,1.1,1.1c0.6,0,1.1-0.5,1.1-1.1C12.6,8.1,12.1,7.6,11.4,7.6z"/>
	<path d="M4.4,10.5c-0.6,0-1.1,0.5-1.1,1.1c0,0.6,0.5,1.1,1.1,1.1c0.6,0,1.1-0.5,1.1-1.1C5.5,11,5,10.5,4.4,10.5z"/>
	<path d="M8,10.5c-0.6,0-1.1,0.5-1.1,1.1c0,0.6,0.5,1.1,1.1,1.1c0.6,0,1.1-0.5,1.1-1.1C9.2,11,8.6,10.5,8,10.5z"/>
	<path d="M11.4,10.5c-0.6,0-1.1,0.5-1.1,1.1c0,0.6,0.5,1.1,1.1,1.1c0.6,0,1.1-0.5,1.1-1.1C12.6,11,12.1,10.5,11.4,10.5z"/>
</g>
</svg>
