<?xml version="1.0" encoding="utf-8"?>
<!-- Generator: Adobe Illustrator 16.0.0, SVG Export Plug-In . SVG Version: 6.00 Build 0)  -->
<!DOCTYPE svg PUBLIC "-//W3C//DTD SVG 1.1//EN" "http://www.w3.org/Graphics/SVG/1.1/DTD/svg11.dtd">
<svg version="1.1" id="图层_1" xmlns="http://www.w3.org/2000/svg" xmlns:xlink="http://www.w3.org/1999/xlink" x="0px" y="0px"
	 width="17.981px" height="17.541px" viewBox="6.868 7.434 17.981 17.541" enable-background="new 6.868 7.434 17.981 17.541"
	 xml:space="preserve">
<path fill="#5D5D5D" d="M22.914,7.434H8.805c-1.07,0-1.937,0.864-1.937,1.935v15.606H24.85V9.369
	C24.85,8.298,23.982,7.434,22.914,7.434z M18.328,10.712v3.849h-5.04v-3.849H18.328z M13.288,15.33h5.04v3.852h-5.04V15.33z
	 M7.641,10.712h4.879v3.849H7.641V10.712z M7.641,15.33h4.879v3.852H7.641V15.33z M7.641,23.798V19.95h4.879v3.848H7.641z
	 M13.288,23.798V19.95h5.04v3.848H13.288z M24.078,23.798h-4.98V19.95h4.98V23.798z M24.078,19.182h-4.98V15.33h4.98V19.182z
	 M24.078,14.561h-4.98v-3.849h4.98V14.561z"/>
</svg>
