<?xml version="1.0" encoding="utf-8"?>
<!-- Generator: Adobe Illustrator 23.0.1, SVG Export Plug-In . SVG Version: 6.00 Build 0)  -->
<svg version="1.1" id="图层_1" xmlns="http://www.w3.org/2000/svg" xmlns:xlink="http://www.w3.org/1999/xlink" x="0px" y="0px"
	 width="15px" height="15px" viewBox="0 0 15 15" enable-background="new 0 0 15 15" xml:space="preserve">
<path fill="#B7B7B7" d="M14.731,13.066L9.237,7.563l5.495-5.504c0.454-0.458,0.453-1.203-0.006-1.664
	c-0.433-0.429-1.229-0.431-1.67,0.005L7.571,5.895L2.087,0.402C1.657-0.029,0.851-0.032,0.416,0.4
	C-0.04,0.857-0.042,1.601,0.414,2.063l5.493,5.503l-5.493,5.502c-0.456,0.459-0.455,1.204,0.005,1.666
	c0.432,0.426,1.242,0.424,1.669-0.006l5.484-5.494l5.489,5.499c0.224,0.22,0.522,0.342,0.834,0.342c0.317,0,0.612-0.123,0.829-0.341
	C15.186,14.275,15.19,13.528,14.731,13.066z"/>
</svg>
