<?xml version="1.0" encoding="utf-8"?>
<!-- Generator: Adobe Illustrator 22.0.0, SVG Export Plug-In . SVG Version: 6.00 Build 0)  -->
<svg version="1.1" id="图层_1" xmlns="http://www.w3.org/2000/svg" xmlns:xlink="http://www.w3.org/1999/xlink" x="0px" y="0px"
	 width="14px" height="17px" viewBox="0 0 14 17" style="enable-background:new 0 0 14 17;" xml:space="preserve">
<g>
	<path d="M13.9,16.8c-0.1,0.1-0.3,0.2-0.5,0.2H7.2c-0.2,0-0.4-0.1-0.5-0.2c0-0.1-0.1-0.1-0.1-0.2c0-0.1,0-0.1,0.1-0.2l3.1-3.8
		c0.1-0.1,0.3-0.2,0.4-0.2c0.2,0,0.4,0.1,0.5,0.2l3.1,3.8C14,16.6,14,16.7,13.9,16.8z"/>
	<path d="M10.9,5h1c0.6,0,1-0.4,1-1V1c0-0.6-0.4-1-1-1h-3c-0.6,0-1,0.4-1,1v3c0,0.6,0.4,1,1,1h1v4.6H5V9c0-0.6-0.4-1-1-1H3V5h1
		c0.6,0,1-0.4,1-1V1c0-0.6-0.4-1-1-1H1C0.5,0,0,0.4,0,1v3c0,0.6,0.4,1,1,1h1v3H1C0.5,8,0,8.4,0,9v3c0,0.6,0.4,1,1,1h3
		c0.6,0,1-0.4,1-1v-1.4h5.9V5z"/>
</g>
</svg>
