<?xml version="1.0" encoding="utf-8"?>
<!-- Generator: Adobe Illustrator 16.0.0, SVG Export Plug-In . SVG Version: 6.00 Build 0)  -->
<!DOCTYPE svg PUBLIC "-//W3C//DTD SVG 1.1//EN" "http://www.w3.org/Graphics/SVG/1.1/DTD/svg11.dtd">
<svg version="1.1" id="图层_1" xmlns="http://www.w3.org/2000/svg" xmlns:xlink="http://www.w3.org/1999/xlink" x="0px" y="0px"
	 width="20px" height="20px" viewBox="0 0 20 20" enable-background="new 0 0 20 20" xml:space="preserve">
<g>
	<path fill="#5D5D5D" d="M15.077,1.812H5.18c-1.873,0-3.397,1.524-3.397,3.397v9.897c0,1.873,1.524,3.397,3.397,3.397h9.897
		c1.873,0,3.397-1.524,3.397-3.397V5.209C18.475,3.336,16.95,1.812,15.077,1.812z M5.18,17.332c-1.228,0-2.226-0.998-2.226-2.226
		V5.209c0-1.228,0.998-2.226,2.226-2.226h3.693L7.432,4.471c-0.318-0.192-0.688-0.31-1.087-0.31c-1.167,0-2.115,0.948-2.115,2.115
		s0.948,2.116,2.115,2.116c0.565,0,1.098-0.22,1.497-0.619c0.399-0.4,0.618-0.932,0.618-1.497c0-0.33-0.083-0.64-0.218-0.918
		l2.3-2.375h4.535c1.228,0,2.226,0.998,2.226,2.226v9.897c0,0.412-0.12,0.794-0.315,1.125l-1.39-1.324
		c0.184-0.317,0.289-0.676,0.289-1.052c0-1.167-0.949-2.115-2.116-2.115s-2.115,0.948-2.115,2.115s0.948,2.116,2.115,2.116
		c0.339,0,0.662-0.088,0.955-0.237l1.393,1.327c-0.313,0.167-0.663,0.271-1.041,0.271H5.18z M7.261,6.276
		c0,0.245-0.096,0.476-0.268,0.649C6.82,7.098,6.59,7.193,6.345,7.193c-0.505,0-0.916-0.411-0.916-0.917
		c0-0.505,0.411-0.916,0.916-0.916S7.261,5.771,7.261,6.276z M14.419,14.505c-0.173,0.172-0.403,0.268-0.648,0.268
		c-0.505,0-0.916-0.411-0.916-0.917c0-0.505,0.411-0.916,0.916-0.916c0.506,0,0.917,0.411,0.917,0.916
		C14.688,14.101,14.592,14.331,14.419,14.505z"/>
	<path fill="#5D5D5D" d="M12.38,8.783c0.32,0.194,0.691,0.313,1.092,0.313c0.565,0,1.097-0.22,1.496-0.62
		c0.399-0.398,0.619-0.931,0.619-1.496c0-1.167-0.948-2.115-2.115-2.115s-2.115,0.948-2.115,2.115c0,0.329,0.082,0.637,0.216,0.914
		l-3.407,3.402c-0.325-0.205-0.708-0.328-1.121-0.328c-1.167,0-2.115,0.948-2.115,2.114c0,1.167,0.948,2.116,2.115,2.116
		c0.565,0,1.098-0.22,1.496-0.619c0.399-0.398,0.619-0.931,0.619-1.497c0-0.316-0.074-0.613-0.199-0.883L12.38,8.783z M13.472,6.063
		c0.505,0,0.916,0.411,0.916,0.916c0,0.245-0.096,0.476-0.268,0.648c-0.174,0.173-0.403,0.269-0.648,0.269
		c-0.505,0-0.916-0.411-0.916-0.917C12.556,6.475,12.967,6.063,13.472,6.063z M7.692,13.731c-0.173,0.172-0.403,0.268-0.648,0.268
		c-0.505,0-0.916-0.411-0.916-0.917c0-0.504,0.411-0.915,0.916-0.915s0.916,0.411,0.916,0.915
		C7.96,13.328,7.864,13.559,7.692,13.731z"/>
</g>
</svg>
