<?xml version="1.0" encoding="utf-8"?>
<!-- Generator: Adobe Illustrator 16.0.0, SVG Export Plug-In . SVG Version: 6.00 Build 0)  -->
<!DOCTYPE svg PUBLIC "-//W3C//DTD SVG 1.1//EN" "http://www.w3.org/Graphics/SVG/1.1/DTD/svg11.dtd">
<svg version="1.1" id="图层_1" xmlns="http://www.w3.org/2000/svg" xmlns:xlink="http://www.w3.org/1999/xlink" x="0px" y="0px"
	 width="20px" height="20px" viewBox="0 0 20 20" enable-background="new 0 0 20 20" xml:space="preserve">
<path fill="#888888" d="M12.704,3.488H7.495c-1.104,0-2,0.896-2,2v9.916c0,1.104,0.896,2,2,2h5.209c1.104,0,2-0.896,2-2V5.488
	C14.704,4.384,13.809,3.488,12.704,3.488z M10.1,15.001c-0.584,0-1.057-0.473-1.057-1.057c0-0.583,0.473-1.057,1.057-1.057
	c0.583,0,1.056,0.474,1.056,1.057C11.155,14.528,10.683,15.001,10.1,15.001z M11.912,10.299H8.287c-0.356,0-0.646-0.289-0.646-0.646
	s0.289-0.646,0.646-0.646h3.625c0.356,0,0.646,0.289,0.646,0.646S12.269,10.299,11.912,10.299z M11.912,7.019H8.287
	c-0.356,0-0.646-0.289-0.646-0.646s0.289-0.646,0.646-0.646h3.625c0.356,0,0.646,0.289,0.646,0.646S12.269,7.019,11.912,7.019z"/>
</svg>
