<?xml version="1.0" encoding="utf-8"?>
<!-- Generator: Adobe Illustrator 16.0.0, SVG Export Plug-In . SVG Version: 6.00 Build 0)  -->
<!DOCTYPE svg PUBLIC "-//W3C//DTD SVG 1.1//EN" "http://www.w3.org/Graphics/SVG/1.1/DTD/svg11.dtd">
<svg version="1.1" id="图层_1" xmlns="http://www.w3.org/2000/svg" xmlns:xlink="http://www.w3.org/1999/xlink" x="0px" y="0px"
	 width="19.999px" height="20px" viewBox="0 0 19.999 20" enable-background="new 0 0 19.999 20" xml:space="preserve">
<g>
	<path fill="#5D5D5D" d="M5.824,9.233l5.888-0.001c0.402,0,0.684-0.344,0.684-0.652c0-0.308-0.275-0.638-0.684-0.638H5.836
		c-0.352,0-0.709,0.213-0.715,0.62C5.12,8.737,5.188,8.901,5.31,9.023C5.441,9.156,5.629,9.233,5.824,9.233z"/>
	<path fill="#5D5D5D" d="M5.265,11.61c0.12,0.122,0.281,0.192,0.441,0.192h6.041c0.393,0,0.688-0.279,0.688-0.648
		c0-0.378-0.283-0.642-0.688-0.642H5.706c-0.347,0-0.641,0.279-0.641,0.607C5.063,11.305,5.134,11.479,5.265,11.61z"/>
	<path fill="#5D5D5D" d="M16.559,2.074H5.643c-0.778,0-1.412,0.633-1.412,1.411v0.95H3.668c-0.778,0-1.411,0.635-1.411,1.415v10.857
		c0,0.776,0.633,1.408,1.411,1.408h3.293l0.248-0.019v-0.042c0.221-0.102,0.367-0.324,0.367-0.576s-0.146-0.475-0.367-0.577v-0.062
		l-3.541,0.005c-0.075,0-0.137-0.063-0.137-0.141V5.847c0-0.075,0.062-0.137,0.137-0.137h10.49c0.076,0,0.138,0.062,0.138,0.137
		v7.425l-2.75-0.333c-0.362-0.04-0.662,0.214-0.706,0.571c-0.02,0.127-0.004,0.256,0.048,0.374l1.483,3.329l0.033,0.046
		c0.176,0.188,0.473,0.237,0.738,0.093c0.041-0.025,0.182-0.116,0.248-0.209l2.038-2.716c0.074-0.1,0.116-0.312,0.141-0.491V5.847
		c0-0.778-0.633-1.411-1.411-1.411H5.505v-0.95c0-0.075,0.062-0.137,0.138-0.137h10.916c0.081,0,0.137,0.05,0.137,0.121v11.105
		c0,0.352,0.286,0.638,0.637,0.638c0.352,0,0.638-0.286,0.638-0.638V3.485C17.97,2.707,17.337,2.074,16.559,2.074z M13.699,14.483
		l-0.692,0.923l-0.452-1.062L13.699,14.483z"/>
</g>
</svg>
