<?xml version="1.0" encoding="utf-8"?>
<!-- Generator: Adobe Illustrator 22.0.0, SVG Export Plug-In . SVG Version: 6.00 Build 0)  -->
<svg version="1.1" id="图层_1" xmlns="http://www.w3.org/2000/svg" xmlns:xlink="http://www.w3.org/1999/xlink" x="0px" y="0px"
	 width="17px" height="17px" viewBox="0 0 17 17" style="enable-background:new 0 0 17 17;" xml:space="preserve">
<g>
	<path d="M7.2,6.2c3.9,0,7-1.3,7-2.9c0-0.2,0-0.4-0.1-0.6c0-0.1-0.1-0.2-0.2-0.3c-0.2-0.2-0.3-0.4-0.5-0.5c-0.2-0.2-0.5-0.3-0.8-0.5
		C12.3,1.3,12,1.1,11.7,1c-0.3-0.1-0.6-0.2-1-0.3C9.6,0.5,8.4,0.3,7.2,0.4c-1.2,0-2.3,0.1-3.5,0.4C3.4,0.8,3.1,0.9,2.8,1
		C2.5,1.1,2.2,1.3,1.8,1.4C1.6,1.6,1.3,1.7,1.1,1.9C0.9,2,0.7,2.2,0.6,2.4C0.5,2.5,0.4,2.6,0.4,2.7C0.3,2.9,0.2,3.1,0.2,3.3
		C0.2,4.9,3.4,6.2,7.2,6.2z"/>
	<path d="M7.2,11.2c3.9,0,7-1.3,7-2.9V5.6c-0.1,0.1-0.2,0.2-0.3,0.2c-0.4,0.3-0.8,0.5-1.2,0.7C11.2,7,9.4,7.4,7.2,7.4
		c-2.1,0-4-0.3-5.4-0.9C1.4,6.3,1,6,0.6,5.8C0.5,5.7,0.3,5.6,0.2,5.6v2.7C0.2,9.9,3.4,11.2,7.2,11.2z"/>
	<path d="M7.9,12.5C7.9,12.5,7.9,12.5,7.9,12.5c-0.2,0-0.5,0-0.7,0c-3.1,0-5.6-0.7-7-1.8v2.7c0,1.6,3.1,2.9,7,2.9
		c1.1,0,2.2-0.1,3.1-0.3l-2-2.4C8.1,13.3,7.9,12.9,7.9,12.5z"/>
	<path d="M16.7,12.3c-0.1-0.1-0.3-0.2-0.5-0.2H10c-0.2,0-0.4,0.1-0.5,0.2c0,0.1-0.1,0.1-0.1,0.2s0,0.1,0.1,0.2l3.1,3.8
		c0.1,0.1,0.3,0.2,0.4,0.2c0.2,0,0.4-0.1,0.5-0.2l3.1-3.8C16.8,12.6,16.8,12.4,16.7,12.3z"/>
</g>
</svg>
