<?xml version="1.0" encoding="utf-8"?>
<!-- Generator: Adobe Illustrator 16.0.0, SVG Export Plug-In . SVG Version: 6.00 Build 0)  -->
<!DOCTYPE svg PUBLIC "-//W3C//DTD SVG 1.1//EN" "http://www.w3.org/Graphics/SVG/1.1/DTD/svg11.dtd">
<svg version="1.1" id="图层_1" xmlns="http://www.w3.org/2000/svg" xmlns:xlink="http://www.w3.org/1999/xlink" x="0px" y="0px"
	 width="19.999px" height="20px" viewBox="0 0 19.999 20" enable-background="new 0 0 19.999 20" xml:space="preserve">
<g>
	<path fill="#5D5D5D" d="M17.744,4.193c-0.166-0.22-0.368-0.444-0.616-0.444h-3.815V3.348c0-0.797-0.674-1.471-1.472-1.471H7.985
		c-0.798,0-1.472,0.674-1.472,1.471v0.401H2.588c-0.306,0-0.535,0.229-0.535,0.535s0.229,0.535,0.535,0.535H3.98v11.582
		c0,1.206,0.98,2.188,2.187,2.188h7.657c1.206,0,2.187-0.981,2.187-2.188V4.819h1.228c0.306,0,0.535-0.229,0.535-0.535V4.235
		L17.744,4.193z M7.93,2.892h3.855c0.248,0,0.458,0.209,0.458,0.456v0.401h-4.77V3.348C7.474,3.101,7.683,2.892,7.93,2.892z
		 M14.831,4.819v11.582c0,0.637-0.48,1.117-1.117,1.117H6.058c-0.637,0-1.117-0.48-1.117-1.117V4.819H14.831z"/>
	<path fill="#5D5D5D" d="M12.337,15.614c0.305,0,0.534-0.229,0.534-0.535v-7.82c0-0.306-0.229-0.535-0.534-0.535
		c-0.306,0-0.536,0.229-0.536,0.535l0.004,7.857C11.878,15.404,12.102,15.614,12.337,15.614z"/>
	<path fill="#5D5D5D" d="M7.324,15.614c0.306,0,0.535-0.229,0.535-0.535v-7.82c0-0.306-0.229-0.535-0.535-0.535
		S6.789,6.953,6.789,7.259v7.82C6.789,15.385,7.019,15.614,7.324,15.614z"/>
	<path fill="#5D5D5D" d="M9.873,15.614c0.306,0,0.535-0.229,0.535-0.535v-7.82c0-0.306-0.229-0.535-0.535-0.535
		S9.338,6.953,9.338,7.259v7.82C9.338,15.385,9.567,15.614,9.873,15.614z"/>
</g>
</svg>
