<?xml version="1.0" encoding="utf-8"?>
<!-- Generator: Adobe Illustrator 16.0.0, SVG Export Plug-In . SVG Version: 6.00 Build 0)  -->
<!DOCTYPE svg PUBLIC "-//W3C//DTD SVG 1.1//EN" "http://www.w3.org/Graphics/SVG/1.1/DTD/svg11.dtd">
<svg version="1.1" id="图层_1" xmlns="http://www.w3.org/2000/svg" xmlns:xlink="http://www.w3.org/1999/xlink" x="0px" y="0px"
	 width="20px" height="20px" viewBox="0 0 20 20" enable-background="new 0 0 20 20" xml:space="preserve">
<path fill="#18BF7A" d="M13.291,4.458c-0.216-0.075-0.438-0.15-0.664-0.227C12.291,4.117,11.943,4,11.584,3.871
	c-3.121-1.124-7.642-3.12-8.077-3.314C3.474,0.53,3.433,0.51,3.384,0.499C3.311,0.471,3.21,0.454,3.107,0.457
	c-0.417,0-0.764,0.312-0.809,0.733C2.201,2.621,3.054,4.907,3.615,5.522c0.029,0.035,0.076,0.092,0.254,0.194
	C3.684,5.776,3.519,5.9,3.397,6.082C3.274,6.329,3.27,6.621,3.383,6.872c0.272,1.369,1.443,3.024,2.646,3.308
	c-0.091,0.108-0.155,0.239-0.184,0.384c-0.12,0.709,0.754,1.483,0.925,1.627c0.98,0.879,1.894,1.324,2.714,1.324
	c0.237-0.002,0.468-0.049,0.658-0.131c0.207-0.055,0.408-0.113,0.604-0.172c0.122-0.036,0.24-0.072,0.357-0.104l-0.445,1.765
	c-0.042,0.168-0.001,0.347,0.097,0.463c0.097,0.138,0.253,0.22,0.437,0.22c0,0,0,0,0.002,0h1.166l-0.842,3.319
	c-0.082,0.25,0.043,0.522,0.248,0.599c0.068,0.047,0.149,0.069,0.232,0.069v-0.226l0.027,0.226c0.199,0,0.375-0.123,0.445-0.306
	l4.459-5.827c0.135-0.155,0.159-0.382,0.069-0.545c-0.084-0.195-0.274-0.321-0.492-0.321h-1.388
	c0.002-0.004,0.004-0.008,0.005-0.012c0.019-0.032,0.099-0.162,0.222-0.359c0.479-0.771,1.59-2.56,2.104-3.623
	c0.033-0.038,0.058-0.083,0.068-0.132c0.1-0.192,0.174-0.396,0.221-0.602C18.176,6.068,15.911,5.321,13.291,4.458z M13.723,13.441
	c0.104,0.162,0.281,0.26,0.475,0.26h1.251l-2.255,2.922l0.367-1.451c0.043-0.168,0.004-0.348-0.097-0.465
	c-0.096-0.139-0.253-0.221-0.42-0.221l-1.185,0.002l0.508-2.07v-0.029c-0.004-0.147-0.053-0.287-0.139-0.406
	c-0.09-0.123-0.235-0.195-0.388-0.195c-0.05,0-0.099,0.008-0.126,0.018c-0.611,0.133-1.283,0.332-1.887,0.522
	c-0.054,0.009-0.104,0.028-0.146,0.06c-0.046,0.021-0.1,0.03-0.182,0.03c-0.254-0.011-0.925-0.083-2.031-1.065
	c-0.178-0.136-0.334-0.301-0.46-0.486c0.402-0.07,1.131-0.18,1.736-0.254l0.357-0.03c0.577-0.073,1.022-0.124,1.349-0.161
	c0.383-0.044,0.607-0.071,0.695-0.091c0.262-0.057,0.451-0.283,0.461-0.583c-0.028-0.273-0.258-0.479-0.541-0.479H9.353
	c-1.008,0.02-2.036-0.01-3.035-0.094C5.77,9.104,4.758,8.029,4.46,6.832c0.041,0.009,0.082,0.02,0.123,0.031
	c1.21,0.332,6.062,1.328,6.31,1.362c0.272,0.063,0.551-0.097,0.649-0.4c0.043-0.271-0.112-0.531-0.38-0.622
	c-3.57-1.058-6.524-2.088-6.759-2.28C4.1,4.572,3.401,2.9,3.346,1.735l0.046,0.021C4.648,2.308,8.47,3.989,11.208,4.97
	c0.386,0.147,0.786,0.28,1.171,0.408c0.186,0.063,0.369,0.123,0.547,0.184c2.029,0.68,3.945,1.321,3.743,2.113
	c-0.037,0.154-0.094,0.303-0.174,0.449c-0.513,1.057-1.688,2.958-2.13,3.674l-0.637,1.089
	C13.611,13.057,13.611,13.275,13.723,13.441z M13.044,14.712v0.004l0,0V14.712z M4.134,5.915c-0.001,0-0.002,0.001-0.004,0.001V5.9
	L4.134,5.915z"/>
</svg>
