<?xml version="1.0" encoding="utf-8"?>
<!-- Generator: Adobe Illustrator 16.0.0, SVG Export Plug-In . SVG Version: 6.00 Build 0)  -->
<!DOCTYPE svg PUBLIC "-//W3C//DTD SVG 1.1//EN" "http://www.w3.org/Graphics/SVG/1.1/DTD/svg11.dtd">
<svg version="1.1" id="图层_1" xmlns="http://www.w3.org/2000/svg" xmlns:xlink="http://www.w3.org/1999/xlink" x="0px" y="0px"
	 width="19.999px" height="20px" viewBox="0 0 19.999 20" enable-background="new 0 0 19.999 20" xml:space="preserve">
<path fill="#5D5D5D" d="M10.138,1.43c-2.09,0-4.101,0.751-5.677,2.118L4.444,3.533l-0.763,0.77L3.657,4.342
	c-1.41,1.588-2.187,3.631-2.187,5.755c0,4.779,3.889,8.668,8.667,8.668c2.089,0,4.097-0.749,5.67-2.112l0.018,0.016l0.737-0.742
	l0.021-0.034c1.434-1.593,2.223-3.651,2.223-5.795C18.806,5.318,14.917,1.43,10.138,1.43z M7.257,16.919
	c-0.878-0.371-1.67-0.904-2.354-1.585c-0.684-0.687-1.217-1.479-1.585-2.355c-0.387-0.913-0.582-1.883-0.582-2.882
	c0-0.998,0.195-1.968,0.583-2.881c0.286-0.683,0.675-1.316,1.155-1.887l10.434,10.433c-0.568,0.479-1.203,0.868-1.888,1.156
	C11.189,17.691,9.087,17.69,7.257,16.919z M7.257,3.276c1.83-0.773,3.933-0.773,5.763,0c0.875,0.368,1.667,0.901,2.354,1.584
	c0.683,0.687,1.216,1.479,1.585,2.355c0.387,0.913,0.582,1.883,0.582,2.881c0,0.999-0.195,1.969-0.583,2.882
	c-0.286,0.683-0.675,1.316-1.155,1.887L5.369,4.433C5.938,3.953,6.572,3.564,7.257,3.276z"/>
</svg>
