<?xml version="1.0" encoding="utf-8"?>
<!-- Generator: Adobe Illustrator 23.0.2, SVG Export Plug-In . SVG Version: 6.00 Build 0)  -->
<svg version="1.1" id="图层_1" xmlns="http://www.w3.org/2000/svg" xmlns:xlink="http://www.w3.org/1999/xlink" x="0px" y="0px"
	 width="18px" height="16.282px" viewBox="0 0 18 16.282" enable-background="new 0 0 18 16.282" xml:space="preserve">
<path fill="#FFFFFF" d="M18,8.124c0-0.656-4.029-5.806-9-5.806c-0.981,0-1.924,0.207-2.808,0.537L4.471,0.274
	C4.284-0.009,3.9-0.085,3.617,0.103c-0.283,0.189-0.36,0.571-0.171,0.854l1.606,2.409C2.064,4.916,0,7.686,0,8.124
	c0,0.613,4.03,5.806,9,5.806c0.961,0,1.886-0.196,2.754-0.511l1.726,2.588c0.118,0.179,0.315,0.275,0.513,0.275
	c0.117,0,0.236-0.034,0.341-0.104c0.283-0.189,0.36-0.571,0.171-0.854l-1.607-2.41C15.914,11.381,18,8.596,18,8.124z M9,12.64
	c-4.308,0-7.8-4.516-7.8-4.516s1.869-2.407,4.554-3.705l1.031,1.547C6.302,6.538,6,7.29,6,8.124c0,1.782,1.344,3.226,3,3.226
	c0.425,0,0.829-0.098,1.195-0.27l0.822,1.233C10.373,12.513,9.699,12.64,9,12.64z M12.192,11.856l-1.016-1.524
	C11.684,9.755,12,8.981,12,8.124c0-0.039-0.009-0.076-0.01-0.114c-0.186,0.07-0.382,0.114-0.59,0.114c-0.994,0-1.8-0.866-1.8-1.935
	c0-0.4,0.116-0.79,0.333-1.116C9.638,4.969,9.327,4.899,9,4.899c-0.446,0-0.866,0.112-1.246,0.299l-0.83-1.245
	C7.586,3.742,8.28,3.608,9,3.608c4.308,0,7.8,4.516,7.8,4.516S14.907,10.564,12.192,11.856z"/>
</svg>
