<?xml version="1.0" encoding="utf-8"?>
<!-- Generator: Adobe Illustrator 22.0.0, SVG Export Plug-In . SVG Version: 6.00 Build 0)  -->
<svg version="1.1" id="图层_1" xmlns="http://www.w3.org/2000/svg" xmlns:xlink="http://www.w3.org/1999/xlink" x="0px" y="0px"
	 width="12px" height="17px" viewBox="0 0 12 17" style="enable-background:new 0 0 12 17;" xml:space="preserve">
<g>
	<path d="M11.9,6.1c-0.1-0.3-0.5-0.6-0.8-0.6H9.6V1.1c0-0.6-0.5-1-1-1H3.1c-0.5,0.1-0.9,0.5-0.9,1v4.5H1c-0.3,0-0.7,0.2-0.8,0.6
		c-0.2,0.3-0.2,0.7,0.1,1l5.1,5.6C5.5,13,5.8,13.1,6,13.1s0.5-0.2,0.7-0.3l5.1-5.6C12,6.9,12.1,6.4,11.9,6.1z"/>
	<path d="M10.5,14.9H1.5c-0.6,0-1,0.4-1,1s0.4,1,1,1h8.9c0.6,0,1-0.4,1-1S11,14.9,10.5,14.9z"/>
</g>
</svg>
