<?xml version="1.0" encoding="utf-8"?>
<!-- Generator: Adobe Illustrator 22.0.0, SVG Export Plug-In . SVG Version: 6.00 Build 0)  -->
<svg version="1.1" id="图层_1" xmlns="http://www.w3.org/2000/svg" xmlns:xlink="http://www.w3.org/1999/xlink" x="0px" y="0px"
	 width="20px" height="20px" viewBox="0 0 20 20" enable-background="new 0 0 20 20" xml:space="preserve">
<path fill="#231815" d="M13.38,12.603l-1.335,1.682l-1.583,1.995c-0.233,0.293-0.692,0.293-0.924,0l-1.583-1.995L6.62,12.603
	c-0.291-0.367-0.019-0.896,0.462-0.896H8.26c-0.026-0.084-0.055-0.168-0.055-0.26V4.437c0-0.517,0.437-0.937,0.976-0.937h1.637
	c0.539,0,0.976,0.419,0.976,0.937v7.011c0,0.092-0.029,0.176-0.055,0.26h1.178C13.399,11.707,13.671,12.235,13.38,12.603z"/>
</svg>
