<?xml version="1.0" encoding="utf-8"?>
<!-- Generator: Adobe Illustrator 23.0.1, SVG Export Plug-In . SVG Version: 6.00 Build 0)  -->
<svg version="1.1" id="图层_1" xmlns="http://www.w3.org/2000/svg" xmlns:xlink="http://www.w3.org/1999/xlink" x="0px" y="0px"
	 width="20px" height="20px" viewBox="0 0 20 20" enable-background="new 0 0 20 20" xml:space="preserve">
<path fill="#00CDCD" d="M10,16c-0.3,0-0.6-0.1-0.9-0.4l-6-6.8C2.8,8.5,2.8,8,3,7.6s0.6-0.7,1-0.7h1.4V1.5c0-0.6,0.5-1.1,1.1-1.2H13
	c0.6,0,1.2,0.5,1.2,1.2v5.4H16c0.4,0,0.9,0.3,1,0.7c0.2,0.4,0.1,0.9-0.2,1.2l-6,6.8C10.6,15.8,10.3,16,10,16 M4,8.1l5.9,6.7l5.9-6.7
	h-2.3c-0.3,0-0.6-0.3-0.6-0.6v-6H6.4v6c0,0.2-0.1,0.3-0.2,0.4C6.1,8,5.9,8.1,5.8,8.1H4L4,8.1z"/>
<path fill="#00CDCD" d="M14.8,17.4H5c-0.6,0-1.1,0.5-1.1,1.1s0.5,1.1,1.1,1.1h9.8c0.5,0,1.1-0.5,1.1-1.1S15.4,17.4,14.8,17.4z"/>
</svg>
