<?xml version="1.0" encoding="utf-8"?>
<!-- Generator: Adobe Illustrator 16.0.0, SVG Export Plug-In . SVG Version: 6.00 Build 0)  -->
<!DOCTYPE svg PUBLIC "-//W3C//DTD SVG 1.1//EN" "http://www.w3.org/Graphics/SVG/1.1/DTD/svg11.dtd">
<svg version="1.1" id="图层_1" xmlns="http://www.w3.org/2000/svg" xmlns:xlink="http://www.w3.org/1999/xlink" x="0px" y="0px"
	 width="20px" height="20px" viewBox="0 0 20 20" enable-background="new 0 0 20 20" xml:space="preserve">
<g>
	<path fill="#5D5D5D" d="M18.751,2.58c-0.105-0.096-0.245-0.148-0.394-0.148c-0.149,0-0.289,0.053-0.394,0.15L6.481,13.431
		c-0.105,0.098-0.166,0.235-0.166,0.378s0.06,0.28,0.166,0.378c0.105,0.1,0.245,0.154,0.394,0.154c0.148,0,0.288-0.055,0.395-0.154
		L18.75,3.343c0.106-0.095,0.168-0.234,0.168-0.382C18.917,2.817,18.857,2.679,18.751,2.58z"/>
	<path fill="#5D5D5D" d="M17.439,8.936c-0.308,0-0.559,0.239-0.559,0.533v6.941c0,0.423-0.368,0.767-0.819,0.767H5.037
		c-0.451,0-0.817-0.344-0.817-0.767V4.263c0-0.423,0.367-0.768,0.817-0.768h8.267c0.313,0,0.559-0.234,0.559-0.534
		c0-0.294-0.25-0.532-0.559-0.532H5.037C3.969,2.429,3.1,3.251,3.1,4.263v12.149c0,1.012,0.869,1.834,1.937,1.834h11.024
		c1.068,0,1.938-0.822,1.938-1.834V9.469C17.999,9.175,17.748,8.936,17.439,8.936z"/>
</g>
</svg>
