<?xml version="1.0" encoding="utf-8"?>
<!-- Generator: Adobe Illustrator 22.0.0, SVG Export Plug-In . SVG Version: 6.00 Build 0)  -->
<svg version="1.1" id="图层_1" xmlns="http://www.w3.org/2000/svg" xmlns:xlink="http://www.w3.org/1999/xlink" x="0px" y="0px"
	 width="20px" height="20px" viewBox="0 0 20 20" enable-background="new 0 0 20 20" xml:space="preserve">
<g>
	<path d="M14.899,4.771l-2.203-1.546c-0.232-0.163-0.553-0.107-0.716,0.126l-4.378,6.24c-0.163,0.232-0.107,0.553,0.126,0.716
		l2.203,1.546c0.232,0.163,0.553,0.107,0.716-0.126l4.378-6.24C15.187,5.255,15.131,4.934,14.899,4.771z"/>
	<polygon points="6.925,11.093 6.788,12.637 6.652,14.181 8.057,13.527 9.463,12.874 8.194,11.983 	"/>
</g>
<path d="M16.608,15.289H5.205c-0.436,0-0.79,0.354-0.79,0.79c0,0.436,0.354,0.79,0.79,0.79h11.403c0.436,0,0.79-0.354,0.79-0.79
	C17.399,15.643,17.045,15.289,16.608,15.289z"/>
</svg>
