<?xml version="1.0" encoding="utf-8"?>
<!-- Generator: Adobe Illustrator 16.0.0, SVG Export Plug-In . SVG Version: 6.00 Build 0)  -->
<!DOCTYPE svg PUBLIC "-//W3C//DTD SVG 1.1//EN" "http://www.w3.org/Graphics/SVG/1.1/DTD/svg11.dtd">
<svg version="1.1" id="图层_1" xmlns="http://www.w3.org/2000/svg" xmlns:xlink="http://www.w3.org/1999/xlink" x="0px" y="0px"
	 width="19.999px" height="20px" viewBox="0 0 19.999 20" enable-background="new 0 0 19.999 20" xml:space="preserve">
<path fill="#5D5D5D" d="M17.223,3.493H3.039c-1.017,0-1.776,1.042-1.776,1.974v9.455c0,0.932,0.76,1.974,1.776,1.974h14.184
	c1.017,0,1.776-1.042,1.776-1.974V5.467C18.999,4.535,18.239,3.493,17.223,3.493z M17.811,5.798v8.793l-4.396-4.396L17.811,5.798z
	 M7.687,11.034l1.212,1.212c0.33,0.329,0.768,0.511,1.232,0.511c0.466,0,0.904-0.182,1.232-0.511l1.211-1.212l4.632,4.631
	c-0.009,0.012-0.021,0.028-0.033,0.042H3.089c-0.011-0.013-0.023-0.029-0.033-0.042L7.687,11.034z M9.737,11.405L3.056,4.724
	c0.014-0.02,0.025-0.033,0.033-0.042h14.084c0.011,0.013,0.023,0.028,0.033,0.042l-6.683,6.683
	C10.314,11.614,9.946,11.616,9.737,11.405z M6.848,10.194l-4.396,4.396V5.798L6.848,10.194z"/>
</svg>
