<?xml version="1.0" encoding="utf-8"?>
<!-- Generator: Adobe Illustrator 23.0.2, SVG Export Plug-In . SVG Version: 6.00 Build 0)  -->
<svg version="1.1" id="图层_1" xmlns="http://www.w3.org/2000/svg" xmlns:xlink="http://www.w3.org/1999/xlink" x="0px" y="0px"
	 width="18px" height="11.612px" viewBox="0 0 18 11.612" enable-background="new 0 0 18 11.612" xml:space="preserve">
<path fill="#FFFFFF" d="M9,11.612c-4.97,0-9-5.193-9-5.806C0,5.193,4.03,0,9,0c4.971,0,9,5.149,9,5.806
	C18,6.463,13.971,11.612,9,11.612z M9,1.29c-4.308,0-7.8,4.516-7.8,4.516s3.492,4.516,7.8,4.516s7.8-4.516,7.8-4.516
	S13.308,1.29,9,1.29z M9.6,3.871c0,1.069,0.806,1.935,1.8,1.935c0.208,0,0.404-0.045,0.59-0.114C11.991,5.73,12,5.767,12,5.806
	c0,1.782-1.343,3.226-3,3.226c-1.657,0-3-1.445-3-3.226C6,4.025,7.343,2.58,9,2.58c0.327,0,0.638,0.07,0.933,0.175
	C9.716,3.081,9.6,3.471,9.6,3.871z"/>
</svg>
