<?xml version="1.0" encoding="utf-8"?>
<!-- Generator: Adobe Illustrator 16.0.0, SVG Export Plug-In . SVG Version: 6.00 Build 0)  -->
<!DOCTYPE svg PUBLIC "-//W3C//DTD SVG 1.1//EN" "http://www.w3.org/Graphics/SVG/1.1/DTD/svg11.dtd">
<svg version="1.1" id="图层_1" xmlns="http://www.w3.org/2000/svg" xmlns:xlink="http://www.w3.org/1999/xlink" x="0px" y="0px"
	 width="19.999px" height="20px" viewBox="0 0 19.999 20" enable-background="new 0 0 19.999 20" xml:space="preserve">
<path fill="#5D5D5D" d="M18.764,3.797c-0.258-0.262-0.754-0.262-1.018,0.002l-9.795,9.83L2.88,8.539
	C2.619,8.274,2.12,8.274,1.863,8.536C1.727,8.672,1.65,8.853,1.65,9.045c0,0.193,0.075,0.374,0.21,0.508l5.581,5.606
	c0.137,0.136,0.317,0.211,0.51,0.211c0.19,0,0.376-0.078,0.51-0.213L18.766,4.813c0.135-0.136,0.21-0.316,0.21-0.511
	C18.974,4.11,18.898,3.931,18.764,3.797z"/>
</svg>
