<?xml version="1.0" encoding="utf-8"?>
<!-- Generator: Adobe Illustrator 16.0.0, SVG Export Plug-In . SVG Version: 6.00 Build 0)  -->
<!DOCTYPE svg PUBLIC "-//W3C//DTD SVG 1.1//EN" "http://www.w3.org/Graphics/SVG/1.1/DTD/svg11.dtd">
<svg version="1.1" id="图层_1" xmlns="http://www.w3.org/2000/svg" xmlns:xlink="http://www.w3.org/1999/xlink" x="0px" y="0px"
	 width="16.458px" height="16.594px" viewBox="7.319 7.909 16.458 16.594" enable-background="new 7.319 7.909 16.458 16.594"
	 xml:space="preserve">
<g>
	<path fill="#5D5D5D" d="M22.657,17.122v5.731c0.005,0.286-0.224,0.524-0.508,0.53H8.946c-0.28,0-0.509-0.238-0.509-0.531V9.695
		C8.432,9.409,8.66,9.171,8.946,9.163h5.737V8.046H8.946c-0.898,0-1.627,0.74-1.627,1.65v13.156
		c-0.006,0.902,0.724,1.643,1.627,1.65h13.203c0.898,0,1.628-0.742,1.628-1.65v-5.73H22.657z"/>
	<path fill="#5D5D5D" d="M16.563,15.685c0.16,0,0.317-0.063,0.431-0.178l5.528-5.403v2.962c0,0.164,0.065,0.318,0.181,0.436
		c0.118,0.117,0.272,0.182,0.436,0.182c0.338,0,0.614-0.276,0.615-0.615V8.526c0-0.34-0.275-0.616-0.615-0.616H18.49l-0.021-0.001
		c-0.217,0-0.42,0.116-0.531,0.303c-0.115,0.193-0.115,0.436,0,0.629c0.111,0.186,0.313,0.302,0.529,0.302l3.278-0.001l-5.611,5.486
		c-0.182,0.176-0.236,0.439-0.141,0.674C16.086,15.535,16.311,15.685,16.563,15.685z"/>
</g>
</svg>
