<?xml version="1.0" encoding="utf-8"?>
<!-- Generator: Adobe Illustrator 16.0.0, SVG Export Plug-In . SVG Version: 6.00 Build 0)  -->
<!DOCTYPE svg PUBLIC "-//W3C//DTD SVG 1.1//EN" "http://www.w3.org/Graphics/SVG/1.1/DTD/svg11.dtd">
<svg version="1.1" id="图层_1" xmlns="http://www.w3.org/2000/svg" xmlns:xlink="http://www.w3.org/1999/xlink" x="0px" y="0px"
	 width="17.063px" height="16.421px" viewBox="7.206 8.96 17.063 16.421" enable-background="new 7.206 8.96 17.063 16.421"
	 xml:space="preserve">
<path fill="#5D5D5D" d="M7.691,20.524"/>
<path fill="#5D5D5D" d="M7.206,9.249c0.185-0.232,0.427-0.29,0.716-0.289c5.197,0.005,10.395,0.005,15.592,0.002
	c0.277,0,0.549,0.005,0.698,0.295c0.153,0.297-0.028,0.518-0.185,0.738c-1.799,2.535-3.594,5.072-5.405,7.602
	c-0.276,0.385-0.42,0.766-0.413,1.25c0.023,1.902,0.012,3.807,0.009,5.707c0,0.803-0.309,1.006-1.038,0.676
	c-1.138-0.517-2.266-1.053-3.408-1.562c-0.393-0.176-0.537-0.448-0.533-0.869c0.013-1.362-0.012-2.724,0.013-4.088
	c0.006-0.397-0.121-0.706-0.344-1.015c-1.905-2.672-3.804-5.346-5.7-8.021L7.206,9.249L7.206,9.249z M15.742,10.021h-5.197
	c-0.469,0-0.938-0.002-1.406,0.002c-0.092,0-0.219-0.043-0.27,0.067c-0.046,0.104,0.061,0.181,0.109,0.261
	c0.054,0.084,0.114,0.164,0.172,0.244c1.604,2.258,3.201,4.518,4.817,6.766c0.244,0.343,0.351,0.687,0.345,1.104
	c-0.02,1.278,0.002,2.557-0.013,3.834c-0.004,0.313,0.087,0.493,0.382,0.62c0.678,0.289,1.34,0.613,2.014,0.918
	c0.453,0.205,0.457,0.202,0.459-0.278c0-1.678,0.015-3.353-0.01-5.026c-0.008-0.483,0.129-0.869,0.408-1.257
	c1.623-2.258,3.23-4.53,4.84-6.801c0.084-0.121,0.271-0.238,0.183-0.396c-0.071-0.122-0.265-0.057-0.4-0.057
	C20.031,10.021,17.887,10.021,15.742,10.021"/>
</svg>
