<?xml version="1.0" encoding="utf-8"?>
<!-- Generator: Adobe Illustrator 22.0.0, SVG Export Plug-In . SVG Version: 6.00 Build 0)  -->
<svg version="1.1" id="图层_1" xmlns="http://www.w3.org/2000/svg" xmlns:xlink="http://www.w3.org/1999/xlink" x="0px" y="0px"
	 width="12px" height="12px" viewBox="0 0 12 12" style="enable-background:new 0 0 12 12;" xml:space="preserve">
<path d="M6.5,10h-3v1.4c0,0.5-0.4,0.7-0.7,0.4l-1.2-1.1L0.2,9.5c-0.2-0.2-0.2-0.7,0-0.9l1.4-1.3l1.2-1.1c0.3-0.3,0.7,0,0.7,0.4V8h3
	c1.7,0,3-1.3,3-3c0-1.7-1.3-3-3-3h-5c-0.6,0-1-0.4-1-1s0.4-1,1-1h5c2.8,0,5,2.2,5,5C11.5,7.8,9.3,10,6.5,10z"/>
</svg>
