<?xml version="1.0" encoding="utf-8"?>
<!-- Generator: Adobe Illustrator 22.0.0, SVG Export Plug-In . SVG Version: 6.00 Build 0)  -->
<svg version="1.1" id="图层_1" xmlns="http://www.w3.org/2000/svg" xmlns:xlink="http://www.w3.org/1999/xlink" x="0px" y="0px"
	 width="12px" height="16px" viewBox="0 0 12 16" style="enable-background:new 0 0 12 16;" xml:space="preserve">
<g>
	<path d="M7,11l4.8-3.2c0.3-0.2,0.3-0.8,0-1L7.5,4v3.4c0,0.8-0.7,1.5-1.5,1.5S4.5,8.2,4.5,7.3V4L0.3,6.8c-0.3,0.2-0.3,0.8,0,1
		l4.9,3.2c0.1,0.1,0.2,0.1,0.3,0.1v1.5H4c-0.4,0-0.6,0.4-0.4,0.6l0.9,1l1.1,1.2c0.2,0.2,0.6,0.2,0.8,0l1.1-1.2l0.9-1
		c0.2-0.3,0-0.6-0.4-0.6H6.5v-1.5C6.7,11.2,6.8,11.1,7,11z"/>
	<path d="M6,7.7c0.3,0,0.5-0.2,0.5-0.5V0.8c0-0.3-0.2-0.5-0.5-0.5S5.5,0.5,5.5,0.8v6.4C5.5,7.5,5.7,7.7,6,7.7z"/>
</g>
</svg>
