<?xml version="1.0" encoding="utf-8"?>
<!-- Generator: Adobe Illustrator 16.0.0, SVG Export Plug-In . SVG Version: 6.00 Build 0)  -->
<!DOCTYPE svg PUBLIC "-//W3C//DTD SVG 1.1//EN" "http://www.w3.org/Graphics/SVG/1.1/DTD/svg11.dtd">
<svg version="1.1" id="图层_1" xmlns="http://www.w3.org/2000/svg" xmlns:xlink="http://www.w3.org/1999/xlink" x="0px" y="0px"
	 width="17.271px" height="17.27px" viewBox="7.483 7.365 17.271 17.27" enable-background="new 7.483 7.365 17.271 17.27"
	 xml:space="preserve">
<g>
	<path fill="#5D5D5D" d="M21.063,19.993v-7.987c0-0.524-0.426-0.95-0.949-0.95h-7.985c-0.525,0-0.951,0.426-0.951,0.95v7.987
		c0,0.523,0.426,0.949,0.951,0.949h7.985C20.637,20.942,21.063,20.517,21.063,19.993z M19.62,19.149
		c0,0.193-0.157,0.351-0.351,0.351H12.97c-0.194,0-0.351-0.158-0.351-0.351v-6.299c0-0.193,0.157-0.352,0.351-0.352h6.297
		c0.195,0,0.352,0.159,0.352,0.352h0.001V19.149z"/>
	<path fill="#5D5D5D" d="M24.049,20.392c-0.389,0-0.705,0.315-0.705,0.705v1.883c0,0.135-0.109,0.244-0.246,0.244h-1.883
		c-0.389,0-0.705,0.316-0.705,0.705c0,0.391,0.316,0.706,0.705,0.706h2.453c0.6,0,1.086-0.487,1.086-1.086v-2.452
		C24.754,20.707,24.438,20.392,24.049,20.392z"/>
	<path fill="#5D5D5D" d="M23.668,7.365h-2.453c-0.389,0-0.705,0.315-0.705,0.704c0,0.39,0.316,0.705,0.705,0.705h1.883
		c0.137,0,0.246,0.11,0.246,0.246v1.881c0,0.391,0.316,0.707,0.705,0.707s0.705-0.316,0.705-0.707V8.45
		C24.754,7.853,24.268,7.365,23.668,7.365z"/>
	<path fill="#5D5D5D" d="M8.191,11.608c0.39,0,0.706-0.316,0.706-0.707V9.021c0-0.136,0.11-0.246,0.246-0.246h1.883
		c0.389,0,0.706-0.315,0.706-0.705c0-0.389-0.319-0.704-0.708-0.704H8.571c-0.599,0-1.086,0.485-1.086,1.085v2.451
		C7.485,11.292,7.801,11.608,8.191,11.608z"/>
	<path fill="#5D5D5D" d="M11.024,23.224H9.141c-0.136,0-0.246-0.109-0.246-0.244v-1.883c0-0.39-0.316-0.705-0.706-0.705
		s-0.706,0.315-0.706,0.705v2.452c0,0.599,0.487,1.086,1.086,1.086h2.453c0.389,0,0.706-0.315,0.706-0.706
		C11.729,23.54,11.413,23.224,11.024,23.224z"/>
</g>
</svg>
