<?xml version="1.0" encoding="utf-8"?>
<!-- Generator: Adobe Illustrator 16.0.0, SVG Export Plug-In . SVG Version: 6.00 Build 0)  -->
<!DOCTYPE svg PUBLIC "-//W3C//DTD SVG 1.1//EN" "http://www.w3.org/Graphics/SVG/1.1/DTD/svg11.dtd">
<svg version="1.1" id="图层_1" xmlns="http://www.w3.org/2000/svg" xmlns:xlink="http://www.w3.org/1999/xlink" x="0px" y="0px"
	 width="15px" height="15px" viewBox="0 0 15 15" enable-background="new 0 0 15 15" xml:space="preserve">
<path fill="#C3C3C3" d="M7.503,0.698c-3.729,0-6.748,3.045-6.748,6.802s3.019,6.802,6.748,6.802c3.726,0,6.742-3.045,6.742-6.802
	S11.229,0.698,7.503,0.698z M11.104,10.365c0.192,0.191,0.192,0.527,0,0.719c-0.195,0.191-0.535,0.191-0.73,0L7.464,8.221
	l-3.037,2.985c-0.2,0.198-0.552,0.198-0.752,0c-0.2-0.197-0.2-0.543,0-0.741L6.708,7.48L3.796,4.616
	c-0.194-0.191-0.194-0.527,0-0.719c0.194-0.192,0.535-0.191,0.73,0L7.44,6.761l3.012-2.966c0.2-0.197,0.551-0.197,0.752,0
	c0.2,0.198,0.2,0.544,0,0.742L8.189,7.502L11.104,10.365z"/>
</svg>
