<?xml version="1.0" encoding="utf-8"?>
<!-- Generator: Adobe Illustrator 16.0.0, SVG Export Plug-In . SVG Version: 6.00 Build 0)  -->
<!DOCTYPE svg PUBLIC "-//W3C//DTD SVG 1.1//EN" "http://www.w3.org/Graphics/SVG/1.1/DTD/svg11.dtd">
<svg version="1.1" id="图层_1" xmlns="http://www.w3.org/2000/svg" xmlns:xlink="http://www.w3.org/1999/xlink" x="0px" y="0px"
	 width="44px" height="44px" viewBox="0 0 44 44" enable-background="new 0 0 44 44" xml:space="preserve">
<g>
	<path fill="#CDCDCD" d="M22,0.5C10.145,0.5,0.5,10.145,0.5,22S10.145,43.5,22,43.5c11.854,0,21.499-9.645,21.499-21.5
		S33.854,0.5,22,0.5z M22,41.35C11.331,41.35,2.651,32.67,2.651,22c0-10.669,8.68-19.349,19.349-19.349
		c10.669,0,19.349,8.68,19.349,19.349C41.349,32.67,32.669,41.35,22,41.35z"/>
	<path fill="#CDCDCD" d="M22,27.572c0.68,0,1.23-0.551,1.23-1.23V9.759c0-0.68-0.551-1.231-1.23-1.231s-1.231,0.551-1.231,1.231
		v16.583C20.769,27.021,21.32,27.572,22,27.572z"/>
	<circle fill="#CDCDCD" cx="22" cy="32.465" r="1.389"/>
</g>
</svg>
