<?xml version="1.0" encoding="utf-8"?>
<!-- Generator: Adobe Illustrator 16.0.0, SVG Export Plug-In . SVG Version: 6.00 Build 0)  -->
<!DOCTYPE svg PUBLIC "-//W3C//DTD SVG 1.1//EN" "http://www.w3.org/Graphics/SVG/1.1/DTD/svg11.dtd">
<svg version="1.1" id="图层_1" xmlns="http://www.w3.org/2000/svg" xmlns:xlink="http://www.w3.org/1999/xlink" x="0px" y="0px"
	 width="20.7px" height="17.729px" viewBox="5.549 7.191 20.7 17.729" enable-background="new 5.549 7.191 20.7 17.729"
	 xml:space="preserve">
<g>
	<path fill="#5D5D5D" d="M25.291,23.227H6.507c-0.527,0-0.958,0.379-0.958,0.848c0,0.466,0.431,0.846,0.958,0.846h18.784
		c0.251,0,0.488-0.085,0.668-0.24c0.189-0.162,0.293-0.378,0.29-0.605C26.249,23.605,25.818,23.227,25.291,23.227z"/>
	<path fill="#5D5D5D" d="M25.291,15.207H6.507c-0.527,0-0.958,0.381-0.958,0.847c0,0.467,0.431,0.848,0.958,0.848h18.784
		c0.248,0,0.486-0.084,0.672-0.242c0.188-0.162,0.289-0.377,0.286-0.606C26.249,15.588,25.818,15.207,25.291,15.207z"/>
	<path fill="#5D5D5D" d="M6.507,8.888h18.784c0.249,0,0.486-0.086,0.672-0.243c0.188-0.161,0.289-0.378,0.286-0.606
		c0-0.468-0.431-0.848-0.958-0.848H6.507c-0.527,0-0.958,0.38-0.958,0.848C5.549,8.506,5.98,8.888,6.507,8.888z"/>
</g>
</svg>
