<?xml version="1.0" encoding="utf-8"?>
<!-- Generator: Adobe Illustrator 23.0.2, SVG Export Plug-In . SVG Version: 6.00 Build 0)  -->
<svg version="1.1" id="图层_1" xmlns="http://www.w3.org/2000/svg" xmlns:xlink="http://www.w3.org/1999/xlink" x="0px" y="0px"
	 width="18px" height="17.577px" viewBox="0 0 18 17.577" enable-background="new 0 0 18 17.577" xml:space="preserve">
<g>
	<path fill="#606060" d="M8.05,7.221V2.443c0.001-0.114-0.059-0.219-0.159-0.277L4.175,0.041c-0.094-0.055-0.209-0.054-0.299,0
		L0.158,2.166C0.059,2.224-0.001,2.329,0,2.442V7.22c-0.001,0.115,0.056,0.217,0.154,0.276l3.894,2.285
		C4.093,9.807,4.145,9.82,4.195,9.82c0.058,0,0.116-0.017,0.167-0.05l3.545-2.285C7.996,7.425,8.049,7.328,8.05,7.221z M6.862,2.893
		v3.886L4.189,8.546L1.191,6.719V2.893l2.834-1.629L6.862,2.893z"/>
	<path fill="#606060" d="M17.841,2.166l-3.716-2.125c-0.091-0.053-0.207-0.054-0.298,0l-3.718,2.125h-0.001
		C10.01,2.224,9.95,2.329,9.951,2.442V7.22c-0.001,0.113,0.058,0.218,0.155,0.276l3.893,2.285c0.045,0.025,0.096,0.037,0.147,0.037
		c0.058,0,0.117-0.016,0.167-0.049l3.545-2.28c0.091-0.06,0.145-0.161,0.144-0.268V2.443C18.001,2.329,17.941,2.224,17.841,2.166z
		 M16.814,2.946v3.837l-2.675,1.768l-2.997-1.777v-3.83l2.835-1.627L16.814,2.946z"/>
	<path fill="#606060" d="M12.861,10.128L9.144,8.111c-0.087-0.049-0.2-0.05-0.287,0l-3.72,2.018c-0.1,0.058-0.163,0.166-0.162,0.279
		v4.62c-0.001,0.115,0.057,0.218,0.159,0.277l3.892,2.231c0.046,0.027,0.096,0.04,0.148,0.04c0.055,0,0.11-0.015,0.159-0.046
		l3.547-2.231c0.092-0.06,0.147-0.162,0.146-0.27v-4.62C13.026,10.295,12.963,10.188,12.861,10.128z M11.835,10.866v3.669
		l-2.672,1.67l-2.997-1.682v-3.656l2.833-1.534L11.835,10.866z"/>
</g>
</svg>
