<?xml version="1.0" encoding="utf-8"?>
<!-- Generator: Adobe Illustrator 16.0.0, SVG Export Plug-In . SVG Version: 6.00 Build 0)  -->
<!DOCTYPE svg PUBLIC "-//W3C//DTD SVG 1.1//EN" "http://www.w3.org/Graphics/SVG/1.1/DTD/svg11.dtd">
<svg version="1.1" id="图层_1" xmlns="http://www.w3.org/2000/svg" xmlns:xlink="http://www.w3.org/1999/xlink" x="0px" y="0px"
	 width="20px" height="20px" viewBox="0 0 20 20" enable-background="new 0 0 20 20" xml:space="preserve">
<g>
	<path fill="#888888" d="M6.238,7.189h7.922c0.863,0,1.563-0.699,1.563-1.563s-0.699-1.563-1.563-1.563H6.238
		c-0.863,0-1.563,0.699-1.563,1.563S5.375,7.189,6.238,7.189z M13.911,4.773c0.471,0,0.854,0.383,0.854,0.854
		c0,0.472-0.383,0.854-0.854,0.854c-0.472,0-0.854-0.383-0.854-0.854C13.057,5.156,13.439,4.773,13.911,4.773z"/>
	<path fill="#888888" d="M14.16,8.481H6.238c-0.863,0-1.563,0.699-1.563,1.563s0.699,1.563,1.563,1.563h7.922
		c0.863,0,1.563-0.699,1.563-1.563S15.023,8.481,14.16,8.481z M13.911,10.898c-0.472,0-0.854-0.383-0.854-0.854
		c0-0.471,0.383-0.854,0.854-0.854c0.471,0,0.854,0.383,0.854,0.854C14.765,10.516,14.382,10.898,13.911,10.898z"/>
	<path fill="#888888" d="M14.16,12.898H6.238c-0.863,0-1.563,0.699-1.563,1.563s0.699,1.563,1.563,1.563h7.922
		c0.863,0,1.563-0.699,1.563-1.563S15.023,12.898,14.16,12.898z M13.911,15.315c-0.472,0-0.854-0.383-0.854-0.854
		c0-0.471,0.383-0.854,0.854-0.854c0.471,0,0.854,0.383,0.854,0.854C14.765,14.933,14.382,15.315,13.911,15.315z"/>
</g>
</svg>
