<?xml version="1.0" encoding="utf-8"?>
<!-- Generator: Adobe Illustrator 16.0.0, SVG Export Plug-In . SVG Version: 6.00 Build 0)  -->
<!DOCTYPE svg PUBLIC "-//W3C//DTD SVG 1.1//EN" "http://www.w3.org/Graphics/SVG/1.1/DTD/svg11.dtd">
<svg version="1.1" id="图层_1" xmlns="http://www.w3.org/2000/svg" xmlns:xlink="http://www.w3.org/1999/xlink" x="0px" y="0px"
	 width="19.999px" height="20px" viewBox="0 0 19.999 20" enable-background="new 0 0 19.999 20" xml:space="preserve">
<path fill="#5D5D5D" d="M17.522,3.618c0-0.188-0.074-0.364-0.205-0.495c-0.25-0.254-0.735-0.256-0.991-0.001L15.309,4.14
	l-1.354-1.353c-0.254-0.256-0.737-0.255-0.989-0.001c-0.133,0.131-0.206,0.307-0.206,0.495s0.073,0.364,0.205,0.495l1.354,1.354
	l-3.58,3.581C9.835,8.022,8.718,7.645,7.576,7.645c-1.394,0-2.703,0.543-3.688,1.527c-0.985,0.986-1.528,2.296-1.528,3.689
	s0.543,2.703,1.528,3.688s2.295,1.529,3.688,1.529s2.704-0.544,3.689-1.529c1.856-1.857,2.045-4.778,0.461-6.85l5.588-5.587
	C17.448,3.981,17.522,3.806,17.522,3.618z M10.276,15.56c-0.721,0.721-1.68,1.117-2.699,1.117c-1.019,0-1.978-0.396-2.698-1.117
	c-1.486-1.488-1.486-3.908,0-5.396c0.722-0.722,1.68-1.118,2.698-1.118s1.978,0.396,2.699,1.118
	C11.763,11.651,11.763,14.071,10.276,15.56z"/>
</svg>
