<?xml version="1.0" encoding="utf-8"?>
<!-- Generator: Adobe Illustrator 16.0.0, SVG Export Plug-In . SVG Version: 6.00 Build 0)  -->
<!DOCTYPE svg PUBLIC "-//W3C//DTD SVG 1.1//EN" "http://www.w3.org/Graphics/SVG/1.1/DTD/svg11.dtd">
<svg version="1.1" id="图层_1" xmlns="http://www.w3.org/2000/svg" xmlns:xlink="http://www.w3.org/1999/xlink" x="0px" y="0px"
	 width="20px" height="20px" viewBox="0 0 20 20" enable-background="new 0 0 20 20" xml:space="preserve">
<g>
	<path fill="#5D5D5D" d="M15.972,3.594h-1.04c-0.01,0-0.019,0-0.028,0l-0.011,0v0c-0.29,0.022-0.52,0.286-0.52,0.607
		c0,0.317,0.225,0.579,0.52,0.605V4.82h1.079c0.538,0,1.045,0.23,1.426,0.647c0.382,0.418,0.592,0.976,0.592,1.571
		s-0.21,1.153-0.592,1.573c-0.37,0.402-0.856,0.629-1.376,0.643V8.05l-1.636,1.792l-0.03,0.034l1.666,1.828v-1.208
		c1.711-0.03,3.095-1.564,3.095-3.446C19.105,5.145,17.695,3.594,15.972,3.594z"/>
	<path fill="#5D5D5D" d="M4.112,15.442c-0.522-0.014-1.01-0.242-1.377-0.647c-0.381-0.416-0.591-0.974-0.591-1.569
		c0-0.594,0.21-1.152,0.591-1.57c0.382-0.417,0.889-0.646,1.427-0.646h1.029c0.098,0,0.194-0.03,0.279-0.084
		c0.171-0.107,0.277-0.307,0.277-0.523c0-0.222-0.104-0.418-0.276-0.526c-0.07-0.046-0.149-0.074-0.23-0.083V9.779H4.162
		c-1.734,0.011-3.145,1.563-3.145,3.459c0,1.88,1.384,3.413,3.095,3.442v1.209l1.665-1.826l-1.665-1.827V15.442z"/>
	<path fill="#5D5D5D" d="M11.688,13.874H8.582c-1.302,0-2.361,1.159-2.361,2.584s1.06,2.584,2.361,2.584h3.105
		c1.303,0,2.362-1.159,2.362-2.584S12.99,13.874,11.688,13.874z M11.698,17.779H8.593c-0.662,0-1.201-0.593-1.201-1.321
		s0.539-1.322,1.201-1.322h3.105c0.663,0,1.202,0.594,1.202,1.322S12.361,17.779,11.698,17.779z"/>
	<path fill="#5D5D5D" d="M11.688,1.233H8.582c-1.302,0-2.361,1.159-2.361,2.584c0,1.426,1.06,2.586,2.361,2.586h3.105
		c1.303,0,2.362-1.16,2.362-2.586C14.05,2.393,12.99,1.233,11.688,1.233z M11.698,5.142H8.593c-0.662,0-1.201-0.594-1.201-1.324
		c0-0.729,0.539-1.322,1.201-1.322h3.105c0.663,0,1.202,0.593,1.202,1.322C12.9,4.547,12.361,5.142,11.698,5.142z"/>
	<path fill="#5D5D5D" d="M11.688,7.478H8.582c-1.302,0-2.361,1.159-2.361,2.584c0,1.427,1.06,2.587,2.361,2.587h3.105
		c1.303,0,2.362-1.16,2.362-2.587C14.05,8.637,12.99,7.478,11.688,7.478z M11.698,11.386H8.593c-0.662,0-1.201-0.594-1.201-1.324
		c0-0.729,0.539-1.321,1.201-1.321h3.105c0.663,0,1.202,0.593,1.202,1.321C12.9,10.792,12.361,11.386,11.698,11.386z"/>
</g>
</svg>
