<?xml version="1.0" encoding="utf-8"?>
<!-- Generator: Adobe Illustrator 16.0.0, SVG Export Plug-In . SVG Version: 6.00 Build 0)  -->
<!DOCTYPE svg PUBLIC "-//W3C//DTD SVG 1.1//EN" "http://www.w3.org/Graphics/SVG/1.1/DTD/svg11.dtd">
<svg version="1.1" id="图层_1" xmlns="http://www.w3.org/2000/svg" xmlns:xlink="http://www.w3.org/1999/xlink" x="0px" y="0px"
	 width="20px" height="20px" viewBox="0 0 20 20" enable-background="new 0 0 20 20" xml:space="preserve">
<g>
	<path fill="#5D5D5D" d="M14.265,9.682l-0.03,0.033l1.666,1.828v-1.208c1.711-0.03,3.095-1.563,3.095-3.446
		c-0.011-1.905-1.421-3.456-3.145-3.456h-1.04c-0.01,0-0.019,0-0.028,0.001h-0.011c-0.29,0.022-0.52,0.286-0.52,0.607
		c0,0.317,0.225,0.578,0.52,0.605v0.013h1.079c0.538,0,1.045,0.229,1.426,0.647c0.382,0.418,0.592,0.976,0.592,1.57
		s-0.21,1.153-0.592,1.572c-0.37,0.402-0.856,0.63-1.376,0.644V7.889L14.265,9.682z"/>
	<path fill="#5D5D5D" d="M3.991,15.281c-0.522-0.014-1.01-0.242-1.377-0.647c-0.381-0.416-0.591-0.974-0.591-1.569
		c0-0.594,0.21-1.152,0.591-1.57c0.382-0.417,0.889-0.646,1.427-0.646H5.07c0.098,0,0.194-0.029,0.279-0.084
		c0.171-0.107,0.277-0.308,0.277-0.523c0-0.222-0.104-0.418-0.276-0.526C5.28,9.668,5.201,9.64,5.12,9.631V9.618H4.041
		c-1.734,0.011-3.145,1.563-3.145,3.459c0,1.88,1.384,3.413,3.095,3.442v1.209l1.665-1.826l-1.665-1.827V15.281z"/>
	<path fill="#5D5D5D" d="M8.461,6.242h3.105c1.303,0,2.362-1.16,2.362-2.586c0-1.425-1.06-2.584-2.362-2.584H8.461
		C7.159,1.072,6.1,2.231,6.1,3.656C6.1,5.082,7.159,6.242,8.461,6.242z M11.577,4.98H8.472c-0.662,0-1.201-0.594-1.201-1.324
		c0-0.729,0.539-1.322,1.201-1.322h3.105c0.663,0,1.202,0.594,1.202,1.322C12.779,4.387,12.24,4.98,11.577,4.98z"/>
	<path fill="#5D5D5D" d="M8.461,12.487h3.105c1.303,0,2.362-1.16,2.362-2.587c0-1.425-1.06-2.584-2.362-2.584H8.461
		C7.159,7.316,6.1,8.476,6.1,9.9C6.1,11.327,7.159,12.487,8.461,12.487z M11.577,11.225H8.472c-0.662,0-1.201-0.594-1.201-1.324
		c0-0.729,0.539-1.321,1.201-1.321h3.105c0.663,0,1.202,0.593,1.202,1.321C12.779,10.631,12.24,11.225,11.577,11.225z"/>
	<path fill="#5D5D5D" d="M17.573,16.404c0-0.091,0.03-0.182,0.03-0.303c0-0.122,0-0.213-0.03-0.304l0.646-0.516
		c0.063-0.061,0.063-0.12,0.03-0.182l-0.614-1.062c-0.031-0.03-0.093-0.059-0.185-0.03l-0.771,0.304
		c-0.153-0.12-0.338-0.213-0.522-0.304l-0.123-0.788c0.03-0.092-0.063-0.151-0.124-0.151h-1.23c-0.063,0-0.155,0.06-0.155,0.122
		l-0.123,0.817c-0.184,0.061-0.338,0.183-0.522,0.304l-0.739-0.304c-0.092-0.03-0.153,0-0.214,0.061l-0.617,1.062
		c-0.03,0.031,0,0.122,0.062,0.182l0.647,0.485c0,0.091-0.031,0.183-0.031,0.304c0,0.12,0,0.212,0.031,0.303l-0.647,0.515
		c-0.062,0.063-0.062,0.122-0.031,0.183l0.615,1.062c0.032,0.029,0.094,0.06,0.186,0.029l0.77-0.302
		c0.154,0.122,0.339,0.212,0.523,0.302l0.123,0.789c0,0.062,0.061,0.122,0.153,0.122h1.233c0.061,0,0.152-0.061,0.152-0.122
		l0.123-0.789c0.185-0.09,0.369-0.181,0.523-0.302l0.769,0.302c0.063,0.03,0.154,0,0.185-0.061l0.617-1.06
		c0.03-0.063,0.03-0.153-0.031-0.185L17.573,16.404z M15.295,17.162c-0.586,0-1.077-0.485-1.077-1.061
		c0-0.577,0.491-1.062,1.077-1.062c0.584,0,1.076,0.484,1.076,1.062C16.371,16.677,15.88,17.162,15.295,17.162z"/>
	<path fill="#5D5D5D" d="M6.199,16.182c0,1.371,1.015,2.487,2.262,2.487h3.225v-1.063H8.472c-0.718,0-1.301-0.639-1.301-1.424
		c0-0.783,0.583-1.421,1.301-1.421h3.214v-1.063H8.461C7.214,13.697,6.199,14.813,6.199,16.182z"/>
</g>
</svg>
