<?xml version="1.0" encoding="utf-8"?>
<!-- Generator: Adobe Illustrator 16.0.0, SVG Export Plug-In . SVG Version: 6.00 Build 0)  -->
<!DOCTYPE svg PUBLIC "-//W3C//DTD SVG 1.1//EN" "http://www.w3.org/Graphics/SVG/1.1/DTD/svg11.dtd">
<svg version="1.1" id="图层_1" xmlns="http://www.w3.org/2000/svg" xmlns:xlink="http://www.w3.org/1999/xlink" x="0px" y="0px"
	 width="20px" height="20px" viewBox="0 0 20 20" enable-background="new 0 0 20 20" xml:space="preserve">
<g>
	<path fill="#5D5D5D" d="M13.675,5.169H5.943c-0.426,0-0.772,0.287-0.772,0.639c0,0.354,0.347,0.643,0.772,0.643h7.731
		c0.426,0,0.772-0.288,0.772-0.643C14.447,5.456,14.101,5.169,13.675,5.169z"/>
	<path fill="#5D5D5D" d="M13.675,8.764H5.943c-0.426,0-0.772,0.287-0.772,0.639c0,0.354,0.347,0.643,0.772,0.643h7.731
		c0.426,0,0.772-0.289,0.772-0.643C14.447,9.051,14.101,8.764,13.675,8.764z"/>
	<path fill="#5D5D5D" d="M9.906,17.234H5.044c-0.815,0-1.479-0.648-1.479-1.447V4.014c0-0.797,0.664-1.446,1.479-1.446h9.571
		c0.816,0,1.48,0.649,1.48,1.446v5.438c0,0.314,0.256,0.57,0.571,0.57s0.571-0.256,0.571-0.57V4.014c0-1.428-1.177-2.59-2.623-2.59
		H5.044c-1.447,0-2.624,1.162-2.624,2.59v11.773c0,1.43,1.177,2.592,2.624,2.592h4.862c0.315,0,0.572-0.256,0.572-0.572
		C10.479,17.492,10.222,17.234,9.906,17.234z"/>
	<path fill="#5D5D5D" d="M18.65,14.245l-2.646-2.804c-0.57-0.604-1.614-0.595-2.16,0l-2.648,2.804
		c-0.437,0.466-0.365,0.862-0.283,1.061c0.064,0.148,0.269,0.476,0.846,0.532v1.729c0,0.654,0.537,1.149,1.252,1.149h1.534V16.17
		h0.759v2.547h1.531c0.717,0,1.256-0.495,1.256-1.149v-1.729c0.558-0.056,0.768-0.351,0.847-0.536
		C19.017,15.106,19.087,14.709,18.65,14.245z M17.075,14.835v2.729c0,0.097-0.125,0.14-0.241,0.14h-0.517v-1.561
		c0-0.579-0.341-0.984-0.83-0.984h-1.128c-0.488,0-0.829,0.406-0.829,0.988v1.562h-0.517c-0.025,0-0.242-0.005-0.242-0.142v-2.732
		h-0.745l2.556-2.706c0.174-0.188,0.499-0.189,0.676,0.001l2.555,2.705H17.075z"/>
</g>
</svg>
