<?xml version="1.0" encoding="utf-8"?>
<!-- Generator: Adobe Illustrator 16.0.0, SVG Export Plug-In . SVG Version: 6.00 Build 0)  -->
<!DOCTYPE svg PUBLIC "-//W3C//DTD SVG 1.1//EN" "http://www.w3.org/Graphics/SVG/1.1/DTD/svg11.dtd">
<svg version="1.1" id="图层_1" xmlns="http://www.w3.org/2000/svg" xmlns:xlink="http://www.w3.org/1999/xlink" x="0px" y="0px"
	 width="20px" height="20px" viewBox="0 0 20 20" enable-background="new 0 0 20 20" xml:space="preserve">
<path fill="#5D5D5D" d="M13.285,5.354H6.749c-0.426,0-0.772,0.287-0.772,0.639c0,0.354,0.347,0.643,0.772,0.643h6.536
	c0.426,0,0.772-0.288,0.772-0.643C14.058,5.642,13.711,5.354,13.285,5.354z"/>
<path fill="#5D5D5D" d="M13.285,8.949H6.749c-0.426,0-0.772,0.287-0.772,0.639c0,0.354,0.347,0.643,0.772,0.643h6.536
	c0.426,0,0.772-0.289,0.772-0.643C14.058,9.236,13.711,8.949,13.285,8.949z"/>
<path fill="#5D5D5D" d="M10.094,17.42H5.829c-0.815,0-1.479-0.648-1.479-1.447V4.199c0-0.797,0.664-1.446,1.479-1.446h8.376
	c0.816,0,1.48,0.649,1.48,1.446v5.438c0,0.314,0.256,0.57,0.571,0.57s0.571-0.256,0.571-0.57V4.199c0-1.428-1.177-2.59-2.623-2.59
	H5.829c-1.447,0-2.624,1.162-2.624,2.59v11.773c0,1.43,1.177,2.592,2.624,2.592h4.265c0.315,0,0.572-0.256,0.572-0.572
	C10.666,17.678,10.409,17.42,10.094,17.42z"/>
<path fill="#5D5D5D" d="M19.503,18.305L18.498,17.3c0.426-0.564,0.659-1.258,0.659-1.967c0-1.785-1.452-3.238-3.237-3.238
	c-0.863,0-1.676,0.34-2.288,0.956s-0.95,1.431-0.95,2.294c0,1.785,1.453,3.237,3.238,3.237c0.648,0,1.271-0.19,1.808-0.552
	l1.021,1.023c0.1,0.099,0.227,0.149,0.377,0.149c0.151,0,0.277-0.05,0.383-0.158C19.693,18.839,19.692,18.517,19.503,18.305z
	 M15.92,13.158c1.205,0,2.186,0.98,2.186,2.187c0,1.205-0.98,2.186-2.186,2.186c-1.206,0-2.187-0.98-2.187-2.186
	C13.733,14.139,14.714,13.158,15.92,13.158z"/>
<path fill="#5D5D5D" d="M10.017,12.854c-0.952,0-1.727,0.774-1.727,1.727c0,0.953,0.774,1.728,1.727,1.728
	c0.953,0,1.728-0.774,1.728-1.728C11.744,13.629,10.97,12.854,10.017,12.854z M10.017,15.197c-0.339,0-0.615-0.276-0.615-0.616
	c0-0.339,0.276-0.614,0.615-0.614s0.615,0.275,0.615,0.614C10.632,14.921,10.355,15.197,10.017,15.197z"/>
</svg>
