<?xml version="1.0" encoding="utf-8"?>
<!-- Generator: Adobe Illustrator 16.0.0, SVG Export Plug-In . SVG Version: 6.00 Build 0)  -->
<!DOCTYPE svg PUBLIC "-//W3C//DTD SVG 1.1//EN" "http://www.w3.org/Graphics/SVG/1.1/DTD/svg11.dtd">
<svg version="1.1" id="图层_1" xmlns="http://www.w3.org/2000/svg" xmlns:xlink="http://www.w3.org/1999/xlink" x="0px" y="0px"
	 width="20px" height="20px" viewBox="0 0 20 20" enable-background="new 0 0 20 20" xml:space="preserve">
<g>
	<path fill="#5D5D5D" d="M18.221,13.792H13.38l1.572-1.572c0.172-0.172,0.229-0.438,0.133-0.664
		c-0.094-0.228-0.315-0.376-0.563-0.376c-0.162,0-0.315,0.063-0.43,0.179l-2.348,2.347c-0.185,0.187-0.286,0.432-0.286,0.694
		c0,0.262,0.102,0.509,0.287,0.694l2.345,2.344c0.149,0.167,0.379,0.237,0.599,0.184c0.219-0.056,0.389-0.226,0.443-0.444
		c0.053-0.214-0.019-0.451-0.181-0.597l-1.572-1.571h4.843c0.326-0.016,0.582-0.283,0.582-0.609S18.549,13.806,18.221,13.792z"/>
	<path fill="#5D5D5D" d="M8.844,10.752c0.316,0.25,0.732,0.388,1.171,0.388c0.441,0,0.857-0.138,1.172-0.389l5.939-4.773v5.814
		c0,0.304,0.246,0.55,0.55,0.55s0.55-0.246,0.55-0.55V5.867c0-1.13-0.92-2.05-2.05-2.05H3.801c-1.13,0-2.05,0.92-2.05,2.05v9.125
		c0,1.13,0.92,2.05,2.05,2.05h6.828c0.304,0,0.55-0.246,0.55-0.55s-0.246-0.55-0.55-0.55H3.801c-0.523,0-0.95-0.427-0.95-0.95V5.984
		L8.844,10.752z M3.801,4.917h12.375c0.087,0,0.165,0.027,0.245,0.05L10.244,9.88c-0.116,0.093-0.342,0.091-0.458,0L3.598,4.958
		C3.665,4.943,3.729,4.917,3.801,4.917z"/>
</g>
</svg>
