<?xml version="1.0" encoding="utf-8"?>
<!-- Generator: Adobe Illustrator 16.0.0, SVG Export Plug-In . SVG Version: 6.00 Build 0)  -->
<!DOCTYPE svg PUBLIC "-//W3C//DTD SVG 1.1//EN" "http://www.w3.org/Graphics/SVG/1.1/DTD/svg11.dtd">
<svg version="1.1" id="图层_1" xmlns="http://www.w3.org/2000/svg" xmlns:xlink="http://www.w3.org/1999/xlink" x="0px" y="0px"
	 width="20px" height="20px" viewBox="0 0 20 20" enable-background="new 0 0 20 20" xml:space="preserve">
<g>
	<path fill="#5D5D5D" d="M18.014,14.208h-5.495c-0.388,0-0.703,0.287-0.703,0.639c0,0.354,0.315,0.643,0.703,0.643h5.495
		c0.388,0,0.703-0.288,0.703-0.643C18.717,14.495,18.401,14.208,18.014,14.208z"/>
	<path fill="#5D5D5D" d="M14.511,7.239h3.503c0.388,0,0.703-0.288,0.703-0.643c0-0.352-0.315-0.639-0.703-0.639h-3.503
		c-0.388,0-0.703,0.287-0.703,0.639C13.808,6.951,14.123,7.239,14.511,7.239z"/>
	<path fill="#5D5D5D" d="M18.014,10.083h-3.547c-0.388,0-0.703,0.287-0.703,0.639c0,0.354,0.315,0.643,0.703,0.643h3.547
		c0.388,0,0.703-0.289,0.703-0.643C18.717,10.37,18.401,10.083,18.014,10.083z"/>
	<path fill="#5D5D5D" d="M7.174,11.676c1.689,0,3.064-1.381,3.064-3.077c0-1.684-1.375-3.054-3.064-3.054
		c-1.69,0-3.066,1.37-3.066,3.054C4.107,10.295,5.483,11.676,7.174,11.676z M7.174,6.758c1.021,0,1.852,0.825,1.852,1.841
		c0,1.027-0.83,1.863-1.852,1.863S5.322,9.626,5.322,8.599C5.322,7.583,6.152,6.758,7.174,6.758z"/>
	<path fill="#5D5D5D" d="M7.174,2.724c-3.233,0-5.864,2.636-5.864,5.875c0,2.05,1.089,3.963,2.849,5.02v4.455h1.025l2.073-1.277
		l1.95,1.251l0.047,0.026h1.021v-4.508c1.731-1.078,2.762-2.927,2.762-4.967C13.037,5.359,10.407,2.724,7.174,2.724z M7.174,3.927
		c2.568,0,4.657,2.096,4.657,4.672c0,2.562-2.089,4.645-4.657,4.645c-0.682,0-1.34-0.144-1.954-0.428l-0.058-0.026
		c-1.634-0.783-2.649-2.389-2.649-4.19C2.513,6.022,4.604,3.927,7.174,3.927z M9.069,14.139v2.327l-1.803-1.001l-0.101-0.054
		l-1.801,1.086v-2.329C6.561,14.556,7.888,14.544,9.069,14.139z"/>
</g>
</svg>
