<?xml version="1.0" encoding="utf-8"?>
<!-- Generator: Adobe Illustrator 16.0.0, SVG Export Plug-In . SVG Version: 6.00 Build 0)  -->
<!DOCTYPE svg PUBLIC "-//W3C//DTD SVG 1.1//EN" "http://www.w3.org/Graphics/SVG/1.1/DTD/svg11.dtd">
<svg version="1.1" id="图层_1" xmlns="http://www.w3.org/2000/svg" xmlns:xlink="http://www.w3.org/1999/xlink" x="0px" y="0px"
	 width="20px" height="20px" viewBox="0 0 20 20" enable-background="new 0 0 20 20" xml:space="preserve">
<g>
	<path fill="#5D5D5D" d="M16.16,6.146h-4.5c-0.317,0-0.575,0.287-0.575,0.639c0,0.354,0.258,0.643,0.575,0.643h4.5
		c0.317,0,0.576-0.288,0.576-0.643C16.736,6.433,16.478,6.146,16.16,6.146z"/>
	<path fill="#5D5D5D" d="M14.973,9.74H11.66c-0.317,0-0.575,0.287-0.575,0.639c0,0.354,0.258,0.643,0.575,0.643h3.313
		c0.317,0,0.576-0.289,0.576-0.643C15.549,10.027,15.29,9.74,14.973,9.74z"/>
	<path fill="#5D5D5D" d="M16.574,3.273H3.824c-1.461,0-2.65,1.189-2.65,2.65v8.688c0,1.461,1.189,2.65,2.65,2.65h12.75
		c1.461,0,2.65-1.189,2.65-2.65V5.924C19.225,4.463,18.035,3.273,16.574,3.273z M10.361,15.961H3.824
		c-0.193,0-0.375-0.044-0.541-0.117c0.039-0.812,0.395-1.581,1.006-2.127c0.331-0.303,0.71-0.537,1.127-0.697
		c0.896-0.342,1.903-0.342,2.798,0c0.419,0.16,0.798,0.395,1.132,0.7c0.641,0.567,1.011,1.384,1.016,2.239
		C10.361,15.96,10.361,15.96,10.361,15.961z M8.65,8.695c0.306,0.736,0.138,1.578-0.427,2.142c-0.373,0.369-0.867,0.573-1.396,0.573
		c-0.797,0-1.509-0.476-1.813-1.212C4.708,9.461,4.876,8.621,5.44,8.058c0.372-0.369,0.866-0.573,1.393-0.574l0.004-0.299v0.299
		C7.633,7.483,8.345,7.959,8.65,8.695z M17.924,14.611c0,0.744-0.605,1.35-1.35,1.35h-4.858c0-0.001,0.001-0.002,0.001-0.003
		c-0.002-0.615-0.134-1.211-0.393-1.771c-0.253-0.547-0.608-1.03-1.056-1.435c-0.387-0.353-0.821-0.637-1.297-0.848
		c0.977-0.835,1.376-2.162,0.996-3.421C9.548,7.095,8.29,6.161,6.839,6.161S4.131,7.095,3.711,8.483
		c-0.38,1.259,0.019,2.585,0.996,3.421c-0.475,0.21-0.91,0.494-1.296,0.847c-0.389,0.352-0.693,0.772-0.937,1.232v-8.06
		c0-0.744,0.605-1.35,1.35-1.35h12.75c0.744,0,1.35,0.605,1.35,1.35V14.611z"/>
</g>
</svg>
