<?xml version="1.0" encoding="utf-8"?>
<!-- Generator: Adobe Illustrator 16.0.0, SVG Export Plug-In . SVG Version: 6.00 Build 0)  -->
<!DOCTYPE svg PUBLIC "-//W3C//DTD SVG 1.1//EN" "http://www.w3.org/Graphics/SVG/1.1/DTD/svg11.dtd">
<svg version="1.1" id="图层_1" xmlns="http://www.w3.org/2000/svg" xmlns:xlink="http://www.w3.org/1999/xlink" x="0px" y="0px"
	 width="20px" height="20px" viewBox="0 0 20 20" enable-background="new 0 0 20 20" xml:space="preserve">
<g>
	<path fill="#5D5D5D" d="M16.952,4.724c-0.32-0.321-0.767-0.506-1.223-0.506h-1.971V3.779c0-0.163-0.063-0.317-0.18-0.437
		c-0.114-0.115-0.274-0.182-0.438-0.182h-0.923c-0.337-0.822-1.138-1.366-2.036-1.367C9.282,1.795,8.48,2.339,8.144,3.161H7.222
		c-0.166,0-0.321,0.064-0.44,0.183c-0.115,0.118-0.18,0.273-0.18,0.436v0.438h-1.97c-0.953,0-1.729,0.776-1.729,1.729v11.101
		c0,0.954,0.776,1.73,1.729,1.73H15.73c0.953,0,1.729-0.776,1.729-1.73V5.947C17.459,5.486,17.279,5.052,16.952,4.724z M4.142,5.947
		c0-0.271,0.22-0.491,0.49-0.491h1.97v0.603c0,0.163,0.066,0.322,0.182,0.438C6.9,6.613,7.057,6.678,7.222,6.678h5.919
		c0.164,0,0.323-0.066,0.438-0.182s0.181-0.274,0.181-0.438V5.456h1.972c0.271,0,0.49,0.221,0.49,0.491v11.101
		c0,0.271-0.221,0.49-0.491,0.49H4.632c-0.271,0-0.49-0.22-0.49-0.49V5.947z M9.225,3.868c0.066-0.475,0.479-0.835,0.957-0.836
		c0.479,0.001,0.892,0.36,0.957,0.838c0.045,0.301,0.308,0.528,0.611,0.528h0.771v1.04H7.84V4.399h0.771
		C8.917,4.399,9.181,4.171,9.225,3.868z"/>
	<path fill="#5D5D5D" d="M6.297,12.857h7.769c0.341,0,0.618-0.278,0.618-0.619s-0.277-0.619-0.618-0.619H6.297
		c-0.342,0-0.619,0.278-0.619,0.619S5.955,12.857,6.297,12.857z"/>
	<path fill="#5D5D5D" d="M6.297,9.896h7.769c0.341,0,0.618-0.277,0.618-0.618s-0.277-0.619-0.618-0.619H6.297
		c-0.342,0-0.619,0.278-0.619,0.619S5.955,9.896,6.297,9.896z"/>
	<path fill="#5D5D5D" d="M6.297,15.818h7.769c0.341,0,0.618-0.278,0.618-0.619s-0.277-0.618-0.618-0.618H6.297
		c-0.342,0-0.619,0.277-0.619,0.618S5.955,15.818,6.297,15.818z"/>
</g>
</svg>
