<?xml version="1.0" encoding="utf-8"?>
<!-- Generator: Adobe Illustrator 16.0.0, SVG Export Plug-In . SVG Version: 6.00 Build 0)  -->
<!DOCTYPE svg PUBLIC "-//W3C//DTD SVG 1.1//EN" "http://www.w3.org/Graphics/SVG/1.1/DTD/svg11.dtd">
<svg version="1.1" id="图层_1" xmlns="http://www.w3.org/2000/svg" xmlns:xlink="http://www.w3.org/1999/xlink" x="0px" y="0px"
	 width="20px" height="20px" viewBox="0 0 20 20" enable-background="new 0 0 20 20" xml:space="preserve">
<path fill="#5D5D5D" d="M18.508,8.104c-0.805-0.932-1.877-1.523-3.027-1.671c-1.025-2.303-3.089-3.729-5.405-3.729
	c-1.449,0-2.847,0.581-3.938,1.636C5.186,5.258,4.505,6.508,4.214,7.87c-0.968,0.132-1.873,0.627-2.56,1.402
	C0.846,10.182,0.4,11.387,0.4,12.664c0,1.268,0.438,2.466,1.233,3.376c0.773,0.886,1.813,1.402,2.905,1.453
	c0.033,0.007,0.069,0.011,0.107,0.011h10.263c1.338,0,2.592-0.58,3.531-1.632c0.941-1.053,1.46-2.447,1.46-3.927
	C19.9,10.508,19.405,9.144,18.508,8.104z M14.909,16.218H4.729c-0.03-0.005-0.052-0.007-0.068-0.006
	c-0.826-0.023-1.604-0.402-2.186-1.065c-0.584-0.669-0.905-1.551-0.905-2.482c0-0.938,0.327-1.824,0.922-2.495
	c0.593-0.664,1.38-1.037,2.22-1.049c0.281-0.005,0.528-0.238,0.57-0.542C5.46,7.307,6.039,6.146,6.91,5.306
	c0.881-0.85,2.005-1.317,3.165-1.317c1.951,0,3.71,1.298,4.476,3.306c0.089,0.23,0.285,0.381,0.514,0.394
	c0.987,0.045,1.908,0.506,2.594,1.299c0.69,0.799,1.069,1.85,1.069,2.958C18.728,14.302,17.015,16.218,14.909,16.218z"/>
</svg>
