<?xml version="1.0" encoding="utf-8"?>
<!-- Generator: Adobe Illustrator 16.0.0, SVG Export Plug-In . SVG Version: 6.00 Build 0)  -->
<!DOCTYPE svg PUBLIC "-//W3C//DTD SVG 1.1//EN" "http://www.w3.org/Graphics/SVG/1.1/DTD/svg11.dtd">
<svg version="1.1" id="图层_1" xmlns="http://www.w3.org/2000/svg" xmlns:xlink="http://www.w3.org/1999/xlink" x="0px" y="0px"
	 width="20px" height="20px" viewBox="0 0 20 20" enable-background="new 0 0 20 20" xml:space="preserve">
<g>
	<path fill="#5D5D5D" d="M11.811,18.074H7.943c-0.362,0-0.656,0.295-0.656,0.657s0.294,0.657,0.656,0.657h3.867
		c0.362,0,0.657-0.295,0.657-0.657S12.173,18.074,11.811,18.074z"/>
	<path fill="#5D5D5D" d="M14.442,3.012c-1.219-1.22-2.84-1.891-4.565-1.891c-1.725,0-3.346,0.671-4.565,1.891
		S3.421,5.853,3.421,7.577c0,1.152,0.307,2.283,0.889,3.271c0.496,0.843,1.188,1.573,2.003,2.113v3.047
		c0,0.863,0.702,1.564,1.565,1.564h3.991c0.863,0,1.564-0.701,1.564-1.564v-3.041c0.818-0.54,1.513-1.271,2.01-2.115
		c0.583-0.99,0.891-2.122,0.891-3.274C16.334,5.853,15.662,4.231,14.442,3.012z M7.627,14.792h4.493v1.216
		c0,0.138-0.113,0.251-0.251,0.251H7.878c-0.138,0-0.251-0.113-0.251-0.251V14.792z M12.12,12.222v1.256H7.627v-1.26L7.3,12.027
		c-0.765-0.442-1.406-1.081-1.857-1.847C4.98,9.396,4.735,8.495,4.735,7.577c0-1.373,0.535-2.664,1.505-3.636
		c0.973-0.971,2.264-1.506,3.637-1.506c1.374,0,2.665,0.535,3.637,1.506c0.971,0.972,1.506,2.263,1.506,3.636
		c0,0.919-0.245,1.82-0.709,2.606c-0.45,0.764-1.094,1.403-1.862,1.848L12.12,12.222z"/>
</g>
</svg>
