<?xml version="1.0" encoding="utf-8"?>
<!-- Generator: Adobe Illustrator 16.0.0, SVG Export Plug-In . SVG Version: 6.00 Build 0)  -->
<!DOCTYPE svg PUBLIC "-//W3C//DTD SVG 1.1//EN" "http://www.w3.org/Graphics/SVG/1.1/DTD/svg11.dtd">
<svg version="1.1" id="图层_1" xmlns="http://www.w3.org/2000/svg" xmlns:xlink="http://www.w3.org/1999/xlink" x="0px" y="0px"
	 width="20px" height="20px" viewBox="0 0 20 20" enable-background="new 0 0 20 20" xml:space="preserve">
<path fill="#5D5D5D" d="M18.31,4.752h-0.006c-0.091-1.022-0.962-1.948-2.466-2.613c-1.517-0.672-3.564-1.043-5.766-1.043
	c-2.2,0-4.248,0.371-5.767,1.043C2.803,2.804,1.932,3.729,1.84,4.752L1.832,15.378l0.002,0.261H1.84
	c0.092,1.024,0.963,1.948,2.465,2.612c1.518,0.672,3.565,1.042,5.768,1.042c2.204,0,4.251-0.37,5.765-1.042
	c1.504-0.664,2.376-1.589,2.467-2.612l0.007-10.787L18.31,4.752z M10.072,18.058c-1.892,0-3.695-0.301-5.079-0.846
	c-1.276-0.504-2.008-1.144-2.008-1.755v-3.532c0.361,0.282,0.804,0.541,1.32,0.771c1.52,0.672,3.567,1.041,5.767,1.041
	c2.201,0,4.248-0.369,5.766-1.041c0.515-0.229,0.958-0.488,1.32-0.771v3.532c0,0.611-0.732,1.251-2.008,1.755
	C13.769,17.757,11.965,18.058,10.072,18.058z M15.15,11.654c-1.383,0.546-3.187,0.847-5.078,0.847c-1.89,0-3.694-0.301-5.079-0.847
	c-1.276-0.503-2.008-1.14-2.008-1.75V6.953c0.36,0.283,0.803,0.542,1.32,0.772c1.518,0.672,3.565,1.042,5.767,1.042
	c2.203,0,4.25-0.37,5.766-1.042c0.516-0.229,0.959-0.488,1.32-0.772v2.951C17.158,10.514,16.427,11.151,15.15,11.654z M15.15,6.687
	C13.77,7.231,11.966,7.53,10.072,7.53c-1.893,0-3.696-0.299-5.079-0.843C3.718,6.181,2.985,5.542,2.985,4.932
	c0-0.612,0.731-1.251,2.008-1.753c1.385-0.546,3.189-0.847,5.079-0.847c1.892,0,3.695,0.301,5.078,0.847
	c1.276,0.502,2.008,1.142,2.008,1.753C17.158,5.542,16.426,6.181,15.15,6.687z"/>
</svg>
