<?xml version="1.0" encoding="utf-8"?>
<!-- Generator: Adobe Illustrator 16.0.0, SVG Export Plug-In . SVG Version: 6.00 Build 0)  -->
<!DOCTYPE svg PUBLIC "-//W3C//DTD SVG 1.1//EN" "http://www.w3.org/Graphics/SVG/1.1/DTD/svg11.dtd">
<svg version="1.1" id="图层_1" xmlns="http://www.w3.org/2000/svg" xmlns:xlink="http://www.w3.org/1999/xlink" x="0px" y="0px"
	 width="20px" height="20px" viewBox="0 0 20 20" enable-background="new 0 0 20 20" xml:space="preserve">
<g>
	<path fill="#5D5D5D" d="M14.549,6.549H3.27c-0.346,0-0.627,0.296-0.627,0.66c0,0.363,0.281,0.659,0.627,0.659h11.279
		c0.346,0,0.627-0.296,0.627-0.659C15.176,6.845,14.895,6.549,14.549,6.549z"/>
	<path fill="#5D5D5D" d="M14.549,9.268H3.27c-0.346,0-0.627,0.296-0.627,0.66c0,0.365,0.281,0.663,0.627,0.663h11.279
		c0.346,0,0.627-0.297,0.627-0.663C15.176,9.564,14.895,9.268,14.549,9.268z"/>
	<path fill="#5D5D5D" d="M2.811,5.129h12.129c0.693,0,1.258-0.543,1.258-1.21V1.83c0-0.667-0.564-1.21-1.258-1.21H2.811
		c-0.695,0-1.26,0.543-1.26,1.21v2.089C1.551,4.586,2.115,5.129,2.811,5.129z M15.043,3.919c0,0.05-0.048,0.092-0.104,0.092H2.811
		c-0.057,0-0.101-0.04-0.101-0.092V1.83c0-0.053,0.045-0.095,0.101-0.095h12.129c0.055,0,0.104,0.044,0.104,0.095V3.919z"/>
	<path fill="#5D5D5D" d="M9.619,11.988H2.811c-0.695,0-1.26,0.543-1.26,1.212v2.087c0,0.667,0.564,1.209,1.26,1.209h6.012
		c0.319,0,0.578-0.249,0.578-0.557c0-0.313-0.254-0.558-0.578-0.558H2.811c-0.057,0-0.101-0.042-0.101-0.095V13.2
		c0-0.054,0.044-0.097,0.101-0.097h6.809c0.319,0,0.578-0.249,0.578-0.557C10.197,12.238,9.938,11.988,9.619,11.988z"/>
	<path fill="#5D5D5D" d="M19.007,19.071l-1.247-1.288c0.564-0.653,0.873-1.478,0.873-2.33c0-2.021-1.713-3.665-3.819-3.665
		s-3.82,1.644-3.82,3.665c0,2.021,1.714,3.663,3.82,3.663c0.74,0,1.455-0.202,2.072-0.585l1.269,1.31
		c0.106,0.114,0.263,0.18,0.428,0.18c0.149,0,0.29-0.053,0.396-0.149c0.115-0.104,0.182-0.246,0.186-0.399
		C19.169,19.321,19.112,19.179,19.007,19.071z M14.813,17.989c-1.463,0-2.654-1.138-2.654-2.536c0-1.399,1.191-2.539,2.654-2.539
		c1.462,0,2.651,1.14,2.651,2.539c0,0.676-0.275,1.312-0.775,1.79C16.188,17.724,15.521,17.989,14.813,17.989z"/>
</g>
</svg>
