<?xml version="1.0" encoding="utf-8"?>
<!-- Generator: Adobe Illustrator 16.0.0, SVG Export Plug-In . SVG Version: 6.00 Build 0)  -->
<!DOCTYPE svg PUBLIC "-//W3C//DTD SVG 1.1//EN" "http://www.w3.org/Graphics/SVG/1.1/DTD/svg11.dtd">
<svg version="1.1" id="图层_1" xmlns="http://www.w3.org/2000/svg" xmlns:xlink="http://www.w3.org/1999/xlink" x="0px" y="0px"
	 width="20px" height="20px" viewBox="0 0 20 20" enable-background="new 0 0 20 20" xml:space="preserve">
<g>
	<path fill="#5D5D5D" d="M4.624,6.146c-0.388,0-0.703,0.287-0.703,0.639c0,0.354,0.315,0.643,0.703,0.643h5.495
		c0.388,0,0.703-0.288,0.703-0.643c0-0.352-0.315-0.639-0.703-0.639H4.624z"/>
	<path fill="#5D5D5D" d="M8.669,9.74H4.624c-0.388,0-0.703,0.287-0.703,0.639c0,0.354,0.315,0.643,0.703,0.643h4.045
		c0.388,0,0.703-0.289,0.703-0.643C9.372,10.027,9.057,9.74,8.669,9.74z"/>
	<path fill="#5D5D5D" d="M7.049,15.438h-2.84c-0.744,0-1.35-0.605-1.35-1.35v-8.5c0-0.744,0.605-1.35,1.35-1.35h11.625
		c0.744,0,1.35,0.605,1.35,1.35v2.137c0,0.359,0.291,0.65,0.65,0.65s0.65-0.291,0.65-0.65V5.588c0-1.461-1.189-2.65-2.65-2.65H4.209
		c-1.461,0-2.65,1.189-2.65,2.65v8.5c0,1.461,1.189,2.65,2.65,2.65h2.84c0.359,0,0.65-0.291,0.65-0.65S7.408,15.438,7.049,15.438z"
		/>
	<path fill="#5D5D5D" d="M18.723,16.124c-0.253-0.547-0.608-1.03-1.056-1.435c-0.387-0.353-0.821-0.637-1.297-0.848
		c0.977-0.835,1.376-2.162,0.996-3.421c-0.42-1.389-1.678-2.322-3.129-2.322s-2.708,0.934-3.128,2.322
		c-0.38,1.259,0.019,2.585,0.996,3.421c-0.475,0.21-0.91,0.494-1.296,0.847c-0.448,0.405-0.804,0.889-1.057,1.436
		c-0.259,0.561-0.391,1.156-0.393,1.771l0.009,0.074c0.075,0.296,0.341,0.503,0.646,0.503s0.569-0.207,0.653-0.573
		c0.007-0.855,0.378-1.673,1.02-2.245c0.331-0.303,0.71-0.537,1.127-0.697c0.896-0.342,1.903-0.342,2.798,0
		c0.419,0.16,0.798,0.395,1.132,0.7c0.641,0.567,1.011,1.384,1.016,2.239c0,0.367,0.298,0.665,0.665,0.665h0.025
		c0.367,0,0.665-0.298,0.665-0.666C19.113,17.28,18.981,16.685,18.723,16.124z M15.622,12.774c-0.373,0.369-0.867,0.573-1.396,0.573
		c-0.797,0-1.509-0.476-1.813-1.212c-0.307-0.737-0.139-1.577,0.426-2.141c0.372-0.369,0.866-0.573,1.393-0.574l0.004-0.299v0.299
		c0.796,0,1.508,0.476,1.813,1.212S16.187,12.211,15.622,12.774z"/>
</g>
</svg>
