<?xml version="1.0" encoding="utf-8"?>
<!-- Generator: Adobe Illustrator 23.0.2, SVG Export Plug-In . SVG Version: 6.00 Build 0)  -->
<svg version="1.1" id="图层_1" xmlns="http://www.w3.org/2000/svg" xmlns:xlink="http://www.w3.org/1999/xlink" x="0px" y="0px"
	 width="450px" height="420.275px" viewBox="0 0 450 420.275" enable-background="new 0 0 450 420.275" xml:space="preserve">
<g>
	<path fill="#EAEAEA" d="M345.892,77.776L195.59,2.954c-7.22-3.938-16.409-3.938-23.628,0L21.659,78.433
		c-9.189,4.594-9.845,17.721-0.656,22.972l162.773,92.544l162.773-92.544C355.08,96.154,355.08,83.027,345.892,77.776z"/>
	<path fill="#EAEAEA" d="M169.992,235.298c0-9.189-4.594-17.721-12.47-22.316L19.69,127.658C11.158,122.408,0,128.315,0,138.816
		v171.961c0,9.189,4.594,17.721,13.127,22.316l137.832,85.324c8.532,5.251,19.69-1.313,19.034-11.158V235.298z"/>
	<path fill="#EAEAEA" d="M449.331,321.483c-0.704-3.967-4.468-8.005-8.374-8.899l-2.92-0.679
		c-6.861-2.108-12.947-6.718-16.818-13.508c-3.87-6.826-4.785-14.581-3.096-21.692l0.915-2.787c1.161-3.86-0.352-9.185-3.413-11.829
		c0,0-2.744-2.358-10.484-6.897c-7.741-4.503-11.083-5.754-11.083-5.754c-3.765-1.394-9.042-0.071-11.787,2.895l-2.041,2.216
		c-5.207,5.003-12.209,8.041-19.949,8.041c-7.74,0-14.812-3.073-20.019-8.112l-1.97-2.144c-2.709-2.966-8.022-4.288-11.787-2.895
		c0,0-3.378,1.251-11.118,5.754c-7.741,4.574-10.45,6.933-10.45,6.933c-3.061,2.609-4.574,7.898-3.413,11.793l0.844,2.823
		c1.654,7.112,0.774,14.831-3.096,21.657c-3.87,6.826-10.027,11.471-16.923,13.544l-2.815,0.643c-3.87,0.894-7.67,4.896-8.374,8.899
		c0,0-0.633,3.574-0.633,12.651c0,9.077,0.633,12.651,0.633,12.651c0.704,4.002,4.468,8.005,8.374,8.898l2.745,0.643
		c6.896,2.073,13.088,6.719,16.958,13.58c3.87,6.826,4.785,14.58,3.096,21.692l-0.809,2.752c-1.161,3.86,0.352,9.184,3.413,11.829
		c0,0,2.744,2.358,10.485,6.897c7.741,4.539,11.083,5.754,11.083,5.754c3.765,1.394,9.042,0.072,11.787-2.895l1.935-2.109
		c5.242-5.039,12.279-8.112,20.055-8.112c7.775,0,14.848,3.109,20.055,8.148l1.935,2.108c2.709,2.966,8.022,4.288,11.787,2.895
		c0,0,3.377-1.251,11.118-5.754c7.74-4.538,10.449-6.897,10.449-6.897c3.061-2.609,4.574-7.934,3.413-11.829l-0.844-2.859
		c-1.654-7.076-0.774-14.795,3.096-21.585c3.87-6.826,10.062-11.507,16.958-13.58l2.744-0.643c3.87-0.893,7.67-4.896,8.374-8.898
		c0,0,0.633-3.574,0.633-12.651C449.964,325.056,449.331,321.483,449.331,321.483z M360.281,370.478
		c-19.738,0-35.782-16.26-35.782-36.344c0-20.048,16.009-36.309,35.782-36.309c19.738,0,35.782,16.26,35.782,36.344
		C396.028,354.218,380.02,370.478,360.281,370.478z"/>
	<path fill="#EAEAEA" d="M279.931,365.019l-2.447-0.573c-7.439-1.702-13.845-8.478-15.187-16.102
		c-0.126-0.715-0.77-4.817-0.77-14.211s0.644-13.495,0.772-14.223c1.313-7.471,7.854-14.396,15.209-16.096l2.514-0.574
		c4.84-1.527,8.889-4.815,11.422-9.283c2.56-4.514,3.343-9.806,2.215-14.93l-0.757-2.531c-2.197-7.37,0.411-16.291,6.197-21.223
		c0.483-0.422,3.666-3.079,11.709-7.832c8.06-4.689,11.886-6.191,12.571-6.445c7.134-2.642,16.402-0.378,21.558,5.265l1.757,1.912
		c3.697,3.493,8.513,5.414,13.587,5.414c2.285,0,4.511-0.409,6.613-1.156V138.816c0-10.501-11.158-16.409-19.69-11.158
		l-137.832,85.324c-7.876,4.594-12.471,13.127-12.471,22.316V407.26c0,9.845,11.158,16.409,19.69,11.158l73.803-45.688
		C287.852,369.06,284.202,366.362,279.931,365.019z"/>
</g>
</svg>
