<?xml version="1.0" encoding="utf-8"?>
<!-- Generator: Adobe Illustrator 16.0.0, SVG Export Plug-In . SVG Version: 6.00 Build 0)  -->
<!DOCTYPE svg PUBLIC "-//W3C//DTD SVG 1.1//EN" "http://www.w3.org/Graphics/SVG/1.1/DTD/svg11.dtd">
<svg version="1.1" id="图层_1" xmlns="http://www.w3.org/2000/svg" xmlns:xlink="http://www.w3.org/1999/xlink" x="0px" y="0px"
	 width="20px" height="20px" viewBox="0 0 20 20" enable-background="new 0 0 20 20" xml:space="preserve">
<g>
	<path fill="#5D5D5D" d="M4.573,6.146c-0.388,0-0.703,0.287-0.703,0.639c0,0.354,0.315,0.643,0.703,0.643h5.495
		c0.388,0,0.703-0.288,0.703-0.643c0-0.352-0.315-0.639-0.703-0.639H4.573z"/>
	<path fill="#5D5D5D" d="M8.618,9.74H4.573c-0.388,0-0.703,0.287-0.703,0.639c0,0.354,0.315,0.643,0.703,0.643h4.045
		c0.388,0,0.703-0.289,0.703-0.643C9.321,10.027,9.006,9.74,8.618,9.74z"/>
	<path fill="#5D5D5D" d="M7.979,15.166H4.342c-0.744,0-1.35-0.605-1.35-1.35v-8.5c0-0.744,0.605-1.35,1.35-1.35h11.625
		c0.744,0,1.35,0.605,1.35,1.35v3.133c0,0.359,0.291,0.65,0.65,0.65s0.65-0.291,0.65-0.65V5.316c0-1.461-1.189-2.65-2.65-2.65H4.342
		c-1.461,0-2.65,1.189-2.65,2.65v8.5c0,1.461,1.189,2.65,2.65,2.65h3.637c0.359,0,0.65-0.291,0.65-0.65S8.338,15.166,7.979,15.166z"
		/>
	<path fill="#5D5D5D" d="M18.184,11.255l-0.197-0.334l-1.973,1.974l-0.767-0.768l1.973-1.972l-0.334-0.197
		c-0.563-0.332-1.209-0.508-1.865-0.508c-0.979,0-1.901,0.381-2.595,1.074c-0.966,0.966-1.313,2.396-0.908,3.689l-1.673,1.674
		c-0.322,0.321-0.5,0.749-0.5,1.204s0.178,0.883,0.499,1.205c0.316,0.317,0.755,0.499,1.202,0.499h0.004
		c0.455,0,0.883-0.177,1.204-0.499l1.673-1.673c1.29,0.401,2.734,0.049,3.688-0.908C18.801,14.532,19.034,12.697,18.184,11.255z
		 M16.795,14.895c-0.687,0.686-1.749,0.912-2.647,0.578l-0.518-0.193l-2.197,2.196c-0.202,0.201-0.558,0.211-0.767-0.001
		c-0.104-0.103-0.16-0.238-0.16-0.383s0.057-0.28,0.16-0.384l2.194-2.195l-0.191-0.519c-0.34-0.917-0.113-1.957,0.578-2.648
		c0.474-0.474,1.104-0.734,1.773-0.734c0.032,0,0.064,0.001,0.097,0.002l-1.513,1.513l2.409,2.411l1.515-1.515
		C17.555,13.712,17.294,14.396,16.795,14.895z"/>
</g>
</svg>
