<?xml version="1.0" encoding="utf-8"?>
<!-- Generator: Adobe Illustrator 16.0.0, SVG Export Plug-In . SVG Version: 6.00 Build 0)  -->
<!DOCTYPE svg PUBLIC "-//W3C//DTD SVG 1.1//EN" "http://www.w3.org/Graphics/SVG/1.1/DTD/svg11.dtd">
<svg version="1.1" id="图层_1" xmlns="http://www.w3.org/2000/svg" xmlns:xlink="http://www.w3.org/1999/xlink" x="0px" y="0px"
	 width="20px" height="20px" viewBox="0 0 20 20" enable-background="new 0 0 20 20" xml:space="preserve">
<g>
	<path fill="#5D5D5D" d="M11.808,4.736h6.524c0.347,0,0.64-0.308,0.64-0.673c0-0.356-0.299-0.668-0.64-0.668h-6.524
		c-0.345,0-0.639,0.304-0.641,0.661c-0.007,0.18,0.06,0.356,0.182,0.481C11.469,4.666,11.632,4.736,11.808,4.736z"/>
	<path fill="#5D5D5D" d="M7.106,10.858H3.922c-1.296,0-2.351,1.055-2.351,2.352v3.183c0,1.297,1.055,2.353,2.351,2.353h3.185
		c1.297,0,2.352-1.056,2.352-2.353v-3.171c0.004-0.633-0.236-1.226-0.677-1.669C8.336,11.104,7.741,10.858,7.106,10.858z
		 M2.724,13.219c0-0.693,0.504-1.197,1.198-1.197h3.185c0.694,0,1.198,0.504,1.198,1.197v3.185c0,0.695-0.504,1.2-1.198,1.2H3.922
		c-0.694,0-1.198-0.505-1.198-1.2V13.219z"/>
	<path fill="#5D5D5D" d="M18.332,15.701h-6.524c-0.348,0-0.641,0.308-0.641,0.671c0,0.358,0.299,0.672,0.641,0.672h6.524
		c0.347,0,0.64-0.308,0.64-0.672C18.972,16.015,18.673,15.701,18.332,15.701z"/>
	<path fill="#5D5D5D" d="M7.106,1.609H3.922c-1.296,0-2.351,1.055-2.351,2.352v3.183c0,1.297,1.055,2.352,2.351,2.352h3.185
		c1.297,0,2.352-1.055,2.352-2.352v-3.18c0.004-0.626-0.235-1.215-0.675-1.658C8.339,1.856,7.743,1.609,7.106,1.609z M2.724,3.961
		c0-0.695,0.504-1.199,1.198-1.199h3.185c0.694,0,1.198,0.504,1.198,1.199v3.183c0,0.695-0.504,1.2-1.198,1.2H3.922
		c-0.694,0-1.198-0.505-1.198-1.2V3.961z"/>
	<path fill="#5D5D5D" d="M18.332,6.452h-6.524c-0.348,0-0.641,0.307-0.641,0.671c0,0.357,0.299,0.671,0.641,0.671h6.524
		c0.347,0,0.64-0.307,0.64-0.671S18.679,6.452,18.332,6.452z"/>
	<path fill="#5D5D5D" d="M18.332,12.664h-6.524c-0.348,0-0.641,0.308-0.641,0.673c0,0.356,0.299,0.669,0.641,0.669h6.524
		c0.347,0,0.64-0.307,0.64-0.669C18.972,12.972,18.679,12.664,18.332,12.664z"/>
</g>
</svg>
