<?xml version="1.0" encoding="utf-8"?>
<!-- Generator: Adobe Illustrator 16.0.0, SVG Export Plug-In . SVG Version: 6.00 Build 0)  -->
<!DOCTYPE svg PUBLIC "-//W3C//DTD SVG 1.1//EN" "http://www.w3.org/Graphics/SVG/1.1/DTD/svg11.dtd">
<svg version="1.1" id="图层_1" xmlns="http://www.w3.org/2000/svg" xmlns:xlink="http://www.w3.org/1999/xlink" x="0px" y="0px"
	 width="20px" height="20px" viewBox="0 0 20 20" enable-background="new 0 0 20 20" xml:space="preserve">
<g>
	<path fill="#5D5D5D" d="M13.214,5.438H6.678c-0.426,0-0.772,0.287-0.772,0.639c0,0.354,0.347,0.643,0.772,0.643h6.536
		c0.426,0,0.772-0.288,0.772-0.643C13.986,5.725,13.64,5.438,13.214,5.438z"/>
	<path fill="#5D5D5D" d="M13.986,9.671c0-0.352-0.347-0.639-0.772-0.639H6.678c-0.426,0-0.772,0.287-0.772,0.639
		c0,0.354,0.347,0.643,0.772,0.643h6.536C13.64,10.313,13.986,10.025,13.986,9.671z"/>
	<path fill="#5D5D5D" d="M12.613,17.504H5.759c-0.815,0-1.479-0.649-1.479-1.447V4.283c0-0.797,0.664-1.446,1.479-1.446h8.376
		c0.816,0,1.48,0.649,1.48,1.446v7.728c0,0.315,0.256,0.571,0.571,0.571s0.571-0.256,0.571-0.571V4.283
		c0-1.428-1.177-2.59-2.623-2.59H5.759c-1.447,0-2.624,1.162-2.624,2.59v11.774c0,1.429,1.177,2.591,2.624,2.591h6.854
		c0.315,0,0.572-0.256,0.572-0.571S12.929,17.504,12.613,17.504z"/>
	<path fill="#5D5D5D" d="M8.219,14.698c0,0.953,0.774,1.728,1.727,1.728c0.953,0,1.728-0.774,1.728-1.728
		c0-0.952-0.774-1.727-1.728-1.727C8.993,12.972,8.219,13.746,8.219,14.698z M10.561,14.698c0,0.34-0.276,0.616-0.615,0.616
		S9.33,15.038,9.33,14.698c0-0.339,0.276-0.614,0.615-0.614S10.561,14.359,10.561,14.698z"/>
	<path fill="#5D5D5D" d="M19.271,13.723c-0.117-0.08-0.27-0.118-0.422-0.101c-0.153,0.018-0.289,0.086-0.385,0.197l-1.813,2.079
		l-0.485-2.501c-0.039-0.205-0.21-0.368-0.435-0.418c-0.222-0.046-0.453,0.026-0.593,0.186L12.747,15.9
		c-0.094,0.108-0.137,0.244-0.118,0.382c0.019,0.143,0.099,0.27,0.228,0.356c0.243,0.164,0.615,0.123,0.805-0.094l1.586-1.816
		l0.431,2.216l0.038,0.197l0.019,0.092l0.018,0.088l0.034-0.005c0.07,0.179,0.208,0.31,0.428,0.318v0.03h0.092
		c0.085,0,0.168-0.018,0.244-0.05c0.025-0.011,0.051-0.023,0.074-0.037c0.051-0.03,0.099-0.069,0.137-0.113l2.617-3.004
		c0.095-0.108,0.138-0.243,0.12-0.382C19.479,13.936,19.398,13.809,19.271,13.723z"/>
</g>
</svg>
