<?xml version="1.0" encoding="utf-8"?>
<!-- Generator: Adobe Illustrator 16.0.0, SVG Export Plug-In . SVG Version: 6.00 Build 0)  -->
<!DOCTYPE svg PUBLIC "-//W3C//DTD SVG 1.1//EN" "http://www.w3.org/Graphics/SVG/1.1/DTD/svg11.dtd">
<svg version="1.1" id="图层_1" xmlns="http://www.w3.org/2000/svg" xmlns:xlink="http://www.w3.org/1999/xlink" x="0px" y="0px"
	 width="20px" height="20px" viewBox="0 0 20 20" enable-background="new 0 0 20 20" xml:space="preserve">
<path fill="#5D5D5D" d="M17.404,13.744H17.14v-3.678c0-0.93-0.756-1.688-1.688-1.689l-4.766-0.006V6.419h0.37
	c0.932,0,1.688-0.755,1.688-1.685V2.771c0-0.934-0.757-1.69-1.688-1.69H9.083c-0.932,0-1.689,0.757-1.689,1.69v1.963
	c0,0.93,0.757,1.685,1.689,1.685h0.471v1.952l-4.778-0.01c-0.449,0-0.874,0.176-1.194,0.492c-0.319,0.321-0.496,0.744-0.496,1.194
	v3.696H2.778c-0.932,0-1.69,0.758-1.69,1.688v1.963c0,0.929,0.758,1.687,1.69,1.687h1.964c0.932,0,1.69-0.758,1.69-1.687v-1.963
	c0-0.93-0.758-1.688-1.69-1.688H4.212v-3.696c0-0.147,0.058-0.29,0.166-0.397c0.107-0.105,0.247-0.164,0.396-0.164l4.78,0.008v4.25
	H9.107c-0.932,0-1.689,0.758-1.689,1.688v1.963c0,0.929,0.758,1.687,1.689,1.687h1.972c0.932,0,1.689-0.758,1.689-1.687v-1.963
	c0-0.93-0.758-1.688-1.689-1.688h-0.394V9.498l4.765,0.004c0.31,0.002,0.564,0.255,0.564,0.564v3.678H15.44
	c-0.933,0-1.69,0.758-1.69,1.688v1.963c0,0.929,0.758,1.687,1.69,1.687h1.964c0.932,0,1.689-0.758,1.689-1.687v-1.963
	C19.094,14.502,18.336,13.744,17.404,13.744z M4.742,14.869c0.312,0,0.564,0.251,0.564,0.563v1.963c0,0.309-0.252,0.563-0.564,0.563
	H2.778c-0.311,0-0.563-0.254-0.563-0.563v-1.963c0-0.312,0.252-0.563,0.563-0.563H4.742z M11.079,14.869
	c0.311,0,0.563,0.251,0.563,0.563v1.963c0,0.309-0.252,0.563-0.563,0.563H9.107c-0.311,0-0.563-0.254-0.563-0.563v-1.963
	c0-0.312,0.252-0.563,0.563-0.563H11.079z M9.083,5.296c-0.31,0-0.563-0.253-0.563-0.562V2.771c0-0.311,0.253-0.563,0.563-0.563
	h1.972c0.31,0,0.563,0.252,0.563,0.563v1.963c0,0.309-0.254,0.562-0.563,0.562H9.083z M17.968,17.395
	c0,0.309-0.253,0.563-0.563,0.563H15.44c-0.312,0-0.564-0.254-0.564-0.563v-1.963c0-0.312,0.253-0.563,0.564-0.563h1.964
	c0.311,0,0.563,0.251,0.563,0.563V17.395z"/>
</svg>
