<?xml version="1.0" encoding="utf-8"?>
<!-- Generator: Adobe Illustrator 16.0.0, SVG Export Plug-In . SVG Version: 6.00 Build 0)  -->
<!DOCTYPE svg PUBLIC "-//W3C//DTD SVG 1.1//EN" "http://www.w3.org/Graphics/SVG/1.1/DTD/svg11.dtd">
<svg version="1.1" id="图层_1" xmlns="http://www.w3.org/2000/svg" xmlns:xlink="http://www.w3.org/1999/xlink" x="0px" y="0px"
	 width="20px" height="20px" viewBox="0 0 20 20" enable-background="new 0 0 20 20" xml:space="preserve">
<g>
	<path fill="#5D5D5D" d="M10.041,12.416c0.956,0,1.734-0.778,1.734-1.734V8.958h5.572v2.722c0,0.359,0.291,0.65,0.65,0.65
		s0.65-0.291,0.65-0.65V6.232c0-1.186-0.965-2.15-2.15-2.15h-2.35V3.799c0-1.186-0.965-2.15-2.15-2.15H8.082
		c-1.186,0-2.15,0.965-2.15,2.15v0.283H3.581c-1.186,0-2.15,0.965-2.15,2.15v9.333c0,1.186,0.965,2.15,2.15,2.15h7.141
		c0.359,0,0.65-0.291,0.65-0.65s-0.291-0.65-0.65-0.65H3.581c-0.469,0-0.85-0.381-0.85-0.85V8.958h5.576v1.724
		C8.308,11.638,9.085,12.416,10.041,12.416z M10.475,10.682c0,0.239-0.194,0.434-0.434,0.434c-0.238,0-0.433-0.194-0.433-0.434
		V8.958h0.866V10.682z M7.232,3.799c0-0.469,0.381-0.85,0.85-0.85h3.916c0.469,0,0.85,0.381,0.85,0.85v0.283H7.232V3.799z
		 M2.731,6.232c0-0.469,0.381-0.85,0.85-0.85h12.917c0.469,0,0.85,0.381,0.85,0.85v1.425H2.731V6.232z"/>
	<path fill="#5D5D5D" d="M18.731,16.884L18.024,16.4c0-0.091,0.03-0.182,0.03-0.303c0-0.122,0-0.213-0.03-0.304l0.646-0.516
		c0.063-0.061,0.063-0.12,0.03-0.182l-0.614-1.062c-0.031-0.03-0.093-0.059-0.185-0.03l-0.771,0.304
		c-0.153-0.12-0.338-0.213-0.522-0.304l-0.123-0.788c0.03-0.092-0.063-0.151-0.124-0.151h-1.23c-0.063,0-0.155,0.06-0.155,0.122
		l-0.123,0.817c-0.184,0.061-0.338,0.183-0.522,0.304l-0.739-0.304c-0.092-0.03-0.153,0-0.214,0.061l-0.617,1.062
		c-0.03,0.031,0,0.122,0.062,0.182l0.647,0.485c0,0.091-0.031,0.183-0.031,0.304c0,0.12,0,0.212,0.031,0.303l-0.647,0.515
		c-0.062,0.063-0.062,0.122-0.031,0.183l0.615,1.062c0.032,0.029,0.094,0.06,0.186,0.029l0.77-0.302
		c0.154,0.122,0.339,0.212,0.523,0.302l0.123,0.789c0,0.062,0.061,0.122,0.153,0.122h1.233c0.061,0,0.152-0.061,0.152-0.122
		l0.123-0.789c0.185-0.09,0.369-0.181,0.523-0.302l0.769,0.302c0.063,0.03,0.154,0,0.185-0.061l0.617-1.06
		C18.793,17.006,18.793,16.915,18.731,16.884z M15.746,17.158c-0.586,0-1.077-0.485-1.077-1.061c0-0.577,0.491-1.062,1.077-1.062
		c0.584,0,1.076,0.484,1.076,1.062C16.822,16.673,16.331,17.158,15.746,17.158z"/>
</g>
</svg>
