<?xml version="1.0" encoding="utf-8"?>
<!-- Generator: Adobe Illustrator 16.0.0, SVG Export Plug-In . SVG Version: 6.00 Build 0)  -->
<!DOCTYPE svg PUBLIC "-//W3C//DTD SVG 1.1//EN" "http://www.w3.org/Graphics/SVG/1.1/DTD/svg11.dtd">
<svg version="1.1" id="图层_1" xmlns="http://www.w3.org/2000/svg" xmlns:xlink="http://www.w3.org/1999/xlink" x="0px" y="0px"
	 width="20px" height="20px" viewBox="0 0 20 20" enable-background="new 0 0 20 20" xml:space="preserve">
<g>
	<path fill="#5D5D5D" d="M10.084,1.608c-0.368,0-0.667,0.299-0.667,0.667v8.005c0,0.368,0.299,0.668,0.667,0.668h8.007
		c0.368,0,0.667-0.3,0.667-0.668C18.758,5.498,14.866,1.608,10.084,1.608z M17.389,9.613h-6.637V2.977
		C14.266,3.295,17.07,6.1,17.389,9.613z"/>
	<path fill="#5D5D5D" d="M16.674,12.44c-0.352-0.107-0.726,0.091-0.833,0.443c-0.851,2.809-3.443,4.726-6.379,4.713
		c-3.678,0-6.67-2.993-6.67-6.671c0.011-2.958,1.957-5.56,4.791-6.403c0.333-0.119,0.516-0.478,0.416-0.818
		C7.9,3.365,7.553,3.161,7.207,3.241c-3.401,1.014-5.737,4.135-5.75,7.685c0,4.414,3.591,8.005,8.005,8.005
		c3.522,0.015,6.636-2.285,7.655-5.655C17.226,12.923,17.027,12.55,16.674,12.44z"/>
</g>
</svg>
