<?xml version="1.0" encoding="utf-8"?>
<!-- Generator: Adobe Illustrator 16.0.0, SVG Export Plug-In . SVG Version: 6.00 Build 0)  -->
<!DOCTYPE svg PUBLIC "-//W3C//DTD SVG 1.1//EN" "http://www.w3.org/Graphics/SVG/1.1/DTD/svg11.dtd">
<svg version="1.1" id="图层_1" xmlns="http://www.w3.org/2000/svg" xmlns:xlink="http://www.w3.org/1999/xlink" x="0px" y="0px"
	 width="20px" height="20px" viewBox="0 0 20 20" enable-background="new 0 0 20 20" xml:space="preserve">
<g>
	<path fill="#5D5D5D" d="M10.199,1c-5.073,0-9.2,4.127-9.2,9.2c0,5.072,4.127,9.199,9.2,9.199s9.2-4.127,9.2-9.199
		C19.399,5.127,15.272,1,10.199,1z M10.199,18.157c-4.387,0-7.956-3.57-7.956-7.957s3.569-7.956,7.956-7.956
		c4.388,0,7.957,3.569,7.957,7.956S14.587,18.157,10.199,18.157z"/>
	<path fill="#5D5D5D" d="M11.195,10.2l2.712-2.712c0.272-0.274,0.272-0.722-0.001-0.997c-0.127-0.127-0.308-0.2-0.498-0.2
		c-0.189,0-0.372,0.073-0.499,0.2l-2.71,2.712L7.486,6.492c-0.127-0.127-0.308-0.2-0.497-0.2S6.618,6.365,6.491,6.493
		c-0.271,0.274-0.271,0.721,0,0.996L9.203,10.2l-2.711,2.712c-0.133,0.132-0.206,0.309-0.206,0.497c0,0.188,0.072,0.364,0.205,0.496
		c0.128,0.127,0.31,0.199,0.499,0.199s0.371-0.072,0.497-0.199l2.712-2.71l2.712,2.709c0.132,0.134,0.309,0.207,0.497,0.207
		s0.365-0.073,0.498-0.205c0.133-0.13,0.206-0.307,0.206-0.497s-0.072-0.367-0.205-0.497L11.195,10.2z"/>
</g>
</svg>
