<?xml version="1.0" encoding="utf-8"?>
<!-- Generator: Adobe Illustrator 16.0.0, SVG Export Plug-In . SVG Version: 6.00 Build 0)  -->
<!DOCTYPE svg PUBLIC "-//W3C//DTD SVG 1.1//EN" "http://www.w3.org/Graphics/SVG/1.1/DTD/svg11.dtd">
<svg version="1.1" id="图层_1" xmlns="http://www.w3.org/2000/svg" xmlns:xlink="http://www.w3.org/1999/xlink" x="0px" y="0px"
	 width="20px" height="20px" viewBox="0 0 20 20" enable-background="new 0 0 20 20" xml:space="preserve">
<g>
	<path fill="#5D5D5D" d="M6.22,11.987H2.124c-0.387,0-0.7,0.313-0.7,0.7s0.313,0.7,0.7,0.7h1.348v4.317c0,0.387,0.313,0.7,0.7,0.7
		s0.7-0.313,0.7-0.7v-4.317H6.22c0.387,0,0.7-0.313,0.7-0.7S6.606,11.987,6.22,11.987z"/>
	<path fill="#5D5D5D" d="M5.556,4.8H4.872V2.791c0-0.387-0.313-0.7-0.7-0.7s-0.7,0.313-0.7,0.7V4.8H2.79
		c-0.825,0-1.472,0.747-1.472,1.7v2.334c0,0.953,0.646,1.7,1.472,1.7h2.766c0.826,0,1.473-0.747,1.473-1.7V6.5
		C7.028,5.547,6.382,4.8,5.556,4.8z M5.628,8.834c0,0.166-0.065,0.27-0.099,0.3L2.826,9.142C2.799,9.125,2.719,9.018,2.719,8.834
		V6.5c0-0.184,0.08-0.291,0.071-0.3l2.73-0.008C5.548,6.209,5.628,6.316,5.628,6.5V8.834z"/>
	<path fill="#5D5D5D" d="M12.602,11.987H8.507c-0.387,0-0.7,0.313-0.7,0.7s0.313,0.7,0.7,0.7h1.347v4.317c0,0.387,0.313,0.7,0.7,0.7
		s0.7-0.313,0.7-0.7v-4.317h1.348c0.387,0,0.7-0.313,0.7-0.7S12.988,11.987,12.602,11.987z"/>
	<path fill="#5D5D5D" d="M11.938,4.8h-0.685V2.791c0-0.387-0.313-0.7-0.7-0.7s-0.7,0.313-0.7,0.7V4.8H9.172
		C8.347,4.8,7.7,5.547,7.7,6.5v2.334c0,0.953,0.646,1.7,1.472,1.7h2.767c0.825,0,1.472-0.747,1.472-1.7V6.5
		C13.41,5.547,12.764,4.8,11.938,4.8z M12.01,8.834c0,0.165-0.064,0.27-0.098,0.3L9.208,9.142C9.181,9.125,9.101,9.018,9.101,8.834
		V6.5c0-0.184,0.08-0.291,0.071-0.3l2.73-0.008C11.93,6.209,12.01,6.316,12.01,6.5V8.834z"/>
	<path fill="#5D5D5D" d="M18.205,14.615v-0.037c0-1.218-0.807-2.103-1.922-2.104c-1.122,0-1.968,0.883-1.968,2.055v0.089
		c-0.481,0.219-0.798,0.691-0.798,1.228v1.24c0,0.748,0.622,1.355,1.387,1.355h2.712c0.766,0,1.388-0.607,1.388-1.355v-1.24
		C19.004,15.308,18.687,14.835,18.205,14.615z M14.695,17.074v-1.229c0-0.104,0.076-0.192,0.166-0.192h2.798
		c0.09,0,0.166,0.088,0.166,0.192v1.229c0,0.105-0.074,0.191-0.166,0.191h-2.798C14.771,17.266,14.695,17.178,14.695,17.074z
		 M16.284,13.638c0.469,0.001,0.695,0.414,0.723,0.851h-1.513C15.509,14.059,15.755,13.638,16.284,13.638z"/>
</g>
</svg>
