<?xml version="1.0" encoding="utf-8"?>
<!-- Generator: Adobe Illustrator 16.0.0, SVG Export Plug-In . SVG Version: 6.00 Build 0)  -->
<!DOCTYPE svg PUBLIC "-//W3C//DTD SVG 1.1//EN" "http://www.w3.org/Graphics/SVG/1.1/DTD/svg11.dtd">
<svg version="1.1" id="图层_1" xmlns="http://www.w3.org/2000/svg" xmlns:xlink="http://www.w3.org/1999/xlink" x="0px" y="0px"
	 width="20px" height="20px" viewBox="0 0 20 20" enable-background="new 0 0 20 20" xml:space="preserve">
<g>
	<path fill="#5D5D5D" d="M16.3,1.807H3.674c-0.927,0-1.687,0.762-1.687,1.692v13.46c0,0.932,0.76,1.693,1.687,1.693H16.3
		c0.93,0,1.688-0.762,1.688-1.693V3.499C17.987,2.568,17.229,1.807,16.3,1.807z M16.892,16.959c0,0.33-0.271,0.593-0.592,0.593
		H3.674c-0.328,0-0.59-0.271-0.59-0.593V3.499c0-0.329,0.269-0.592,0.59-0.592H16.3c0.329,0,0.592,0.271,0.592,0.592V16.959z"/>
	<path fill="#5D5D5D" d="M5.369,5.669c-0.388,0-0.711,0.323-0.711,0.71c0,0.388,0.323,0.71,0.711,0.71
		c0.386,0,0.709-0.313,0.709-0.71S5.755,5.669,5.369,5.669z"/>
	<path fill="#5D5D5D" d="M14.606,5.761H8.181c-0.387,0-0.71,0.323-0.71,0.71c0,0.388,0.323,0.71,0.71,0.71h6.426
		c0.387,0,0.709-0.313,0.709-0.71C15.315,6.075,14.993,5.761,14.606,5.761z"/>
	<path fill="#5D5D5D" d="M5.369,9.645c-0.388,0-0.711,0.314-0.711,0.709c0,0.398,0.323,0.711,0.711,0.711
		c0.386,0,0.709-0.322,0.709-0.711C6.078,9.967,5.755,9.645,5.369,9.645z"/>
	<path fill="#5D5D5D" d="M14.606,9.736H8.181c-0.387,0-0.71,0.314-0.71,0.711c0,0.395,0.323,0.709,0.71,0.709h6.426
		c0.387,0,0.709-0.322,0.709-0.709S14.993,9.736,14.606,9.736z"/>
	<path fill="#5D5D5D" d="M5.369,13.622c-0.388,0-0.711,0.313-0.711,0.71c0,0.396,0.323,0.71,0.711,0.71
		c0.386,0,0.709-0.323,0.709-0.71C6.078,13.944,5.755,13.622,5.369,13.622z"/>
	<path fill="#5D5D5D" d="M14.606,13.715H8.181c-0.387,0-0.71,0.313-0.71,0.709s0.323,0.71,0.71,0.71h6.426
		c0.387,0,0.709-0.322,0.709-0.71C15.315,14.037,14.993,13.715,14.606,13.715z"/>
</g>
</svg>
