<?xml version="1.0" encoding="utf-8"?>
<!-- Generator: Adobe Illustrator 16.0.0, SVG Export Plug-In . SVG Version: 6.00 Build 0)  -->
<!DOCTYPE svg PUBLIC "-//W3C//DTD SVG 1.1//EN" "http://www.w3.org/Graphics/SVG/1.1/DTD/svg11.dtd">
<svg version="1.1" id="图层_1" xmlns="http://www.w3.org/2000/svg" xmlns:xlink="http://www.w3.org/1999/xlink" x="0px" y="0px"
	 width="20px" height="20px" viewBox="0 0 20 20" enable-background="new 0 0 20 20" xml:space="preserve">
<g>
	<path fill="#5D5D5D" d="M19.037,9.711c-0.29,0.144-0.645,0.33-0.895,0.46c-0.14,0.074-0.246,0.129-0.287,0.149l-7.775,3.696
		l-7.751-3.686l-0.021-0.01c-0.112-0.051-0.725-0.335-1.175-0.606L0.981,9.625v0.177c0,0.472,0.119,1.335,0.574,1.58l7.631,3.537
		c0.315,0.153,0.584,0.256,0.87,0.256c0.283,0,0.571-0.102,0.917-0.255l7.637-3.54c0.466-0.235,0.57-1.243,0.57-1.578V9.64
		L19.037,9.711z"/>
	<path fill="#5D5D5D" d="M18.148,13.876c-0.143,0.074-0.252,0.132-0.293,0.152l-7.775,3.699L2.396,14.07l-0.074-0.035
		c-0.119-0.055-0.738-0.34-1.189-0.612l-0.151-0.091v0.177c0,0.473,0.119,1.337,0.574,1.58l7.631,3.539
		c0.315,0.153,0.584,0.256,0.87,0.256c0.283,0,0.571-0.102,0.917-0.255l7.637-3.542c0.466-0.235,0.57-1.243,0.57-1.578v-0.161
		l-0.144,0.071C18.749,13.562,18.398,13.745,18.148,13.876z"/>
	<path fill="#5D5D5D" d="M1.556,7.687l7.631,3.538c0.315,0.152,0.584,0.254,0.869,0.254c0.284,0,0.572-0.101,0.918-0.253
		l7.635-3.539c0.283-0.133,0.469-0.478,0.484-0.898c0.017-0.456-0.171-0.862-0.479-1.036l-7.628-4.156
		c-0.308-0.194-0.58-0.284-0.856-0.284c-0.272,0-0.563,0.086-0.946,0.28L1.542,5.757c-0.317,0.213-0.503,0.616-0.483,1.05
		C1.075,7.197,1.259,7.524,1.556,7.687z M2.511,6.716l7.563-4.204l7.577,4.204l-7.57,3.287L2.511,6.716z"/>
</g>
</svg>
