<?xml version="1.0" encoding="utf-8"?>
<!-- Generator: Adobe Illustrator 16.0.0, SVG Export Plug-In . SVG Version: 6.00 Build 0)  -->
<!DOCTYPE svg PUBLIC "-//W3C//DTD SVG 1.1//EN" "http://www.w3.org/Graphics/SVG/1.1/DTD/svg11.dtd">
<svg version="1.1" id="图层_1" xmlns="http://www.w3.org/2000/svg" xmlns:xlink="http://www.w3.org/1999/xlink" x="0px" y="0px"
	 width="20px" height="20px" viewBox="0 0 20 20" enable-background="new 0 0 20 20" xml:space="preserve">
<path fill="#5D5D5D" d="M16.56,5.382h-0.209V3.949c0-1.01-0.821-1.831-1.83-1.831H5.547c-1.011,0-1.833,0.821-1.833,1.831v1.433
	H3.507c-1.01,0-1.832,0.822-1.832,1.832v8.973c0,1.01,0.822,1.832,1.832,1.832H16.56c1.01,0,1.831-0.822,1.831-1.832V7.214
	C18.391,6.204,17.569,5.382,16.56,5.382z M15.136,5.382H4.93V4.357c0-0.564,0.459-1.023,1.024-1.023h8.157
	c0.565,0,1.024,0.459,1.024,1.023V5.382z M17.175,7.621v8.158c0,0.088-0.029,0.167-0.051,0.249l-4.313-4.29l4.322-4.322
	C17.147,7.484,17.175,7.549,17.175,7.621z M2.891,15.779V7.621c0-0.073,0.027-0.137,0.041-0.205l4.323,4.322l-4.313,4.291
	C2.92,15.947,2.891,15.868,2.891,15.779z M10.033,12.797L3.847,6.61C3.87,6.608,3.891,6.597,3.914,6.597H16.15
	c0.024,0,0.045,0.012,0.068,0.014L10.033,12.797z M8.112,12.596l1.779,1.78c0.038,0.037,0.089,0.059,0.142,0.059
	s0.104-0.021,0.142-0.059l1.779-1.779l4.223,4.2c-0.009,0.001-0.017,0.006-0.026,0.006H3.914c-0.009,0-0.017-0.005-0.025-0.005
	L8.112,12.596z"/>
</svg>
