<?xml version="1.0" encoding="utf-8"?>
<!-- Generator: Adobe Illustrator 16.0.0, SVG Export Plug-In . SVG Version: 6.00 Build 0)  -->
<!DOCTYPE svg PUBLIC "-//W3C//DTD SVG 1.1//EN" "http://www.w3.org/Graphics/SVG/1.1/DTD/svg11.dtd">
<svg version="1.1" id="图层_1" xmlns="http://www.w3.org/2000/svg" xmlns:xlink="http://www.w3.org/1999/xlink" x="0px" y="0px"
	 width="20px" height="20px" viewBox="0 0 20 20" enable-background="new 0 0 20 20" xml:space="preserve">
<g>
	<path fill="#5D5D5D" d="M3.948,6.479c-0.388,0-0.703,0.287-0.703,0.639c0,0.354,0.315,0.643,0.703,0.643h5.495
		c0.388,0,0.703-0.288,0.703-0.643c0-0.352-0.315-0.639-0.703-0.639H3.948z"/>
	<path fill="#5D5D5D" d="M7.993,10.073H3.948c-0.388,0-0.703,0.287-0.703,0.639c0,0.354,0.315,0.643,0.703,0.643h4.045
		c0.388,0,0.703-0.289,0.703-0.643C8.696,10.36,8.381,10.073,7.993,10.073z"/>
	<path fill="#5D5D5D" d="M18.801,15.14c-0.157-0.351-0.424-0.578-0.586-0.717c-0.04-0.034-0.132-0.115-0.143-0.125
		c-0.008-0.018-0.017-0.03-0.03-0.053c-0.124-0.195-0.2-0.991-0.227-1.267L17.8,12.815c-0.001-0.022-0.004-0.043-0.007-0.058
		c-0.105-0.722-0.369-1.767-1.025-2.639c-0.414-0.551-0.922-0.948-1.51-1.184c-0.213-0.522-0.726-0.869-1.294-0.869
		c-0.569,0-1.081,0.347-1.293,0.869c-0.589,0.235-1.096,0.633-1.51,1.184c-0.659,0.876-0.922,1.92-1.027,2.661l-0.021,0.216
		c-0.025,0.26-0.103,1.054-0.23,1.257l-0.017,0.028c-0.021,0.026-0.118,0.111-0.158,0.146c-0.147,0.126-0.421,0.36-0.58,0.714
		c-0.138,0.309-0.231,0.809,0.112,1.433c0.175,0.315,0.509,0.512,0.87,0.512h7.709c0.361,0,0.696-0.197,0.873-0.515
		C19.033,15.945,18.938,15.447,18.801,15.14z M13.685,9.817l0.033-0.394c0.01-0.12,0.118-0.213,0.246-0.213
		c0.129,0,0.237,0.095,0.248,0.215l0.033,0.392l0.378,0.109c0.482,0.139,0.896,0.435,1.23,0.881c0.51,0.681,0.721,1.525,0.806,2.109
		l0.019,0.186c0.066,0.7,0.146,1.361,0.396,1.751c0.105,0.187,0.263,0.322,0.401,0.44c0.284,0.244,0.383,0.367,0.255,0.646H10.2
		c-0.129-0.278-0.029-0.401,0.254-0.646c0.123-0.105,0.293-0.249,0.399-0.438c0.249-0.395,0.33-1.053,0.398-1.757l0.004-0.043
		c0.005-0.048,0.008-0.095,0.014-0.136c0.085-0.588,0.294-1.432,0.807-2.114c0.335-0.445,0.749-0.741,1.229-0.88L13.685,9.817z"/>
	<path fill="#5D5D5D" d="M14.937,17.612H13.03c-0.155,0-0.249,0.067-0.302,0.125c-0.074,0.084-0.106,0.196-0.091,0.317
		c0.083,0.654,0.654,1.148,1.326,1.148c0.678,0,1.249-0.5,1.329-1.164c0.013-0.123-0.021-0.234-0.095-0.316
		C15.131,17.651,15.041,17.612,14.937,17.612z"/>
	<path fill="#5D5D5D" d="M7.348,14.725H3.512c-0.744,0-1.35-0.605-1.35-1.35v-8.5c0-0.744,0.605-1.35,1.35-1.35h11.625
		c0.744,0,1.35,0.605,1.35,1.35v3.232c0,0.359,0.291,0.65,0.65,0.65s0.65-0.291,0.65-0.65V4.875c0-1.461-1.189-2.65-2.65-2.65H3.512
		c-1.461,0-2.65,1.189-2.65,2.65v8.5c0,1.461,1.189,2.65,2.65,2.65h3.836c0.359,0,0.65-0.291,0.65-0.65S7.707,14.725,7.348,14.725z"
		/>
</g>
</svg>
