<?xml version="1.0" encoding="utf-8"?>
<!-- Generator: Adobe Illustrator 16.0.0, SVG Export Plug-In . SVG Version: 6.00 Build 0)  -->
<!DOCTYPE svg PUBLIC "-//W3C//DTD SVG 1.1//EN" "http://www.w3.org/Graphics/SVG/1.1/DTD/svg11.dtd">
<svg version="1.1" id="图层_1" xmlns="http://www.w3.org/2000/svg" xmlns:xlink="http://www.w3.org/1999/xlink" x="0px" y="0px"
	 width="20px" height="20px" viewBox="0 0 20 20" enable-background="new 0 0 20 20" xml:space="preserve">
<g>
	<path fill="#5D5D5D" d="M3.948,6.479c-0.388,0-0.703,0.287-0.703,0.639c0,0.354,0.315,0.643,0.703,0.643h5.495
		c0.388,0,0.703-0.288,0.703-0.643c0-0.352-0.315-0.639-0.703-0.639H3.948z"/>
	<path fill="#5D5D5D" d="M7.993,10.073H3.948c-0.388,0-0.703,0.287-0.703,0.639c0,0.354,0.315,0.643,0.703,0.643h4.045
		c0.388,0,0.703-0.289,0.703-0.643C8.696,10.36,8.381,10.073,7.993,10.073z"/>
	<path fill="#5D5D5D" d="M7.129,14.725H3.492c-0.744,0-1.35-0.605-1.35-1.35v-8.5c0-0.744,0.605-1.35,1.35-1.35h11.625
		c0.744,0,1.35,0.605,1.35,1.35v3.133c0,0.359,0.291,0.65,0.65,0.65s0.65-0.291,0.65-0.65V4.875c0-1.461-1.189-2.65-2.65-2.65H3.492
		c-1.461,0-2.65,1.189-2.65,2.65v8.5c0,1.461,1.189,2.65,2.65,2.65h3.637c0.359,0,0.65-0.291,0.65-0.65S7.488,14.725,7.129,14.725z"
		/>
	<path fill="#5D5D5D" d="M13.936,17.104h0.215c0.308,0,0.558-0.25,0.558-0.559v-0.27c0-0.309-0.25-0.559-0.558-0.559h-0.215
		c-0.306,0-0.555,0.25-0.555,0.559v0.27C13.381,16.854,13.63,17.104,13.936,17.104z"/>
	<path fill="#5D5D5D" d="M13.936,15.418h0.229c0.308,0,0.558-0.25,0.558-0.558V12.02c0-0.307-0.25-0.557-0.558-0.557h-0.229
		c-0.306,0-0.555,0.25-0.555,0.557v2.841C13.381,15.168,13.63,15.418,13.936,15.418z"/>
	<path fill="#5D5D5D" d="M14.049,8.869c-2.897,0-5.254,2.356-5.254,5.254c0,2.896,2.356,5.253,5.254,5.253s5.254-2.356,5.254-5.253
		C19.303,11.226,16.946,8.869,14.049,8.869z M14.004,10.139c2.211,0,4.011,1.799,4.011,4.01s-1.8,4.011-4.011,4.011
		s-4.01-1.8-4.01-4.011S11.793,10.139,14.004,10.139z"/>
</g>
</svg>
