<?xml version="1.0" encoding="utf-8"?>
<!-- Generator: Adobe Illustrator 16.0.0, SVG Export Plug-In . SVG Version: 6.00 Build 0)  -->
<!DOCTYPE svg PUBLIC "-//W3C//DTD SVG 1.1//EN" "http://www.w3.org/Graphics/SVG/1.1/DTD/svg11.dtd">
<svg version="1.1" id="图层_1" xmlns="http://www.w3.org/2000/svg" xmlns:xlink="http://www.w3.org/1999/xlink" x="0px" y="0px"
	 width="20px" height="20px" viewBox="0 0 20 20" enable-background="new 0 0 20 20" xml:space="preserve">
<g>
	<path fill="#5D5D5D" d="M5.817,6.656h6.536c0.426,0,0.772-0.289,0.772-0.643c0-0.352-0.347-0.639-0.772-0.639H5.817
		c-0.426,0-0.772,0.287-0.772,0.639C5.045,6.367,5.392,6.656,5.817,6.656z"/>
	<path fill="#5D5D5D" d="M13.126,9.607c0-0.352-0.347-0.639-0.772-0.639H5.817c-0.426,0-0.772,0.287-0.772,0.639
		c0,0.354,0.347,0.643,0.772,0.643h6.536C12.779,10.25,13.126,9.961,13.126,9.607z"/>
	<path fill="#5D5D5D" d="M13.274,1.611H4.898c-1.447,0-2.624,1.162-2.624,2.59v11.773c0,1.43,1.177,2.592,2.624,2.592h4.862
		c0.315,0,0.572-0.256,0.572-0.572c0-0.314-0.257-0.572-0.572-0.572H4.898c-0.815,0-1.479-0.648-1.479-1.447V4.201
		c0-0.797,0.664-1.447,1.479-1.447h8.376c0.816,0,1.48,0.65,1.48,1.447v6.14c0,0.314,0.256,0.57,0.571,0.57s0.571-0.256,0.571-0.57
		v-6.14C15.897,2.773,14.721,1.611,13.274,1.611z"/>
	<path fill="#5D5D5D" d="M7.358,14.602c0,0.953,0.774,1.727,1.727,1.727c0.953,0,1.728-0.773,1.728-1.727s-0.774-1.727-1.728-1.727
		C8.133,12.875,7.358,13.648,7.358,14.602z M9.7,14.602c0,0.34-0.276,0.615-0.615,0.615S8.47,14.941,8.47,14.602
		s0.276-0.615,0.615-0.615S9.7,14.262,9.7,14.602z"/>
	<path fill="#5D5D5D" d="M13.104,14.025c-0.323,0-0.584,0.239-0.584,0.534v3.472c0,0.295,0.261,0.535,0.584,0.535
		c0.322,0,0.583-0.24,0.583-0.535V14.56C13.687,14.265,13.426,14.025,13.104,14.025z"/>
	<path fill="#5D5D5D" d="M17.441,15.014c-0.323,0-0.584,0.187-0.584,0.418v2.717c0,0.23,0.261,0.418,0.584,0.418
		c0.322,0,0.584-0.188,0.584-0.418v-2.717C18.025,15.2,17.764,15.014,17.441,15.014z"/>
	<path fill="#5D5D5D" d="M15.222,12.491c-0.322,0-0.583,0.335-0.583,0.751v4.573c0,0.415,0.261,0.751,0.583,0.751
		c0.323,0,0.584-0.336,0.584-0.751v-4.573C15.806,12.826,15.545,12.491,15.222,12.491z"/>
</g>
</svg>
