<?xml version="1.0" encoding="utf-8"?>
<!-- Generator: Adobe Illustrator 23.0.2, SVG Export Plug-In . SVG Version: 6.00 Build 0)  -->
<svg version="1.1" id="图层_1" xmlns="http://www.w3.org/2000/svg" xmlns:xlink="http://www.w3.org/1999/xlink" x="0px" y="0px"
	 width="18px" height="17.964px" viewBox="0 0 18 17.964" enable-background="new 0 0 18 17.964" xml:space="preserve">
<path fill="#606060" d="M13.567,7.81c0.771,0,1.38-0.144,1.858-0.44c0.41-0.252,0.711-0.692,0.975-1.08l0.119-0.174
	c0.445-0.64,0.902-1.365,1.398-2.214c0.139-0.234,0.099-0.534-0.093-0.727l-0.857-0.857c-0.23-0.228-0.618-0.226-0.847,0
	l-1.548,1.549L14.13,3.423l1.547-1.547c0.112-0.112,0.173-0.262,0.173-0.424s-0.062-0.312-0.172-0.424l-0.854-0.853
	c-0.189-0.19-0.492-0.232-0.727-0.094c-0.725,0.424-1.671,0.994-2.56,1.644c-0.584,0.428-0.987,0.828-1.199,1.504
	c-0.217,0.699-0.188,1.416-0.119,1.914L8.524,6.837l-3.097-3.1L5.058,2.61C5.035,2.543,5.015,2.472,4.995,2.4
	C4.889,2.031,4.771,1.612,4.337,1.477L1.672,0.636c-0.201-0.064-0.434,0-0.587,0.153L0.176,1.695
	C0.023,1.849-0.038,2.084,0.024,2.282L0.73,4.515c0.015,0.049,0.029,0.1,0.044,0.153c0.08,0.292,0.18,0.655,0.536,0.773l1.814,0.594
	l3.101,3.101L1.232,14.13c-0.502,0.503-0.711,1.181-0.573,1.86c0.144,0.709,0.64,1.297,1.328,1.577
	c0.749,0.304,1.602,0.055,2.34-0.682l4.822-4.824l0.905,0.905c-0.045,0.076-0.07,0.16-0.075,0.249l-0.005,0.043
	c0,0.017,0.003,0.035,0.006,0.051c0.009,0.145,0.065,0.271,0.167,0.374l3.326,3.325l0.136,0.137c0.097,0.098,0.195,0.196,0.295,0.29
	c0.37,0.349,0.857,0.529,1.367,0.529c0.329,0,0.668-0.076,0.992-0.229c0.753-0.36,1.204-1.263,1.072-2.147
	c-0.067-0.45-0.288-0.855-0.673-1.241l-3.589-3.589c-0.192-0.19-0.489-0.222-0.718-0.091L11.45,9.761l1.95-1.952
	C13.457,7.809,13.513,7.81,13.567,7.81z M10.102,13.236L10.102,13.236L10.102,13.236L10.102,13.236z M11.42,13.26l1.229-1.232
	l2.902,2.903l0.118,0.117c0.103,0.101,0.205,0.202,0.304,0.308c0.179,0.19,0.243,0.453,0.175,0.722
	c-0.077,0.305-0.308,0.562-0.588,0.657c-0.55,0.183-1.558-0.894-1.63-0.966L11.42,13.26z M9.997,11.214l0.606-0.606l0.885,0.885
	L10.883,12.1L9.997,11.214z M7.073,8.289L4.598,5.813C4.53,5.744,4.459,5.666,4.387,5.586c-0.24-0.264-0.51-0.563-0.849-0.675
	L1.947,4.389L1.282,2.286l0.392-0.393l2.108,0.666l0.546,1.668l0.004,0.007c0.03,0.099,0.078,0.181,0.147,0.25l3.2,3.199
	L7.073,8.289z M2.777,16.483C2.44,16.551,2.2,16.374,2.088,16.262c-0.222-0.222-0.327-0.552-0.268-0.839
	c0.061-0.286,0.326-0.535,0.561-0.754c0.055-0.052,0.109-0.103,0.16-0.152l8.577-8.578l0.157-0.154
	c0.219-0.22,0.174-0.471,0.136-0.693l-0.013-0.074c-0.04-0.255-0.032-0.533-0.018-0.795c0.03-0.573,0.167-0.952,0.431-1.19
	c0.289-0.263,0.627-0.487,0.954-0.704l0.108-0.071c0.449-0.3,0.904-0.579,1.441-0.9l0.096,0.095L12.862,3
	c-0.228,0.229-0.228,0.617,0,0.847l1.289,1.289c0.113,0.112,0.263,0.173,0.424,0.172c0.001,0,0.001,0,0.001,0
	c0.162,0,0.311-0.062,0.423-0.172l1.547-1.548l0.097,0.097c-0.283,0.474-0.618,1.023-0.981,1.566l-0.039,0.058
	c-0.226,0.338-0.46,0.687-0.744,0.976c-0.387,0.396-1.28,0.343-1.711,0.318c-0.196-0.009-0.371,0.068-0.465,0.21l-9.339,9.342
	v-0.001C3.183,16.333,3.002,16.435,2.777,16.483z"/>
</svg>
