<?xml version="1.0" encoding="utf-8"?>
<!-- Generator: Adobe Illustrator 23.0.1, SVG Export Plug-In . SVG Version: 6.00 Build 0)  -->
<svg version="1.1" id="图层_1" xmlns="http://www.w3.org/2000/svg" xmlns:xlink="http://www.w3.org/1999/xlink" x="0px" y="0px"
	 width="16px" height="32px" viewBox="0 0 16 32" enable-background="new 0 0 16 32" xml:space="preserve">
<path fill="#5D5D5D" d="M2,0C0.896,0,0,0.886,0,1.98V30.02C0,31.114,0.896,32,2,32h14V0H2z M12.476,16.575l-7.274,9.311
	c-0.196,0.252-0.511,0.402-0.842,0.402c-0.212,0-0.419-0.06-0.593-0.174c-0.236-0.151-0.393-0.383-0.438-0.65
	c-0.044-0.262,0.023-0.523,0.191-0.737l6.819-8.732L3.519,7.263C3.351,7.05,3.284,6.789,3.328,6.527
	c0.044-0.266,0.201-0.498,0.438-0.652C4.217,5.582,4.881,5.69,5.2,6.099l7.277,9.312C12.749,15.762,12.749,16.23,12.476,16.575z"/>
</svg>
