<?xml version="1.0" encoding="utf-8"?>
<!-- Generator: Adobe Illustrator 23.0.1, SVG Export Plug-In . SVG Version: 6.00 Build 0)  -->
<svg version="1.1" id="图层_1" xmlns="http://www.w3.org/2000/svg" xmlns:xlink="http://www.w3.org/1999/xlink" x="0px" y="0px"
	 width="16px" height="32px" viewBox="0 0 16 32" enable-background="new 0 0 16 32" xml:space="preserve">
<path fill="#5D5D5D" d="M1.999,0c-1.104,0-2,0.886-2,1.98V30.02c0,1.095,0.896,1.98,2,1.98h14V0H1.999z M12.478,24.727
	c0.167,0.213,0.234,0.475,0.191,0.737c-0.045,0.268-0.202,0.498-0.438,0.65c-0.175,0.114-0.381,0.174-0.593,0.174
	c-0.333,0-0.646-0.15-0.842-0.402l-7.274-9.311c-0.273-0.346-0.273-0.812-0.001-1.162l7.277-9.312
	c0.32-0.409,0.985-0.517,1.434-0.225c0.237,0.154,0.394,0.387,0.438,0.652c0.044,0.262-0.023,0.521-0.191,0.736l-6.819,8.732
	L12.478,24.727z"/>
</svg>
