<?xml version="1.0" encoding="utf-8"?>
<!-- Generator: Adobe Illustrator 16.0.0, SVG Export Plug-In . SVG Version: 6.00 Build 0)  -->
<!DOCTYPE svg PUBLIC "-//W3C//DTD SVG 1.1//EN" "http://www.w3.org/Graphics/SVG/1.1/DTD/svg11.dtd">
<svg version="1.1" id="图层_1" xmlns="http://www.w3.org/2000/svg" xmlns:xlink="http://www.w3.org/1999/xlink" x="0px" y="0px"
	 width="19.999px" height="20px" viewBox="0 0 19.999 20" enable-background="new 0 0 19.999 20" xml:space="preserve">
<g>
	<path fill="#5D5D5D" d="M16.749,2.333H3.289c-0.878,0-1.593,0.715-1.593,1.593v10.26c0,0.878,0.715,1.593,1.593,1.593h2.734v2.253
		c0,0.229,0.156,0.453,0.366,0.579l-0.072,0.044l0.267,0.038c0.004,0.001,0.007,0.002,0.011,0.003L6.6,18.72l0.167-0.003
		c0.21,0.027,0.454-0.12,0.587-0.251l2.688-2.688h6.708c0.878,0,1.593-0.715,1.593-1.593V3.926
		C18.342,3.048,17.627,2.333,16.749,2.333z M6.654,14.517H3.77c-0.447,0-0.812-0.364-0.812-0.812V4.406
		c0-0.447,0.364-0.812,0.812-0.812h12.499c0.447,0,0.812,0.364,0.812,0.812v9.299c0,0.447-0.364,0.812-0.812,0.812H9.591
		l-0.069,0.018c-0.044,0.022-0.091,0.066-0.173,0.15l-2.063,2.064v-1.602C7.285,14.8,7.002,14.517,6.654,14.517z"/>
	<circle fill="#5D5D5D" cx="6.018" cy="8.815" r="0.956"/>
	<circle fill="#5D5D5D" cx="10.064" cy="8.815" r="0.956"/>
	<circle fill="#5D5D5D" cx="14.111" cy="8.815" r="0.956"/>
</g>
</svg>
