<?xml version="1.0" encoding="utf-8"?>
<!-- Generator: Adobe Illustrator 16.0.0, SVG Export Plug-In . SVG Version: 6.00 Build 0)  -->
<!DOCTYPE svg PUBLIC "-//W3C//DTD SVG 1.1//EN" "http://www.w3.org/Graphics/SVG/1.1/DTD/svg11.dtd">
<svg version="1.1" id="图层_1" xmlns="http://www.w3.org/2000/svg" xmlns:xlink="http://www.w3.org/1999/xlink" x="0px" y="0px"
	 width="19.999px" height="20px" viewBox="0 0 19.999 20" enable-background="new 0 0 19.999 20" xml:space="preserve">
<g>
	<path fill="#5D5D5D" d="M17.165,3.055c-0.976-0.977-2.274-1.514-3.655-1.514c-1.383,0-2.681,0.537-3.654,1.514
		C8.371,4.536,7.93,6.737,8.727,8.671l-6.945,6.942c-0.096,0.095-0.153,0.229-0.156,0.373l-0.003,2.092
		c0.003,0.134,0.059,0.262,0.156,0.36c0.097,0.098,0.225,0.151,0.372,0.154l4.029,0.005c0.139,0,0.274-0.056,0.372-0.153
		c0.101-0.1,0.156-0.232,0.156-0.375v-1.431H8.14c0.291,0,0.528-0.237,0.528-0.528V14.68h1.43c0.291,0,0.528-0.236,0.528-0.527
		v-1.741l0.921-0.92c0.624,0.258,1.285,0.388,1.963,0.388c1.379,0,2.677-0.538,3.655-1.516C19.18,8.349,19.18,5.07,17.165,3.055z
		 M5.65,16.11v1.429l-2.223-0.003l1.552-1.552c0.1-0.101,0.154-0.233,0.154-0.375s-0.055-0.273-0.154-0.373
		c-0.096-0.097-0.232-0.152-0.374-0.152c-0.143,0-0.278,0.056-0.373,0.152l-1.549,1.548l0.001-0.577l7.049-7.048
		C9.894,9,9.935,8.755,9.834,8.549c-0.796-1.586-0.486-3.493,0.77-4.747C11.379,3.026,12.411,2.6,13.51,2.6
		c1.098,0,2.13,0.427,2.907,1.202c0.777,0.779,1.205,1.812,1.205,2.906c0,1.098-0.428,2.13-1.205,2.907
		c-0.779,0.777-1.812,1.206-2.907,1.206c-0.635,0-1.271-0.151-1.84-0.437c-0.193-0.097-0.458-0.054-0.611,0.101l-1.334,1.334
		c-0.099,0.098-0.155,0.233-0.155,0.373v1.432H8.14c-0.291,0-0.528,0.237-0.528,0.528v1.431H6.18
		C5.888,15.583,5.65,15.819,5.65,16.11z"/>
	<path fill="#5D5D5D" d="M14.534,7.615c0.517,0,1.002-0.2,1.365-0.565c0.365-0.363,0.565-0.849,0.565-1.365s-0.2-1.001-0.565-1.364
		c-0.363-0.365-0.849-0.565-1.365-0.565s-1.002,0.2-1.365,0.565c-0.365,0.363-0.565,0.848-0.565,1.364s0.2,1.001,0.564,1.365
		C13.531,7.415,14.017,7.615,14.534,7.615z M13.916,5.066c0.164-0.164,0.383-0.255,0.618-0.255c0.233,0,0.454,0.091,0.619,0.255
		c0.165,0.166,0.256,0.386,0.255,0.619c0,0.233-0.091,0.453-0.256,0.617C14.996,6.46,14.771,6.55,14.534,6.55
		s-0.462-0.09-0.619-0.247C13.575,5.962,13.575,5.407,13.916,5.066z"/>
</g>
</svg>
