<?xml version="1.0" encoding="utf-8"?>
<!-- Generator: Adobe Illustrator 22.0.0, SVG Export Plug-In . SVG Version: 6.00 Build 0)  -->
<svg version="1.1" id="图层_1" xmlns="http://www.w3.org/2000/svg" xmlns:xlink="http://www.w3.org/1999/xlink" x="0px" y="0px"
	 width="14px" height="14px" viewBox="0 0 14 14" enable-background="new 0 0 14 14" xml:space="preserve">
<path fill="#FFFFFF" d="M11.062,4.743l1.677-1.483c0.414-0.366,0.452-0.998,0.086-1.412c-0.366-0.413-0.997-0.453-1.412-0.086
	L9.276,3.652C5.556,2.084,2.47,5.034,1.275,6.435c-0.324,0.38-0.317,0.961,0.007,1.342c0.528,0.62,1.045,1.14,1.55,1.574
	l-1.572,1.39c-0.414,0.366-0.452,0.998-0.086,1.412c0.198,0.223,0.473,0.337,0.75,0.337c0.235,0,0.472-0.083,0.662-0.251l1.95-1.724
	c4.09,2.114,7.183-1.239,8.298-2.738c0.282-0.38,0.267-0.919-0.032-1.284C12.214,5.775,11.634,5.203,11.062,4.743z M5.036,7.2
	c0-1.105,0.895-2,2-2c0.149,0,0.294,0.019,0.434,0.05L5.054,7.386C5.049,7.324,5.036,7.263,5.036,7.2z M7.036,9.2
	c-0.291,0-0.565-0.065-0.814-0.176L8.94,6.619C8.996,6.804,9.036,6.996,9.036,7.2C9.036,8.304,8.14,9.2,7.036,9.2z"/>
</svg>
