<?xml version="1.0" encoding="utf-8"?>
<!-- Generator: Adobe Illustrator 22.0.0, SVG Export Plug-In . SVG Version: 6.00 Build 0)  -->
<svg version="1.1" id="图层_1" xmlns="http://www.w3.org/2000/svg" xmlns:xlink="http://www.w3.org/1999/xlink" x="0px" y="0px"
	 width="17px" height="17px" viewBox="0 0 17 17" style="enable-background:new 0 0 17 17;" xml:space="preserve">
<g>
	<path d="M8,13.8c-0.6,0.3-1.3,0.3-1.9,0L1.6,11l-0.9,0.5c-0.5,0.3-0.6,1,0,1.4l5.5,3.3c0.6,0.3,1.3,0.3,1.9,0l0,0
		c0.1-0.2,0.2-0.4,0.3-0.6l3.1-3.8"/>
</g>
<path d="M16.7,16.9c0.1-0.1,0.1-0.3,0-0.4l-3.1-3.8c-0.1-0.1-0.3-0.2-0.5-0.2c-0.2,0-0.4,0.1-0.4,0.2l-3.1,3.8
	c0,0.1-0.1,0.1-0.1,0.2s0,0.1,0.1,0.2c0.1,0.1,0.3,0.2,0.5,0.2h6.3C16.4,17.1,16.6,17,16.7,16.9z"/>
<path d="M13.8,7.2c-0.3-0.1-0.6-0.3-0.9-0.5L8,9.5c-0.6,0.3-1.3,0.3-1.9,0L1.6,6.7L0.7,7.2c-0.5,0.3-0.6,1,0,1.4l5.5,3.3
	c0.6,0.3,1.3,0.3,1.9,0l5.8-3.4C14.4,8.3,14.4,7.5,13.8,7.2z"/>
<path d="M7.9,0.1c1.4,0.6,4.2,2.1,5.9,2.9c0.6,0.3,0.6,1.1,0,1.4L8,7.7C7.4,8,6.7,8,6.2,7.7L0.6,4.4C0.1,4,0.1,3.3,0.7,3l5.7-2.9
	C6.8-0.1,7.4-0.1,7.9,0.1z"/>
</svg>
