<?xml version="1.0" encoding="utf-8"?>
<!-- Generator: Adobe Illustrator 22.0.0, SVG Export Plug-In . SVG Version: 6.00 Build 0)  -->
<svg version="1.1" id="图层_1" xmlns="http://www.w3.org/2000/svg" xmlns:xlink="http://www.w3.org/1999/xlink" x="0px" y="0px"
	 width="17px" height="17px" viewBox="0 0 17 17" style="enable-background:new 0 0 17 17;" xml:space="preserve">
<g>
	<path d="M8.1,13.6L8,13.7c-0.6,0.3-1.3,0.3-1.8,0L1.6,11l-0.9,0.5c-0.5,0.3-0.6,1,0,1.4l5.5,3.3c0.6,0.3,1.3,0.3,1.8,0l1.4-0.8
		l-1-1.3C8.3,13.9,8.2,13.8,8.1,13.6z"/>
	<path d="M16.6,12.7c-0.1-0.1-0.3-0.2-0.4-0.2H9.9c-0.2,0-0.4,0.1-0.4,0.2c0,0.1-0.1,0.1-0.1,0.2c0,0.1,0,0.1,0.1,0.2l3.1,3.7
		c0.1,0.1,0.3,0.2,0.4,0.2c0.2,0,0.4-0.1,0.4-0.2l3.1-3.7C16.7,13,16.7,12.8,16.6,12.7z"/>
	<path d="M6.2,11.9c0.6,0.3,1.3,0.3,1.8,0l5.8-3.3c0.5-0.3,0.5-1.1,0-1.4c-0.3-0.1-0.6-0.3-0.9-0.5L8,9.5c-0.6,0.3-1.3,0.3-1.8,0
		L1.7,6.8l-1,0.4c-0.5,0.3-0.6,1,0,1.4L6.2,11.9z"/>
	<path d="M6.2,7.7C6.7,8,7.4,8,8,7.7l5.8-3.3c0.5-0.3,0.5-1.1,0-1.4C12.2,2.2,9.4,0.8,8,0.1c-0.5-0.2-1.1-0.2-1.6,0L0.7,3
		c-0.5,0.3-0.6,1,0,1.4L6.2,7.7z"/>
</g>
</svg>
