<?xml version="1.0" encoding="utf-8"?>
<!-- Generator: Adobe Illustrator 16.0.0, SVG Export Plug-In . SVG Version: 6.00 Build 0)  -->
<!DOCTYPE svg PUBLIC "-//W3C//DTD SVG 1.1//EN" "http://www.w3.org/Graphics/SVG/1.1/DTD/svg11.dtd">
<svg version="1.1" id="图层_1" xmlns="http://www.w3.org/2000/svg" xmlns:xlink="http://www.w3.org/1999/xlink" x="0px" y="0px"
	 width="22.82px" height="15.614px" viewBox="4.59 8.193 22.82 15.614" enable-background="new 4.59 8.193 22.82 15.614"
	 xml:space="preserve">
<polygon fill="#5D5D5D" points="22.213,19.107 22.213,19.111 22.221,19.105 22.219,19.098 "/>
<polygon fill="#5D5D5D" points="21.664,18.831 21.664,18.835 21.67,18.828 21.668,18.822 "/>
<path fill="#5D5D5D" d="M22.309,23.807H10.595c-3.312,0-6.005-2.693-6.005-6.006c0-2.969,2.115-5.425,5.075-5.952
	C10.923,9.585,13.323,8.193,16,8.193c3.353,0,6.296,2.272,7.154,5.463c2.383,0.416,4.254,2.591,4.256,5.047
	C27.41,21.564,25.17,23.807,22.309,23.807z M16,9.393c-2.329,0-4.401,1.253-5.408,3.271L10.45,12.95l-0.317,0.041
	c-2.517,0.325-4.343,2.349-4.343,4.81c0,2.648,2.156,4.807,4.806,4.807h11.713c2.188,0,3.902-1.715,3.902-3.903
	c-0.002-1.995-1.613-3.748-3.592-3.907l-0.449-0.036l-0.09-0.441C21.49,11.464,18.934,9.393,16,9.393z"/>
</svg>
