<?xml version="1.0" encoding="utf-8"?>
<!-- Generator: Adobe Illustrator 16.0.0, SVG Export Plug-In . SVG Version: 6.00 Build 0)  -->
<!DOCTYPE svg PUBLIC "-//W3C//DTD SVG 1.1//EN" "http://www.w3.org/Graphics/SVG/1.1/DTD/svg11.dtd">
<svg version="1.1" id="图层_1" xmlns="http://www.w3.org/2000/svg" xmlns:xlink="http://www.w3.org/1999/xlink" x="0px" y="0px"
	 width="20px" height="20px" viewBox="0 0 20 20" enable-background="new 0 0 20 20" xml:space="preserve">
<g>
	<path fill="#5D5D5D" d="M13.341,16.849H4.869c-0.345,0-0.67-0.136-0.917-0.384c-0.247-0.246-0.383-0.571-0.383-0.916V4.734
		c0-0.345,0.136-0.67,0.384-0.917C4.199,3.57,4.524,3.435,4.869,3.435H14.95c0.344,0,0.67,0.136,0.918,0.384
		c0.247,0.246,0.383,0.571,0.383,0.916v3.191c0,0.352,0.287,0.639,0.639,0.639s0.639-0.287,0.639-0.639V4.734
		c0-1.421-1.157-2.577-2.578-2.577H4.869c-1.421,0-2.577,1.156-2.577,2.577v10.814c0,1.421,1.156,2.577,2.577,2.577h8.23
		l0.241-0.046v-0.045c0.191-0.115,0.31-0.323,0.31-0.548s-0.118-0.433-0.31-0.548V16.849z"/>
	<path fill="#5D5D5D" d="M17.925,16.816l-2.682-2.68c0.608-0.816,0.943-1.825,0.943-2.842c0-2.624-2.136-4.76-4.76-4.76
		s-4.76,2.136-4.76,4.76s2.136,4.76,4.76,4.76c1.016,0,2.024-0.335,2.842-0.943l2.682,2.682c0.132,0.13,0.304,0.201,0.486,0.201
		c0.185,0,0.357-0.073,0.486-0.205C18.188,17.519,18.188,17.082,17.925,16.816z M11.427,14.678c-1.865,0-3.383-1.518-3.383-3.383
		s1.518-3.383,3.383-3.383s3.383,1.518,3.383,3.383S13.292,14.678,11.427,14.678z"/>
</g>
</svg>
