<?xml version="1.0" encoding="utf-8"?>
<!-- Generator: Adobe Illustrator 23.0.2, SVG Export Plug-In . SVG Version: 6.00 Build 0)  -->
<svg version="1.1" id="图层_1" xmlns="http://www.w3.org/2000/svg" xmlns:xlink="http://www.w3.org/1999/xlink" x="0px" y="0px"
	 viewBox="0 0 17 13.6" enable-background="new 0 0 17 13.6" xml:space="preserve">
<g>
	<path fill="#606060" d="M3.967,7.933H1.133v-6.8H10.2v6.8H8.5c-0.313,0-0.567,0.254-0.567,0.567c0,0.313,0.254,0.567,0.567,0.567
		h1.7c0.627,0,1.133-0.507,1.133-1.133v-6.8C11.333,0.507,10.827,0,10.2,0H1.133C0.507,0,0,0.507,0,1.133v6.8
		C0,8.56,0.507,9.067,1.133,9.067h2.833c0.313,0,0.567-0.254,0.567-0.567C4.533,8.187,4.281,7.933,3.967,7.933L3.967,7.933z
		 M15.867,4.533h-2.833c-0.313,0-0.567,0.254-0.567,0.567c0,0.313,0.254,0.567,0.567,0.567h2.833v6.8H6.8v-6.8h1.7
		c0.313,0,0.567-0.254,0.567-0.567c0-0.313-0.253-0.567-0.567-0.567H6.8c-0.627,0-1.133,0.507-1.133,1.133v6.8
		c0,0.627,0.507,1.133,1.133,1.133h9.067c0.627,0,1.133-0.507,1.133-1.133v-6.8C17,5.04,16.493,4.533,15.867,4.533L15.867,4.533z
		 M15.867,4.533"/>
</g>
</svg>
