<?xml version="1.0" encoding="utf-8"?>
<!-- Generator: Adobe Illustrator 16.0.0, SVG Export Plug-In . SVG Version: 6.00 Build 0)  -->
<!DOCTYPE svg PUBLIC "-//W3C//DTD SVG 1.1//EN" "http://www.w3.org/Graphics/SVG/1.1/DTD/svg11.dtd">
<svg version="1.1" id="图层_1" xmlns="http://www.w3.org/2000/svg" xmlns:xlink="http://www.w3.org/1999/xlink" x="0px" y="0px"
	 width="19.214px" height="19.333px" viewBox="6.387 6.335 19.214 19.333" enable-background="new 6.387 6.335 19.214 19.333"
	 xml:space="preserve">
<path fill="#5D5D5D" d="M25.406,6.488c-0.161-0.146-0.396-0.194-0.604-0.117L7.655,12.638c-0.653,0.261-1.116,0.831-1.238,1.525
	c-0.12,0.692,0.126,1.39,0.663,1.867l4.313,3.574l-0.269,5.439c-0.012,0.244,0.13,0.475,0.354,0.573
	c0.078,0.032,0.158,0.051,0.239,0.051c0.155,0,0.309-0.063,0.42-0.175l2.372-2.372c0.23-0.231,0.23-0.608-0.001-0.839
	c-0.225-0.226-0.613-0.224-0.838,0l-1.284,1.284l0.148-3.016l5.414,4.486c0.369,0.329,0.845,0.511,1.336,0.511
	c0.878,0,1.652-0.57,1.931-1.431l4.366-17.044C25.639,6.861,25.57,6.636,25.406,6.488z M22.644,8.423L12.107,18.655L7.854,15.13
	c-0.217-0.192-0.315-0.479-0.267-0.764c0.049-0.281,0.239-0.521,0.492-0.621L22.644,8.423z M23.901,8.854l-3.824,14.935
	c-0.128,0.396-0.49,0.572-0.793,0.572c-0.206,0-0.395-0.072-0.563-0.224l-5.695-4.72L23.901,8.854z"/>
</svg>
