<?xml version="1.0" encoding="utf-8"?>
<!-- Generator: Adobe Illustrator 22.0.0, SVG Export Plug-In . SVG Version: 6.00 Build 0)  -->
<svg version="1.1" id="图层_1" xmlns="http://www.w3.org/2000/svg" xmlns:xlink="http://www.w3.org/1999/xlink" x="0px" y="0px"
	 width="12px" height="12px" viewBox="0 0 12 12" enable-background="new 0 0 12 12" xml:space="preserve">
<g>
	<path fill="#FFFFFF" d="M5.583,7.85c-0.247,0-0.431-0.183-0.463-0.43L5.012,6.495C4.97,6.204,5.142,5.989,5.432,5.957
		C6.443,5.86,7.003,5.473,7.003,4.795V4.774c0-0.603-0.463-1.022-1.237-1.022c-0.57,0-1.033,0.205-1.463,0.592
		C4.195,4.43,4.055,4.494,3.904,4.494c-0.333,0-0.602-0.269-0.602-0.592c0-0.161,0.064-0.333,0.215-0.463
		c0.57-0.538,1.291-0.893,2.281-0.893c1.506,0,2.528,0.839,2.528,2.184v0.021c0,1.356-0.979,1.969-2.173,2.173L6.11,7.42
		C6.067,7.657,5.895,7.85,5.647,7.85H5.583z M5.583,8.636c0.441,0,0.764,0.322,0.764,0.742v0.108c0,0.42-0.323,0.742-0.764,0.742
		c-0.441,0-0.764-0.323-0.764-0.742V9.378C4.819,8.959,5.142,8.636,5.583,8.636z"/>
</g>
</svg>
