<?xml version="1.0" encoding="utf-8"?>
<!-- Generator: Adobe Illustrator 16.0.0, SVG Export Plug-In . SVG Version: 6.00 Build 0)  -->
<!DOCTYPE svg PUBLIC "-//W3C//DTD SVG 1.1//EN" "http://www.w3.org/Graphics/SVG/1.1/DTD/svg11.dtd">
<svg version="1.1" id="图层_1" xmlns="http://www.w3.org/2000/svg" xmlns:xlink="http://www.w3.org/1999/xlink" x="0px" y="0px"
	 width="20px" height="20px" viewBox="0 0 20 20" enable-background="new 0 0 20 20" xml:space="preserve">
<g>
	<path fill="#18BF7A" d="M10.246,14.347c-0.63,0.171-1.3,0.264-1.998,0.264c-0.853,0-1.666-0.138-2.412-0.39
		c-0.3,0.189-2.043,1.24-2.043,1.24s0.33-1.669,0.417-2.037c-1.505-1.007-2.47-2.565-2.47-4.311c0-3.036,2.913-5.498,6.507-5.498
		c3.559,0,6.451,2.414,6.504,5.411c0.361,0.013,0.73,0.067,1.099,0.162V9.113c0-0.914-0.211-1.799-0.627-2.631
		c-0.395-0.789-0.957-1.494-1.669-2.095c-0.697-0.591-1.509-1.053-2.408-1.375c-0.92-0.33-1.898-0.496-2.902-0.496
		c-1.002,0-1.981,0.167-2.902,0.496C4.444,3.334,3.635,3.797,2.935,4.388C2.223,4.99,1.662,5.694,1.268,6.482
		C0.85,7.314,0.64,8.199,0.64,9.113c0,0.529,0.073,1.058,0.215,1.566c0.137,0.492,0.343,0.972,0.605,1.424
		c0.257,0.438,0.571,0.852,0.934,1.231c0.185,0.194,0.384,0.377,0.594,0.551c-0.116,0.568-0.251,1.252-0.274,1.364
		c-0.084,0.428,0.091,0.863,0.446,1.113c0.189,0.132,0.411,0.199,0.631,0.199c0.196,0,0.393-0.052,0.568-0.156
		c0.054-0.033,1.025-0.617,1.632-0.986c0.726,0.196,1.484,0.293,2.256,0.293c0.779,0,1.549-0.102,2.286-0.303
		c0.124-0.034,0.248-0.071,0.37-0.11c-0.235-0.308-0.426-0.635-0.564-0.98C10.31,14.328,10.276,14.339,10.246,14.347z"/>
	<path fill="#18BF7A" d="M15.174,15.843c-0.154-0.002-0.674-0.213-1.106-0.482c-0.451-0.28-0.776-0.638-0.912-0.502
		c-0.139,0.138,0.328,0.56,0.62,1.044c0.244,0.409,0.377,0.845,0.377,0.956c-0.002,0.564,0.451,1.021,1.013,1.023
		c0.563,0.002,1.021-0.452,1.023-1.015C16.191,16.304,15.738,15.846,15.174,15.843z"/>
	<path fill="#18BF7A" d="M18.127,12.879c-0.563,0.005-1.018,0.461-1.016,1.024c0,0.157-0.208,0.675-0.475,1.11
		c-0.276,0.453-0.631,0.78-0.495,0.916c0.14,0.14,0.559-0.33,1.04-0.624c0.407-0.25,0.841-0.386,0.95-0.386
		c0.563-0.002,1.019-0.46,1.019-1.026C19.148,13.33,18.692,12.878,18.127,12.879z"/>
	<path fill="#18BF7A" d="M14.138,10.985c0,0.563,0.456,1.02,1.019,1.02c0.154,0,0.676,0.211,1.109,0.478
		c0.451,0.282,0.777,0.636,0.913,0.5c0.14-0.14-0.33-0.561-0.623-1.042c-0.245-0.407-0.379-0.843-0.379-0.953
		c0-0.564-0.456-1.021-1.021-1.021C14.594,9.966,14.138,10.422,14.138,10.985z"/>
	<path fill="#18BF7A" d="M13.727,12.82c0.277-0.453,0.631-0.78,0.495-0.915c-0.14-0.14-0.557,0.33-1.04,0.625
		c-0.405,0.248-0.839,0.384-0.951,0.384c-0.563,0.002-1.018,0.461-1.015,1.023c0.002,0.563,0.458,1.019,1.021,1.016
		c0.563-0.003,1.017-0.458,1.015-1.021C13.252,13.773,13.461,13.256,13.727,12.82z"/>
</g>
</svg>
