<?xml version="1.0" encoding="utf-8"?>
<!-- Generator: Adobe Illustrator 16.0.0, SVG Export Plug-In . SVG Version: 6.00 Build 0)  -->
<!DOCTYPE svg PUBLIC "-//W3C//DTD SVG 1.1//EN" "http://www.w3.org/Graphics/SVG/1.1/DTD/svg11.dtd">
<svg version="1.1" id="图层_1" xmlns="http://www.w3.org/2000/svg" xmlns:xlink="http://www.w3.org/1999/xlink" x="0px" y="0px"
	 width="14.836px" height="16.933px" viewBox="9.068 7.666 14.836 16.933" enable-background="new 9.068 7.666 14.836 16.933"
	 xml:space="preserve">
<path fill="#5D5D5D" d="M17.034,10.923h-6.014l2.301-2.291c0.108-0.107,0.167-0.25,0.167-0.402s-0.059-0.295-0.167-0.403
	c-0.217-0.214-0.59-0.214-0.807,0L9.235,11.09c-0.106,0.104-0.167,0.252-0.167,0.403c0,0.148,0.061,0.296,0.167,0.402l3.279,3.262
	c0.214,0.216,0.589,0.216,0.805,0.002c0.224-0.223,0.224-0.583,0.002-0.807l-2.301-2.291h6.014c3.159,0,5.728,2.557,5.728,5.698
	s-2.569,5.7-5.728,5.7h-6.635c-0.203,0-0.392,0.107-0.491,0.281c-0.105,0.178-0.105,0.398-0.001,0.574
	c0.101,0.175,0.289,0.281,0.492,0.281v-0.099v-0.003l0,0v0.003l0.008,0.101h6.627c3.788,0,6.87-3.068,6.87-6.839
	S20.822,10.923,17.034,10.923z"/>
</svg>
