<?xml version="1.0" encoding="utf-8"?>
<!-- Generator: Adobe Illustrator 16.0.0, SVG Export Plug-In . SVG Version: 6.00 Build 0)  -->
<!DOCTYPE svg PUBLIC "-//W3C//DTD SVG 1.1//EN" "http://www.w3.org/Graphics/SVG/1.1/DTD/svg11.dtd">
<svg version="1.1" id="图层_1" xmlns="http://www.w3.org/2000/svg" xmlns:xlink="http://www.w3.org/1999/xlink" x="0px" y="0px"
	 width="16.851px" height="17.112px" viewBox="7.476 7.446 16.851 17.112" enable-background="new 7.476 7.446 16.851 17.112"
	 xml:space="preserve">
<path fill="#5D5D5D" d="M24.039,13.808c-0.297-1.118-0.803-2.143-1.504-3.047c-0.672-0.869-1.501-1.596-2.467-2.157
	c-0.969-0.562-2.011-0.923-3.1-1.074c-1.127-0.159-2.293-0.089-3.392,0.203c-1.562,0.413-2.961,1.25-4.052,2.424l-0.38-1.431
	C9.051,8.371,8.674,8.136,8.291,8.23C7.92,8.331,7.696,8.712,7.795,9.085l0.739,2.789c0.015,0.045,0.03,0.09,0.046,0.12
	c0.027,0.06,0.063,0.113,0.106,0.162l0.004,0.056l0.086,0.028l0.028,0.021c0.066,0.05,0.14,0.084,0.213,0.103
	c0.044,0.013,0.083,0.019,0.135,0.024l2.587,0.217l0.05,0.001c0.063,0,0.127-0.007,0.184-0.022c0.285-0.074,0.492-0.322,0.518-0.617
	c0.03-0.381-0.255-0.72-0.638-0.754l-1.302-0.107c0.916-0.979,2.084-1.678,3.385-2.021c0.597-0.158,1.212-0.238,1.828-0.238
	c1.269,0,2.515,0.336,3.603,0.968c1.653,0.959,2.834,2.506,3.324,4.354c0.489,1.848,0.231,3.776-0.729,5.43
	c-0.961,1.654-2.508,2.836-4.354,3.326c-0.597,0.158-1.211,0.238-1.829,0.238c-1.268,0-2.512-0.335-3.602-0.969
	c-1.654-0.959-2.836-2.505-3.324-4.354c-0.078-0.302-0.365-0.521-0.684-0.521c-0.06,0-0.117,0.007-0.172,0.022
	c-0.367,0.098-0.592,0.479-0.5,0.853c0.297,1.115,0.803,2.142,1.506,3.047c0.674,0.872,1.504,1.599,2.469,2.159
	c0.973,0.561,2.016,0.922,3.1,1.072c0.398,0.058,0.803,0.087,1.2,0.087c0.733,0,1.471-0.097,2.19-0.289
	c1.114-0.296,2.14-0.802,3.047-1.503c0.873-0.676,1.6-1.508,2.158-2.471c0.56-0.963,0.922-2.006,1.075-3.098
	C24.401,16.066,24.334,14.927,24.039,13.808z"/>
</svg>
