<?xml version="1.0" encoding="utf-8"?>
<!-- Generator: Adobe Illustrator 23.0.1, SVG Export Plug-In . SVG Version: 6.00 Build 0)  -->
<svg version="1.1" id="图层_1" xmlns="http://www.w3.org/2000/svg" xmlns:xlink="http://www.w3.org/1999/xlink" x="0px" y="0px"
	 viewBox="0 0 17 17" style="enable-background:new 0 0 17 17;" xml:space="preserve">
<path style="fill:#00CDCD;" d="M10.6,12.4H7.2c-0.3,0-0.5-0.2-0.5-0.5s0.2-0.5,0.5-0.5h3.4c0.4,0,0.8-0.3,0.8-0.8V2.2
	c0-0.4-0.3-0.8-0.8-0.8H2.1c-0.4,0-0.8,0.3-0.8,0.8v8.4c0,0.4,0.3,0.8,0.8,0.8h1.6c0.3,0,0.5,0.2,0.5,0.5S4,12.4,3.7,12.4H2.1
	c-1,0-1.8-0.8-1.8-1.8V2.2c0-1,0.8-1.8,1.8-1.8h8.6c1,0,1.8,0.8,1.8,1.8v8.4C12.4,11.6,11.6,12.4,10.6,12.4z"/>
<path style="fill:#00CDCD;" d="M14.9,16.6H6.7c-1,0-1.8-0.8-1.8-1.8V6.7c0-1,0.8-1.8,1.8-1.8h3.3c0.3,0,0.5,0.2,0.5,0.5
	s-0.2,0.5-0.5,0.5H6.7c-0.4,0-0.8,0.3-0.8,0.8v8.1c0,0.4,0.3,0.8,0.8,0.8h8.3c0.4,0,0.8-0.3,0.8-0.8V6.7c0-0.4-0.3-0.8-0.8-0.8h-1.4
	c-0.3,0-0.5-0.2-0.5-0.5s0.2-0.5,0.5-0.5h1.4c1,0,1.8,0.8,1.8,1.8v8.1C16.7,15.8,15.9,16.6,14.9,16.6z"/>
</svg>
