<?xml version="1.0" encoding="utf-8"?>
<!-- Generator: Adobe Illustrator 22.0.0, SVG Export Plug-In . SVG Version: 6.00 Build 0)  -->
<svg version="1.1" id="隔离模式" xmlns="http://www.w3.org/2000/svg" xmlns:xlink="http://www.w3.org/1999/xlink" x="0px"
	 y="0px" width="12px" height="12px" viewBox="0 0 12 12" enable-background="new 0 0 12 12" xml:space="preserve">
<path fill="#FFFFFF" d="M9.931,3.5H9V2.569C9,1.428,8.071,0.5,6.931,0.5H2.068C0.928,0.5,0,1.428,0,2.569v3.862
	C0,7.572,0.928,8.5,2.068,8.5H3v0.932C3,10.572,3.928,11.5,5.068,11.5h4.862C11.071,11.5,12,10.572,12,9.431V5.569
	C12,4.428,11.071,3.5,9.931,3.5z M10,9.431C10,9.469,9.969,9.5,9.931,9.5L5,9.431L5.016,8.5L5,9.431l0.051-3.267h0.005l0.012-0.664
	L6,5.514V3.5H5.068C3.928,3.5,3,4.428,3,5.569v0.876L2,6.431L2.068,2.5L7,2.569v0.492V3.5v2.027v0.533v0.371
	C7,6.469,6.969,6.5,6.931,6.5L6.051,6.488V8.5h0.879C8.071,8.5,9,7.572,9,6.431V5.555l1,0.014V9.431z"/>
</svg>
