<?xml version="1.0" encoding="utf-8"?>
<!-- Generator: Adobe Illustrator 22.0.0, SVG Export Plug-In . SVG Version: 6.00 Build 0)  -->
<svg version="1.1" id="图层_1" xmlns="http://www.w3.org/2000/svg" xmlns:xlink="http://www.w3.org/1999/xlink" x="0px" y="0px"
	 width="20px" height="20px" viewBox="0 0 20 20" enable-background="new 0 0 20 20" xml:space="preserve">
<path fill="#B0B0B0" d="M12.279,4.468l3.32,0.612C15.832,5.123,16,5.321,16,5.551c0,0.219-0.183,0.397-0.408,0.397H4.408
	C4.183,5.948,4,5.77,4,5.551C4,5.32,4.168,5.123,4.401,5.08l3.32-0.613c0.131-0.024,0.236-0.132,0.268-0.275l0.162-0.731
	C8.211,3.192,8.455,3,8.738,3h2.52c0.282,0,0.525,0.191,0.586,0.458l0.167,0.737C12.042,4.337,12.149,4.444,12.279,4.468
	L12.279,4.468z M13.845,6.684c0.168,0,0.329,0.069,0.443,0.189c0.114,0.121,0.17,0.282,0.155,0.445l-0.83,9.149
	C13.585,16.769,13.325,17,13.014,17H6.987c-0.311,0-0.57-0.231-0.598-0.532L5.558,7.319C5.543,7.156,5.599,6.995,5.713,6.874
	c0.114-0.121,0.274-0.189,0.442-0.189H13.845z M13.845,6.684"/>
</svg>
