<?xml version="1.0" encoding="utf-8"?>
<!-- Generator: Adobe Illustrator 16.0.0, SVG Export Plug-In . SVG Version: 6.00 Build 0)  -->
<!DOCTYPE svg PUBLIC "-//W3C//DTD SVG 1.1//EN" "http://www.w3.org/Graphics/SVG/1.1/DTD/svg11.dtd">
<svg version="1.1" id="图层_1" xmlns="http://www.w3.org/2000/svg" xmlns:xlink="http://www.w3.org/1999/xlink" x="0px" y="0px"
	 width="22.67px" height="20.032px" viewBox="4.665 5.984 22.67 20.032" enable-background="new 4.665 5.984 22.67 20.032"
	 xml:space="preserve">
<g>
	<g>
		<path fill="#5D5D5D" d="M25.516,19.124l0.875-0.436c0.328-0.15,0.717-0.014,0.876,0.312c0.159,0.323,0.032,0.716-0.284,0.885
			l-2.869,1.429c-0.185,0.092-0.4,0.093-0.586,0.003s-0.318-0.261-0.361-0.46l-0.6-2.792c-0.061-0.236,0.014-0.486,0.191-0.652
			c0.179-0.166,0.436-0.221,0.666-0.145c0.229,0.078,0.4,0.275,0.443,0.517l0.269,1.249c0.36-0.97,0.544-1.997,0.543-3.032
			c0-4.794-3.876-8.681-8.656-8.681c-1.831,0-3.578,0.571-5.034,1.618c-0.144,0.104-0.322,0.146-0.496,0.116
			c-0.175-0.028-0.33-0.126-0.433-0.271c-0.215-0.3-0.146-0.716,0.153-0.932c1.69-1.218,3.724-1.87,5.809-1.868
			c5.518,0,9.989,4.483,9.989,10.016C26.01,17.077,25.842,18.128,25.516,19.124L25.516,19.124z M7.955,12.851
			c-0.39,1.006-0.59,2.072-0.588,3.149c0,4.795,3.875,8.681,8.655,8.681c1.938,0.004,3.822-0.648,5.343-1.85
			c0.139-0.11,0.314-0.16,0.49-0.139c0.175,0.021,0.336,0.109,0.443,0.25c0.229,0.289,0.179,0.709-0.11,0.937
			c-1.755,1.388-3.929,2.141-6.166,2.138c-5.515,0-9.987-4.482-9.987-10.017c0-1.326,0.26-2.613,0.748-3.806L5.61,12.777
			c-0.327,0.148-0.717,0.011-0.876-0.313c-0.16-0.323-0.033-0.715,0.284-0.885l2.868-1.427c0.185-0.093,0.4-0.095,0.586-0.004
			c0.186,0.09,0.318,0.26,0.361,0.461L9.436,13.4c0.061,0.235-0.016,0.485-0.193,0.651s-0.435,0.222-0.664,0.145
			c-0.23-0.078-0.402-0.275-0.445-0.517L7.955,12.851z"/>
	</g>
</g>
</svg>
