<?xml version="1.0" encoding="utf-8"?>
<!-- Generator: Adobe Illustrator 16.0.0, SVG Export Plug-In . SVG Version: 6.00 Build 0)  -->
<!DOCTYPE svg PUBLIC "-//W3C//DTD SVG 1.1//EN" "http://www.w3.org/Graphics/SVG/1.1/DTD/svg11.dtd">
<svg version="1.1" id="图层_1" xmlns="http://www.w3.org/2000/svg" xmlns:xlink="http://www.w3.org/1999/xlink" x="0px" y="0px"
	 width="18.081px" height="19.068px" viewBox="5.667 7.431 18.081 19.068" enable-background="new 5.667 7.431 18.081 19.068"
	 xml:space="preserve">
<path fill="#5D5D5D" d="M23.705,17.123c-0.154-1.063-0.714-2.003-1.573-2.647l-0.164-0.123l0.855-1.144
	c1.194-1.597,0.864-3.867-0.73-5.06c-0.772-0.578-1.731-0.814-2.682-0.683c-0.956,0.142-1.802,0.642-2.379,1.412l-0.854,1.144
	l-0.164-0.123c-0.859-0.644-1.916-0.916-2.984-0.76c-1.063,0.152-2.004,0.713-2.649,1.573l-4.586,6.134
	c-0.211,0.282-0.153,0.685,0.127,0.896l11.545,8.63c0.114,0.086,0.249,0.127,0.382,0.127c0.195,0,0.387-0.089,0.514-0.256
	l4.586-6.133C23.592,19.247,23.859,18.187,23.705,17.123z M10.814,20.194l2.029-2.713c0.079-0.106,0.113-0.236,0.092-0.367
	c-0.016-0.131-0.086-0.246-0.191-0.326c-0.105-0.078-0.232-0.114-0.367-0.094c-0.131,0.019-0.245,0.088-0.324,0.194l-2.029,2.714
	l-3.262-2.438l3.391-4.536l11.019,8.236l-3.394,4.537l-3.364-2.517l2.03-2.714c0.078-0.104,0.111-0.234,0.094-0.365
	c-0.02-0.132-0.088-0.246-0.194-0.326s-0.239-0.115-0.366-0.095c-0.131,0.019-0.246,0.089-0.324,0.194l-2.029,2.713l-0.982-0.734
	l-0.034,0.046l-0.001-0.001l-0.701-0.524l-0.002-0.002l0.032-0.044L10.814,20.194z M22.171,19.528l-0.407,0.543l-11.015-8.235
	l0.405-0.544c1.009-1.348,2.929-1.627,4.279-0.618l6.118,4.575C22.9,16.259,23.18,18.179,22.171,19.528z M16.988,10.592l0.836-1.118
	c0.419-0.562,1.033-0.924,1.729-1.025c0.692-0.102,1.385,0.076,1.945,0.494c1.158,0.867,1.396,2.515,0.531,3.674l-0.836,1.119
	L16.988,10.592z"/>
</svg>
