<?xml version="1.0" encoding="utf-8"?>
<!-- Generator: Adobe Illustrator 22.0.0, SVG Export Plug-In . SVG Version: 6.00 Build 0)  -->
<svg version="1.1" id="图层_1" xmlns="http://www.w3.org/2000/svg" xmlns:xlink="http://www.w3.org/1999/xlink" x="0px" y="0px"
	 width="20px" height="17px" viewBox="0 0 20 17" style="enable-background:new 0 0 20 17;" xml:space="preserve">
<g>
	<path d="M15.3,4.1c-0.1,0-0.1,0-0.2,0C14.5,1.7,12.4,0,10,0C7.8,0,5.9,1.4,5.1,3.4c-0.1,0-0.3,0-0.4,0C2.1,3.4,0,5.5,0,8.2
		c0,2.6,1.9,4.6,4.4,4.8h7.1l2.1-2.5c0.4-0.5,1-0.7,1.6-0.7l0,0l0,0c0.6,0,1.2,0.3,1.6,0.7l1.5,1.7c1.1-0.7,1.8-1.9,1.8-3.3
		c0,0,0,0,0-0.1C20,6.3,17.9,4.1,15.3,4.1z"/>
	<path d="M15.6,12.6c-0.1-0.1-0.3-0.2-0.5-0.2s-0.4,0.1-0.4,0.2l-3.1,3.8c0,0.1-0.1,0.1-0.1,0.2s0,0.1,0.1,0.2
		c0.1,0.1,0.3,0.2,0.5,0.2h6.3c0.2,0,0.4-0.1,0.5-0.2c0.1-0.1,0.1-0.3,0-0.4L15.6,12.6z"/>
</g>
</svg>
