<?xml version="1.0" encoding="utf-8"?>
<!-- Generator: Adobe Illustrator 22.0.0, SVG Export Plug-In . SVG Version: 6.00 Build 0)  -->
<svg version="1.1" id="图层_1" xmlns="http://www.w3.org/2000/svg" xmlns:xlink="http://www.w3.org/1999/xlink" x="0px" y="0px"
	 width="16px" height="16px" viewBox="0 0 16 16" enable-background="new 0 0 16 16" xml:space="preserve">
<g>
	<path fill="#FFFFFF" d="M14.232,0.5h-0.35v6.149c0,1.456-1.189,2.641-2.651,2.641H5.278c-1.462,0-2.651-1.185-2.651-2.641V0.5
		H1.768C0.792,0.5,0,1.288,0,2.261v11.478C0,14.712,0.792,15.5,1.768,15.5h12.464c0.976,0,1.768-0.788,1.768-1.761V2.261
		C16,1.288,15.209,0.5,14.232,0.5z"/>
	<path fill="#FFFFFF" d="M5.278,7.415h5.953C11.655,7.415,12,7.071,12,6.649V0.5H4.509v6.149C4.509,7.071,4.854,7.415,5.278,7.415z
		 M8.862,3.02c0-0.518,0.421-0.937,0.941-0.937c0.52,0,0.941,0.42,0.941,0.937v1.875c0,0.518-0.421,0.937-0.941,0.937
		c-0.52,0-0.941-0.42-0.941-0.937V3.02z"/>
</g>
</svg>
