<?xml version="1.0" encoding="utf-8"?>
<!-- Generator: Adobe Illustrator 16.0.0, SVG Export Plug-In . SVG Version: 6.00 Build 0)  -->
<!DOCTYPE svg PUBLIC "-//W3C//DTD SVG 1.1//EN" "http://www.w3.org/Graphics/SVG/1.1/DTD/svg11.dtd">
<svg version="1.1" id="图层_1" xmlns="http://www.w3.org/2000/svg" xmlns:xlink="http://www.w3.org/1999/xlink" x="0px" y="0px"
	 width="18.639px" height="17.991px" viewBox="6.562 6.906 18.639 17.991" enable-background="new 6.562 6.906 18.639 17.991"
	 xml:space="preserve">
<g>
	<path fill="#5D5D5D" d="M14.084,18.872h1.398v1.58c0,0.418,0.223,0.667,0.596,0.667c0.371,0,0.594-0.249,0.595-0.667v-1.58h1.432
		c0.394,0,0.629-0.209,0.629-0.559c0-0.373-0.235-0.595-0.629-0.595h-1.432V16.14c0-0.418-0.223-0.668-0.594-0.668
		c-0.338,0-0.561,0.229-0.596,0.631v1.617h-1.381c-0.256-0.019-0.435,0.038-0.558,0.17c-0.1,0.11-0.143,0.26-0.127,0.424
		C13.417,18.444,13.466,18.872,14.084,18.872z"/>
	<path fill="#5D5D5D" d="M23.383,8.604h-7.49c-0.808,0-1.201-0.399-1.619-0.826c-0.422-0.428-0.859-0.872-1.718-0.872H8.378
		c-1.07,0-1.816,0.894-1.816,2.53v14.355c0,0.305,0.808,1.105,1.816,1.105h15.005c0.978,0,1.818-0.803,1.818-1.105V11.048
		C25.142,9.405,24.444,8.604,23.383,8.604z M24.125,12.874v10.102c0,0.357-0.283,0.742-0.742,0.742H8.378
		c-0.355,0-0.74-0.283-0.74-0.742V12.874H24.125z M24.147,10.423v1.373H7.638V8.724c0-0.354,0.283-0.74,0.74-0.74h4.178
		c0.519,0,0.816,0.31,1.158,0.666c0.462,0.484,0.988,1.033,2.179,1.033h7.51C23.761,9.683,24.147,9.966,24.147,10.423z"/>
</g>
</svg>
