<?xml version="1.0" encoding="utf-8"?>
<!-- Generator: Adobe Illustrator 16.0.0, SVG Export Plug-In . SVG Version: 6.00 Build 0)  -->
<!DOCTYPE svg PUBLIC "-//W3C//DTD SVG 1.1//EN" "http://www.w3.org/Graphics/SVG/1.1/DTD/svg11.dtd">
<svg version="1.1" id="图层_1" xmlns="http://www.w3.org/2000/svg" xmlns:xlink="http://www.w3.org/1999/xlink" x="0px" y="0px"
	 width="19.859px" height="18.698px" viewBox="5.988 7.243 19.859 18.698" enable-background="new 5.988 7.243 19.859 18.698"
	 xml:space="preserve">
<g>
	<path fill="#5D5D5D" d="M25.094,16.011l-9.146,4.661l-9.209-4.646c-0.242-0.139-0.549-0.055-0.686,0.189
		C5.917,16.457,6,16.764,6.241,16.901l9.458,4.787c0.161,0.091,0.35,0.083,0.5-0.003c0.004-0.002,0.008-0.003,0.012-0.004
		l9.383-4.795c0.24-0.137,0.324-0.444,0.188-0.688C25.643,15.958,25.336,15.874,25.094,16.011z"/>
	<path fill="#5D5D5D" d="M25.094,20.199l-9.146,4.66l-9.209-4.646c-0.242-0.139-0.549-0.055-0.686,0.188
		C5.917,20.645,6,20.951,6.241,21.089l9.458,4.787c0.161,0.091,0.35,0.083,0.5-0.003c0.004-0.002,0.008-0.003,0.012-0.004
		l9.383-4.795c0.24-0.137,0.324-0.444,0.188-0.688C25.643,20.145,25.336,20.061,25.094,20.199z"/>
	<polygon fill="#5D5D5D" points="22.113,19.023 22.111,19.027 22.121,19.021 22.119,19.015 	"/>
	<path fill="#5D5D5D" d="M15.698,17.801c0.162,0.093,0.35,0.084,0.5-0.002c0.004-0.002,0.008-0.004,0.012-0.006l9.382-4.796
		c0.164-0.094,0.254-0.268,0.252-0.443c0.002-0.178-0.088-0.35-0.252-0.443l-9.382-4.793c-0.004-0.003-0.008-0.003-0.012-0.006
		c-0.15-0.087-0.338-0.095-0.5-0.004l-9.459,4.787c-0.168,0.098-0.258,0.275-0.25,0.459c-0.008,0.182,0.082,0.361,0.25,0.458
		L15.698,17.801z M15.946,8.322l8.392,4.231l-8.392,4.234l-8.481-4.234L15.946,8.322z"/>
</g>
</svg>
