<?xml version="1.0" encoding="utf-8"?>
<!-- Generator: Adobe Illustrator 16.0.0, SVG Export Plug-In . SVG Version: 6.00 Build 0)  -->
<!DOCTYPE svg PUBLIC "-//W3C//DTD SVG 1.1//EN" "http://www.w3.org/Graphics/SVG/1.1/DTD/svg11.dtd">
<svg version="1.1" id="图层_1" xmlns="http://www.w3.org/2000/svg" xmlns:xlink="http://www.w3.org/1999/xlink" x="0px" y="0px"
	 width="15.662px" height="18.596px" viewBox="7.821 7.101 15.662 18.596" enable-background="new 7.821 7.101 15.662 18.596"
	 xml:space="preserve">
<path fill="#5D5D5D" d="M23.471,10.562l-0.008-0.051l0.002-0.015c0.002-0.007,0.004-0.012,0.006-0.024
	c0.004-0.039,0.01-0.079,0.01-0.119c0-0.121-0.045-0.235-0.131-0.324c-0.658-1.725-3.814-2.928-7.697-2.928c0,0,0,0-0.002,0
	c0,0,0,0-0.002,0c-3.881,0-7.039,1.203-7.696,2.928c-0.085,0.089-0.132,0.203-0.132,0.324c0,0.04,0.007,0.08,0.012,0.119
	c0.002,0.012,0.003,0.017,0.005,0.024l0.002,0.015l-0.006,0.051c-0.006,0.039-0.013,0.079-0.013,0.119v11.435
	c0,1.566,2.095,2.862,5.096,3.359v0.006l0.09,0.016c0.039,0.006,0.081,0.008,0.12,0.014c0.351,0.053,0.713,0.095,1.086,0.125
	c0.076,0.007,0.151,0.011,0.229,0.017c0.394,0.026,0.795,0.045,1.209,0.045c0,0,0,0,0.002,0c0,0,0,0,0.002,0
	c0.412,0,0.814-0.019,1.208-0.045c0.076-0.005,0.152-0.009,0.229-0.017c0.373-0.029,0.736-0.072,1.086-0.125
	c0.039-0.006,0.082-0.008,0.121-0.014l0.09-0.016v-0.006c3-0.497,5.094-1.793,5.094-3.359V10.681
	C23.482,10.641,23.477,10.601,23.471,10.562z M10.008,9.223c0.002-0.002,0.006-0.005,0.01-0.007
	c0.074-0.042,0.157-0.082,0.237-0.122c0.05-0.024,0.095-0.05,0.146-0.074c0.037-0.018,0.08-0.033,0.117-0.05
	c0.653-0.292,1.471-0.538,2.428-0.701c0.011-0.002,0.021-0.003,0.033-0.005c0.19-0.032,0.389-0.063,0.59-0.087
	c0.645-0.081,1.342-0.125,2.082-0.125c0.742,0,1.439,0.045,2.082,0.125c0.203,0.026,0.4,0.055,0.592,0.087
	c0.012,0.002,0.021,0.003,0.033,0.005c0.957,0.164,1.773,0.41,2.428,0.701c0.037,0.017,0.08,0.033,0.115,0.05
	c0.053,0.024,0.098,0.05,0.146,0.074c0.08,0.04,0.164,0.08,0.238,0.122c0.004,0.002,0.008,0.005,0.012,0.007
	c0.703,0.398,1.127,0.854,1.211,1.298c-0.234,1.188-2.912,2.46-6.855,2.461c-3.944,0-6.621-1.273-6.855-2.461
	C8.88,10.076,9.305,9.621,10.008,9.223z M8.772,12.089c1.346,1.14,3.944,1.843,6.877,1.843c0,0,0,0,0.002,0c0,0,0,0,0.002,0
	c2.933,0,5.531-0.703,6.876-1.843v2.198c-0.002,0.078-0.014,0.155-0.033,0.233c-0.334,1.162-2.998,2.354-6.726,2.38
	c-0.041,0-0.08,0.002-0.119,0.002c-0.041,0-0.078-0.002-0.119-0.002c-3.729-0.025-6.393-1.218-6.727-2.38
	c-0.021-0.078-0.033-0.156-0.033-0.233V12.089z M22.531,16.011v2.196c-0.018,0.974-1.758,2.026-4.453,2.437
	c-0.332,0.05-0.672,0.093-1.021,0.122c-0.063,0.005-0.127,0.007-0.189,0.012c-0.396,0.027-0.8,0.046-1.216,0.046
	c-0.414,0-0.817-0.019-1.215-0.046c-0.063-0.005-0.129-0.007-0.189-0.012c-0.352-0.029-0.689-0.072-1.021-0.122
	c-2.695-0.411-4.436-1.463-4.451-2.437v-2.196c1.346,1.136,3.943,1.836,6.877,1.836c0,0,0,0,0.002,0c0,0,0,0,0.002,0
	C18.588,17.848,21.186,17.146,22.531,16.011z M22.533,22.114c-0.002,0.984-1.775,2.056-4.523,2.461
	c-0.314,0.044-0.633,0.085-0.961,0.112c-0.059,0.005-0.119,0.007-0.178,0.012c-0.4,0.028-0.806,0.047-1.22,0.047
	c-0.416,0-0.82-0.02-1.221-0.047c-0.06-0.004-0.119-0.007-0.178-0.012c-0.329-0.026-0.646-0.066-0.962-0.112
	c-2.748-0.405-4.521-1.477-4.521-2.461v-1.521h0.002v-0.666c0.904,0.768,2.383,1.33,4.144,1.619v0.01l0.09,0.013
	c0.07,0.011,0.146,0.015,0.218,0.024c0.258,0.037,0.521,0.067,0.788,0.093c0.142,0.013,0.28,0.028,0.425,0.039
	c0.396,0.026,0.801,0.044,1.213,0.044c0.002,0,0.002,0,0.002,0c0.002,0,0.002,0,0.002,0c0.414,0,0.816-0.018,1.214-0.044
	c0.145-0.011,0.281-0.025,0.424-0.039c0.27-0.025,0.531-0.056,0.789-0.093c0.07-0.01,0.146-0.014,0.217-0.024l0.09-0.013v-0.01
	c1.76-0.291,3.238-0.852,4.145-1.619v0.666h0.002V22.114z"/>
</svg>
