<?xml version="1.0" encoding="utf-8"?>
<!-- Generator: Adobe Illustrator 16.0.0, SVG Export Plug-In . SVG Version: 6.00 Build 0)  -->
<!DOCTYPE svg PUBLIC "-//W3C//DTD SVG 1.1//EN" "http://www.w3.org/Graphics/SVG/1.1/DTD/svg11.dtd">
<svg version="1.1" id="图层_1" xmlns="http://www.w3.org/2000/svg" xmlns:xlink="http://www.w3.org/1999/xlink" x="0px" y="0px"
	 width="20px" height="20px" viewBox="0 0 20 20" enable-background="new 0 0 20 20" xml:space="preserve">
<g>
	<g>
		<path fill="#5C5D5D" d="M17.05,16.152l-2.987-2.988c0.902-1.085,1.445-2.479,1.445-4.001c0-3.457-2.803-6.259-6.259-6.259
			c-3.458,0-6.26,2.802-6.26,6.259s2.802,6.26,6.26,6.26c1.538,0,2.946-0.555,4.036-1.475l2.985,2.985
			c0.107,0.107,0.248,0.161,0.39,0.161s0.283-0.054,0.391-0.161C17.266,16.718,17.266,16.368,17.05,16.152L17.05,16.152z
			 M9.249,14.318c-0.697,0-1.372-0.136-2.007-0.404c-0.613-0.26-1.165-0.632-1.639-1.105c-0.474-0.474-0.846-1.024-1.105-1.639
			c-0.269-0.635-0.405-1.31-0.405-2.007c0-0.696,0.136-1.371,0.405-2.006c0.26-0.613,0.632-1.165,1.105-1.639
			c0.474-0.475,1.025-0.847,1.639-1.105c0.635-0.27,1.31-0.405,2.007-0.405c0.696,0,1.371,0.136,2.006,0.405
			c0.613,0.259,1.164,0.631,1.639,1.105c0.474,0.474,0.846,1.024,1.105,1.639c0.268,0.635,0.404,1.31,0.404,2.006
			c0,0.697-0.137,1.372-0.404,2.007c-0.26,0.613-0.632,1.165-1.105,1.639c-0.475,0.474-1.025,0.846-1.639,1.105
			C10.619,14.183,9.945,14.318,9.249,14.318L9.249,14.318z M9.249,14.318"/>
	</g>
</g>
</svg>
