<?xml version="1.0" encoding="utf-8"?>
<!-- Generator: Adobe Illustrator 22.0.0, SVG Export Plug-In . SVG Version: 6.00 Build 0)  -->
<svg version="1.1" id="图层_1" xmlns="http://www.w3.org/2000/svg" xmlns:xlink="http://www.w3.org/1999/xlink" x="0px" y="0px"
	 width="20px" height="20px" viewBox="0 0 20 20" enable-background="new 0 0 20 20" xml:space="preserve">
<g>
	<path d="M13.104,8.359L10.723,5.62c-0.369-0.425-1.029-0.425-1.399,0L6.943,8.359l-1.746,2.009c-0.521,0.6-0.095,1.535,0.699,1.535
		h1.578v4.17c0,0.512,0.415,0.927,0.927,0.927h3.243c0.512,0,0.927-0.415,0.927-0.927v-4.17h1.578c0.795,0,1.221-0.935,0.699-1.535
		L13.104,8.359z"/>
	<path d="M15.725,2.999H4.322c-0.436,0-0.79,0.354-0.79,0.79s0.354,0.79,0.79,0.79h11.403c0.436,0,0.79-0.354,0.79-0.79
		C16.516,3.353,16.162,2.999,15.725,2.999z"/>
</g>
</svg>
