<?xml version="1.0" encoding="utf-8"?>
<!-- Generator: Adobe Illustrator 21.0.0, SVG Export Plug-In . SVG Version: 6.00 Build 0)  -->
<svg version="1.1" id="图层_1" xmlns="http://www.w3.org/2000/svg" xmlns:xlink="http://www.w3.org/1999/xlink" x="0px" y="0px"
	 viewBox="0 0 20 20" style="enable-background:new 0 0 20 20;" xml:space="preserve">
<path d="M14.3,11.9L13,10.6V4.5h0.8V4.2c0-0.6-0.5-1.2-1.2-1.2H7.4C6.7,3,6.2,3.5,6.2,4.2v0.4H7v6.1l-1.3,1.3
	c-0.1,0.1-0.2,0.3-0.2,0.5v0.5c0,0.4,0.3,0.7,0.7,0.7h3.2v2.5v0.7c0,0.3,0.2,0.5,0.5,0.5h0.2c0.3,0,0.5-0.2,0.5-0.5v-0.7v-2.5h3.2
	c0.4,0,0.7-0.3,0.7-0.7v-0.5C14.5,12.2,14.5,12,14.3,11.9z"/>
</svg>
