<?xml version="1.0" encoding="utf-8"?>
<!-- Generator: Adobe Illustrator 23.0.2, SVG Export Plug-In . SVG Version: 6.00 Build 0)  -->
<svg version="1.1" id="图层_1" xmlns="http://www.w3.org/2000/svg" xmlns:xlink="http://www.w3.org/1999/xlink" x="0px" y="0px"
	 width="15px" height="17.5px" viewBox="0 0 15 17.5" style="enable-background:new 0 0 15 17.5;" xml:space="preserve">
<style type="text/css">
	.st0{fill:#C3C3C3;}
	.st1{fill:#C4C3C3;}
</style>
<g>
	<path class="st0" d="M14.2,1.4H0.8c-0.4,0-0.7-0.3-0.7-0.7c0,0,0,0,0,0C0.1,0.3,0.5,0,0.8,0h13.3c0.4,0,0.7,0.3,0.7,0.7
		C14.9,1.1,14.5,1.4,14.2,1.4L14.2,1.4z"/>
	<path class="st0" d="M14.7,9.6L8.5,2.9c-0.3-0.3-0.6-0.4-1-0.4c-0.4,0-0.7,0.2-1,0.4L0.3,9.6c-0.4,0.5-0.3,0.9-0.3,1.1
		c0.1,0.2,0.3,0.6,1,0.6h2.6c0,0,0,0,0,0v4.8c0,0.8,0.6,1.4,1.4,1.4h5c0.8,0,1.4-0.6,1.4-1.4v-4.8c0,0,0,0,0,0H14
		c0.7,0,0.9-0.4,1-0.6C15,10.5,15.1,10.1,14.7,9.6z M11.4,9.9c-0.8,0-1.4,0.6-1.4,1.4v4.8c0,0,0,0,0,0H5c0,0,0,0,0,0v-4.8
		c0-0.8-0.6-1.4-1.4-1.4H1.9l0,0v0h0l5.6-6.1l5.6,6.1H11.4z"/>
</g>
</svg>
