<?xml version="1.0" encoding="utf-8"?>
<!-- Generator: Adobe Illustrator 16.0.0, SVG Export Plug-In . SVG Version: 6.00 Build 0)  -->
<!DOCTYPE svg PUBLIC "-//W3C//DTD SVG 1.1//EN" "http://www.w3.org/Graphics/SVG/1.1/DTD/svg11.dtd">
<svg version="1.1" id="图层_1" xmlns="http://www.w3.org/2000/svg" xmlns:xlink="http://www.w3.org/1999/xlink" x="0px" y="0px"
	 width="20.658px" height="16.282px" viewBox="5.793 8.288 20.658 16.282" enable-background="new 5.793 8.288 20.658 16.282"
	 xml:space="preserve">
<g>
	<path fill="#5D5D5D" d="M12.716,14.57h6.812c0.33,0,0.6-0.269,0.6-0.601c0-0.33-0.27-0.6-0.6-0.6h-6.812c-0.331,0-0.6,0.27-0.6,0.6
		C12.116,14.302,12.385,14.57,12.716,14.57z"/>
	<path fill="#5D5D5D" d="M25.852,8.288H6.393c-0.33,0-0.6,0.269-0.6,0.6c0,0.33,0.27,0.6,0.6,0.6h1.629v8.316
		c0,1.158,0.942,2.1,2.101,2.1h5.399v3.4c0,0.023,0.011,0.044,0.014,0.066h-4.163c-0.331,0-0.601,0.27-0.601,0.6
		c0,0.332,0.27,0.601,0.601,0.601h9.5c0.331,0,0.601-0.269,0.601-0.601c0-0.33-0.27-0.6-0.601-0.6h-4.163
		c0.003-0.022,0.014-0.043,0.014-0.066v-3.4h5.399c1.157,0,2.101-0.941,2.101-2.1V9.487h1.629c0.33,0,0.6-0.27,0.6-0.6
		C26.451,8.557,26.182,8.288,25.852,8.288z M23.021,17.804c0,0.496-0.403,0.9-0.899,0.9h-12c-0.496,0-0.899-0.404-0.899-0.9V9.487
		h13.799V17.804z"/>
</g>
</svg>
