<?xml version="1.0" encoding="utf-8"?>
<!-- Generator: Adobe Illustrator 22.0.0, SVG Export Plug-In . SVG Version: 6.00 Build 0)  -->
<svg version="1.1" id="图层_1" xmlns="http://www.w3.org/2000/svg" xmlns:xlink="http://www.w3.org/1999/xlink" x="0px" y="0px"
	 width="30px" height="30px" viewBox="0 0 30 30" enable-background="new 0 0 30 30" xml:space="preserve">
<path fill="#B5B5B5" d="M23.876,21.95c-0.618-0.641-1.388-1.89-1.699-4.264c-0.101-0.775-0.118-1.556-0.093-2.336
	c0.055-1.627-0.249-6.249-5.265-6.995l-0.001-1.296c-0.001-0.704-0.61-1.274-1.359-1.273c-0.75,0.001-1.356,0.573-1.355,1.277
	l0.001,1.297c-5.012,0.762-5.3,5.384-5.241,7.011c0.029,0.781,0.014,1.561-0.084,2.337c-0.303,2.376-1.069,3.626-1.687,4.267
	c-0.235,0.244-0.061,0.632,0.288,0.631l5.872-0.009l0,1.093c0.002,1.16,1.005,2.099,2.24,2.097c1.235-0.002,2.234-0.944,2.232-2.104
	l-0.001-1.092l5.866-0.009C23.94,22.581,24.112,22.193,23.876,21.95z"/>
</svg>
