<?xml version="1.0" encoding="utf-8"?>
<!-- Generator: Adobe Illustrator 23.0.2, SVG Export Plug-In . SVG Version: 6.00 Build 0)  -->
<svg version="1.1" id="图层_1" xmlns="http://www.w3.org/2000/svg" xmlns:xlink="http://www.w3.org/1999/xlink" x="0px" y="0px"
	 width="18.8px" height="23.2px" viewBox="0 0 18.8 23.2" style="enable-background:new 0 0 18.8 23.2;" xml:space="preserve">
<style type="text/css">
	.st0{fill:#999999;}
</style>
<path class="st0" d="M18.5,18c-0.6-0.6-1.3-1.9-1.6-4.4c-0.1-0.7-0.1-1.5-0.1-2.5c0-1.2-0.1-4.3-2.1-6.4c-0.9-0.9-2-1.5-3.4-1.8
	l0-0.9c0-0.5-0.2-1-0.6-1.4C10.4,0.2,9.9,0,9.4,0c0,0,0,0,0,0c-1.1,0-2,0.9-2,2l0,0.9C6,3.2,4.9,3.9,4,4.8c-2,2.1-2.1,5.2-2,6.4
	c0,0.9,0,1.7-0.1,2.5c-0.3,2.5-1,3.7-1.6,4.4c-0.3,0.3-0.3,0.7-0.2,1.1c0.2,0.4,0.5,0.6,0.9,0.6l5.5,0l0,0.6c0,1.6,1.3,2.9,2.9,2.9
	c0,0,0,0,0,0c1.6,0,2.9-1.3,2.9-2.9l0-0.6l5.5,0c0.4,0,0.8-0.2,0.9-0.6C18.8,18.7,18.8,18.3,18.5,18z M8.6,2c0-0.4,0.4-0.8,0.8-0.8
	c0.2,0,0.4,0.1,0.6,0.2c0.2,0.2,0.2,0.4,0.2,0.6l0,0.7c-0.2,0-0.4,0-0.7,0v0c0,0-0.1,0-0.1,0l0,0.6L9.3,2.7c0,0-0.1,0-0.1,0
	c-0.2,0-0.4,0-0.6,0L8.6,2z M11.1,20.3c0,0.5-0.2,0.9-0.5,1.2C10.3,21.8,9.8,22,9.4,22c0,0,0,0,0,0c-0.9,0-1.7-0.8-1.7-1.7l0-0.6
	l3.4,0L11.1,20.3z M1.4,18.5C2,17.7,2.8,16.2,3,13.8c0.1-0.8,0.1-1.7,0.1-2.7c0-1.1,0.1-3.8,1.7-5.5c1-1.1,2.5-1.7,4.4-1.7
	c0,0,0.1,0,0.1,0l0,0c0,0,0,0,0,0c0,0,0,0,0.1,0c1.9,0,3.4,0.6,4.4,1.7c1.7,1.7,1.8,4.4,1.7,5.5c0,1,0,1.9,0.1,2.7c0,0,0,0,0,0
	c0.3,2.5,1,3.9,1.7,4.7L1.4,18.5z"/>
</svg>
