<?xml version="1.0" encoding="utf-8"?>
<!-- Generator: Adobe Illustrator 16.0.0, SVG Export Plug-In . SVG Version: 6.00 Build 0)  -->
<!DOCTYPE svg PUBLIC "-//W3C//DTD SVG 1.1//EN" "http://www.w3.org/Graphics/SVG/1.1/DTD/svg11.dtd">
<svg version="1.1" id="图层_1" xmlns="http://www.w3.org/2000/svg" xmlns:xlink="http://www.w3.org/1999/xlink" x="0px" y="0px"
	 width="19.999px" height="20px" viewBox="0 0 19.999 20" enable-background="new 0 0 19.999 20" xml:space="preserve">
<g>
	<path fill="#5D5D5D" d="M16.814,5.326h-1.45l-0.479-0.607l-0.221-0.266c-0.564-0.685-0.904-1.099-1.708-1.099H7.298
		c-0.804,0-1.143,0.412-1.705,1.095L4.89,5.326H3.438C2.307,5.331,1.384,6.254,1.38,7.386v8.6c0.004,1.132,0.927,2.055,2.06,2.06
		h13.376c1.131-0.005,2.054-0.928,2.059-2.06V7.385C18.869,6.254,17.946,5.331,16.814,5.326z M2.635,7.387
		c0.001-0.443,0.362-0.805,0.805-0.805h1.522c0.449,0,0.623-0.215,0.938-0.604l0.643-0.814C6.838,4.783,6.973,4.61,7.297,4.61h5.66
		c0.317,0,0.466,0.176,0.788,0.598l0.525,0.666l0.126,0.15c0.289,0.348,0.463,0.558,0.896,0.558h1.522
		c0.443,0,0.804,0.36,0.804,0.804v8.6c0,0.442-0.36,0.804-0.804,0.804H3.439c-0.442,0-0.804-0.361-0.805-0.804V7.387z"/>
	<path fill="#5D5D5D" d="M10.126,15.168c0.523,0,1.036-0.102,1.521-0.303c1.488-0.616,2.451-2.056,2.451-3.668
		c0-2.189-1.782-3.971-3.972-3.971c-1.612,0-3.053,0.963-3.67,2.451c-0.616,1.49-0.277,3.188,0.862,4.328
		C8.068,14.755,9.064,15.168,10.126,15.168z M10.127,8.481c1.103,0,2.087,0.658,2.509,1.678c0.423,1.018,0.192,2.179-0.587,2.959
		c-0.515,0.513-1.197,0.795-1.922,0.795c-0.357,0-0.707-0.069-1.038-0.207c-1.02-0.423-1.678-1.408-1.678-2.509
		C7.413,9.702,8.632,8.483,10.127,8.481z"/>
</g>
</svg>
