<?xml version="1.0" encoding="utf-8"?>
<!-- Generator: Adobe Illustrator 16.0.0, SVG Export Plug-In . SVG Version: 6.00 Build 0)  -->
<!DOCTYPE svg PUBLIC "-//W3C//DTD SVG 1.1//EN" "http://www.w3.org/Graphics/SVG/1.1/DTD/svg11.dtd">
<svg version="1.1" id="图层_1" xmlns="http://www.w3.org/2000/svg" xmlns:xlink="http://www.w3.org/1999/xlink" x="0px" y="0px"
	 width="24px" height="24px" viewBox="0 0 24 24" enable-background="new 0 0 24 24" xml:space="preserve">
<path fill="#5C5D5D" d="M12.136,22.569c-5.789,0-10.499-4.71-10.499-10.5c0-5.792,4.709-10.503,10.499-10.503
	c5.79,0,10.5,4.711,10.5,10.503C22.636,17.859,17.926,22.569,12.136,22.569z M12.136,2.566c-5.237,0-9.499,4.263-9.499,9.503
	c0,5.238,4.261,9.5,9.499,9.5c5.238,0,9.5-4.262,9.5-9.5C21.636,6.83,17.374,2.566,12.136,2.566z"/>
<polygon fill="#5C5D5D" points="7.137,10.495 12.137,16.494 17.137,10.495 "/>
</svg>
