<?xml version="1.0" encoding="utf-8"?>
<!-- Generator: Adobe Illustrator 23.0.2, SVG Export Plug-In . SVG Version: 6.00 Build 0)  -->
<svg version="1.1" id="图层_1" xmlns="http://www.w3.org/2000/svg" xmlns:xlink="http://www.w3.org/1999/xlink" x="0px" y="0px"
	 width="20px" height="18.252px" viewBox="349.37 -130.072 20 18.252" enable-background="new 349.37 -130.072 20 18.252"
	 xml:space="preserve">
<g>
	<path fill="#606060" d="M355.404-122.651h4.737v1.467h0.723v-1.467h4.681v1.467h0.725v-7.07c0-1.005-0.814-1.818-1.819-1.818
		H351.19c-1.005,0-1.819,0.813-1.819,1.818v14.668h10.597v-1.105h-4.563v-3.616h4.563v-0.723h-4.563V-122.651z M360.865-126.99
		h4.681v3.616h-4.681V-126.99z M355.404-126.99h4.737v3.616h-4.737V-126.99z M354.681-114.691h-4.586v-3.616h4.586V-114.691z
		 M354.681-119.031h-4.586v-3.62h4.586V-119.031z M354.681-123.374h-4.586v-3.616h4.586V-123.374z"/>
	<path fill="#606060" d="M369.273-117.257c-0.564,0.074-1.167-0.219-1.491-0.782c-0.33-0.572-0.276-1.251,0.087-1.7
		c-0.498-0.462-1.096-0.817-1.76-1.031c-0.207,0.545-0.772,0.937-1.438,0.937c-0.665,0-1.231-0.392-1.438-0.937
		c-0.658,0.21-1.251,0.561-1.747,1.016c0.361,0.451,0.411,1.132,0.079,1.702c-0.326,0.561-0.931,0.852-1.493,0.777
		c-0.066,0.313-0.101,0.64-0.101,0.974c0,0.364,0.042,0.72,0.12,1.06c0.557-0.065,1.146,0.23,1.467,0.784
		c0.315,0.547,0.28,1.189-0.039,1.638c0.5,0.449,1.095,0.795,1.753,0.999c0.232-0.495,0.77-0.841,1.397-0.841
		c0.627,0,1.165,0.346,1.397,0.841c0.652-0.202,1.242-0.543,1.738-0.986c-0.313-0.449-0.346-1.093-0.029-1.638
		c0.322-0.554,0.912-0.845,1.471-0.779c0.081-0.346,0.125-0.707,0.125-1.078C369.37-116.629,369.337-116.948,369.273-117.257z
		 M364.671-114.261c-1.128,0-2.044-0.915-2.044-2.041s0.916-2.041,2.044-2.041c1.128,0,2.044,0.913,2.044,2.041
		C366.715-115.176,365.799-114.261,364.671-114.261z"/>
</g>
</svg>
