<?xml version="1.0" encoding="utf-8"?>
<!-- Generator: Adobe Illustrator 16.0.0, SVG Export Plug-In . SVG Version: 6.00 Build 0)  -->
<!DOCTYPE svg PUBLIC "-//W3C//DTD SVG 1.1//EN" "http://www.w3.org/Graphics/SVG/1.1/DTD/svg11.dtd">
<svg version="1.1" id="图层_1" xmlns="http://www.w3.org/2000/svg" xmlns:xlink="http://www.w3.org/1999/xlink" x="0px" y="0px"
	 width="20px" height="20px" viewBox="0 0 20 20" enable-background="new 0 0 20 20" xml:space="preserve">
<path fill="#5D5D5D" d="M15.872,10.556l-5.299,3.279c-0.011,0.01-0.024,0.02-0.039,0.029c-0.163,0.102-0.428,0.102-0.59,0.001
	l-5.333-3.301c-0.162-0.101-0.16-0.264,0.002-0.365c0.163-0.102,0.429-0.102,0.59-0.002l5.031,3.114l5.046-3.121
	c0.161-0.101,0.427-0.1,0.59,0.002C16.032,10.293,16.034,10.457,15.872,10.556L15.872,10.556z M15.872,10.556"/>
<path fill="#5D5D5D" d="M15.872,7.808l-5.299,3.278c-0.011,0.009-0.024,0.021-0.039,0.029c-0.163,0.101-0.428,0.103-0.59,0.001
	L4.611,7.815c-0.162-0.1-0.16-0.264,0.002-0.364c0.163-0.102,0.429-0.103,0.59-0.002l5.031,3.113L15.28,7.44
	c0.161-0.101,0.427-0.099,0.59,0.002C16.032,7.544,16.034,7.707,15.872,7.808L15.872,7.808z M15.872,7.808"/>
</svg>
