<?xml version="1.0" encoding="utf-8"?>
<!-- Generator: Adobe Illustrator 16.0.0, SVG Export Plug-In . SVG Version: 6.00 Build 0)  -->
<!DOCTYPE svg PUBLIC "-//W3C//DTD SVG 1.1//EN" "http://www.w3.org/Graphics/SVG/1.1/DTD/svg11.dtd">
<svg version="1.1" id="图层_1" xmlns="http://www.w3.org/2000/svg" xmlns:xlink="http://www.w3.org/1999/xlink" x="0px" y="0px"
	 width="19.999px" height="20px" viewBox="0 0 19.999 20" enable-background="new 0 0 19.999 20" xml:space="preserve">
<path fill="#5D5D5D" d="M15.842,8.21V8.188h-1.147V8.184h-3.097V5.454c0-1.097-0.479-2.13-1.349-2.907
	c-0.865-0.775-2.013-1.203-3.23-1.203c-1.217,0-2.364,0.428-3.231,1.203C2.918,3.326,2.439,4.358,2.439,5.454v1.258
	c0,0.336,0.301,0.61,0.671,0.61s0.671-0.274,0.671-0.61V5.454c0-1.593,1.452-2.889,3.237-2.889s3.237,1.296,3.237,2.889v2.729H6.954
	v0.004H5.936c-0.987,0.057-1.762,0.877-1.762,1.867v7.129c0,1.031,0.839,1.871,1.87,1.871h9.479c1.031,0,1.871-0.84,1.871-1.871
	v-7.129C17.394,9.133,16.707,8.337,15.842,8.21z M16.084,17.184c0,0.27-0.215,0.56-0.562,0.56H6.044c-0.27,0-0.561-0.214-0.561-0.56
	v-7.129c0-0.271,0.214-0.562,0.561-0.562h9.479c0.271,0,0.562,0.215,0.562,0.562V17.184z"/>
</svg>
