<?xml version="1.0" encoding="utf-8"?>
<!-- Generator: Adobe Illustrator 16.0.0, SVG Export Plug-In . SVG Version: 6.00 Build 0)  -->
<!DOCTYPE svg PUBLIC "-//W3C//DTD SVG 1.1//EN" "http://www.w3.org/Graphics/SVG/1.1/DTD/svg11.dtd">
<svg version="1.1" id="图层_1" xmlns="http://www.w3.org/2000/svg" xmlns:xlink="http://www.w3.org/1999/xlink" x="0px" y="0px"
	 width="19.999px" height="20px" viewBox="0 0 19.999 20" enable-background="new 0 0 19.999 20" xml:space="preserve">
<g>
	<circle fill="#5D5D5D" cx="5.855" cy="9.998" r="0.956"/>
	<circle fill="#5D5D5D" cx="9.902" cy="9.998" r="0.956"/>
	<circle fill="#5D5D5D" cx="13.949" cy="9.998" r="0.956"/>
	<path fill="#5D5D5D" d="M16.916,3.209H3.017c-1.009,0-1.829,0.82-1.829,1.829v9.9c0,1.009,0.82,1.829,1.829,1.829h13.899
		c1.009,0,1.829-0.82,1.829-1.829v-9.9C18.742,4.029,17.922,3.209,16.916,3.209z M16.916,15.493H3.017
		c-0.306,0-0.554-0.249-0.554-0.555v-9.9c0-0.306,0.248-0.554,0.554-0.554h13.899c0.306,0,0.554,0.248,0.554,0.554v9.9
		C17.47,15.244,17.222,15.493,16.916,15.493z"/>
</g>
</svg>
