<?xml version="1.0" encoding="utf-8"?>
<!-- Generator: Adobe Illustrator 16.0.0, SVG Export Plug-In . SVG Version: 6.00 Build 0)  -->
<!DOCTYPE svg PUBLIC "-//W3C//DTD SVG 1.1//EN" "http://www.w3.org/Graphics/SVG/1.1/DTD/svg11.dtd">
<svg version="1.1" id="图层_1" xmlns="http://www.w3.org/2000/svg" xmlns:xlink="http://www.w3.org/1999/xlink" x="0px" y="0px"
	 width="19.999px" height="20px" viewBox="0 0 19.999 20" enable-background="new 0 0 19.999 20" xml:space="preserve">
<g>
	<path fill="#5D5D5D" d="M9.896,2.097c-4.54,0-8.234,3.694-8.234,8.234s3.694,8.234,8.234,8.234h0.006
		c2.327,0,4.526-0.978,6.086-2.694v0.431c0,0.37,0.302,0.672,0.673,0.672s0.674-0.302,0.674-0.672v-2.39
		c0-0.15-0.049-0.293-0.146-0.416l-0.051-0.062c-0.127-0.126-0.296-0.195-0.477-0.195h-2.39c-0.37,0-0.672,0.303-0.672,0.674
		c0,0.18,0.069,0.349,0.194,0.472c0.124,0.128,0.298,0.201,0.478,0.201h1.043c-1.297,1.653-3.305,2.633-5.419,2.633
		c-3.798,0-6.888-3.09-6.888-6.888s3.09-6.888,6.888-6.888s6.888,3.09,6.888,6.888c0,0.371,0.303,0.673,0.674,0.673
		s0.673-0.302,0.673-0.673C18.131,5.791,14.437,2.097,9.896,2.097z"/>
	<path fill="#5D5D5D" d="M6.177,10.473c0,2.067,1.683,3.75,3.75,3.75s3.75-1.683,3.75-3.75s-1.683-3.75-3.75-3.75
		S6.177,8.405,6.177,10.473z M9.927,12.973c-1.379,0-2.5-1.121-2.5-2.5s1.121-2.5,2.5-2.5s2.5,1.121,2.5,2.5
		S11.306,12.973,9.927,12.973z"/>
</g>
</svg>
