<?xml version="1.0" encoding="utf-8"?>
<!-- Generator: Adobe Illustrator 16.0.0, SVG Export Plug-In . SVG Version: 6.00 Build 0)  -->
<!DOCTYPE svg PUBLIC "-//W3C//DTD SVG 1.1//EN" "http://www.w3.org/Graphics/SVG/1.1/DTD/svg11.dtd">
<svg version="1.1" id="图层_1" xmlns="http://www.w3.org/2000/svg" xmlns:xlink="http://www.w3.org/1999/xlink" x="0px" y="0px"
	 width="19.999px" height="20px" viewBox="0 0 19.999 20" enable-background="new 0 0 19.999 20" xml:space="preserve">
<g>
	<path fill="#5D5D5D" d="M8.608,9.606h5.338c0.335,0,0.578-0.269,0.578-0.638c0-0.368-0.243-0.636-0.578-0.636H8.608
		c-0.337,0-0.581,0.267-0.581,0.633c-0.002,0.19,0.061,0.36,0.177,0.478C8.31,9.55,8.449,9.606,8.608,9.606z"/>
	<path fill="#5D5D5D" d="M8.608,7.129h5.338c0.335,0,0.578-0.268,0.578-0.637s-0.243-0.637-0.578-0.637H8.608
		c-0.337,0-0.581,0.268-0.581,0.634C8.025,6.678,8.088,6.847,8.204,6.967C8.311,7.072,8.45,7.129,8.608,7.129z"/>
	<path fill="#5D5D5D" d="M18.265,12.087c-0.281-0.282-0.702-0.45-1.127-0.45H16.95V3.766c0-0.728-0.521-1.217-1.298-1.217H7.267
		c-0.739,0-1.505,0.455-1.505,1.217v0.436H4.335c-0.753,0-1.464,0.732-1.464,1.507v5.953c-0.704,0.116-1.24,0.624-1.24,1.192v3.798
		c0,0.659,0.708,1.217,1.547,1.217h13.96c0.807,0,1.463-0.546,1.463-1.217v-3.797C18.602,12.577,18.482,12.305,18.265,12.087z
		 M4.147,5.709c0.005-0.057,0.135-0.212,0.193-0.231h1.421v6.159H4.147V5.709z M12.705,12.912h4.433c0.082,0,0.146,0.02,0.188,0.039
		l0.001,3.599c-0.032,0.019-0.096,0.043-0.188,0.043H3.178c-0.112,0-0.199-0.037-0.271-0.077v-3.52
		c0.099-0.07,0.2-0.086,0.271-0.086h4.021c0.475,1.041,1.4,1.569,2.752,1.569C11.34,14.479,12.241,13.967,12.705,12.912z
		 M7.045,3.836C7.084,3.829,7.15,3.824,7.267,3.824h8.386c0.007,0,0.015,0,0.022,0v7.813h-3.908l-0.133,0.454
		c-0.211,0.783-0.667,1.074-1.681,1.074c-0.978,0-1.465-0.313-1.684-1.077l-0.127-0.451H7.039L7.045,3.836z"/>
</g>
</svg>
