<?xml version="1.0" encoding="utf-8"?>
<!-- Generator: Adobe Illustrator 16.0.0, SVG Export Plug-In . SVG Version: 6.00 Build 0)  -->
<!DOCTYPE svg PUBLIC "-//W3C//DTD SVG 1.1//EN" "http://www.w3.org/Graphics/SVG/1.1/DTD/svg11.dtd">
<svg version="1.1" id="图层_1" xmlns="http://www.w3.org/2000/svg" xmlns:xlink="http://www.w3.org/1999/xlink" x="0px" y="0px"
	 width="14px" height="16px" viewBox="0 0 14 16" enable-background="new 0 0 14 16" xml:space="preserve">
<g>
	<g>
		<g>
			<path fill="#5D5D5D" d="M13.723,12.215l-1.271-2.168V7.043c-0.025-1.017-0.375-2-0.998-2.805
				c-0.656-0.881-1.551-1.554-2.58-1.937L8.855,2.296C8.777,2.272,8.697,2.249,8.619,2.227V2.074c0-0.844-0.685-1.529-1.529-1.529
				c-0.844,0-1.529,0.686-1.529,1.529v0.14C5.495,2.232,5.426,2.252,5.362,2.273L5.349,2.277C4.301,2.651,3.387,3.324,2.717,4.212
				C2.085,5.021,1.728,6.013,1.702,7.041v3.004l-1.359,2.32c-0.164,0.277-0.164,0.623,0,0.898c0.119,0.236,0.381,0.361,0.641,0.307
				h3.816c0,0.818,0.437,1.574,1.146,1.982c0.709,0.41,1.577,0.41,2.288,0.002c0.709-0.41,1.145-1.166,1.145-1.984h3.813
				c0.209,0.029,0.42-0.039,0.57-0.188s0.221-0.359,0.193-0.566C13.955,12.594,13.873,12.379,13.723,12.215 M7.091,1.368
				c0.383-0.006,0.701,0.29,0.728,0.672C7.737,2.024,7.655,2.011,7.573,1.999c-0.035-0.003-0.07-0.003-0.106,0L7.425,1.993
				c-0.229-0.042-0.461-0.042-0.691,0L6.697,1.999c-0.036-0.005-0.072-0.005-0.108,0C6.512,2.009,6.436,2.021,6.364,2.034
				C6.393,1.655,6.712,1.362,7.091,1.368 M7.091,15.086c-0.806-0.07-1.449-0.709-1.525-1.516h3.053
				C8.539,14.375,7.897,15.014,7.091,15.086 M13.195,12.807H0.985c-0.047,0,0.077,0.109,0.053,0.074
				c-0.023-0.039-0.023-0.088,0-0.127l1.413-2.41c0.032-0.059,0.052-0.125,0.052-0.191V7.046C2.634,5.198,3.86,3.609,5.614,3.012
				c0.322-0.096,0.648-0.172,0.98-0.229c0.027,0.002,0.056,0.002,0.082,0C6.74,2.777,6.798,2.769,6.852,2.761
				C6.928,2.748,7.004,2.74,7.082,2.737c0.075,0.002,0.151,0.01,0.227,0.023c0.057,0.008,0.114,0.017,0.177,0.023
				c0.023,0.002,0.05,0.002,0.075,0c0.357,0.062,0.704,0.145,1.045,0.25c1.721,0.615,2.916,2.189,3.051,4.013v3.106
				c0,0.066,0.018,0.133,0.051,0.191l1.348,2.299c0.02,0.033,0.043,0.061,0.07,0.088c0.023,0.021,0.039,0.055,0.037,0.088
				C13.158,12.881,13.27,12.807,13.195,12.807"/>
			<path fill="#5D5D5D" d="M7.089,16c-0.425,0-0.845-0.113-1.214-0.326c-0.709-0.408-1.164-1.152-1.211-1.965H0.983
				c-0.021,0.008-0.072,0.014-0.124,0.014c-0.271,0-0.518-0.15-0.642-0.395c-0.186-0.313-0.186-0.711,0.004-1.033l1.341-2.287V7.041
				C1.589,5.989,1.96,4.955,2.608,4.126c0.687-0.911,1.619-1.597,2.693-1.98c0.043-0.014,0.083-0.026,0.12-0.037V2.074
				c0-0.92,0.749-1.669,1.669-1.669c0.92,0,1.667,0.749,1.667,1.669v0.047c0.047,0.013,0.094,0.027,0.139,0.042
				c1.082,0.402,1.994,1.088,2.67,1.994c0.643,0.833,0.998,1.831,1.023,2.884v2.967l1.254,2.135c0.156,0.168,0.252,0.414,0.25,0.674
				c0.031,0.232-0.057,0.488-0.234,0.664c-0.182,0.182-0.436,0.268-0.689,0.229H9.514c-0.047,0.813-0.502,1.557-1.211,1.967
				C7.935,15.889,7.512,16,7.089,16z M4.799,13.43h0.14v0.141c0,0.766,0.411,1.479,1.075,1.863c0.652,0.377,1.492,0.375,2.148,0
				c0.664-0.385,1.076-1.098,1.076-1.863V13.43h3.951c0.047,0.006,0.072,0.008,0.098,0.008c0.141,0,0.275-0.057,0.375-0.152
				c0.117-0.117,0.176-0.287,0.154-0.451c0-0.209-0.07-0.387-0.197-0.525l-1.309-2.223V7.043c-0.023-0.989-0.357-1.931-0.967-2.72
				C10.699,3.461,9.83,2.807,8.826,2.433c-0.088-0.027-0.168-0.05-0.244-0.071L8.479,2.334v-0.26c0-0.767-0.624-1.389-1.388-1.389
				c-0.766,0-1.389,0.622-1.389,1.389V2.32L5.598,2.348C5.534,2.367,5.467,2.386,5.404,2.407C4.372,2.774,3.485,3.427,2.83,4.295
				C2.217,5.08,1.866,6.055,1.842,7.044v3.04l-1.381,2.352c-0.137,0.234-0.137,0.525,0,0.758c0.096,0.188,0.296,0.285,0.491,0.24
				L4.799,13.43z M7.102,15.225c-0.896-0.076-1.592-0.768-1.676-1.643L5.413,13.43h3.359l-0.014,0.152
				C8.672,14.457,7.976,15.146,7.102,15.225z M5.727,13.709c0.131,0.666,0.688,1.178,1.375,1.238
				c0.665-0.063,1.222-0.572,1.355-1.238H5.727z M1.04,13.029c-0.094,0-0.204-0.131-0.204-0.217v-0.139l0.092-0.008l1.402-2.395
				c0.021-0.035,0.033-0.078,0.033-0.119V7.046C2.5,5.129,3.758,3.498,5.569,2.881c0.332-0.1,0.668-0.178,1.002-0.235l0.018-0.003
				l0.074,0.001C6.723,2.639,6.78,2.63,6.833,2.623c0.078-0.014,0.161-0.021,0.245-0.025C7.168,2.6,7.25,2.609,7.332,2.624
				C7.382,2.63,7.437,2.639,7.5,2.644l0.018-0.001l0.067,0.003C7.94,2.707,8.297,2.793,8.646,2.899
				c1.775,0.635,3.01,2.258,3.148,4.137v3.116c0,0.043,0.012,0.084,0.033,0.119l1.348,2.301c0.014,0.021,0.027,0.039,0.045,0.057
				c0.012,0.012,0.023,0.023,0.033,0.037h0.037l0.002,0.029c0.025,0.016,0.039,0.035,0.047,0.049l0.041,0.068l-0.041,0.08
				c-0.031,0.055-0.096,0.09-0.16,0.09h-0.059l-0.043-0.037L1.165,12.953l-0.039,0.074L1.04,13.029z M1.25,12.666h11.658
				l-1.322-2.252c-0.045-0.078-0.07-0.17-0.07-0.262V7.046c-0.129-1.759-1.291-3.286-2.957-3.882
				C8.232,3.065,7.894,2.983,7.553,2.923c-0.029,0.001-0.056,0.001-0.083,0C7.407,2.916,7.345,2.907,7.289,2.899
				C7.217,2.887,7.147,2.878,7.078,2.876c-0.063,0.002-0.133,0.01-0.201,0.022C6.817,2.907,6.755,2.916,6.69,2.923
				c-0.028,0.002-0.061,0.003-0.09,0c-0.316,0.055-0.635,0.13-0.947,0.223C3.955,3.725,2.77,5.26,2.641,7.056l0.001,3.096
				c0,0.09-0.024,0.18-0.069,0.26L1.25,12.666z M7.974,2.211l-0.18-0.034c-0.08-0.015-0.162-0.027-0.242-0.04
				c-0.013-0.001-0.046-0.002-0.07,0L7.408,2.132C7.18,2.09,6.97,2.091,6.76,2.13L6.699,2.14l-0.02-0.002
				c-0.024-0.003-0.049-0.003-0.073,0C6.533,2.146,6.459,2.158,6.391,2.171l-0.18,0.035l0.015-0.182
				c0.032-0.446,0.409-0.796,0.855-0.796c0.468,0,0.847,0.353,0.878,0.802L7.974,2.211z M7.519,1.856
				c0.022,0,0.045,0.001,0.067,0.003C7.604,1.862,7.62,1.865,7.638,1.868c-0.088-0.212-0.298-0.36-0.536-0.36
				c-0.253,0-0.465,0.146-0.554,0.356c0.007-0.001,0.014-0.002,0.022-0.002c0.043-0.006,0.084-0.007,0.123-0.002l0.02-0.003
				C6.949,1.811,7.205,1.81,7.451,1.856l0.034,0.004C7.476,1.857,7.498,1.856,7.519,1.856z"/>
		</g>
	</g>
</g>
</svg>
