<?xml version="1.0" encoding="utf-8"?>
<!-- Generator: Adobe Illustrator 16.0.0, SVG Export Plug-In . SVG Version: 6.00 Build 0)  -->
<!DOCTYPE svg PUBLIC "-//W3C//DTD SVG 1.1//EN" "http://www.w3.org/Graphics/SVG/1.1/DTD/svg11.dtd">
<svg version="1.1" id="图层_1" xmlns="http://www.w3.org/2000/svg" xmlns:xlink="http://www.w3.org/1999/xlink" x="0px" y="0px"
	 width="14px" height="16px" viewBox="0 0 14 16" enable-background="new 0 0 14 16" xml:space="preserve">
<g>
	<path fill="#5D5D5D" d="M4.901,13.785H2.655c-0.846,0-1.533-0.692-1.533-1.544V3.119c0-0.852,0.688-1.544,1.533-1.544h7.216
		c0.845,0,1.535,0.692,1.535,1.544v4.233c0,0.312,0.251,0.563,0.561,0.563c0.311,0,0.562-0.251,0.562-0.563V3.119
		c0-1.471-1.191-2.667-2.657-2.667H2.655C1.19,0.452,0,1.647,0,3.119v9.123c0,1.472,1.19,2.667,2.655,2.667h2.246
		c0.309,0,0.56-0.252,0.56-0.562C5.461,14.036,5.21,13.785,4.901,13.785z"/>
	<path fill="#5D5D5D" d="M9.139,4.45c0-0.349-0.283-0.631-0.632-0.631H2.938c-0.349,0-0.631,0.283-0.631,0.631
		c0,0.348,0.282,0.631,0.631,0.631h5.569C8.855,5.081,9.139,4.797,9.139,4.45z"/>
	<path fill="#5D5D5D" d="M2.938,6.76c-0.323,0-0.585,0.262-0.585,0.584c0,0.323,0.262,0.586,0.585,0.586h4.779
		c0.323,0,0.585-0.263,0.585-0.586c0-0.322-0.262-0.584-0.585-0.584H2.938z"/>
	<path fill="#5D5D5D" d="M4.948,9.711H2.938c-0.293,0-0.529,0.235-0.529,0.527s0.236,0.529,0.529,0.529h2.011
		c0.293,0,0.529-0.237,0.529-0.529S5.241,9.711,4.948,9.711z"/>
	<path fill="#5D5D5D" d="M10.113,8.481c-2.065,0-3.746,1.681-3.746,3.746s1.681,3.745,3.746,3.745s3.745-1.68,3.745-3.745
		S12.179,8.481,10.113,8.481z M10.113,14.873c-1.459,0-2.646-1.187-2.646-2.646c0-1.269,0.899-2.331,2.094-2.586l0.007,2.588
		c0.001,0.303,0.247,0.548,0.55,0.548c0,0,0.001,0,0.002,0c0.304-0.001,0.549-0.248,0.548-0.552L10.66,9.64
		c1.197,0.252,2.099,1.316,2.099,2.588C12.759,13.687,11.572,14.873,10.113,14.873z"/>
</g>
</svg>
