<?xml version="1.0" encoding="utf-8"?>
<!-- Generator: Adobe Illustrator 22.0.0, SVG Export Plug-In . SVG Version: 6.00 Build 0)  -->
<svg version="1.1" id="图层_1" xmlns="http://www.w3.org/2000/svg" xmlns:xlink="http://www.w3.org/1999/xlink" x="0px" y="0px"
	 width="18px" height="18px" viewBox="0 0 18 18" style="enable-background:new 0 0 18 18;" xml:space="preserve">
<style type="text/css">
	.st0{fill:#888888;}
</style>
<path class="st0" d="M16.9,13.7c-0.3-0.3-0.5-0.5-0.8-0.8c-0.8-1-1.4-2.1-1.7-3.3C14.1,8.5,14,7.2,14,6c0-0.4,0-0.8-0.2-1.2
	c-0.5-1.3-1.4-2.2-2.7-2.7C10.7,2,10.3,1.9,9.9,1.8C10,1.4,9.9,1,9.5,0.7c-0.3-0.2-0.7-0.3-1-0.1C8.1,0.9,8,1.3,8.2,1.8H8.1
	C6.7,2,5.6,2.7,4.8,3.8C4.4,4.4,4.1,5.1,4.1,5.9c0,0.5,0,1-0.1,1.5C4,8.1,3.9,8.8,3.7,9.5c-0.4,1.7-1.3,3.2-2.7,4.3
	C1,13.9,1,13.9,1,14c0.1,0.6,0.6,1.1,1.3,1.1h4.3c0,1.3,1.1,2.4,2.5,2.4c0.6,0,1.1-0.2,1.6-0.6c0.5-0.5,0.9-1.1,0.9-1.9V15h4.2
	c0.7,0,1.2-0.5,1.3-1.1C17,13.9,17,13.8,16.9,13.7z M12,7.6C12,7.6,12,7.6,12,7.6c-0.6,0-1-0.4-1-1c0-1.5-1.1-1.7-1.4-1.8
	C9,4.8,8.6,4.3,8.7,3.8c0.1-0.5,0.5-1,1.1-0.9c1.1,0.1,3.2,1,3.2,3.7C13,7.1,12.6,7.6,12,7.6z"/>
</svg>
