<?xml version="1.0" encoding="utf-8"?>
<!-- Generator: Adobe Illustrator 16.0.0, SVG Export Plug-In . SVG Version: 6.00 Build 0)  -->
<!DOCTYPE svg PUBLIC "-//W3C//DTD SVG 1.1//EN" "http://www.w3.org/Graphics/SVG/1.1/DTD/svg11.dtd">
<svg version="1.1" id="图层_1" xmlns="http://www.w3.org/2000/svg" xmlns:xlink="http://www.w3.org/1999/xlink" x="0px" y="0px"
	 width="30px" height="30px" viewBox="0 0 30 30" enable-background="new 0 0 30 30" xml:space="preserve">
<g>
	<path fill="#5D5D5D" d="M8.119,16.658l2.16-3.621l2.309,3.699c0.115,0.183,0.313,0.291,0.527,0.291c0.117,0,0.23-0.033,0.332-0.095
		c0.064-0.027,0.113-0.077,0.148-0.12l1.105-1.153l1.734,3.515c0.102,0.213,0.308,0.346,0.54,0.346c0.101,0,0.201-0.026,0.293-0.076
		c0.166-0.066,0.298-0.229,0.335-0.41l1.877-7.898l1.804,1.823c0.118,0.12,0.28,0.187,0.454,0.187
		c0.164-0.001,0.32-0.061,0.438-0.173c0.245-0.252,0.247-0.652,0.007-0.892l-2.606-2.64c-0.079-0.08-0.175-0.134-0.291-0.165
		c-0.05-0.012-0.103-0.018-0.152-0.018c-0.294,0-0.546,0.197-0.613,0.48l-1.729,7.315l-1.362-2.739
		c-0.029-0.075-0.08-0.132-0.13-0.19l-0.003-0.003c-0.117-0.114-0.272-0.177-0.438-0.177c-0.172,0-0.338,0.069-0.457,0.192
		l-1.176,1.242l-2.426-3.895c-0.059-0.092-0.127-0.16-0.209-0.208c-0.143-0.085-0.318-0.111-0.479-0.069
		c-0.161,0.042-0.301,0.148-0.385,0.292L7.212,15.73H3.919c-0.345,0-0.626,0.284-0.626,0.631c0,0.354,0.276,0.631,0.626,0.631H7.57
		C7.807,16.992,8.018,16.864,8.119,16.658z"/>
	<path fill="#5D5D5D" d="M16.976,19.619c-0.271,0-0.512-0.154-0.63-0.402l-1.671-3.385l-1.007,1.05
		c-0.054,0.065-0.114,0.114-0.182,0.143c-0.105,0.065-0.238,0.103-0.371,0.103c-0.25,0-0.479-0.126-0.612-0.337l-2.222-3.561
		l-2.076,3.48c-0.114,0.233-0.359,0.383-0.635,0.383H3.919c-0.407,0-0.726-0.32-0.726-0.73c0-0.403,0.325-0.731,0.726-0.731h3.236
		l2.487-4.185c0.097-0.166,0.26-0.289,0.445-0.337c0.184-0.048,0.39-0.019,0.555,0.08c0.097,0.057,0.176,0.136,0.242,0.241
		l2.358,3.786l1.087-1.148c0.269-0.279,0.758-0.29,1.036-0.018c0.066,0.076,0.122,0.142,0.156,0.229l1.235,2.483l1.665-7.046
		c0.078-0.328,0.37-0.558,0.711-0.558c0.061,0,0.121,0.007,0.176,0.021c0.136,0.036,0.246,0.098,0.339,0.191l2.606,2.64
		c0.278,0.278,0.276,0.741-0.007,1.032c-0.137,0.131-0.316,0.202-0.509,0.204c-0.202,0-0.389-0.077-0.526-0.217l-1.677-1.695
		l-1.835,7.724c-0.044,0.211-0.199,0.401-0.396,0.479C17.21,19.589,17.092,19.619,16.976,19.619z M14.728,15.487l1.798,3.643
		c0.121,0.256,0.438,0.363,0.695,0.226c0.145-0.059,0.255-0.194,0.285-0.342l1.919-8.077l1.931,1.951
		c0.195,0.2,0.553,0.204,0.752,0.012c0.204-0.21,0.208-0.547,0.006-0.749l-2.607-2.641c-0.066-0.067-0.146-0.112-0.245-0.138
		c-0.038-0.009-0.082-0.014-0.127-0.014c-0.247,0-0.46,0.166-0.516,0.403l-1.793,7.584l-1.485-2.987
		c-0.025-0.064-0.065-0.111-0.109-0.162c-0.208-0.207-0.561-0.193-0.757,0.008L13.21,15.54l-2.494-4.004
		c-0.049-0.077-0.106-0.134-0.175-0.175c-0.121-0.072-0.272-0.093-0.402-0.058c-0.135,0.035-0.253,0.125-0.324,0.246l-2.546,4.283
		h-3.35c-0.29,0-0.526,0.238-0.526,0.531c0,0.298,0.231,0.531,0.526,0.531H7.57c0.198,0,0.375-0.107,0.459-0.278l2.248-3.769
		l2.396,3.838c0.146,0.234,0.472,0.314,0.723,0.163c0.049-0.021,0.085-0.052,0.123-0.098L14.728,15.487z"/>
</g>
<path fill="#5D5D5D" d="M27.264,26.264l-4.195-4.248c1.959-2.063,3.035-4.754,3.035-7.607c0-2.956-1.151-5.734-3.242-7.824
	c-2.09-2.09-4.867-3.241-7.822-3.241c-2.152,0-4.237,0.618-6.032,1.788C7.26,6.27,5.872,7.87,4.997,9.758
	c-0.083,0.181-0.092,0.383-0.024,0.57c0.068,0.187,0.207,0.336,0.387,0.419c0.1,0.046,0.205,0.069,0.313,0.069
	c0.289,0,0.555-0.169,0.678-0.432c1.563-3.371,4.974-5.55,8.689-5.55c5.278,0,9.572,4.295,9.572,9.574
	c0,5.275-4.294,9.57-9.572,9.57c-3.035,0-5.824-1.393-7.652-3.82c-0.143-0.188-0.359-0.297-0.596-0.297
	c-0.164,0-0.317,0.052-0.449,0.15c-0.158,0.12-0.262,0.293-0.289,0.49s0.023,0.395,0.143,0.554c1.01,1.34,2.332,2.45,3.823,3.212
	c1.564,0.797,3.253,1.202,5.021,1.202c2.553,0,4.975-0.861,6.934-2.442l4.23,4.284c0.141,0.142,0.33,0.221,0.531,0.221
	c0.197,0,0.382-0.076,0.521-0.215c0.143-0.14,0.221-0.327,0.223-0.525C27.479,26.593,27.404,26.405,27.264,26.264z"/>
</svg>
