<?xml version="1.0" encoding="utf-8"?>
<!-- Generator: Adobe Illustrator 16.0.0, SVG Export Plug-In . SVG Version: 6.00 Build 0)  -->
<!DOCTYPE svg PUBLIC "-//W3C//DTD SVG 1.1//EN" "http://www.w3.org/Graphics/SVG/1.1/DTD/svg11.dtd">
<svg version="1.1" id="图层_1" xmlns="http://www.w3.org/2000/svg" xmlns:xlink="http://www.w3.org/1999/xlink" x="0px" y="0px"
	 width="30px" height="30px" viewBox="0 0 30 30" enable-background="new 0 0 30 30" xml:space="preserve">
<g>
	<g>
		<path fill="#5D5D5D" d="M9.485,21.014c-0.268,0-0.512-0.266-0.512-0.559c0-0.291,0.244-0.558,0.512-0.558h9.869
			c0.268,0,0.511,0.267,0.511,0.558c0,0.293-0.243,0.559-0.511,0.559H9.485z M9.485,16.941c-0.268,0-0.512-0.267-0.512-0.558
			c0-0.293,0.244-0.56,0.512-0.56h8.367c0.268,0,0.512,0.267,0.512,0.56c0,0.291-0.244,0.558-0.512,0.558H9.485z M9.485,12.861
			c-0.282,0-0.512-0.225-0.512-0.5s0.229-0.5,0.512-0.5h11.8c0.281,0,0.512,0.224,0.512,0.5s-0.23,0.5-0.512,0.5H9.485z
			 M11.964,8.671c-1.128,0-2.012-0.858-2.012-1.954c0-0.915,0.619-1.672,1.541-1.885l0.014-0.003l0.003-0.015
			c0.222-0.852,1.026-1.448,1.955-1.448h3.747c0.947,0,1.733,0.582,1.956,1.448l0.003,0.014l0.015,0.004
			c0.907,0.197,1.54,0.978,1.54,1.896c0,1.089-0.884,1.942-2.012,1.942H11.964z M13.465,4.366c-0.563,0-0.988,0.396-0.988,0.92
			c0,0.277-0.235,0.511-0.513,0.511c-0.572,0-0.989,0.372-0.989,0.885c0,0.506,0.417,0.874,0.989,0.874h6.75
			c0.573,0,0.989-0.372,0.989-0.885c0-0.511-0.426-0.896-0.989-0.896c-0.283,0-0.513-0.224-0.513-0.5
			c0-0.518-0.425-0.908-0.989-0.908H13.465z M13.465,4.366"/>
		<path fill="#5D5D5D" d="M19.354,21.214H9.485c-0.379,0-0.712-0.354-0.712-0.759c0-0.403,0.333-0.758,0.712-0.758h9.869
			c0.379,0,0.711,0.354,0.711,0.758C20.065,20.859,19.733,21.214,19.354,21.214z M9.485,20.098c-0.157,0-0.312,0.177-0.312,0.357
			s0.154,0.358,0.312,0.358h9.869c0.157,0,0.311-0.178,0.311-0.358s-0.153-0.357-0.311-0.357H9.485z M17.853,17.142H9.485
			c-0.379,0-0.712-0.354-0.712-0.758c0-0.405,0.333-0.76,0.712-0.76h8.367c0.379,0,0.712,0.355,0.712,0.76
			C18.564,16.787,18.231,17.142,17.853,17.142z M9.485,16.024c-0.157,0-0.312,0.178-0.312,0.359c0,0.181,0.154,0.357,0.312,0.357
			h8.367c0.157,0,0.312-0.177,0.312-0.357c0-0.182-0.154-0.359-0.312-0.359H9.485z M21.285,13.061h-11.8
			c-0.393,0-0.712-0.314-0.712-0.7s0.319-0.7,0.712-0.7h11.8c0.393,0,0.712,0.314,0.712,0.7S21.678,13.061,21.285,13.061z
			 M9.485,12.062c-0.172,0-0.312,0.134-0.312,0.299c0,0.166,0.14,0.3,0.312,0.3h11.8c0.172,0,0.312-0.134,0.312-0.3
			c0-0.165-0.14-0.299-0.312-0.299H9.485z M18.714,8.872h-6.75c-1.24,0-2.212-0.946-2.212-2.154c0-0.977,0.637-1.79,1.596-2.054
			c0.292-0.896,1.142-1.497,2.117-1.497h3.747c1.003,0,1.842,0.597,2.121,1.496c0.945,0.256,1.593,1.09,1.593,2.067
			C20.926,7.931,19.954,8.872,18.714,8.872z M13.465,3.567c-0.838,0-1.563,0.534-1.762,1.298l-0.029,0.115l-0.118,0.043
			c-0.847,0.195-1.403,0.875-1.403,1.694c0,0.983,0.796,1.754,1.812,1.754h6.75c1.016,0,1.812-0.765,1.812-1.742
			c0-0.825-0.568-1.524-1.383-1.701l-0.127-0.027L18.975,4.87c-0.2-0.781-0.908-1.303-1.763-1.303H13.465z M18.714,7.756h-6.75
			c-0.678,0-1.189-0.462-1.189-1.074c0-0.619,0.512-1.085,1.189-1.085c0.167,0,0.313-0.145,0.313-0.311
			c0-0.639,0.511-1.12,1.188-1.12h3.747c0.678,0,1.189,0.477,1.189,1.108c0,0.166,0.14,0.3,0.313,0.3
			c0.678,0,1.189,0.472,1.189,1.097C19.903,7.3,19.403,7.756,18.714,7.756z M13.465,4.566c-0.449,0-0.788,0.309-0.788,0.72
			c0,0.386-0.326,0.711-0.713,0.711c-0.465,0-0.789,0.281-0.789,0.685c0,0.397,0.324,0.674,0.789,0.674h6.75
			c0.465,0,0.789-0.282,0.789-0.685c0-0.397-0.339-0.696-0.789-0.696c-0.393,0-0.713-0.314-0.713-0.7
			c0-0.404-0.339-0.708-0.789-0.708H13.465z"/>
	</g>
	<g>
		<path fill="#5D5D5D" d="M7.833,26.576c-1.463,0-2.652-1.189-2.652-2.653V8.905c0-1.463,1.189-2.653,2.652-2.653h2.63
			c0.277,0,0.512,0.234,0.512,0.512c0,0.277-0.234,0.511-0.512,0.511h-2.63c-0.898,0-1.629,0.731-1.629,1.63v15.018
			c0,0.899,0.73,1.631,1.629,1.631h15.012c0.898,0,1.629-0.731,1.629-1.631V8.905c0-0.898-0.73-1.63-1.629-1.63h-2.63
			c-0.277,0-0.512-0.234-0.512-0.511c0-0.278,0.234-0.512,0.512-0.512h2.63c1.463,0,2.652,1.189,2.652,2.653v15.018
			c0,1.464-1.189,2.653-2.652,2.653H7.833z M7.833,26.576"/>
		<path fill="#5D5D5D" d="M22.845,26.776H7.833c-1.573,0-2.853-1.28-2.853-2.854V8.905c0-1.573,1.279-2.853,2.853-2.853h2.63
			c0.386,0,0.712,0.326,0.712,0.712s-0.326,0.711-0.712,0.711h-2.63c-0.788,0-1.429,0.641-1.429,1.43v15.018
			c0,0.789,0.641,1.431,1.429,1.431h15.012c0.788,0,1.429-0.642,1.429-1.431V8.905c0-0.789-0.641-1.43-1.429-1.43h-2.63
			c-0.386,0-0.712-0.326-0.712-0.711s0.326-0.712,0.712-0.712h2.63c1.573,0,2.853,1.28,2.853,2.853v15.018
			C25.697,25.496,24.418,26.776,22.845,26.776z M7.833,6.453c-1.353,0-2.452,1.1-2.452,2.453v15.018c0,1.353,1.1,2.453,2.452,2.453
			h15.012c1.353,0,2.452-1.101,2.452-2.453V8.905c0-1.353-1.1-2.453-2.452-2.453h-2.63c-0.166,0-0.312,0.146-0.312,0.312
			s0.146,0.311,0.312,0.311h2.63c1.009,0,1.829,0.821,1.829,1.83v15.018c0,1.01-0.82,1.831-1.829,1.831H7.833
			c-1.009,0-1.829-0.821-1.829-1.831V8.905c0-1.009,0.82-1.83,1.829-1.83h2.63c0.166,0,0.312-0.145,0.312-0.311
			s-0.146-0.312-0.312-0.312H7.833z"/>
	</g>
</g>
</svg>
