<?xml version="1.0" encoding="utf-8"?>
<!-- Generator: Adobe Illustrator 16.0.0, SVG Export Plug-In . SVG Version: 6.00 Build 0)  -->
<!DOCTYPE svg PUBLIC "-//W3C//DTD SVG 1.1//EN" "http://www.w3.org/Graphics/SVG/1.1/DTD/svg11.dtd">
<svg version="1.1" id="图层_1" xmlns="http://www.w3.org/2000/svg" xmlns:xlink="http://www.w3.org/1999/xlink" x="0px" y="0px"
	 width="30px" height="30px" viewBox="0 0 30 30" enable-background="new 0 0 30 30" xml:space="preserve">
<g>
	<g>
		<g>
			<path fill="#5D5D5D" d="M24.178,24.187H5.856c-0.724-0.003-1.307-0.593-1.301-1.316v-9.15h7.846c0,0.452,0.114,0.903,0.352,1.307
				c0.72,1.254,2.321,1.68,3.57,0.964c0.839-0.486,1.309-1.365,1.309-2.271h7.845v9.15C25.48,23.599,24.897,24.184,24.178,24.187
				L24.178,24.187z M16.323,13.724c0,0.723-0.585,1.309-1.307,1.309c-0.724,0-1.307-0.586-1.307-1.309H16.323z M5.856,8.495h18.317
				c0.724,0.003,1.303,0.592,1.3,1.316v2.606H4.553V9.811C4.553,9.087,5.137,8.498,5.856,8.495L5.856,8.495z M18.938,5.879
				c0,0,0,1.306,0.004,1.306h-7.848c0,0,0-1.306-0.003-1.306H18.938z M24.178,7.188h-3.933V5.879c0-0.727-0.582-1.307-1.303-1.307
				h-7.851c-0.711,0-1.303,0.586-1.303,1.307v1.309H5.856C4.411,7.191,3.244,8.366,3.25,9.811v13.063
				c-0.003,1.443,1.161,2.616,2.61,2.622h18.317c1.443-0.003,2.612-1.179,2.605-2.622V9.811C26.787,8.366,25.621,7.191,24.178,7.188
				L24.178,7.188z M24.178,7.188"/>
			<path fill="#5D5D5D" d="M24.178,25.546H5.86c-1.47-0.006-2.663-1.204-2.66-2.672V9.811C3.197,9.099,3.472,8.429,3.974,7.924
				s1.17-0.784,1.883-0.786h3.883V5.879c0-0.748,0.606-1.356,1.353-1.356h7.851c0.746,0,1.353,0.608,1.353,1.356v1.259h3.883
				c0.712,0.001,1.38,0.281,1.881,0.786c0.502,0.505,0.776,1.175,0.774,1.887v13.063c0.004,0.711-0.271,1.381-0.772,1.886
				C25.559,25.266,24.89,25.545,24.178,25.546z M5.856,7.238C5.171,7.24,4.527,7.508,4.044,7.994C3.562,8.48,3.297,9.125,3.3,9.811
				v13.063c-0.003,1.412,1.146,2.566,2.561,2.572h18.317c0.685-0.002,1.328-0.271,1.812-0.757s0.747-1.131,0.744-1.815V9.811
				c0.002-0.686-0.263-1.331-0.746-1.816c-0.482-0.486-1.125-0.754-1.81-0.756h-3.982V5.879c0-0.693-0.563-1.257-1.253-1.257h-7.851
				c-0.69,0-1.253,0.564-1.253,1.257v1.359H5.856z M24.178,24.236H5.856c-0.363-0.001-0.704-0.145-0.96-0.402
				c-0.255-0.259-0.394-0.601-0.391-0.964v-9.2h7.945v0.05c0,0.455,0.119,0.897,0.345,1.281c0.455,0.794,1.309,1.287,2.227,1.287
				c0.446,0,0.888-0.118,1.276-0.341c0.791-0.458,1.283-1.312,1.283-2.227v-0.05h7.944v9.2c0.002,0.365-0.138,0.708-0.393,0.966
				C24.879,24.093,24.54,24.235,24.178,24.236z M4.605,13.77v9.1c-0.003,0.337,0.126,0.654,0.362,0.894s0.552,0.371,0.889,0.373
				h18.321c0.335-0.002,0.649-0.133,0.885-0.371c0.236-0.238,0.366-0.557,0.364-0.896v-9.1h-7.745
				c-0.018,0.932-0.525,1.796-1.333,2.264c-0.404,0.231-0.862,0.354-1.326,0.354c-0.954,0-1.84-0.512-2.313-1.336
				c-0.227-0.384-0.35-0.827-0.358-1.282H4.605z M15.017,15.083c-0.748,0-1.356-0.609-1.356-1.359v-0.05h2.713v0.05
				C16.373,14.473,15.765,15.083,15.017,15.083z M13.761,13.773c0.026,0.671,0.58,1.209,1.256,1.209s1.229-0.538,1.256-1.209H13.761
				z M25.523,12.467H4.503V9.811c0-0.75,0.607-1.363,1.354-1.366h18.317c0.747,0.003,1.353,0.616,1.35,1.366V12.467z M4.603,12.367
				h20.821V9.811c0.003-0.695-0.559-1.263-1.25-1.266H5.856C5.165,8.547,4.603,9.115,4.603,9.811V12.367z M18.942,7.235h-7.897
				v-0.05c0-0.504-0.001-1.267-0.003-1.302l0.05-0.003V5.829h7.896v0.05c0,0.502,0.001,1.263,0.004,1.301l-0.05,0.003V7.235z
				 M11.145,7.135h7.751c-0.006-0.092-0.006-0.267-0.007-0.603V5.929h-7.751c0.006,0.092,0.006,0.267,0.007,0.603V7.135z"/>
		</g>
	</g>
</g>
</svg>
