<?xml version="1.0" encoding="utf-8"?>
<!-- Generator: Adobe Illustrator 23.0.2, SVG Export Plug-In . SVG Version: 6.00 Build 0)  -->
<svg version="1.1" id="图层_1" xmlns="http://www.w3.org/2000/svg" xmlns:xlink="http://www.w3.org/1999/xlink" x="0px" y="0px"
	 viewBox="0 0 28.814 25.327" enable-background="new 0 0 28.814 25.327" xml:space="preserve">
<g>
	<path fill="#5D5D5D" d="M8.146,8.823v7.681l6.653,3.841l6.553-3.783l0.101-0.058V8.823l-6.653-3.841L8.246,8.766L8.146,8.823z
		 M14.144,13.041v5.415l-4.69-2.707v-5.415L14.144,13.041z M15.454,18.456v-5.415l4.69-2.707v5.415L15.454,18.456z M14.799,11.908
		L10.108,9.2l4.69-2.708l4.69,2.708L14.799,11.908z"/>
	<path fill="#5D5D5D" d="M5.4,12.663c0-1.116-0.68-2.076-1.648-2.487c1.151-5.099,5.735-8.778,10.999-8.778
		c4.362,0,8.379,2.548,10.232,6.492c0.162,0.344,0.579,0.494,0.929,0.333c0.347-0.162,0.498-0.577,0.338-0.925l-0.001-0.001
		C24.164,2.864,19.649,0,14.748,0C8.754,0,3.603,4.187,2.358,9.998C1.031,10.168,0,11.291,0,12.663c0,1.489,1.211,2.7,2.7,2.7
		C4.189,15.363,5.4,14.152,5.4,12.663z M2.7,13.963c-0.717,0-1.3-0.583-1.3-1.3c0-0.717,0.583-1.3,1.3-1.3
		c0.717,0,1.3,0.583,1.3,1.3C4,13.38,3.417,13.963,2.7,13.963z"/>
	<path fill="#5D5D5D" d="M28.814,12.663c0-1.489-1.211-2.7-2.7-2.7c-1.489,0-2.7,1.211-2.7,2.7c0,1.346,0.993,2.456,2.283,2.658
		c-1.221,5.017-5.733,8.607-10.949,8.607c-4.319,0-8.32-2.512-10.191-6.398l-0.079-0.169c-0.161-0.354-0.566-0.512-0.926-0.35
		c-0.355,0.161-0.508,0.566-0.349,0.923l0.091,0.196c2.105,4.371,6.602,7.196,11.454,7.196c5.972,0,11.255-4.358,12.426-10.181
		C28.137,14.733,28.814,13.776,28.814,12.663z M26.114,13.963c-0.717,0-1.3-0.583-1.3-1.3c0-0.717,0.583-1.3,1.3-1.3
		c0.717,0,1.3,0.583,1.3,1.3C27.414,13.38,26.831,13.963,26.114,13.963z"/>
</g>
</svg>
