<?xml version="1.0" encoding="utf-8"?>
<!-- Generator: Adobe Illustrator 16.0.0, SVG Export Plug-In . SVG Version: 6.00 Build 0)  -->
<!DOCTYPE svg PUBLIC "-//W3C//DTD SVG 1.1//EN" "http://www.w3.org/Graphics/SVG/1.1/DTD/svg11.dtd">
<svg version="1.1" id="图层_1" xmlns="http://www.w3.org/2000/svg" xmlns:xlink="http://www.w3.org/1999/xlink" x="0px" y="0px"
	 width="30px" height="30px" viewBox="0 0 30 30" enable-background="new 0 0 30 30" xml:space="preserve">
<g>
	<path fill="#5D5D5D" d="M26.199,10.366c-0.605-1.425-1.471-2.706-2.573-3.804c-1.102-1.1-2.387-1.964-3.815-2.566
		c-1.48-0.624-3.051-0.941-4.672-0.941c-1.622,0-3.192,0.317-4.673,0.941C9.037,4.598,7.753,5.461,6.65,6.562
		C5.547,7.66,4.683,8.94,4.077,10.366c-0.626,1.477-0.942,3.046-0.942,4.662c0,1.613,0.316,3.178,0.942,4.656
		c0.605,1.424,1.47,2.704,2.573,3.803c1.103,1.1,2.387,1.965,3.815,2.567c1.48,0.623,3.051,0.941,4.673,0.941
		c1.621,0,3.191-0.318,4.672-0.94c1.429-0.604,2.714-1.469,3.815-2.566c1.103-1.101,1.968-2.381,2.573-3.805
		c0.626-1.478,0.942-3.041,0.942-4.656C27.142,13.412,26.825,11.843,26.199,10.366z M15.139,25.592
		c-5.847,0-10.601-4.742-10.601-10.564c0-5.829,4.754-10.571,10.601-10.571c5.844,0,10.6,4.742,10.6,10.571
		C25.738,20.85,20.982,25.592,15.139,25.592z"/>
	<path fill="#5D5D5D" d="M21.522,8.658C19.817,6.956,17.55,6.02,15.139,6.02c-2.412,0-4.68,0.936-6.384,2.637
		c-1.707,1.702-2.646,3.964-2.646,6.371c0,0.386,0.314,0.701,0.701,0.701c0.388,0,0.702-0.314,0.702-0.701
		c0-4.193,3.422-7.605,7.627-7.605s7.626,3.412,7.626,7.605c0,0.386,0.314,0.701,0.702,0.701c0.387,0,0.701-0.314,0.701-0.701
		C24.168,12.622,23.229,10.359,21.522,8.658z"/>
	<path fill="#5D5D5D" d="M15.84,16.188V9.689c0-0.386-0.314-0.701-0.701-0.701c-0.388,0-0.702,0.315-0.702,0.701v6.498
		c-1.382,0.319-2.377,1.56-2.38,2.987c0,1.694,1.383,3.074,3.081,3.074h0.004c0.821,0,1.592-0.32,2.173-0.9
		c0.583-0.58,0.904-1.352,0.905-2.174C18.22,17.748,17.223,16.507,15.84,16.188z M15.139,20.846c-0.927,0-1.679-0.75-1.679-1.672
		c0-0.92,0.752-1.668,1.679-1.668c0.926,0,1.678,0.748,1.678,1.668C16.816,20.096,16.064,20.846,15.139,20.846z"/>
</g>
</svg>
