<?xml version="1.0" encoding="utf-8"?>
<!-- Generator: Adobe Illustrator 16.0.0, SVG Export Plug-In . SVG Version: 6.00 Build 0)  -->
<!DOCTYPE svg PUBLIC "-//W3C//DTD SVG 1.1//EN" "http://www.w3.org/Graphics/SVG/1.1/DTD/svg11.dtd">
<svg version="1.1" id="图层_1" xmlns="http://www.w3.org/2000/svg" xmlns:xlink="http://www.w3.org/1999/xlink" x="0px" y="0px"
	 width="14px" height="16px" viewBox="0 0 14 16" enable-background="new 0 0 14 16" xml:space="preserve">
<path fill="#5D5D5D" d="M13.713,7.768L10.962,5.12c-0.22-0.212-0.55-0.212-0.77,0c-0.221,0.212-0.221,0.53,0,0.742l1.815,1.748
	H6.727c-0.331,0-0.551,0.211-0.551,0.53s0.22,0.53,0.551,0.53h5.281l-1.815,1.749c-0.221,0.212-0.221,0.53,0,0.742
	c0.11,0.106,0.22,0.159,0.385,0.159s0.275-0.053,0.385-0.159l2.751-2.703c0,0,0-0.054,0.055-0.054
	C13.933,8.245,13.933,7.927,13.713,7.768L13.713,7.768z M13.713,7.768"/>
<path fill="#5D5D5D" d="M12.228,11.849c-0.33,0-0.55,0.212-0.55,0.53v1.059c0,0.318-0.22,0.53-0.55,0.53H1.774
	c-0.329,0-0.55-0.212-0.55-0.53V2.843c0-0.318,0.221-0.53,0.55-0.53h9.354c0.33,0,0.55,0.212,0.55,0.53v1.059
	c0,0.318,0.22,0.53,0.55,0.53s0.55-0.211,0.55-0.53V2.843c0-0.9-0.716-1.589-1.649-1.589H1.774c-0.934,0-1.649,0.689-1.649,1.589
	v10.595c0,0.901,0.716,1.589,1.649,1.589h9.354c0.934,0,1.649-0.688,1.649-1.589v-1.059C12.777,12.061,12.558,11.849,12.228,11.849
	L12.228,11.849z M12.228,11.849"/>
</svg>
