<?xml version="1.0" encoding="utf-8"?>
<!-- Generator: Adobe Illustrator 16.0.0, SVG Export Plug-In . SVG Version: 6.00 Build 0)  -->
<!DOCTYPE svg PUBLIC "-//W3C//DTD SVG 1.1//EN" "http://www.w3.org/Graphics/SVG/1.1/DTD/svg11.dtd">
<svg version="1.1" id="图层_1" xmlns="http://www.w3.org/2000/svg" xmlns:xlink="http://www.w3.org/1999/xlink" x="0px" y="0px"
	 width="30px" height="30px" viewBox="0 0 30 30" enable-background="new 0 0 30 30" xml:space="preserve">
<path fill="#5D5D5D" d="M26.651,25.585l-1.674-1.675c0.698-0.855,1.082-1.933,1.082-3.039c0-2.629-2.138-4.767-4.766-4.767
	c-1.27,0-2.466,0.5-3.367,1.407c-0.902,0.907-1.399,2.106-1.399,3.377c0,2.629,2.138,4.767,4.767,4.767
	c1.013,0,1.98-0.314,2.801-0.91l1.693,1.695c0.114,0.114,0.256,0.169,0.431,0.169c0.176,0,0.316-0.055,0.424-0.164l0.011-0.01
	C26.867,26.198,26.867,25.825,26.651,25.585z M21.294,24.456c-1.967,0-3.567-1.601-3.567-3.567s1.601-3.567,3.567-3.567
	s3.567,1.601,3.567,3.567S23.261,24.456,21.294,24.456z"/>
<path fill="#5D5D5D" d="M16.545,8.737H9.274c-0.358,0-0.639,0.32-0.639,0.729c0,0.408,0.28,0.727,0.639,0.727h7.271
	c0.357,0,0.638-0.319,0.638-0.727C17.183,9.057,16.902,8.737,16.545,8.737z"/>
<path fill="#5D5D5D" d="M17.183,13.405c0-0.408-0.28-0.728-0.638-0.728H9.274c-0.358,0-0.639,0.32-0.639,0.728
	c0,0.408,0.28,0.728,0.639,0.728h7.271C16.902,14.133,17.183,13.813,17.183,13.405z"/>
<path fill="#5D5D5D" d="M14.66,24.563H6.142c-0.317,0-0.575-0.258-0.575-0.575V6.206c0-0.317,0.258-0.575,0.575-0.575h13.536
	c0.316,0,0.574,0.258,0.574,0.575v7.226c0,0.391,0.318,0.708,0.709,0.708c0.392,0,0.71-0.318,0.71-0.708V6.206
	c0-1.099-0.894-1.993-1.993-1.993H6.142c-1.1,0-1.994,0.894-1.994,1.993v17.781c0,1.1,0.895,1.993,1.994,1.993h8.519
	c0.391,0,0.709-0.318,0.709-0.709S15.051,24.563,14.66,24.563z"/>
<path fill="#5D5D5D" d="M12.958,23.072c-1.278,0-2.319-1.041-2.319-2.32c0-1.278,1.041-2.319,2.319-2.319
	c1.279,0,2.32,1.041,2.32,2.319C15.278,22.031,14.237,23.072,12.958,23.072z M12.958,19.733c-0.562,0-1.019,0.457-1.019,1.019
	c0,0.563,0.457,1.02,1.019,1.02c0.563,0,1.02-0.457,1.02-1.02C13.978,20.19,13.521,19.733,12.958,19.733z"/>
</svg>
