<?xml version="1.0" encoding="utf-8"?>
<!-- Generator: Adobe Illustrator 22.0.0, SVG Export Plug-In . SVG Version: 6.00 Build 0)  -->
<svg version="1.1" id="图层_1" xmlns="http://www.w3.org/2000/svg" xmlns:xlink="http://www.w3.org/1999/xlink" x="0px" y="0px"
	 width="18px" height="17px" viewBox="0 0 18 17" style="enable-background:new 0 0 18 17;" xml:space="preserve">
<g>
	<path d="M17.9,12.1c-0.5,0.1-1-0.2-1.3-0.7c-0.3-0.5-0.2-1.1,0.1-1.5c-0.4-0.4-0.9-0.7-1.5-0.9c-0.2,0.5-0.7,0.8-1.2,0.8
		c-0.6,0-1.1-0.3-1.2-0.8c-0.6,0.2-1.1,0.5-1.5,0.9c0.3,0.4,0.4,1,0.1,1.5c-0.3,0.5-0.8,0.7-1.3,0.7c-0.1,0.3-0.1,0.6-0.1,0.8
		c0,0.3,0,0.6,0.1,0.9c0.5-0.1,1,0.2,1.3,0.7c0.3,0.5,0.2,1,0,1.4c0.4,0.4,0.9,0.7,1.5,0.9c0.2-0.4,0.7-0.7,1.2-0.7
		c0.5,0,1,0.3,1.2,0.7c0.6-0.2,1.1-0.5,1.5-0.8c-0.3-0.4-0.3-0.9,0-1.4c0.3-0.5,0.8-0.7,1.3-0.7c0.1-0.3,0.1-0.6,0.1-0.9
		C17.9,12.7,17.9,12.4,17.9,12.1z M13.9,14.7c-1,0-1.8-0.8-1.8-1.8s0.8-1.8,1.8-1.8c1,0,1.8,0.8,1.8,1.8
		C15.7,13.9,14.9,14.7,13.9,14.7z"/>
	<path d="M6.1,11.3v-4h5.3h0.1h1.6h0.2h1.4h0.4v-1V2.4c0-1.2-1-2.2-2.2-2.2H2.2c-1.2,0-2.2,1-2.2,2.2V11c0,1.2,1,2.2,2.2,2.2h6.2
		c0-0.2,0-0.3,0-0.5c0-0.5,0.1-1,0.2-1.4H6.1z M2.1,2.2h11v3h-11V2.2z M4.1,11.3h-2v-4h2V11.3z"/>
</g>
</svg>
