<?xml version="1.0" encoding="utf-8"?>
<!-- Generator: Adobe Illustrator 16.0.0, SVG Export Plug-In . SVG Version: 6.00 Build 0)  -->
<!DOCTYPE svg PUBLIC "-//W3C//DTD SVG 1.1//EN" "http://www.w3.org/Graphics/SVG/1.1/DTD/svg11.dtd">
<svg version="1.1" id="图层_1" xmlns="http://www.w3.org/2000/svg" xmlns:xlink="http://www.w3.org/1999/xlink" x="0px" y="0px"
	 width="30px" height="30px" viewBox="0 0 30 30" enable-background="new 0 0 30 30" xml:space="preserve">
<g>
	<g>
		<path fill="#5D5D5D" d="M12.469,5.351H5.938c-0.71,0-1.288,0.577-1.288,1.287v6.534c0,0.709,0.578,1.287,1.288,1.287h6.531
			c0.71,0,1.289-0.578,1.289-1.287V6.638C13.757,5.928,13.179,5.351,12.469,5.351z M12.369,6.738v6.333H6.038V6.738H12.369z"/>
		<path fill="#5D5D5D" d="M12.469,14.508H5.938c-0.738,0-1.338-0.6-1.338-1.337V6.638c0-0.737,0.6-1.336,1.338-1.336h6.531
			c0.738,0,1.338,0.6,1.338,1.336v6.534C13.807,13.909,13.207,14.508,12.469,14.508z M5.938,5.401C5.255,5.401,4.7,5.956,4.7,6.638
			v6.534c0,0.682,0.556,1.237,1.238,1.237h6.531c0.683,0,1.239-0.555,1.239-1.237V6.638c0-0.682-0.556-1.237-1.239-1.237H5.938z
			 M12.418,13.121h-6.43V6.688h6.43V13.121z M6.088,13.021h6.231V6.788H6.088V13.021z"/>
	</g>
	<g>
		<path fill="#5D5D5D" d="M12.469,16.039H5.938c-0.71,0-1.288,0.577-1.288,1.285v6.536c0,0.709,0.578,1.286,1.288,1.286h6.531
			c0.71,0,1.289-0.577,1.289-1.286v-6.536C13.757,16.616,13.179,16.039,12.469,16.039z M12.369,17.425v6.335H6.038v-6.335H12.369z"
			/>
		<path fill="#5D5D5D" d="M12.469,25.196H5.938c-0.738,0-1.338-0.6-1.338-1.336v-6.536c0-0.736,0.6-1.335,1.338-1.335h6.531
			c0.738,0,1.338,0.599,1.338,1.335v6.536C13.807,24.597,13.207,25.196,12.469,25.196z M5.938,16.089
			c-0.683,0-1.238,0.555-1.238,1.235v6.536c0,0.682,0.556,1.236,1.238,1.236h6.531c0.683,0,1.239-0.555,1.239-1.236v-6.536
			c0-0.681-0.556-1.235-1.239-1.235H5.938z M12.418,23.81h-6.43v-6.435h6.43V23.81z M6.088,23.71h6.231v-6.235H6.088V23.71z"/>
	</g>
	<g>
		<path fill="#5D5D5D" d="M25.881,8.471l-4.568-4.566c-0.223-0.222-0.518-0.344-0.831-0.344s-0.609,0.123-0.831,0.344l-4.57,4.566
			c-0.222,0.222-0.344,0.518-0.344,0.832s0.123,0.609,0.344,0.832l4.57,4.566c0.222,0.222,0.518,0.345,0.831,0.345
			s0.608-0.123,0.831-0.345l4.568-4.566c0.222-0.222,0.344-0.517,0.344-0.832S26.103,8.693,25.881,8.471z M24.855,9.311
			l-4.365,4.365l-4.365-4.365l4.365-4.363L24.855,9.311z"/>
		<path fill="#5D5D5D" d="M20.481,15.095c-0.327,0-0.635-0.127-0.866-0.359l-4.57-4.566c-0.231-0.232-0.359-0.54-0.359-0.867
			s0.127-0.635,0.359-0.867l4.57-4.566c0.231-0.231,0.539-0.359,0.866-0.359c0.326,0,0.634,0.127,0.866,0.358l4.568,4.567
			c0.231,0.231,0.358,0.539,0.358,0.867s-0.127,0.635-0.358,0.867l-4.568,4.566C21.115,14.968,20.808,15.095,20.481,15.095z
			 M20.481,3.61c-0.301,0-0.583,0.117-0.796,0.33l-4.57,4.566c-0.212,0.213-0.33,0.496-0.33,0.796s0.117,0.583,0.33,0.796
			l4.57,4.566c0.213,0.213,0.495,0.33,0.796,0.33c0.3,0,0.582-0.117,0.796-0.33l4.568-4.566c0.212-0.213,0.329-0.496,0.329-0.796
			s-0.117-0.583-0.329-0.796L21.277,3.94C21.063,3.728,20.781,3.61,20.481,3.61z M20.49,13.746l-0.035-0.036l-4.4-4.4l4.436-4.434
			l0.035,0.036l4.4,4.398L20.49,13.746z M16.195,9.311l4.295,4.294l4.295-4.294L20.49,5.018L16.195,9.311z"/>
	</g>
	<g>
		<path fill="#5D5D5D" d="M23.164,16.039h-6.535c-0.709,0-1.291,0.577-1.291,1.285v6.536c0,0.709,0.581,1.286,1.291,1.286h6.535
			c0.709,0,1.287-0.577,1.287-1.286v-6.536C24.451,16.616,23.873,16.039,23.164,16.039z M23.063,17.425v6.335h-6.334v-6.335H23.063z
			"/>
		<path fill="#5D5D5D" d="M23.164,25.196h-6.535c-0.739,0-1.34-0.6-1.34-1.336v-6.536c0-0.736,0.601-1.335,1.34-1.335h6.535
			c0.737,0,1.337,0.599,1.337,1.335v6.536C24.501,24.597,23.901,25.196,23.164,25.196z M16.629,16.089
			c-0.684,0-1.241,0.555-1.241,1.235v6.536c0,0.682,0.557,1.236,1.241,1.236h6.535c0.683,0,1.237-0.555,1.237-1.236v-6.536
			c0-0.681-0.555-1.235-1.237-1.235H16.629z M23.113,23.81H16.68v-6.435h6.434V23.81z M16.779,23.71h6.234v-6.235h-6.234V23.71z"/>
	</g>
</g>
</svg>
