<?xml version="1.0" encoding="utf-8"?>
<!-- Generator: Adobe Illustrator 22.0.0, SVG Export Plug-In . SVG Version: 6.00 Build 0)  -->
<svg version="1.1" id="图层_1" xmlns="http://www.w3.org/2000/svg" xmlns:xlink="http://www.w3.org/1999/xlink" x="0px" y="0px"
	 width="18px" height="18px" viewBox="0 0 18 18" style="enable-background:new 0 0 18 18;" xml:space="preserve">
<style type="text/css">
	.st0{fill:#888888;}
</style>
<g>
	<path class="st0" d="M14.9,1H3C2.4,1,2,1.5,2,2v14c0,0.6,0.5,1,1,1h7l6-4.9V2C16,1.5,15.5,1,14.9,1L14.9,1z M9.8,11.3H4.3
		c-0.3,0-0.5-0.3-0.5-0.7C3.8,10.3,4,10,4.3,10h5.5c0.3,0,0.5,0.3,0.5,0.7C10.3,11,10.1,11.3,9.8,11.3L9.8,11.3z M13.7,8.1H4.3
		C4,8.1,3.8,7.8,3.8,7.4C3.8,7,4,6.7,4.3,6.7h9.4c0.3,0,0.5,0.3,0.5,0.7C14.2,7.8,13.9,8.1,13.7,8.1L13.7,8.1z M13.7,4.9H4.3
		C4,4.9,3.8,4.6,3.8,4.2c0-0.4,0.2-0.7,0.5-0.7h9.4c0.3,0,0.5,0.3,0.5,0.7C14.2,4.6,13.9,4.9,13.7,4.9L13.7,4.9z M13.7,4.9"/>
</g>
</svg>
