<?xml version="1.0" encoding="utf-8"?>
<!-- Generator: Adobe Illustrator 22.0.0, SVG Export Plug-In . SVG Version: 6.00 Build 0)  -->
<svg version="1.1" id="图层_1" xmlns="http://www.w3.org/2000/svg" xmlns:xlink="http://www.w3.org/1999/xlink" x="0px" y="0px"
	 width="18px" height="18px" viewBox="0 0 18 18" style="enable-background:new 0 0 18 18;" xml:space="preserve">
<style type="text/css">
	.st0{fill:#888888;}
</style>
<g>
	<g>
		<path class="st0" d="M17.8,7.3c-0.1-0.4-0.2-0.7-0.4-0.9C17.1,6.1,16.8,6,16.5,6h-0.1c-0.9,0-1.6-0.7-1.6-1.6
			c0-0.3,0.1-0.6,0.1-0.6c0.3-0.7,0.1-1.5-0.5-1.9l0,0c0,0,0,0-0.1,0l-2.1-1.2c0,0,0,0,0,0l0,0c-0.2-0.1-0.4-0.1-0.6-0.1
			c-0.4,0-0.9,0.2-1.2,0.5c-0.3,0.3-1,0.8-1.3,0.8C8.7,1.8,8,1.3,7.7,1C7.4,0.7,7,0.5,6.5,0.5c-0.2,0-0.4,0-0.6,0.1l0,0c0,0,0,0,0,0
			L3.6,1.9c0,0,0,0-0.1,0l0,0C3,2.3,2.7,3.1,3,3.8c0,0.1,0.1,0.4,0.1,0.6C3.2,5.3,2.4,6,1.5,6H1.5C0.8,6,0.3,6.5,0.2,7.3
			C0.2,7.4,0,8.3,0,9c0,0.7,0.2,1.7,0.2,1.8C0.3,11.5,0.8,12,1.5,12h0.1c0.9,0,1.6,0.7,1.6,1.6c0,0.2-0.1,0.5-0.1,0.6
			c-0.3,0.7-0.1,1.5,0.5,1.9l0,0c0,0,0,0,0,0l2.1,1.2c0,0,0,0,0,0l0,0c0.2,0.1,0.4,0.1,0.6,0.1c0.5,0,0.9-0.2,1.2-0.5
			c0.3-0.3,1-0.8,1.4-0.8c0.4,0,1,0.5,1.4,0.9c0.3,0.3,0.7,0.5,1.2,0.5c0.2,0,0.4,0,0.6-0.1l0,0c0,0,0,0,0,0l2.1-1.2c0,0,0,0,0,0
			l0,0c0.6-0.4,0.8-1.2,0.5-1.9c0-0.1-0.1-0.4-0.1-0.6c0-0.9,0.7-1.6,1.6-1.6h0.1c0.6,0,1.1-0.5,1.3-1.2c0,0,0.2-1,0.2-1.8
			C18,8.3,17.8,7.4,17.8,7.3L17.8,7.3z M9,12.5C7,12.5,5.5,10.9,5.5,9S7,5.5,9,5.5c1.9,0,3.5,1.6,3.5,3.5
			C12.4,10.9,10.9,12.5,9,12.5L9,12.5z M9,12.5"/>
	</g>
</g>
</svg>
