<?xml version="1.0" encoding="utf-8"?>
<!-- Generator: Adobe Illustrator 16.0.0, SVG Export Plug-In . SVG Version: 6.00 Build 0)  -->
<!DOCTYPE svg PUBLIC "-//W3C//DTD SVG 1.1//EN" "http://www.w3.org/Graphics/SVG/1.1/DTD/svg11.dtd">
<svg version="1.1" id="图层_1" xmlns="http://www.w3.org/2000/svg" xmlns:xlink="http://www.w3.org/1999/xlink" x="0px" y="0px"
	 width="14px" height="16px" viewBox="0 0 14 16" enable-background="new 0 0 14 16" xml:space="preserve">
<path fill="#5D5D5D" d="M13.35,11.454l-3.7-3.476h1.485c0.587,0,1.143-0.244,1.557-0.68l0.922-0.979
	c0.304-0.318,0.439-0.77,0.367-1.213l-0.364-2.319c-0.026-0.17-0.143-0.311-0.299-0.364c-0.157-0.053-0.327-0.009-0.44,0.113
	l-1.631,1.725h-0.702v-0.74l1.63-1.725c0.116-0.123,0.161-0.304,0.11-0.469c-0.051-0.166-0.184-0.287-0.346-0.314L9.749,0.625
	C9.326,0.553,8.899,0.696,8.6,1.015L7.676,1.993C7.263,2.427,7.031,3.018,7.031,3.635v1.813C6.92,5.553,6.81,5.656,6.701,5.758
	L3.854,3.099L3.454,2.253C3.419,2.181,3.368,2.12,3.307,2.074L1.993,1.148C1.816,1.027,1.588,1.05,1.441,1.207L0.565,2.132
	C0.418,2.287,0.394,2.531,0.511,2.716l0.875,1.388c0.043,0.067,0.101,0.123,0.169,0.158l0.799,0.423l2.413,2.891
	c-3.595,3.375-4.115,3.865-4.128,3.878C0.6,11.499,0.6,11.499,0.565,11.547c-0.348,0.379-0.566,0.948-0.566,1.552
	c0,0.923,0.516,1.757,1.314,2.129c0.798,0.37,1.728,0.206,2.368-0.418c0.03-0.021,0.057-0.047,0.079-0.076l0.063-0.077l0.031-0.035
	l3.14-3.744l3.143,3.748l0.031,0.035l0.053,0.064c0.039,0.044,0.08,0.084,0.125,0.119c0.363,0.357,0.891,0.578,1.446,0.578
	c0.88,0,1.675-0.553,2.019-1.406c0.347-0.856,0.177-1.847-0.428-2.521C13.39,11.499,13.39,11.499,13.35,11.454z M2.953,4.005
	L2.818,3.897L2.051,3.489l-0.611-0.97l0.364-0.39l0.918,0.649l0.387,0.814l0.101,0.141l2.833,2.646
	C5.825,6.581,5.618,6.776,5.418,6.961L2.953,4.005z M3.174,14.039l-0.052,0.063c-0.282,0.263-0.593,0.394-0.926,0.394
	c-0.729,0-1.32-0.625-1.32-1.398c0-0.362,0.133-0.705,0.385-0.988l6.502-6.107c0.093-0.088,0.146-0.213,0.146-0.346v-2.02
	c0-0.371,0.139-0.727,0.387-0.99l0.92-0.976c0.104-0.106,0.247-0.155,0.389-0.129l1.353,0.237L9.799,3.005
	C9.715,3.092,9.67,3.208,9.67,3.332v1.396c0,0.122,0.045,0.24,0.129,0.327c0.08,0.086,0.191,0.137,0.309,0.137h1.318
	c0.115,0,0.228-0.051,0.31-0.137l1.158-1.225l0.225,1.432c0.025,0.149-0.021,0.301-0.123,0.407l-0.923,0.978
	c-0.248,0.263-0.585,0.409-0.938,0.409H9.228c-0.122,0-0.241,0.057-0.326,0.155L8.612,7.559C8.6,7.569,8.589,7.582,8.577,7.594
	S8.557,7.619,8.551,7.631L3.174,14.039z M12.323,14.379c-0.479,0.223-1.037,0.124-1.421-0.251l-0.034-0.026l-0.05-0.059l-0.024-0.03
	l-3.215-3.831l1.364-1.627c2.029,1.907,3.799,3.568,3.787,3.556l-0.02-0.026c0.271,0.309,0.403,0.652,0.403,1.015
	C13.114,13.654,12.805,14.154,12.323,14.379z"/>
</svg>
