<?xml version="1.0" encoding="utf-8"?>
<!-- Generator: Adobe Illustrator 16.0.0, SVG Export Plug-In . SVG Version: 6.00 Build 0)  -->
<!DOCTYPE svg PUBLIC "-//W3C//DTD SVG 1.1//EN" "http://www.w3.org/Graphics/SVG/1.1/DTD/svg11.dtd">
<svg version="1.1" id="图层_1" xmlns="http://www.w3.org/2000/svg" xmlns:xlink="http://www.w3.org/1999/xlink" x="0px" y="0px"
	 width="30px" height="30px" viewBox="0 0 30 30" enable-background="new 0 0 30 30" xml:space="preserve">
<g>
	<path fill="#5D5D5D" d="M24.338,4.824H5.525c-1.196,0-2.17,0.974-2.17,2.171v11.574c0,1.195,0.974,2.17,2.17,2.17h8.796v2.186
		h-3.19c-0.438,0-0.792,0.354-0.792,0.791s0.354,0.792,0.792,0.792h7.743c0.438,0,0.793-0.354,0.793-0.792s-0.355-0.791-0.793-0.791
		h-3.106v-2.186h8.57c1.196,0,2.17-0.975,2.17-2.17V6.995C26.508,5.798,25.534,4.824,24.338,4.824z M25.061,18.568
		c0,0.398-0.325,0.723-0.723,0.723H5.525c-0.398,0-0.724-0.324-0.724-0.723V6.995c0-0.397,0.325-0.724,0.724-0.724h18.813
		c0.397,0,0.723,0.327,0.723,0.724V18.568z"/>
	<path fill="#5D5D5D" d="M17.772,10.938c-0.283-0.283-0.742-0.283-1.023,0l-3.876,3.875l-3.987-3.987
		c-0.283-0.275-0.736-0.271-1.015,0.009c-0.279,0.278-0.282,0.73-0.007,1.014l4.497,4.497c0.136,0.135,0.321,0.211,0.512,0.211
		c0.193,0.001,0.377-0.075,0.513-0.211l3.874-3.873l3.797,3.796c0.285,0.272,0.735,0.269,1.015-0.009
		c0.278-0.278,0.283-0.729,0.009-1.014L17.772,10.938z"/>
</g>
</svg>
