<?xml version="1.0" encoding="utf-8"?>
<!-- Generator: Adobe Illustrator 22.0.0, SVG Export Plug-In . SVG Version: 6.00 Build 0)  -->
<svg version="1.1" id="图层_1" xmlns="http://www.w3.org/2000/svg" xmlns:xlink="http://www.w3.org/1999/xlink" x="0px" y="0px"
	 width="18px" height="18px" viewBox="0 0 18 18" style="enable-background:new 0 0 18 18;" xml:space="preserve">
<style type="text/css">
	.st0{fill:#888888;}
</style>
<g>
	<g>
		<path class="st0" d="M1.5,15.7c0-2.9,1.6-5.6,4.1-6.7c1,0.5,2.1,1.1,3.4,1.1c1.2,0,2.4-0.5,3.4-1.1c2.5,1.1,4.1,3.7,4.1,6.6
			C16.5,18.8,1.5,18.8,1.5,15.7L1.5,15.7z M9,9C7.4,9,5.9,8.2,5,6.8C4.2,5.4,4.2,3.6,5,2.2C5.9,0.8,7.4,0,9,0c1.6,0,3.1,0.8,4,2.2
			c0.8,1.4,0.8,3.1,0,4.5C12.1,8.2,10.6,9,9,9L9,9z M9,8.9"/>
	</g>
</g>
</svg>
