<?xml version="1.0" encoding="utf-8"?>
<!-- Generator: Adobe Illustrator 16.0.0, SVG Export Plug-In . SVG Version: 6.00 Build 0)  -->
<!DOCTYPE svg PUBLIC "-//W3C//DTD SVG 1.1//EN" "http://www.w3.org/Graphics/SVG/1.1/DTD/svg11.dtd">
<svg version="1.1" id="图层_1" xmlns="http://www.w3.org/2000/svg" xmlns:xlink="http://www.w3.org/1999/xlink" x="0px" y="0px"
	 width="14px" height="16px" viewBox="0 0 14 16" enable-background="new 0 0 14 16" xml:space="preserve">
<g>
	<g>
		<g>
			<path fill="#5D5D5D" d="M14.02,14.371c0.033,0.059,0.055,0.125,0.055,0.197c0,0.24-0.199,0.436-0.444,0.436
				c-0.246,0-0.445-0.195-0.445-0.436h-0.012c-0.61-2.742-3.096-4.793-6.073-4.793s-5.464,2.051-6.074,4.793H1.014
				c0,0.24-0.199,0.436-0.444,0.436s-0.444-0.195-0.444-0.436c0-0.072,0.021-0.139,0.055-0.197c0.55-2.443,2.387-4.412,4.794-5.146
				C3.599,8.478,2.656,7.057,2.656,5.41c0-2.408,1.989-4.359,4.443-4.359c2.453,0,4.443,1.951,4.443,4.359
				c0,1.647-0.942,3.067-2.317,3.814C11.634,9.959,13.469,11.928,14.02,14.371L14.02,14.371z M10.654,5.41
				c0-1.926-1.592-3.487-3.555-3.487c-1.964,0-3.555,1.561-3.555,3.487c0,1.926,1.591,3.495,3.555,3.495
				C9.063,8.905,10.654,7.336,10.654,5.41L10.654,5.41z M10.654,5.41"/>
			<path fill="#5D5D5D" d="M13.63,15.154c-0.304,0-0.555-0.226-0.591-0.515l-0.013-0.039C12.424,11.892,9.931,9.926,7.1,9.926
				c-2.832,0-5.325,1.966-5.928,4.675l-0.028,0.118c-0.067,0.25-0.299,0.436-0.574,0.436c-0.328,0-0.595-0.263-0.595-0.586
				c0-0.086,0.021-0.17,0.063-0.251c0.542-2.375,2.278-4.313,4.575-5.132C3.306,8.351,2.506,6.932,2.506,5.41
				c0-2.486,2.061-4.509,4.594-4.509s4.594,2.023,4.594,4.509c0,1.522-0.8,2.94-2.107,3.775c2.296,0.818,4.032,2.757,4.575,5.132
				c0.042,0.081,0.063,0.165,0.063,0.251C14.225,14.892,13.958,15.154,13.63,15.154z M13.292,14.418h0.031l0.012,0.15
				c0,0.157,0.132,0.285,0.295,0.285c0.162,0,0.294-0.128,0.294-0.285c0-0.041-0.012-0.082-0.035-0.123l-0.016-0.041
				c-0.538-2.389-2.336-4.318-4.691-5.036L8.84,9.264l0.314-0.171c1.381-0.75,2.238-2.162,2.238-3.683
				c0-2.321-1.926-4.209-4.293-4.209S2.807,3.089,2.807,5.41c0,1.521,0.857,2.932,2.238,3.683l0.314,0.171L5.018,9.368
				c-2.356,0.719-4.154,2.648-4.691,5.036l-0.016,0.041c-0.023,0.041-0.035,0.082-0.035,0.123c0,0.157,0.132,0.285,0.294,0.285
				s0.294-0.128,0.294-0.285v-0.15h0.043C1.585,11.634,4.169,9.625,7.1,9.625C10.029,9.625,12.613,11.634,13.292,14.418z M7.1,9.055
				c-2.043,0-3.705-1.635-3.705-3.645c0-2.005,1.662-3.637,3.705-3.637s3.705,1.632,3.705,3.637C10.805,7.42,9.143,9.055,7.1,9.055z
				 M7.1,2.073c-1.877,0-3.404,1.497-3.404,3.337c0,1.844,1.527,3.345,3.404,3.345s3.404-1.5,3.404-3.345
				C10.504,3.57,8.977,2.073,7.1,2.073z"/>
		</g>
	</g>
</g>
</svg>
