<?xml version="1.0" encoding="utf-8"?>
<!-- Generator: Adobe Illustrator 22.0.0, SVG Export Plug-In . SVG Version: 6.00 Build 0)  -->
<svg version="1.1" id="图层_1" xmlns="http://www.w3.org/2000/svg" xmlns:xlink="http://www.w3.org/1999/xlink" x="0px" y="0px"
	 width="20px" height="20px" viewBox="0 0 20 20" enable-background="new 0 0 20 20" xml:space="preserve">
<path fill="#231815" d="M13.38,7.397l-1.335-1.682L10.462,3.72c-0.233-0.293-0.692-0.293-0.924,0L7.955,5.715L6.62,7.397
	C6.329,7.765,6.601,8.293,7.082,8.293H8.26c-0.026,0.084-0.055,0.168-0.055,0.26v7.011c0,0.517,0.437,0.937,0.976,0.937h1.637
	c0.539,0,0.976-0.419,0.976-0.937V8.553c0-0.092-0.029-0.176-0.055-0.26h1.178C13.399,8.293,13.671,7.765,13.38,7.397z"/>
</svg>
