<?xml version="1.0" encoding="utf-8"?>
<!-- Generator: Adobe Illustrator 16.0.0, SVG Export Plug-In . SVG Version: 6.00 Build 0)  -->
<!DOCTYPE svg PUBLIC "-//W3C//DTD SVG 1.1//EN" "http://www.w3.org/Graphics/SVG/1.1/DTD/svg11.dtd">
<svg version="1.1" id="图层_1" xmlns="http://www.w3.org/2000/svg" xmlns:xlink="http://www.w3.org/1999/xlink" x="0px" y="0px"
	 width="19.999px" height="20px" viewBox="0 0 19.999 20" enable-background="new 0 0 19.999 20" xml:space="preserve">
<path fill="#5D5D5D" d="M18.958,11.921l-3.044-7.325L15.899,4.56l-0.023-0.033c-0.385-0.992-1.347-1.655-2.406-1.655
	c-1.386,0-2.538,1.114-2.592,2.494H9.413c-0.054-1.38-1.206-2.494-2.592-2.494c-1.057,0-2.019,0.662-2.406,1.652L4.408,4.522
	l-3.074,7.394c-0.286,0.592-0.431,1.218-0.431,1.858c0,2.347,1.909,4.256,4.257,4.256c1.982,0,3.722-1.396,4.152-3.325h1.666
	c0.432,1.93,2.172,3.325,4.153,3.325c2.347,0,4.256-1.909,4.256-4.256C19.388,13.132,19.243,12.507,18.958,11.921z M13.47,3.903
	c0.601,0,1.153,0.352,1.408,0.893l2.146,5.171c-0.588-0.293-1.239-0.446-1.893-0.446c-1.247,0-2.415,0.539-3.226,1.485l-0.001-5.589
	h0.009l0.008-0.088C11.994,4.517,12.659,3.903,13.47,3.903z M15.132,17c-1.778,0-3.226-1.447-3.226-3.226s1.447-3.226,3.226-3.226
	c1.779,0,3.227,1.447,3.227,3.226S16.911,17,15.132,17z M10.877,13.043v0.632H9.414v-0.632H10.877z M10.877,6.396v5.617H9.414V6.396
	H10.877z M6.821,3.903c0.81,0,1.475,0.613,1.548,1.426l0.008,0.088h0.009l-0.001,5.589C7.574,10.06,6.406,9.521,5.16,9.521
	c-0.654,0-1.306,0.153-1.893,0.446l2.137-5.149C5.656,4.263,6.213,3.903,6.821,3.903z M5.16,17c-1.778,0-3.226-1.447-3.226-3.226
	s1.447-3.226,3.226-3.226c1.776,0,3.222,1.447,3.222,3.226S6.937,17,5.16,17z"/>
</svg>
