<?xml version="1.0" encoding="utf-8"?>
<!-- Generator: Adobe Illustrator 16.0.0, SVG Export Plug-In . SVG Version: 6.00 Build 0)  -->
<!DOCTYPE svg PUBLIC "-//W3C//DTD SVG 1.1//EN" "http://www.w3.org/Graphics/SVG/1.1/DTD/svg11.dtd">
<svg version="1.1" id="图层_1" xmlns="http://www.w3.org/2000/svg" xmlns:xlink="http://www.w3.org/1999/xlink" x="0px" y="0px"
	 width="20px" height="20px" viewBox="0 0 20 20" enable-background="new 0 0 20 20" xml:space="preserve">
<g>
	<path fill="#5D5D5D" d="M19.045,11.142l-0.001-0.208c-0.026-0.723-0.277-1.429-0.704-1.986c-0.508-0.678-1.287-1.158-2.121-1.317
		c-0.008-1.207-0.459-2.39-1.254-3.276c-0.462-0.525-1.045-0.957-1.686-1.247c-0.801-0.366-1.723-0.511-2.625-0.416
		C9.64,2.802,8.659,3.24,7.893,3.924C7.481,4.291,7.138,4.716,6.868,5.19C6.404,4.955,5.86,4.85,5.366,4.891
		c-0.662,0.051-1.309,0.354-1.774,0.83C3.17,6.146,2.898,6.705,2.816,7.31C1.995,7.651,1.306,8.292,0.907,9.087
		c-0.235,0.469-0.373,1.009-0.398,1.575L0.51,10.88c0.028,0.658,0.216,1.289,0.541,1.822c0.5,0.837,1.324,1.454,2.258,1.692
		c0.309,0.084,0.645,0.125,1.024,0.125l0.715,0.002c0.114-0.002,0.382-0.006,0.548-0.188c0.24-0.223,0.256-0.617,0.048-0.848
		c-0.121-0.155-0.313-0.237-0.566-0.237l-0.821-0.002c-0.646,0-1.275-0.257-1.729-0.708c-0.448-0.434-0.718-1.04-0.742-1.667
		c-0.021-0.433,0.081-0.884,0.291-1.271c0.287-0.54,0.782-0.966,1.422-1.19C3.641,8.363,3.837,8.299,3.95,8.119
		c0.116-0.164,0.117-0.342,0.118-0.471c0-0.041-0.001-0.083,0.008-0.143c0.057-0.622,0.561-1.188,1.18-1.318
		C5.719,6.083,6.248,6.215,6.6,6.535c0.094,0.083,0.268,0.236,0.549,0.236c0.002,0,0.004,0,0.006,0
		c0.265-0.011,0.502-0.205,0.585-0.468c0.394-1.02,1.243-1.834,2.274-2.179c0.811-0.277,1.737-0.258,2.549,0.055
		c0.744,0.287,1.389,0.819,1.814,1.499c0.443,0.703,0.639,1.543,0.547,2.375c-0.008,0.104-0.029,0.378,0.15,0.559
		c0.181,0.216,0.446,0.227,0.629,0.233c0.752,0.032,1.465,0.491,1.818,1.173c0.28,0.526,0.33,1.18,0.131,1.748
		c-0.15,0.438-0.448,0.828-0.841,1.098c-0.358,0.247-0.799,0.383-1.241,0.383l-0.196,0.003l-0.29-0.001
		c-0.089,0.003-0.359,0.01-0.521,0.196c-0.117,0.116-0.183,0.281-0.18,0.452c0.003,0.168,0.072,0.327,0.18,0.426
		c0.087,0.09,0.249,0.198,0.527,0.198h0.001l0.014-0.002l0.973,0.001l-0.462-0.001c0.979-0.011,1.945-0.462,2.583-1.204
		C18.718,12.722,19.018,11.952,19.045,11.142z"/>
	<path fill="#5D5D5D" d="M13.434,11.434c-0.174,0-0.414,0.078-0.581,0.479l-0.926,3.03l-1.051-2.973
		c-0.177-0.444-0.477-0.538-0.698-0.538h-0.074c-0.218,0-0.515,0.088-0.698,0.523l-1.02,2.991l-0.918-3.042
		c-0.089-0.42-0.42-0.471-0.605-0.471c-0.255,0.012-0.402,0.092-0.475,0.171c-0.112,0.121-0.142,0.288-0.087,0.507l1.301,4.242
		c0.181,0.513,0.518,0.62,0.803,0.622c0.236,0,0.561-0.107,0.767-0.625l0.975-2.889l1.002,2.896c0.194,0.513,0.509,0.62,0.736,0.62
		c0.035,0,0.07-0.002,0.097-0.003c0.239,0,0.563-0.108,0.737-0.63l1.296-4.208c0.067-0.214,0.046-0.387-0.067-0.517
		C13.838,11.496,13.665,11.434,13.434,11.434z M11.884,16.739V16.73h0.001L11.884,16.739z"/>
</g>
</svg>
