<?xml version="1.0" encoding="utf-8"?>
<!-- Generator: Adobe Illustrator 16.0.0, SVG Export Plug-In . SVG Version: 6.00 Build 0)  -->
<!DOCTYPE svg PUBLIC "-//W3C//DTD SVG 1.1//EN" "http://www.w3.org/Graphics/SVG/1.1/DTD/svg11.dtd">
<svg version="1.1" id="图层_1" xmlns="http://www.w3.org/2000/svg" xmlns:xlink="http://www.w3.org/1999/xlink" x="0px" y="0px"
	 width="19.999px" height="20px" viewBox="0 0 19.999 20" enable-background="new 0 0 19.999 20" xml:space="preserve">
<g>
	<path fill="#5D5D5D" d="M19.459,12.344c0-2.549-2.273-4.789-5.189-5.127c-0.661-2.728-3.62-4.776-6.917-4.776
		c-3.808,0-6.904,2.678-6.904,5.973c0.056,1.784,0.955,3.454,2.411,4.482l-0.49,1.471c-0.06,0.179-0.028,0.381,0.084,0.541
		c0.162,0.22,0.511,0.305,0.755,0.183l2.02-1.011l0.145,0.03c0.652,0.156,1.318,0.242,1.981,0.256c0.214,0,0.431-0.009,0.646-0.026
		c0.005-0.001,0.01-0.001,0.016-0.002c1,1.939,3.043,3.188,5.225,3.188c0.094,0,0.187-0.002,0.278-0.006
		c0.603-0.022,1.208-0.115,1.8-0.273l1.522,0.831c0.087,0.047,0.186,0.071,0.284,0.071c0.136,0,0.271-0.047,0.381-0.134
		c0.188-0.155,0.265-0.404,0.195-0.636l-0.352-1.172C18.581,15.295,19.349,13.894,19.459,12.344z M16.079,16.146l0.052,0.175
		l-0.444-0.244c-0.088-0.048-0.188-0.073-0.289-0.073c-0.064,0-0.118,0.008-0.161,0.022c-0.569,0.168-1.152,0.267-1.729,0.292
		c-2.628,0-4.766-1.783-4.766-3.975s2.138-3.975,4.766-3.975c2.576,0,4.754,1.812,4.755,3.947c-0.117,1.293-0.851,2.479-1.967,3.178
		C16.093,15.646,16.007,15.907,16.079,16.146z M7.636,13.159c-0.098,0.005-0.188,0.007-0.273,0.007
		c-0.584-0.015-1.167-0.093-1.739-0.233l-0.353-0.068c-0.129-0.028-0.286-0.012-0.393,0.047l-0.912,0.458l0.173-0.522
		c0.086-0.257-0.009-0.527-0.247-0.694c-1.35-0.791-2.188-2.193-2.244-3.749c0-2.627,2.56-4.764,5.706-4.764
		c2.623,0,4.979,1.486,5.66,3.552C9.936,7.41,7.543,9.658,7.543,12.362C7.56,12.632,7.591,12.899,7.636,13.159z"/>
	<ellipse fill="#5D5D5D" cx="5.228" cy="6.522" rx="0.965" ry="0.873"/>
	<ellipse fill="#5D5D5D" cx="9.637" cy="6.523" rx="0.964" ry="0.874"/>
	<path fill="#5D5D5D" d="M12.331,10.163c-0.293-0.145-0.686-0.145-0.979,0c-0.325,0.158-0.527,0.462-0.527,0.792
		s0.202,0.635,0.528,0.795c0.149,0.073,0.318,0.111,0.489,0.111c0.17,0,0.339-0.038,0.488-0.111
		c0.325-0.159,0.527-0.464,0.527-0.795C12.858,10.623,12.656,10.319,12.331,10.163z"/>
	<path fill="#5D5D5D" d="M15.806,10.163c-0.292-0.144-0.684-0.146-0.979,0c-0.324,0.158-0.525,0.462-0.525,0.792
		s0.201,0.635,0.525,0.795c0.15,0.073,0.32,0.111,0.49,0.111c0.172,0,0.341-0.038,0.489-0.111c0.324-0.159,0.525-0.464,0.525-0.795
		C16.331,10.623,16.13,10.319,15.806,10.163z"/>
</g>
</svg>
